<svg width="48" height="48" viewBox="0 0 48 48" fill="none" xmlns="http://www.w3.org/2000/svg">
<path fill-rule="evenodd" clip-rule="evenodd" d="M12 10H36V12H12V10ZM10 10V12H9C7.89543 12 7 12.8954 7 14V16H6C4.89543 16 4 16.8954 4 18V38C4 39.1046 4.89543 40 6 40H42C43.1046 40 44 39.1046 44 38V18C44 16.8954 43.1046 16 42 16H41V14C41 12.8954 40.1046 12 39 12H38V10C38 8.89543 37.1046 8 36 8H12C10.8954 8 10 8.89543 10 10ZM39 14V16H9V14H39ZM6 38V18H42V38H6Z" fill="#1E2B3C"/>
<path d="M36 24C36.5523 24 37 24.4477 37 25C37 25.5523 36.5523 26 36 26L28 26C27.4477 26 27 25.5523 27 25C27 24.4477 27.4477 24 28 24L36 24Z" fill="#1E2B3C"/>
<path d="M36 28C36.5523 28 37 28.4477 37 29C37 29.5523 36.5523 30 36 30L28 30C27.4477 30 27 29.5523 27 29C27 28.4477 27.4477 28 28 28L36 28Z" fill="#1E2B3C"/>
<path fill-rule="evenodd" clip-rule="evenodd" d="M14.0548 28.7066C13.3999 27.9943 13 27.0439 13 26C13 23.7909 14.7909 22 17 22C19.2091 22 21 23.7909 21 26C21 27.0439 20.6001 27.9943 19.9452 28.7066C21.7427 29.6311 23 31.385 23 33.5C23 34.0523 22.5523 34.5 22 34.5C21.4477 34.5 21 34.0523 21 33.5C21 31.6508 19.3131 30 17 30C14.6869 30 13 31.6508 13 33.5C13 34.0523 12.5523 34.5 12 34.5C11.4477 34.5 11 34.0523 11 33.5C11 31.385 12.2573 29.6311 14.0548 28.7066ZM17 28C15.8954 28 15 27.1046 15 26C15 24.8954 15.8954 24 17 24C18.1046 24 19 24.8954 19 26C19 27.1046 18.1046 28 17 28Z" fill="#1E2B3C"/>
</svg>
