<svg width="48" height="48" viewBox="0 0 48 48" fill="none" xmlns="http://www.w3.org/2000/svg">
<path d="M14.9688 7C14.9688 6.44772 14.521 6 13.9688 6C13.4165 6 12.9688 6.44772 12.9688 7V11.6172L8.37109 7.01953C7.98057 6.62901 7.34756 6.62901 6.95703 7.01953C6.56651 7.41006 6.56651 8.04307 6.95703 8.43359L11.5547 13.0312H7C6.44772 13.0312 6 13.479 6 14.0312C6 14.5835 6.44772 15.0312 7 15.0312H14.9688V7Z" fill="#1E2B3C"/>
<path d="M22 20C22 20.5523 22.4477 21 23 21C23.5523 21 24 20.5523 24 20V8H40V40H36C35.4477 40 35 40.4477 35 41C35 41.5523 35.4477 42 36 42H40.5C41.3284 42 42 41.3284 42 40.5V7.5C42 6.67157 41.3284 6 40.5 6H23.5C22.6716 6 22 6.67157 22 7.5V20Z" fill="#1E2B3C"/>
<path d="M31 40H13V25H31V40ZM11 40.5C11 41.3284 11.6716 42 12.5 42H31.5C32.3284 42 33 41.3284 33 40.5V24.5C33 23.6716 32.3284 23 31.5 23H12.5C11.6716 23 11 23.6716 11 24.5V40.5Z" fill="#1E2B3C"/>
<path d="M37 12C37 11.4477 36.5523 11 36 11C35.4477 11 35 11.4477 35 12C35 12.5523 35.4477 13 36 13C36.5523 13 37 12.5523 37 12Z" fill="#1E2B3C"/>
<path d="M37 16C37 15.4477 36.5523 15 36 15C35.4477 15 35 15.4477 35 16C35 16.5523 35.4477 17 36 17C36.5523 17 37 16.5523 37 16Z" fill="#1E2B3C"/>
<path d="M37 20C37 19.4477 36.5523 19 36 19C35.4477 19 35 19.4477 35 20C35 20.5523 35.4477 21 36 21C36.5523 21 37 20.5523 37 20Z" fill="#1E2B3C"/>
<path d="M33 12C33 11.4477 32.5523 11 32 11C31.4477 11 31 11.4477 31 12C31 12.5523 31.4477 13 32 13C32.5523 13 33 12.5523 33 12Z" fill="#1E2B3C"/>
<path d="M33 16C33 15.4477 32.5523 15 32 15C31.4477 15 31 15.4477 31 16C31 16.5523 31.4477 17 32 17C32.5523 17 33 16.5523 33 16Z" fill="#1E2B3C"/>
<path d="M33 20C33 19.4477 32.5523 19 32 19C31.4477 19 31 19.4477 31 20C31 20.5523 31.4477 21 32 21C32.5523 21 33 20.5523 33 20Z" fill="#1E2B3C"/>
<path d="M29 12C29 11.4477 28.5523 11 28 11C27.4477 11 27 11.4477 27 12C27 12.5523 27.4477 13 28 13C28.5523 13 29 12.5523 29 12Z" fill="#1E2B3C"/>
<path d="M29 16C29 15.4477 28.5523 15 28 15C27.4477 15 27 15.4477 27 16C27 16.5523 27.4477 17 28 17C28.5523 17 29 16.5523 29 16Z" fill="#1E2B3C"/>
<path d="M29 20C29 19.4477 28.5523 19 28 19C27.4477 19 27 19.4477 27 20C27 20.5523 27.4477 21 28 21C28.5523 21 29 20.5523 29 20Z" fill="#1E2B3C"/>
<path d="M28 30C28 29.4477 27.5523 29 27 29C26.4477 29 26 29.4477 26 30V33H28V30Z" fill="#1E2B3C"/>
<path d="M22.9836 30C22.9836 29.4477 22.5359 29 21.9836 29C21.4314 29 20.9836 29.4477 20.9836 30V33H22.9836V30Z" fill="#1E2B3C"/>
<path d="M17.9836 30C17.9836 29.4477 17.5359 29 16.9836 29C16.4314 29 15.9836 29.4477 15.9836 30V33H17.9836V30Z" fill="#1E2B3C"/>
</svg>
