<svg width="48" height="48" viewBox="0 0 48 48" fill="none" xmlns="http://www.w3.org/2000/svg">
<path d="M13.8982 35.7198C13.8982 36.2721 13.4505 36.7198 12.8982 36.7198C12.3459 36.7198 11.8982 36.2721 11.8982 35.7198C11.8982 35.1675 12.3459 34.7198 12.8982 34.7198C13.4505 34.7198 13.8982 35.1675 13.8982 35.7198Z" fill="#1E2B3C"/>
<path d="M19.8982 21.7198C19.8982 22.2721 19.4505 22.7198 18.8982 22.7198C18.3459 22.7198 17.8982 22.2721 17.8982 21.7198C17.8982 21.1675 18.3459 20.7198 18.8982 20.7198C19.4505 20.7198 19.8982 21.1675 19.8982 21.7198Z" fill="#1E2B3C"/>
<path d="M34.8982 32.7198C34.8982 33.2721 34.4505 33.7198 33.8982 33.7198C33.3459 33.7198 32.8982 33.2721 32.8982 32.7198C32.8982 32.1675 33.3459 31.7198 33.8982 31.7198C34.4505 31.7198 34.8982 32.1675 34.8982 32.7198Z" fill="#1E2B3C"/>
<path fill-rule="evenodd" clip-rule="evenodd" d="M24.8982 13.7198V12.4581L29.4431 11.0596C30.7584 10.6549 30.8801 8.84139 29.6306 8.26471L25.0271 6.13971L24.8386 6.06744C23.8951 5.77347 22.8983 6.47498 22.8982 7.50104V13.7198H21.3982C20.5698 13.7198 19.8982 14.3914 19.8982 15.2198V16.7198H17.8982V15.2198C17.8982 14.3914 17.2266 13.7198 16.3982 13.7198H13.8289C13.1326 13.7198 12.5344 14.1974 12.3718 14.8624L12.3455 14.9971L11.0367 23.7198H10.3132C9.63661 23.7198 9.05026 24.1716 8.86987 24.8126L8.83862 24.9434L6.02612 39.9434C5.85311 40.8665 6.56156 41.7198 7.50073 41.7198H19.8982H27.8982H40.2957C41.2348 41.7198 41.9433 40.8665 41.7703 39.9434L38.9578 24.9434L38.9265 24.8126C38.7461 24.1716 38.1598 23.7198 37.4832 23.7198H36.7597L35.4509 14.9971C35.3407 14.2629 34.71 13.7198 33.9675 13.7198H31.3982C30.5698 13.7198 29.8982 14.3914 29.8982 15.2198V16.7198H27.8982V15.2198C27.8982 14.3914 27.2266 13.7198 26.3982 13.7198H24.8982ZM24.8982 10.3653L27.6062 9.53229L24.8982 8.28229V10.3653ZM25.8982 15.7198H24.8982H22.8982H21.8982V17.2198C21.8982 18.0482 21.2266 18.7198 20.3982 18.7198H17.3982C16.5698 18.7198 15.8982 18.0482 15.8982 17.2198V15.7198H14.2595L13.0597 23.7198H15.3982C16.2266 23.7198 16.8982 24.3914 16.8982 25.2198V27.2198H19.8982V25.2198C19.8982 24.3914 20.5698 23.7198 21.3982 23.7198H26.3982C27.2266 23.7198 27.8982 24.3914 27.8982 25.2198V27.2198H30.8982V25.2198C30.8982 24.3914 31.5698 23.7198 32.3982 23.7198H34.7367L33.5369 15.7198H31.8982V17.2198C31.8982 18.0482 31.2266 18.7198 30.3982 18.7198H27.3982C26.5698 18.7198 25.8982 18.0482 25.8982 17.2198V15.7198ZM19.8982 39.7198H8.10327L10.7283 25.7198H14.8982V27.7198C14.8982 28.5482 15.5698 29.2198 16.3982 29.2198H20.3982C21.2266 29.2198 21.8982 28.5482 21.8982 27.7198V25.7198H25.8982V27.7198C25.8982 28.5482 26.5698 29.2198 27.3982 29.2198H31.3982C32.2266 29.2198 32.8982 28.5482 32.8982 27.7198V25.7198H37.0681L39.6931 39.7198H27.8982V35.7198C27.8982 33.5106 26.1073 31.7198 23.8982 31.7198C21.6891 31.7198 19.8982 33.5106 19.8982 35.7198V39.7198ZM25.8982 35.7198V39.7198H21.8982V35.7198C21.8982 34.6152 22.7936 33.7198 23.8982 33.7198C25.0028 33.7198 25.8982 34.6152 25.8982 35.7198Z" fill="#1E2B3C"/>
</svg>
