<svg width="48" height="48" viewBox="0 0 48 48" fill="none" xmlns="http://www.w3.org/2000/svg">
<path fill-rule="evenodd" clip-rule="evenodd" d="M44 12C44 9.79086 42.2091 8 40 8H8C5.79086 8 4 9.79086 4 12V36C4 38.2091 5.79086 40 8 40H40C42.2091 40 44 38.2091 44 36V12ZM42 17V18.5351C41.4117 18.1948 40.7286 18 40 18H31C29.853 18 28.9011 18.5263 28.1455 19.124C27.4969 19.6372 26.906 20.2766 26.4104 20.8128C26.3365 20.8927 26.2648 20.9704 26.1953 21.0449C25.6463 21.6339 24.8666 22 24 22C23.1334 22 22.3537 21.6339 21.8047 21.0449C21.7353 20.9705 21.6637 20.893 21.59 20.8133C21.0944 20.2771 20.5031 19.6372 19.8545 19.124C19.0989 18.5263 18.147 18 17 18H8C7.27143 18 6.58835 18.1948 6 18.5351V17C6 15.8954 6.89543 15 8 15H40C41.1046 15 42 15.8954 42 17ZM42 13.5351C41.4117 13.1948 40.7286 13 40 13H8C7.27143 13 6.58835 13.1948 6 13.5351V12C6 10.8954 6.89543 10 8 10H40C41.1046 10 42 10.8954 42 12V13.5351ZM8 20C6.89543 20 6 20.8954 6 22V36C6 37.1046 6.89543 38 8 38H40C41.1046 38 42 37.1046 42 36V22C42 20.8954 41.1046 20 40 20H31C30.4904 20 29.97 20.2311 29.3857 20.6934C28.8676 21.1034 28.3912 21.6176 27.8843 22.1646C27.8097 22.2452 27.7344 22.3264 27.6582 22.4082C26.7468 23.3862 25.4443 24 24 24C22.5557 24 21.2532 23.3862 20.3418 22.4082C20.2656 22.3264 20.1903 22.2451 20.1156 22.1646C19.6088 21.6175 19.1324 21.1034 18.6143 20.6934C18.03 20.2311 17.5096 20 17 20H8Z" fill="#1E2B3C"/>
<path d="M19 29.5C19 27.0147 16.9853 25 14.5 25C12.0147 25 10 27.0147 10 29.5C10 31.9853 12.0147 34 14.5 34C16.9853 34 19 31.9853 19 29.5ZM21 29.5C21 33.0899 18.0899 36 14.5 36C10.9101 36 8 33.0899 8 29.5C8 25.9101 10.9101 23 14.5 23C18.0899 23 21 25.9101 21 29.5Z" fill="#1E2B3C"/>
<path d="M15.7314 27.3594C16.085 26.9352 16.7164 26.8779 17.1406 27.2314C17.5648 27.585 17.6221 28.2164 17.2686 28.6406L14.0674 32.4814L11.793 30.207C11.4024 29.8165 11.4024 29.1835 11.793 28.793C12.1835 28.4024 12.8165 28.4024 13.207 28.793L13.9316 29.5176L15.7314 27.3594Z" fill="#1E2B3C"/>
</svg>
