<svg width="48" height="48" viewBox="0 0 48 48" fill="none" xmlns="http://www.w3.org/2000/svg">
<path d="M40 14.4933C40 13.3888 39.1046 12.4933 38 12.4933H31C30.4477 12.4933 30 12.9411 30 13.4933C30 14.0456 30.4477 14.4933 31 14.4933H38V32.4933H28.4385C27.2457 32.4934 26.0712 32.7601 25 33.27V31.4933C25 30.9411 24.5523 30.4933 24 30.4933C23.4477 30.4933 23 30.9411 23 31.4933V33.27C21.9288 32.7601 20.7543 32.4934 19.5615 32.4933H10V14.4933H17C17.5523 14.4933 18 14.0456 18 13.4933C18 12.9411 17.5523 12.4933 17 12.4933H10C8.89543 12.4933 8 13.3888 8 14.4933H6C4.89543 14.4933 4 15.3888 4 16.4933V36.4933C4 37.5979 4.89543 38.4933 6 38.4933H19.5938C22.0739 40.8052 25.9261 40.8052 28.4062 38.4933H42C43.1046 38.4933 44 37.5979 44 36.4933V16.4933C44 15.3888 43.1046 14.4933 42 14.4933H40ZM40 16.4933H42V36.4933H28.1885C27.8508 36.4934 27.5256 36.6113 27.2666 36.8234L27.1592 36.9201C25.4687 38.6102 22.7607 38.6631 21.0068 37.0783L20.8408 36.9201L20.7334 36.8234C20.4744 36.6113 20.1492 36.4934 19.8115 36.4933H6V16.4933H8V32.4933C8 33.5979 8.89543 34.4933 10 34.4933H19.5615C20.6488 34.4934 21.7161 34.7894 22.6484 35.3488L22.9707 35.5422C23.6041 35.9222 24.3959 35.9222 25.0293 35.5422L25.3516 35.3488C26.2839 34.7894 27.3512 34.4934 28.4385 34.4933H38C39.1046 34.4933 40 33.5979 40 32.4933V16.4933Z" fill="#1E2B3C"/>
<path fill-rule="evenodd" clip-rule="evenodd" d="M20.7021 13.8286C20.7617 13.9414 20.8279 14.0537 20.9012 14.1653C20.1245 14.4899 19.4516 15.0758 19.0277 15.8781C18.0578 17.7148 18.7607 19.9902 20.5973 20.9604L23.9223 22.7198C24.9355 23.2197 25.388 23.7546 25.5969 24.1498C25.8088 24.5508 25.8158 24.8963 25.7954 25.0822C25.6863 26.0772 24.8634 26.77 23.8311 26.7111C22.8638 26.6559 21.9199 25.9539 21.9005 24.5595C21.8927 24.0074 21.4387 23.5655 20.8866 23.5732C20.3346 23.5811 19.8937 24.0353 19.9012 24.5872C19.9368 27.1348 21.809 28.5989 23.7176 28.7077C25.7792 28.8252 27.555 27.3853 27.7835 25.2999C27.838 24.8025 27.8006 24.0394 27.3653 23.2156C27.3057 23.1029 27.2395 22.9905 27.1663 22.8789C27.9426 22.5544 28.6152 21.9686 29.039 21.1666C30.0093 19.3299 29.3074 17.0542 27.4708 16.0839L24.2346 14.3743C24.2059 14.3564 24.1761 14.3397 24.1451 14.3244C23.132 13.8246 22.6794 13.2896 22.4705 12.8944C22.2586 12.4935 22.2516 12.148 22.272 11.962C22.3745 11.0265 23.1368 10.4163 24.1852 10.5309C25.1766 10.6394 25.893 11.5311 25.7846 12.5224C25.7245 13.0714 26.1208 13.5652 26.6698 13.6253C27.2187 13.6852 27.7126 13.289 27.7727 12.7401C28.0014 10.6507 26.4922 8.7715 24.4029 8.54275C22.3711 8.32053 20.5188 9.59961 20.2839 11.7443C20.2294 12.2418 20.2668 13.0049 20.7021 13.8286ZM27.2706 20.2324C27.7249 19.3724 27.3966 18.3067 26.5366 17.8523L23.1768 16.0774L23.1319 16.0545C23.0736 16.0258 23.0143 16.0005 22.9545 15.9788C22.9186 15.9657 22.8825 15.9539 22.8462 15.9433C22.0597 15.7137 21.1937 16.0597 20.7962 16.8123C20.3422 17.6723 20.6715 18.7378 21.5315 19.192L24.8913 20.9669L24.9358 20.9896C25.0292 21.0356 25.1249 21.0727 25.2218 21.101C26.0079 21.3305 26.873 20.9847 27.2706 20.2324Z" fill="#1E2B3C"/>
</svg>
