<svg width="48" height="48" viewBox="0 0 48 48" fill="none" xmlns="http://www.w3.org/2000/svg">
<path d="M40 14.4933C40 13.3888 39.1046 12.4933 38 12.4933H31C30.4477 12.4933 30 12.9411 30 13.4933C30 14.0456 30.4477 14.4933 31 14.4933H38V32.4933H28.4385C27.2457 32.4934 26.0712 32.7601 25 33.27V31.4933C25 30.9411 24.5523 30.4933 24 30.4933C23.4477 30.4933 23 30.9411 23 31.4933V33.27C21.9288 32.7601 20.7543 32.4934 19.5615 32.4933H10V14.4933H17C17.5523 14.4933 18 14.0456 18 13.4933C18 12.9411 17.5523 12.4933 17 12.4933H10C8.89543 12.4933 8 13.3888 8 14.4933H6C4.89543 14.4933 4 15.3888 4 16.4933V36.4933C4 37.5979 4.89543 38.4933 6 38.4933H19.5938C22.0739 40.8052 25.9261 40.8052 28.4062 38.4933H42C43.1046 38.4933 44 37.5979 44 36.4933V16.4933C44 15.3888 43.1046 14.4933 42 14.4933H40ZM40 16.4933H42V36.4933H28.1885C27.8508 36.4934 27.5256 36.6113 27.2666 36.8234L27.1592 36.9201C25.4687 38.6102 22.7607 38.6631 21.0068 37.0783L20.8408 36.9201L20.7334 36.8234C20.4744 36.6113 20.1492 36.4934 19.8115 36.4933H6V16.4933H8V32.4933C8 33.5979 8.89543 34.4933 10 34.4933H19.5615C20.6488 34.4934 21.7161 34.7894 22.6484 35.3488L22.9707 35.5422C23.6041 35.9222 24.3959 35.9222 25.0293 35.5422L25.3516 35.3488C26.2839 34.7894 27.3512 34.4934 28.4385 34.4933H38C39.1046 34.4933 40 33.5979 40 32.4933V16.4933Z" fill="#1E2B3C"/>
<path fill-rule="evenodd" clip-rule="evenodd" d="M24.1109 14.309C24.1166 14.3119 24.1225 14.3144 24.1283 14.3169C24.1314 14.3182 24.1255 14.3155 24.1283 14.3169C24.1252 14.3155 24.1138 14.3104 24.1109 14.309ZM24.2345 14.3743L24.1451 14.3244C24.176 14.3397 24.2059 14.3564 24.2345 14.3743ZM24.8072 20.9266L24.836 20.9404C24.8264 20.9358 24.8168 20.9313 24.8072 20.9266Z" fill="#1E2B3C"/>
<path fill-rule="evenodd" clip-rule="evenodd" d="M24.1451 14.3244C24.1423 14.3232 24.1312 14.3181 24.1283 14.3169C24.1225 14.3144 24.1166 14.3119 24.1109 14.309C23.1213 13.814 22.677 13.2852 22.4705 12.8944C22.2586 12.4935 22.2516 12.148 22.2719 11.962C22.3745 11.0265 23.1367 10.4163 24.1851 10.5309C25.1765 10.6394 25.893 11.5311 25.7845 12.5224C25.7244 13.0714 26.1208 13.5652 26.6698 13.6253C27.2186 13.6852 27.7126 13.289 27.7727 12.7401C28.0013 10.6507 26.4922 8.7715 24.4028 8.54275C22.371 8.32053 20.5188 9.59961 20.2838 11.7443C20.2294 12.2418 20.2668 13.0049 20.702 13.8286C20.7616 13.9414 20.8278 14.0537 20.9011 14.1653C20.1245 14.4899 19.4515 15.0758 19.0277 15.8781C18.0577 17.7148 18.7606 19.9902 20.5972 20.9604L23.9222 22.7198C24.9355 23.2197 25.388 23.7546 25.5968 24.1498C25.8087 24.5508 25.8157 24.8963 25.7954 25.0822C25.6862 26.0772 24.8634 26.77 23.831 26.7111C22.8637 26.6559 21.9199 25.9539 21.9004 24.5595C21.8926 24.0074 21.4387 23.5655 20.8865 23.5732C20.3346 23.5811 19.8936 24.0353 19.9011 24.5872C19.9367 27.1348 21.809 28.5989 23.7176 28.7077C25.7791 28.8252 27.5549 27.3853 27.7835 25.2999C27.838 24.8025 27.8005 24.0394 27.3653 23.2156C27.3057 23.1029 27.2395 22.9905 27.1662 22.8789C27.9425 22.5544 28.6152 21.9686 29.039 21.1666C30.0092 19.3299 29.3074 17.0542 27.4707 16.0839L24.2345 14.3743L24.1451 14.3244C24.1476 14.3256 24.1426 14.3232 24.1451 14.3244ZM22.9545 15.9788C23.0143 16.0005 23.0735 16.0258 23.1318 16.0545L23.1767 16.0774L26.5366 17.8523C27.3965 18.3067 27.7249 19.3724 27.2705 20.2324C26.8729 20.9847 26.0079 21.3305 25.2217 21.101C25.1249 21.0727 25.0292 21.0356 24.9357 20.9896L24.8913 20.9669L24.836 20.9404C24.8264 20.9358 24.8168 20.9313 24.8072 20.9266L21.5314 19.192C20.6715 18.7378 20.3421 17.6723 20.7961 16.8123C21.1937 16.0597 22.0597 15.7137 22.8461 15.9433C22.8824 15.9539 22.9186 15.9657 22.9545 15.9788Z" fill="#1E2B3C"/>
</svg>
