<svg width="48" height="48" viewBox="0 0 48 48" fill="none" xmlns="http://www.w3.org/2000/svg">
<path fill-rule="evenodd" clip-rule="evenodd" d="M15.1406 22.2314C14.7164 21.8779 14.085 21.9352 13.7314 22.3594L11.9316 24.5176L11.207 23.793C10.8165 23.4024 10.1835 23.4024 9.79297 23.793C9.40244 24.1835 9.40244 24.8165 9.79297 25.207L12.0674 27.4814L15.2686 23.6406C15.6221 23.2164 15.5648 22.585 15.1406 22.2314Z" fill="#1E2B3C"/>
<path fill-rule="evenodd" clip-rule="evenodd" d="M32 15V12H26V23H32V20C32 19.4477 32.4477 19 33 19H41L41.1025 19.0049C41.6067 19.0562 42 19.4823 42 20V28L41.9951 28.1025C41.9472 28.573 41.573 28.9472 41.1025 28.9951L41 29H33C32.4823 29 32.0562 28.6067 32.0049 28.1025L32 28V25H26V36H32V33C32 32.4477 32.4477 32 33 32H41L41.1025 32.0049C41.6067 32.0562 42 32.4823 42 33V41L41.9951 41.1025C41.9472 41.573 41.573 41.9472 41.1025 41.9951L41 42H33C32.4823 42 32.0562 41.6067 32.0049 41.1025L32 41V38H25.2998C24.582 37.9999 24.0001 37.418 24 36.7002V25H19C18.9953 25.4452 19.0034 25.89 18.9469 26.3324C18.5383 29.5291 15.8078 32 12.5 32C9.0225 32 6.18312 29.2691 6.00879 25.8349L6 25.4999V19.5301C6 18.9095 6.38263 18.3527 6.96191 18.1299L11.9619 16.207C12.3083 16.0738 12.6917 16.0738 13.0381 16.207L18.0381 18.1299C18.6174 18.3527 19 18.9096 19 19.5302V23H24V11.2998C24.0001 10.582 24.582 10.0001 25.2998 10H32V7C32 6.44772 32.4477 6 33 6H41L41.1025 6.00488C41.6067 6.05621 42 6.48232 42 7V15L41.9951 15.1025C41.9472 15.573 41.573 15.9472 41.1025 15.9951L41 16H33C32.4823 16 32.0562 15.6067 32.0049 15.1025L32 15ZM34 14H40V8H34V14ZM16.3467 27.8363C16.0181 28.3763 15.5789 28.8416 15.0607 29.2008C14.3338 29.7047 13.4514 29.9999 12.5 29.9999C10.6315 29.9999 9.02893 28.8611 8.34862 27.2397C8.12406 26.7045 8 26.1167 8 25.4999V19.873L12.5 18.1425L17 19.873V24.9999C17 26.0123 16.8843 26.9531 16.3467 27.8363ZM34 27H40V21H34V27ZM34 40H40V34H34V40Z" fill="#1E2B3C"/>
</svg>
