<svg width="48" height="48" viewBox="0 0 48 48" fill="none" xmlns="http://www.w3.org/2000/svg">
<path d="M41.9688 14.0313C41.9687 14.5835 41.521 15.0313 40.9688 15.0313C40.4165 15.0313 39.9687 14.5835 39.9688 14.0313V9.41406L35.3711 14.0117C34.9806 14.4022 34.3476 14.4022 33.957 14.0117C33.5665 13.6212 33.5665 12.9882 33.957 12.5977L38.5547 8L34 8C33.4477 8 33 7.55228 33 7C33 6.44772 33.4477 6 34 6L41.9688 6V14.0313Z" fill="#1E2B3C"/>
<path d="M11 11C11 10.4477 11.4477 10 12 10C12.5523 10 13 10.4477 13 11C13 11.5523 12.5523 12 12 12C11.4477 12 11 11.5523 11 11Z" fill="#1E2B3C"/>
<path d="M15 11C15 10.4477 15.4477 10 16 10C16.5523 10 17 10.4477 17 11C17 11.5523 16.5523 12 16 12C15.4477 12 15 11.5523 15 11Z" fill="#1E2B3C"/>
<path d="M19 11C19 10.4477 19.4477 10 20 10C20.5523 10 21 10.4477 21 11C21 11.5523 20.5523 12 20 12C19.4477 12 19 11.5523 19 11Z" fill="#1E2B3C"/>
<path d="M11 15C11 14.4477 11.4477 14 12 14C12.5523 14 13 14.4477 13 15C13 15.5523 12.5523 16 12 16C11.4477 16 11 15.5523 11 15Z" fill="#1E2B3C"/>
<path d="M15 15C15 14.4477 15.4477 14 16 14C16.5523 14 17 14.4477 17 15C17 15.5523 16.5523 16 16 16C15.4477 16 15 15.5523 15 15Z" fill="#1E2B3C"/>
<path d="M19 15C19 14.4477 19.4477 14 20 14C20.5523 14 21 14.4477 21 15C21 15.5523 20.5523 16 20 16C19.4477 16 19 15.5523 19 15Z" fill="#1E2B3C"/>
<path d="M11 19C11 18.4477 11.4477 18 12 18C12.5523 18 13 18.4477 13 19C13 19.5523 12.5523 20 12 20C11.4477 20 11 19.5523 11 19Z" fill="#1E2B3C"/>
<path d="M15 19C15 18.4477 15.4477 18 16 18C16.5523 18 17 18.4477 17 19C17 19.5523 16.5523 20 16 20C15.4477 20 15 19.5523 15 19Z" fill="#1E2B3C"/>
<path d="M29.4102 18.2812C29.1493 18.1639 28.8507 18.1639 28.5898 18.2812L20 22.1465V23H38V22.1465L29.4102 18.2812ZM40 23.5C40 24.3284 39.3284 25 38.5 25H19.5C18.6716 25 18 24.3284 18 23.5V21.8232C18 21.233 18.3465 20.6973 18.8848 20.4551L27.7686 16.457C28.5515 16.1047 29.4485 16.1047 30.2314 16.457L39.1152 20.4551C39.6535 20.6973 40 21.233 40 21.8232V23.5Z" fill="#1E2B3C"/>
<path d="M28 21C28 20.4477 28.4477 20 29 20C29.5523 20 30 20.4477 30 21C30 21.5523 29.5523 22 29 22C28.4477 22 28 21.5523 28 21Z" fill="#1E2B3C"/>
<path d="M41 40C41.5523 40 42 40.4477 42 41C42 41.5523 41.5523 42 41 42H17C16.4477 42 16 41.5523 16 41C16 40.4477 16.4477 40 17 40H41ZM24 15V8.5C24 8.22386 23.7761 8 23.5 8H8.5C8.22386 8 8 8.22386 8 8.5V39.5C8 39.7761 8.22386 40 8.5 40H13C13.5523 40 14 40.4477 14 41C14 41.5523 13.5523 42 13 42H8.5C7.11929 42 6 40.8807 6 39.5V8.5C6 7.11929 7.11929 6 8.5 6H23.5C24.8807 6 26 7.11929 26 8.5V15C26 15.5523 25.5523 16 25 16C24.4477 16 24 15.5523 24 15Z" fill="#1E2B3C"/>
<path d="M31 36H27V28C27 27.4477 26.5523 27 26 27C25.4477 27 25 27.4477 25 28V36H22V28C22 27.4477 21.5523 27 21 27C20.4477 27 20 27.4477 20 28V36H18.5C17.9477 36 17.5 36.4477 17.5 37C17.5 37.5523 17.9477 38 18.5 38H39.5C40.0523 38 40.5 37.5523 40.5 37C40.5 36.4477 40.0523 36 39.5 36H38V28C38 27.4477 37.5523 27 37 27C36.4477 27 36 27.4477 36 28V36H33V28C33 27.4477 32.5523 27 32 27C31.4477 27 31 27.4477 31 28V36Z" fill="#1E2B3C"/>
</svg>
