<svg width="1195" height="844" viewBox="0 0 1195 844" fill="none" xmlns="http://www.w3.org/2000/svg">
<path d="M567.02 441.008C566.784 441.361 566.549 441.598 566.195 441.951C566.549 441.598 566.784 441.243 567.02 441.008Z" fill="#F45F63"/>
<path d="M611.022 650.979L611.139 650.862L611.257 650.744C635.964 639.562 660.436 627.793 684.555 615.435C696.555 609.197 708.556 602.842 720.203 595.897C723.145 594.132 725.968 592.367 728.792 590.601C730.086 589.66 731.498 588.718 732.792 587.659C734.086 586.599 735.38 585.658 736.675 584.481C741.734 580.126 746.44 575.301 750.911 570.24C759.852 560.118 767.97 549.29 775.853 538.226C779.03 533.636 782.206 529.046 785.383 524.338H761.382C739.851 524.338 722.321 506.801 722.321 485.263V216.091C717.968 220.328 713.732 224.448 709.85 228.332L711.144 242.455C711.615 248.105 712.203 253.636 712.674 259.286C713.144 264.935 713.497 270.467 713.968 276.116C714.791 287.415 715.027 298.714 714.556 310.012C714.321 315.662 713.85 321.311 713.144 326.843C712.438 332.492 711.615 338.025 710.085 343.439C711.379 337.907 711.968 332.375 712.438 326.726C712.909 321.076 713.144 315.545 713.262 309.895C713.38 298.596 712.674 287.414 711.615 276.233L709.85 259.403C709.262 253.754 708.791 248.222 708.32 242.573L705.261 208.912L705.144 208.205L705.732 207.735C709.85 203.969 713.732 199.848 717.262 195.611C720.909 191.374 724.203 186.902 727.262 182.195C730.321 177.487 733.028 172.661 735.028 167.482C735.616 166.188 735.969 164.893 736.439 163.599C736.91 162.304 737.263 161.009 737.734 159.597C738.439 156.89 739.146 154.182 739.734 151.475C741.969 140.529 742.91 129.231 742.557 118.05C742.322 112.518 741.851 106.869 740.557 101.572C739.851 98.8655 739.028 96.2761 737.851 93.9222C737.498 93.3337 737.263 92.7448 736.792 92.274L736.204 91.4499L735.616 90.7442C735.263 90.2734 734.675 89.9208 734.322 89.45C733.851 89.0969 733.38 88.7429 732.792 88.5075C731.145 87.4482 728.439 88.7431 726.086 89.9201C723.733 91.2147 721.38 92.7453 719.145 94.5107C714.674 97.8062 710.438 101.573 706.32 105.339C698.085 112.989 690.084 120.992 682.319 129.113C666.789 145.355 651.847 162.186 637.258 179.252C631.729 201.144 626.317 223.153 620.905 245.162C615.493 267.289 610.081 289.415 605.139 311.542C604.551 314.367 603.845 317.075 603.374 319.899L602.433 324.019L601.61 328.138C600.551 333.67 599.609 339.319 598.433 344.968C597.256 350.5 596.198 356.15 594.903 361.682C593.609 367.213 592.197 372.745 590.668 378.276C587.727 389.34 584.55 400.285 580.903 410.996C579.02 416.41 577.02 421.707 574.785 427.003C573.608 429.592 572.432 432.182 571.02 434.653C569.843 436.772 568.549 438.891 566.902 440.774C566.667 441.127 566.431 441.362 566.078 441.715L566.785 441.244C566.549 441.715 566.314 441.951 566.314 441.951L143 608.256V843.648H356.304L394.894 814.577L611.022 650.979Z" fill="#1E2B3C"/>
<path d="M573.017 429.945C570.664 434.418 568.782 438.067 567.605 440.185C568.782 438.537 569.841 436.654 570.782 434.77C571.606 433.123 572.312 431.475 573.017 429.945Z" fill="#1E2B3C"/>
<path d="M1048.93 134.644C1054.22 118.637 1039.51 99.9233 1015.51 93.2146C1009.51 91.5669 997.276 90.6255 981.746 90.5078V155.359C1013.51 151.711 1045.63 144.648 1048.93 134.644Z" fill="#1E2B3C"/>
<path d="M1043.63 267.051C1055.63 245.631 1010.22 201.495 984.805 185.488C983.864 184.9 982.805 184.311 981.746 183.84V267.64C1004.22 280.233 1034.45 283.411 1043.63 267.051Z" fill="#1E2B3C"/>
<path d="M1011.87 368.626C1017.87 356.739 1001.16 320.253 981.746 291.535V379.337C995.629 380.75 1008.81 374.864 1011.87 368.626Z" fill="#1E2B3C"/>
<path d="M612.673 653.331C637.38 642.15 661.851 630.38 685.97 618.022C698.088 611.784 710.089 605.429 721.736 598.485C724.678 596.719 727.501 594.953 730.443 593.07C731.855 592.011 733.384 591.07 734.678 590.01C735.972 588.951 737.384 587.892 738.678 586.715C743.855 582.243 748.679 577.298 753.15 572.237C757.62 567.176 761.974 561.881 766.209 556.467C770.327 551.053 774.327 545.521 778.327 539.989C781.974 534.928 785.504 529.632 788.916 524.453H785.504C782.327 529.043 779.151 533.751 775.974 538.341C768.209 549.405 759.973 560.233 751.032 570.355C746.561 575.416 741.855 580.241 736.796 584.596C735.619 585.773 734.208 586.714 732.913 587.774C731.619 588.833 730.207 589.657 728.913 590.716C726.09 592.481 723.148 594.247 720.325 596.012C708.677 602.956 696.794 609.313 684.676 615.551C660.557 627.909 636.085 639.561 611.378 650.86L611.261 650.977L611.143 651.094L395.133 814.928L356.543 843.999H361.367L396.78 817.282L612.673 653.331Z" fill="#EDCFC5"/>
<path d="M728.908 85.6828C729.732 85.4474 730.438 85.3299 731.379 85.3299H732.085C732.32 85.3299 732.556 85.4472 732.791 85.4472C733.026 85.4472 733.262 85.5651 733.379 85.6828L733.968 85.9184C734.791 86.2715 735.379 86.7418 736.085 87.2126C736.673 87.8011 737.379 88.2723 737.85 88.8608L738.556 89.8022L739.262 90.7435C739.732 91.332 740.085 92.0384 740.438 92.7446C741.85 95.4516 742.791 98.1586 743.497 100.983C744.909 106.633 745.38 112.4 745.615 118.049C745.968 129.466 744.909 140.882 742.674 152.181C742.086 155.006 741.497 157.713 740.674 160.537C740.321 161.95 739.85 163.244 739.379 164.657C738.909 165.951 738.438 167.364 737.85 168.659C735.732 174.073 732.909 179.015 729.85 183.841C727.614 187.372 725.144 190.785 722.438 194.081V216.09V485.379C722.438 506.918 739.968 524.455 761.498 524.455H785.499H788.911H942.801C964.331 524.455 981.861 506.918 981.861 485.379V379.335V291.533V267.641V183.841V155.477V90.6263V39.0743C981.861 17.5359 964.331 0 942.801 0H761.616C740.085 0 722.555 17.5359 722.555 39.0743V88.9781C723.261 88.5073 724.085 88.0362 724.908 87.5655C725.967 86.8593 727.379 86.1536 728.908 85.6828ZM787.617 0.117237H820.913H883.151H916.447C916.447 9.29756 909.034 16.8304 899.74 16.8304H804.206C795.147 16.7127 787.617 9.29756 787.617 0.117237Z" fill="#1E98F5"/>
<path d="M804.325 16.712H899.859C909.036 16.712 916.565 9.29802 916.565 0H883.27H821.031H787.736C787.618 9.29802 795.148 16.712 804.325 16.712Z" fill="#1E2B3C"/>
<path d="M566.316 441.83C566.552 441.477 566.787 441.242 567.14 440.889C568.669 439.005 569.964 436.887 571.258 434.768C572.67 432.296 573.846 429.707 575.023 427.118C577.376 421.939 579.376 416.526 581.141 411.112C584.788 400.284 587.964 389.338 590.906 378.392C592.318 372.86 593.729 367.328 595.141 361.796C596.435 356.265 597.494 350.615 598.671 345.083C599.847 339.551 600.789 333.902 601.847 328.253L602.671 324.133L603.612 320.014C604.2 317.189 604.789 314.483 605.377 311.658C610.318 289.531 615.73 267.404 621.142 245.277C626.554 223.268 631.967 201.376 637.496 179.367C652.085 162.301 667.027 145.471 682.557 129.229C690.322 121.108 698.322 112.986 706.558 105.454C710.676 101.687 714.911 97.9209 719.382 94.6254C721.618 92.9777 723.853 91.3306 726.324 90.0359C728.677 88.859 731.383 87.5641 733.03 88.6233C733.618 88.8587 734.089 89.2116 734.559 89.5647C735.03 90.0355 735.501 90.3881 735.854 90.8589L736.442 91.5658L737.03 92.3899C737.383 92.8606 737.736 93.4484 738.089 94.0369C739.383 96.3909 740.207 98.9802 740.795 101.687C742.089 106.984 742.678 112.633 742.795 118.165C743.148 129.346 742.089 140.645 739.971 151.591C739.383 154.298 738.795 157.004 737.971 159.711C737.618 161.006 737.148 162.419 736.677 163.713C736.207 165.008 735.854 166.303 735.265 167.597C733.265 172.776 730.442 177.601 727.5 182.309C724.441 187.017 721.147 191.49 717.5 195.727C713.853 199.964 709.97 204.083 705.97 207.85L705.382 208.321L705.499 209.027L708.558 242.687C709.029 248.337 709.499 253.869 710.088 259.519L711.853 276.349C713.029 287.53 713.617 298.711 713.5 310.01C713.382 315.659 713.147 321.309 712.676 326.84C712.206 332.49 711.5 338.022 710.323 343.553C711.853 338.139 712.676 332.49 713.382 326.959C714.088 321.309 714.441 315.66 714.794 310.128C715.264 298.829 715.029 287.53 714.206 276.231C713.853 270.581 713.382 264.932 712.911 259.4C712.441 253.751 711.852 248.219 711.382 242.57L710.088 228.446L708.323 209.615C712.441 205.849 716.088 201.965 719.618 197.728C720.559 196.551 721.618 195.374 722.559 194.197C725.147 190.902 727.618 187.488 729.971 183.957C733.03 179.132 735.854 174.071 737.971 168.774C738.56 167.479 738.913 166.068 739.501 164.773C739.971 163.479 740.442 162.066 740.795 160.654C741.619 157.947 742.207 155.121 742.795 152.297C745.031 141.115 746.089 129.699 745.736 118.165C745.501 112.398 745.031 106.748 743.619 101.099C742.913 98.274 741.972 95.4493 740.56 92.86C740.207 92.1538 739.854 91.5651 739.383 90.8589L738.677 89.9175L737.971 88.9762C737.501 88.3877 736.795 87.9165 736.207 87.328C735.501 86.8572 734.912 86.3869 734.089 86.0338L733.501 85.7982C733.265 85.6805 733.148 85.6802 732.912 85.5625C732.677 85.4449 732.442 85.4453 732.206 85.4453H731.501C730.559 85.4453 729.736 85.5628 729.03 85.7982C727.5 86.269 726.206 86.8574 724.794 87.5636C723.971 88.0344 723.265 88.5054 722.441 88.9762C720.676 90.0355 719.147 91.2129 717.5 92.3899C712.911 95.8031 708.676 99.5687 704.44 103.453C696.087 111.103 688.087 119.224 680.322 127.463C664.674 143.941 649.614 160.771 635.026 178.073L634.79 178.308L634.672 178.661C629.143 200.788 623.613 222.797 618.201 244.924C612.789 267.051 607.377 289.178 602.436 311.305C601.847 314.13 601.142 316.837 600.553 319.661L599.612 323.898L598.788 328.136C597.73 333.785 596.788 339.317 595.612 344.849C594.553 350.38 593.259 355.911 592.082 361.561C590.906 367.092 589.729 372.625 588.435 378.157C585.847 389.22 583.141 400.284 579.729 411.112C578.082 416.526 576.199 421.94 574.199 427.236C573.846 428.178 573.376 429.237 572.905 430.179C572.199 431.826 571.493 433.356 570.669 435.004C569.728 436.887 568.669 438.652 567.493 440.417C567.258 440.77 566.787 441.359 566.316 441.83Z" fill="#EDCFC5"/>
</svg>
