<svg width="1195" height="844" viewBox="0 0 1195 844" fill="none" xmlns="http://www.w3.org/2000/svg">
<path d="M666.903 456.652C660.561 462.398 654.102 468.027 647.526 473.422C634.373 484.328 620.751 494.53 606.894 504.498C593.036 514.467 579.062 524.083 564.852 533.581C550.76 543.08 536.433 552.463 522.106 561.61C510.362 569.232 498.501 576.62 486.758 584.243C550.76 544.488 597.381 515.053 603.488 509.424C622.63 492.068 661.031 473.304 686.397 436.363C685.81 436.95 685.34 437.654 684.753 438.24C679.351 444.807 673.244 450.906 666.903 456.652Z" fill="#1E98F5"/>
<path d="M739.481 680.055C777.765 648.04 801.722 627.517 845.995 587.293C864.197 570.875 874.649 545.31 881.93 522.677H881.46C867.368 522.677 854.92 515.172 848.108 503.914C847.521 504.852 846.934 505.907 846.347 506.845C845.29 508.487 843.998 510.246 842.706 511.536L838.596 515.876L822.273 533.113L837.892 515.289L841.767 510.832C843.176 509.425 844.116 507.783 845.172 506.141C847.169 502.74 848.93 499.223 850.692 495.705C854.098 488.668 857.386 481.398 860.439 474.244C863.492 466.974 866.428 459.702 869.482 452.431C872.417 445.16 875.236 437.773 877.702 430.385C880.285 422.879 882.634 415.374 884.983 407.868C889.68 392.858 894.26 377.73 898.605 362.602L898.723 362.25L899.075 362.016L944.287 320.501L944.757 320.033H945.462C954.152 320.737 962.96 320.97 971.767 320.853C980.575 320.736 989.265 320.149 997.955 318.742L1001.13 318.156C1002.18 317.921 1003.24 317.805 1004.3 317.453L1007.47 316.748C1008.52 316.514 1009.58 316.162 1010.52 315.81C1011.58 315.459 1012.63 315.225 1013.57 314.756C1014.04 314.521 1014.51 314.404 1014.98 314.169L1016.39 313.465C1017.33 312.996 1018.15 312.41 1019.09 311.824C1019.92 311.238 1020.85 310.651 1021.68 309.947C1028.25 304.552 1033.19 297.047 1036.47 289.19C1038.12 285.202 1039.29 281.098 1039.88 276.876C1040.11 274.765 1040.23 272.655 1040.11 270.544C1040 268.433 1039.53 266.44 1038.71 264.681C1037.88 262.922 1036.71 261.28 1035.06 260.225C1034.59 259.99 1034.24 259.755 1033.77 259.52L1032.36 259.052L1030.95 258.699C1030.48 258.582 1029.9 258.583 1029.31 258.466C1024.85 257.879 1020.5 257.058 1016.16 256.002C1007.47 254.009 998.895 251.312 990.674 248.028C986.564 246.386 982.454 244.51 978.461 242.751C974.468 240.992 970.475 239.116 966.365 237.708C962.255 236.301 958.145 235.48 953.917 235.831C951.803 235.949 949.807 236.418 947.81 237.122C945.697 237.826 943.7 238.529 941.586 239.233C933.366 242.282 925.263 245.683 917.16 249.201C900.954 256.12 884.865 263.39 868.894 271.013C860.909 274.765 853.041 278.753 845.055 282.506C841.062 284.382 837.187 286.376 833.312 288.487C831.433 289.542 829.436 290.598 827.557 291.653C826.618 292.239 825.678 292.826 824.974 293.412L822.508 295.64C809.237 307.367 795.732 318.742 782.227 330.118L801.722 312.292C808.181 306.311 814.757 300.331 821.098 294.35L823.447 292.005C824.387 291.184 825.326 290.598 826.266 289.894C828.144 288.604 830.023 287.549 832.02 286.376C835.425 284.5 838.714 282.623 842.119 280.864V175.203C837.774 176.61 833.429 178.135 829.201 179.894C813.583 186.227 799.021 195.256 787.042 207.1C775.064 218.827 765.787 233.487 760.854 249.435C756.392 265.853 751.107 282.036 745.588 298.22C740.068 314.403 734.432 330.352 728.442 346.301C722.453 362.25 716.229 378.081 709.535 393.796L707.069 399.659L704.486 405.523L701.902 411.386L699.084 417.133L697.674 420.065C697.205 421.003 696.618 422.058 696.148 422.997C695.091 424.873 693.917 426.75 692.625 428.509C690.628 431.323 688.397 434.138 686.166 436.718C660.8 473.658 622.399 492.421 603.257 509.777C597.15 515.289 550.529 544.841 486.527 584.596C483.943 586.238 481.477 587.88 478.893 589.522C480.185 588.583 481.477 587.762 482.769 586.941C345.018 672.315 130.347 802.603 62 844H576.364C658.099 760.151 725.741 691.43 739.481 680.055Z" fill="#1E2B3C"/>
<path d="M1117.98 221.642C1133.36 209.211 1142.64 181.183 1101.3 166.055V225.746C1109.87 224.691 1115.86 223.283 1117.98 221.642Z" fill="#1E2B3C"/>
<path d="M1104.94 324.253C1120.09 317.92 1143.34 275.82 1101.3 264.914V324.839C1102.94 324.722 1104.12 324.605 1104.94 324.253Z" fill="#1E2B3C"/>
<path d="M842.354 172.039C837.657 173.564 832.959 175.205 828.379 177.081C812.526 183.531 797.611 192.796 785.281 204.992C773.068 217.071 763.438 232.082 758.388 248.617C753.926 265.035 748.641 281.101 743.239 297.284C737.837 313.35 732.083 329.417 726.094 345.365C720.105 361.314 713.998 377.146 707.304 392.743L704.838 398.607L702.255 404.471L699.671 410.216L696.97 415.963L695.561 418.777C695.091 419.715 694.621 420.654 694.151 421.475C693.095 423.234 692.038 424.993 690.746 426.752C688.397 430.153 685.696 433.436 682.878 436.602C677.241 442.935 671.252 448.916 665.028 454.662C658.804 460.409 652.345 465.921 645.768 471.315C619.463 492.776 591.983 512.946 564.034 532.296C550.059 542.03 535.967 551.529 521.757 561.027L500.502 575.217C494.747 579.087 488.993 582.957 483.239 586.827C481.947 587.765 480.655 588.585 479.363 589.406C481.947 587.764 484.413 586.123 486.997 584.482C498.74 576.859 510.601 569.47 522.344 561.847C536.671 552.583 550.881 543.319 565.091 533.82C579.183 524.321 593.275 514.705 607.132 504.737C620.99 494.769 634.612 484.567 647.765 473.66C654.341 468.266 660.8 462.636 667.141 456.89C673.483 451.144 679.59 445.045 685.226 438.713C685.814 438.126 686.283 437.423 686.871 436.837C689.102 434.14 691.333 431.442 693.329 428.628C694.621 426.869 695.678 424.992 696.852 423.116C697.322 422.178 697.909 421.122 698.379 420.184L699.788 417.252L702.607 411.507L705.19 405.643L707.774 399.78L710.24 393.916C716.934 378.202 723.158 362.37 729.147 346.421C735.136 330.473 740.773 314.406 746.293 298.34C751.695 282.274 757.097 265.973 761.559 249.555C766.491 233.489 775.769 218.947 787.747 207.22C799.725 195.376 814.287 186.346 829.906 180.013C834.134 178.254 838.479 176.73 842.824 175.322V172.039H842.354Z" fill="#EDCFC5"/>
<path d="M1101.3 483.743V324.841V264.916V225.747V166.055V38.9342C1101.3 17.4736 1083.81 0 1062.31 0H881.465C859.974 0 842.477 17.4736 842.477 38.9342V171.919V174.969V280.629C842.946 280.395 843.533 280.043 844.003 279.808C851.871 275.704 859.857 271.952 867.843 268.199C883.814 260.694 899.902 253.422 916.226 246.386C924.329 242.868 932.549 239.467 940.887 236.418C943.001 235.597 945.115 234.894 947.228 234.191C949.342 233.487 951.691 232.9 954.04 232.783C958.737 232.314 963.434 233.37 967.662 234.777C971.89 236.301 976 238.06 979.993 239.936C983.986 241.695 987.978 243.572 992.089 245.213C1000.19 248.497 1008.53 251.194 1017.1 253.071C1021.33 254.009 1025.67 254.83 1030.02 255.416C1030.61 255.533 1031.08 255.534 1031.66 255.651L1033.43 256.003L1035.19 256.707C1035.77 256.941 1036.24 257.293 1036.83 257.645C1038.94 259.052 1040.59 261.045 1041.53 263.274C1042.47 265.502 1042.94 267.848 1043.17 270.193C1043.29 272.538 1043.29 274.766 1042.94 277.111C1042.35 281.685 1041.06 286.024 1039.41 290.246C1035.89 298.572 1030.84 306.312 1023.8 312.176C1022.97 312.879 1021.92 313.583 1021.09 314.287C1020.16 314.873 1019.22 315.577 1018.16 316.046L1016.63 316.867C1016.16 317.101 1015.58 317.335 1014.99 317.57C1013.93 318.039 1012.87 318.274 1011.82 318.626C1010.76 318.978 1009.7 319.329 1008.53 319.564L1005.24 320.385C1004.18 320.619 1003.01 320.853 1001.95 321.088L998.665 321.674C989.857 323.082 980.932 323.668 972.125 323.785C963.434 323.902 954.862 323.669 946.171 322.965L901.781 363.775C897.436 378.786 892.856 393.796 888.159 408.69C885.81 416.195 883.344 423.701 880.878 431.206C878.294 438.711 875.476 446.099 872.54 453.488C869.604 460.876 866.433 468.029 863.028 475.183C859.622 482.336 856.216 489.489 852.576 496.408C851.284 498.871 849.875 501.333 848.466 503.796C855.277 515.054 867.725 522.56 881.817 522.56H882.287H1062.67C1083.81 522.794 1101.3 505.321 1101.3 483.743ZM907.535 0.234771H940.769H1002.89H1036.13C1036.13 9.38192 1028.73 16.8875 1019.45 16.8875H924.094C914.934 16.7702 907.535 9.38192 907.535 0.234771Z" fill="#E5AA20"/>
<path d="M924.207 16.7699H1019.56C1028.72 16.7699 1036.24 9.3816 1036.24 0.117188H1003.01H940.765H907.531C907.531 9.3816 914.93 16.7699 924.207 16.7699Z" fill="white"/>
<path d="M862.673 475.298C865.961 468.145 869.25 460.874 872.185 453.603C875.121 446.215 877.94 438.827 880.523 431.322C883.107 423.816 885.456 416.311 887.804 408.805C892.502 393.912 896.964 378.901 901.427 363.891L945.817 323.081C954.507 323.784 963.08 324.019 971.77 323.902C980.695 323.784 989.503 323.198 998.31 321.791L1001.6 321.205C1002.66 320.97 1003.83 320.852 1004.89 320.5L1008.18 319.679C1009.23 319.445 1010.29 318.976 1011.46 318.741C1012.52 318.39 1013.58 318.156 1014.63 317.687C1015.22 317.452 1015.69 317.217 1016.28 316.982L1017.8 316.161C1018.86 315.692 1019.8 314.988 1020.74 314.402C1021.68 313.698 1022.62 313.112 1023.44 312.291C1030.49 306.428 1035.65 298.688 1039.06 290.362C1040.7 286.14 1042 281.802 1042.58 277.228C1042.82 275 1042.94 272.654 1042.82 270.309C1042.58 267.963 1042.11 265.617 1041.17 263.389C1040.23 261.161 1038.59 259.05 1036.48 257.76C1035.89 257.409 1035.42 257.057 1034.83 256.822L1033.07 256.119L1031.31 255.767C1030.72 255.649 1030.25 255.533 1029.67 255.533C1025.32 254.947 1020.98 254.126 1016.75 253.188C1008.18 251.311 999.837 248.614 991.734 245.33C987.624 243.688 983.631 241.929 979.638 240.053C975.646 238.294 971.535 236.417 967.308 234.893C963.08 233.368 958.383 232.43 953.685 232.899C951.337 233.133 948.988 233.603 946.874 234.306C944.76 235.01 942.646 235.714 940.533 236.535C932.195 239.584 924.092 243.102 915.871 246.503C899.665 253.422 883.577 260.809 867.488 268.315C859.503 272.067 851.517 275.821 843.649 279.925C843.179 280.16 842.592 280.512 842.122 280.746C838.717 282.505 835.311 284.381 832.023 286.257C830.144 287.312 828.147 288.485 826.269 289.775C825.329 290.362 824.39 291.066 823.45 291.887L821.101 294.232C814.76 300.33 808.184 306.311 801.725 312.175L782.23 330C795.735 318.625 809.24 307.249 822.511 295.522L824.977 293.293C825.681 292.707 826.621 292.121 827.56 291.534C829.439 290.362 831.318 289.307 833.315 288.369C837.19 286.375 841.183 284.381 845.058 282.387C853.044 278.635 860.912 274.648 868.897 270.895C884.868 263.39 900.957 256.119 917.163 249.083C925.266 245.682 933.369 242.164 941.589 239.115C943.703 238.294 945.7 237.59 947.814 237.003C949.927 236.3 951.924 235.831 953.92 235.714C958.03 235.362 962.258 236.182 966.368 237.59C970.478 238.997 974.471 240.874 978.464 242.633C982.457 244.392 986.567 246.269 990.677 247.91C998.898 251.194 1007.47 254.008 1016.16 255.885C1020.51 256.823 1024.85 257.643 1029.31 258.347C1029.9 258.464 1030.49 258.464 1030.96 258.582L1032.37 258.933L1033.78 259.403C1034.25 259.637 1034.6 259.871 1035.07 260.106C1036.71 261.161 1037.89 262.686 1038.71 264.562C1039.53 266.321 1040 268.432 1040.12 270.425C1040.23 272.536 1040.12 274.648 1039.88 276.759C1039.3 280.98 1038.12 285.085 1036.48 289.072C1033.19 297.046 1028.26 304.435 1021.68 309.829C1020.86 310.533 1020.04 311.119 1019.1 311.705C1018.16 312.291 1017.33 312.878 1016.4 313.347L1014.99 314.051C1014.52 314.285 1014.05 314.402 1013.58 314.637C1012.64 315.106 1011.58 315.341 1010.52 315.693C1009.47 316.045 1008.53 316.396 1007.47 316.631L1004.3 317.334C1003.24 317.568 1002.19 317.804 1001.13 318.038L997.958 318.625C989.385 320.032 980.578 320.501 971.77 320.735C962.963 320.852 954.155 320.618 945.465 319.914H944.76L944.29 320.384L899.078 361.897L898.726 362.132L898.608 362.483C894.146 377.611 889.683 392.74 884.986 407.751C882.637 415.256 880.171 422.761 877.705 430.267C875.121 437.655 872.42 445.043 869.485 452.314C866.431 459.584 863.495 466.855 860.442 474.126C857.389 481.396 854.101 488.55 850.695 495.586C848.933 499.104 847.172 502.623 845.175 506.023C844.119 507.665 843.179 509.307 841.77 510.714L837.895 515.17L822.276 532.996L838.599 515.757L842.709 511.418C844.119 510.01 845.293 508.368 846.35 506.727C846.937 505.789 847.524 504.85 848.111 503.795C849.521 501.332 850.93 498.87 852.222 496.407C855.862 489.605 859.268 482.452 862.673 475.298Z" fill="#EDCFC5"/>
</svg>
