<svg width="1195" height="844" viewBox="0 0 1195 844" fill="none" xmlns="http://www.w3.org/2000/svg">
<path d="M392.254 731.623C391.801 718.494 390.215 705.138 387.497 691.782C379.228 651.035 361.331 614.815 336.639 584.82C306.735 588.556 272.414 585.16 249.874 559.013C242.964 551.09 237.754 532.415 233.45 510.683C216.686 504.345 199.242 499.817 181.232 497.213L184.743 546.79C192.446 547.695 200.035 549.279 207.397 551.656C215.1 554.146 222.576 557.203 229.938 560.711L235.375 563.315C236.281 563.768 237.187 564.22 238.094 564.673L239.453 565.465L240.699 566.371C244.097 568.861 247.042 571.69 249.76 574.746C252.479 577.802 254.971 580.972 257.123 584.481C259.275 587.876 260.974 591.724 261.541 595.686C263.126 606.325 259.502 611.872 254.744 612.777C250.327 613.683 241.832 591.385 239.679 593.309C239.679 593.309 245.23 601.911 244.323 613.796C243.191 628.284 233.223 637.678 227.56 633.717C224.388 631.566 228.805 613.23 223.935 613.796C223.935 613.796 228.919 625.794 216.686 640.282C207.624 650.922 199.015 642.659 203.773 634.623C214.647 616.06 201.621 608.476 201.621 608.476C201.621 608.476 190.86 603.043 179.646 601.459C168.319 599.874 154.274 590.366 154.274 590.366C154.274 590.366 148.384 585.386 141.361 566.031C141.361 566.031 128.901 533.434 120.066 495.969C112.59 496.761 105.001 497.892 97.4122 499.477C60.9393 506.834 28.091 522.002 0 542.828V831.002H749.281L716.773 667.107L392.254 731.623Z" fill="#1E98F5"/>
<path d="M1013.32 283.968C1013.32 283.968 1003.35 288.834 995.762 288.948C988.286 288.948 980.81 291.551 980.81 291.551C980.81 291.551 971.635 295.286 977.072 308.416C979.451 314.075 973.108 318.716 968.124 310.906C961.441 300.38 965.745 293.022 965.745 293.022C962.574 292.117 963.82 304.454 961.554 305.586C957.476 307.624 951.813 300.606 952.379 291.099C952.832 283.289 957.25 278.195 957.25 278.195C956.117 276.723 948.528 290.419 945.696 289.514C942.638 288.495 940.826 284.533 942.751 277.742C944.79 270.951 956.004 262.236 961.328 260.538C961.667 260.425 962.12 260.311 962.574 260.085L957.703 258.953C920.324 275.252 870.372 267.555 870.372 267.555L874.563 365.462L839.902 374.064L797.766 564.445L1123.08 636.319L1195 311.246L1021.81 272.989C1016.6 281.817 1013.32 283.968 1013.32 283.968Z" fill="#E5AA20"/>
<path d="M821.657 296.192C821.091 285.326 820.977 274.46 821.997 263.481C823.016 252.615 824.942 241.636 829.473 231.562C830.605 229.072 831.965 226.582 833.55 224.319C835.136 221.942 836.948 219.791 839.1 217.98C841.253 216.056 843.631 214.471 846.01 213.226C848.502 211.868 850.994 210.849 853.599 209.944C858.81 208.133 864.133 206.661 869.457 205.529C874.781 204.398 880.218 203.379 885.541 202.7C890.978 202.134 896.415 201.794 901.852 201.568C907.289 201.342 912.726 201.228 918.163 201.228C907.402 202.247 896.642 203.492 885.994 205.529C880.671 206.322 875.347 207.114 870.137 208.359C864.926 209.491 859.716 210.849 854.732 212.66C849.748 214.471 844.877 216.735 841.026 220.244C839.1 221.942 837.401 223.979 835.929 226.129C834.456 228.28 833.21 230.543 832.078 233.034C827.66 242.654 825.848 253.407 824.828 264.047C823.922 274.799 823.922 285.552 824.602 296.305C824.942 301.738 825.395 307.058 825.961 312.378C826.188 315.094 826.528 317.698 826.867 320.414L827.434 324.376C827.547 325.055 827.547 325.847 827.66 326.526C827.66 327.205 827.66 327.997 827.66 328.676C827.207 334.449 824.715 339.769 821.544 344.297C818.372 348.937 814.521 352.899 810.33 356.521C809.311 357.426 808.065 358.219 807.045 359.011L805.573 360.256L805.233 360.595L804.893 360.935L804.213 361.614C802.514 363.538 801.268 365.802 800.475 368.292C799.683 370.782 799.456 373.498 799.569 376.102C799.569 378.818 800.022 381.422 800.702 384.138L840.12 374.291L874.781 365.689L870.59 267.782C870.59 267.782 920.542 275.479 957.921 259.18C964.944 256.124 971.626 252.162 977.403 247.069C991.449 234.731 997.905 191.834 1003.34 175.874L1012.97 184.59L999.491 253.181L1000.62 253.86C984.879 252.502 969.135 258.048 962.905 260.085C962.452 260.198 961.998 260.425 961.659 260.538C956.335 262.236 945.121 270.951 943.082 277.742C941.044 284.534 942.969 288.495 946.027 289.514C948.859 290.532 956.335 276.724 957.581 278.195C957.581 278.195 953.163 283.289 952.71 291.099C952.144 300.606 957.808 307.624 961.885 305.586C964.151 304.455 962.905 292.117 966.076 293.023C966.076 293.023 961.772 300.38 968.455 310.906C973.326 318.603 979.669 314.076 977.403 308.416C972.08 295.4 981.141 291.551 981.141 291.551C981.141 291.551 988.617 288.948 996.093 288.948C1003.57 288.948 1013.65 283.968 1013.65 283.968C1013.65 283.968 1017.05 281.817 1022.14 273.102C1022.82 271.97 1023.5 270.725 1024.3 269.367C1024.3 269.367 1064.51 195.908 1055.22 165.121C1046.72 137.391 1005.38 95.851 997.339 88.0411C996.546 87.1356 995.753 86.3438 994.847 85.6646C994.62 85.4383 994.394 85.3251 994.167 85.0987C992.581 83.7405 990.882 82.6085 989.07 81.5898C985.672 79.3261 982.614 77.8545 979.555 76.949C966.756 72.082 958.261 75.1379 952.371 82.4951L905.363 117.13L895.622 78.3075L893.244 61.6688C893.244 61.6688 899.473 45.8229 899.813 40.9558C900.38 32.6932 905.703 25.5622 903.211 21.4875C902.192 19.9029 899.7 20.2425 896.868 22.7327C894.036 25.3359 892.791 35.7491 888.146 34.0513C883.616 32.3535 880.104 14.2437 876.14 13.2251C870.703 11.7536 871.836 17.9786 871.836 17.9786L872.968 29.6372L871.836 29.9765C871.836 29.9765 867.078 16.5072 862.094 16.8467C857.11 17.1863 861.415 30.3158 861.415 30.3158L862.321 35.6358C862.321 35.6358 862.094 37.3338 860.055 37.4469C858.017 37.5601 846.69 30.2031 844.537 31.9009C841.253 34.5042 845.444 39.4841 850.201 42.8797C860.848 50.5764 865.719 64.7251 865.719 64.7251L865.379 68.2334H865.266C865.266 68.2334 856.431 133.316 878.972 151.652C898.001 167.046 923.713 156.18 931.189 152.445C927.678 164.443 923.147 173.271 915.558 173.837C895.849 175.309 859.942 149.502 833.55 162.179C807.385 174.742 811.123 207.567 797.304 259.972C794.925 268.801 785.864 284.873 764.342 285.213C749.504 285.439 749.504 312.717 749.504 312.717L823.129 308.755C822.223 304.568 821.883 300.38 821.657 296.192Z" fill="#1E2B3C"/>
<path d="M800.249 368.067C801.042 365.577 802.288 363.2 803.987 361.389L804.667 360.71L805.007 360.37L805.347 360.031L806.819 358.786C807.838 357.993 809.084 357.201 810.104 356.295C814.295 352.673 818.146 348.712 821.318 344.071C824.489 339.431 826.981 334.224 827.434 328.452C827.434 327.773 827.434 326.98 827.434 326.301C827.321 325.622 827.321 324.83 827.208 324.15L826.641 320.189C826.301 317.472 825.962 314.869 825.735 312.153C825.169 306.833 824.716 301.4 824.376 296.08C823.81 285.328 823.696 274.575 824.602 263.822C825.622 253.183 827.434 242.43 831.852 232.809C832.871 230.432 834.23 228.055 835.703 225.905C837.175 223.754 838.874 221.716 840.8 220.019C844.651 216.51 849.522 214.246 854.506 212.435C859.49 210.624 864.7 209.266 869.91 208.134C875.121 207.002 880.445 206.097 885.768 205.304C896.416 203.38 907.176 202.022 917.937 201.003C912.5 200.89 907.063 201.003 901.626 201.343C896.189 201.569 890.752 202.022 885.315 202.475C879.878 203.154 874.555 204.172 869.231 205.304C863.907 206.436 858.584 207.907 853.373 209.718C850.768 210.737 848.276 211.756 845.784 213.001C843.292 214.36 840.913 215.944 838.875 217.755C836.722 219.679 834.91 221.83 833.324 224.093C831.738 226.47 830.379 228.847 829.247 231.337C824.716 241.524 822.79 252.39 821.771 263.256C820.751 274.122 820.865 285.101 821.431 295.967C821.657 300.155 821.997 304.456 822.45 308.644C822.564 309.889 822.677 311.021 822.79 312.266C823.017 314.982 823.357 317.699 823.696 320.416L824.263 324.49C824.376 325.169 824.376 325.735 824.489 326.414C824.489 326.98 824.489 327.66 824.489 328.339C824.149 333.432 821.771 338.299 818.826 342.6C815.881 347.015 812.143 350.75 808.065 354.258L805.007 356.861L803.421 358.333L803.081 358.672L802.741 359.125L802.062 360.031C800.363 362.295 799.117 365.011 798.55 367.727C797.418 373.274 798.324 378.82 800.136 383.8C800.136 383.8 800.136 383.8 800.136 383.913C799.457 381.31 799.117 378.594 799.003 375.877C799.343 373.274 799.57 370.557 800.249 368.067Z" fill="#EDCFC5"/>
<path d="M953.055 50.9148L959.171 50.8015V55.103C960.984 55.103 962.683 54.3103 963.929 53.0653C964.495 52.4993 965.401 52.4993 965.967 53.0653C966.534 53.6312 966.534 54.537 965.967 55.103C964.155 56.914 961.776 57.9322 959.171 58.0454L959.285 64.6106C962.116 66.7611 965.628 68.1194 969.479 68.0062C978.54 67.893 985.676 60.5357 985.676 51.4808V48.6511C985.903 48.8775 986.13 49.1039 986.469 49.217C987.942 49.783 989.981 48.085 990.774 45.5948C991.567 43.1047 991.113 40.6147 989.528 40.0488C988.622 39.7092 987.602 40.1619 986.809 41.0674C986.356 41.5201 985.563 41.2938 985.45 40.6147C984.204 32.6916 977.408 26.6931 969.139 26.8063C960.077 26.9194 952.941 34.2762 952.941 43.3311L953.055 50.9148Z" fill="#1E2B3C"/>
<path d="M966.077 53.0651C965.511 52.4991 964.605 52.4991 964.039 53.0651C962.793 54.3101 961.094 55.1028 959.281 55.1028V57.9324C961.886 57.9324 964.265 56.8005 966.077 54.9895C966.644 54.5367 966.644 53.631 966.077 53.0651Z" fill="#E5AA20"/>
<path d="M330.863 352.334C332.562 372.028 333.581 391.836 335.96 411.418C337.206 421.152 338.678 430.886 341.283 440.394C341.283 440.62 341.397 440.733 341.397 440.96C353.063 446.166 366.656 448.769 381.494 444.581C424.877 432.244 451.835 333.998 451.835 333.998L451.608 333.885L453.307 328.791C453.307 328.791 468.939 311.587 488.761 307.172C497.709 305.135 506.658 300.495 503.599 294.949C501.447 290.987 480.945 294.835 478 293.364C475.169 291.893 475.848 289.402 475.848 289.402L480.379 282.385C480.379 282.385 494.424 266.312 487.628 262.804C480.832 259.295 465.767 275.593 465.767 275.593L464.408 274.348L473.016 258.389C473.016 258.389 478.453 250.24 469.845 248.995C463.502 248.089 447.644 271.745 440.055 271.405C432.466 271.066 436.997 255.22 434.618 249.9C432.126 244.58 428.841 242.543 426.349 244.24C420.233 248.542 423.517 261.898 419.326 274.009C416.835 281.14 416.042 307.625 416.042 307.625L402.449 329.923L364.844 379.386L323.387 308.87C324.972 313.511 326.218 318.265 327.125 323.132C329.05 332.526 329.956 342.373 330.863 352.334Z" fill="#1E2B3C"/>
<path d="M291.217 283.627C293.143 283.854 295.069 284.193 296.881 284.646C299.146 285.212 301.412 286.118 303.564 287.136C307.755 289.287 311.38 292.456 314.211 296.304C317.043 300.152 319.195 304.454 320.781 309.094C322.367 313.622 323.499 318.376 324.406 323.243C326.218 332.864 327.124 342.711 328.03 352.558C329.729 372.253 330.749 391.947 333.241 411.642C334.487 421.489 335.959 431.336 338.564 440.957C340.037 445.711 341.962 450.464 344.454 454.766C345.7 456.916 347.286 458.954 349.098 460.765C349.212 460.878 349.325 460.991 349.438 460.991C351.251 462.575 353.403 463.821 355.781 464.16C353.403 463.481 351.364 462.01 349.778 460.199C348.192 458.388 346.946 456.237 345.927 454.087C343.888 449.899 342.642 445.371 341.623 440.844C341.623 440.617 341.509 440.504 341.509 440.278C338.904 430.883 337.432 421.036 336.186 411.302C333.807 391.721 332.674 372.026 331.089 352.219C330.182 342.371 329.276 332.524 327.464 322.677C326.558 317.923 325.425 313.056 323.726 308.415C323.726 308.302 323.613 308.189 323.613 308.076C321.914 303.322 319.762 298.681 316.703 294.606C313.645 290.531 309.681 287.023 305.036 284.646C300.392 282.269 295.409 281.024 290.311 280.571C286.347 280.345 282.496 280.571 278.645 281.137C282.722 281.59 287.027 282.382 291.217 283.627Z" fill="#EDCFC5"/>
<path d="M557.966 684.989C556.947 680.914 555.361 677.066 552.643 673.67C550.037 670.275 546.299 667.784 542.222 666.426C538.031 665.068 534.066 664.728 530.102 663.596L527.157 662.918L524.212 662.125C522.286 661.672 520.361 660.88 518.435 660.314C514.697 658.843 510.959 657.371 507.448 655.334C504.05 653.296 500.765 650.92 498.046 648.09C495.328 645.26 493.062 641.978 491.59 638.356L491.024 636.997C490.91 636.545 490.797 636.092 490.571 635.639C490.231 634.734 490.004 633.715 489.891 632.696C489.438 630.659 488.985 628.735 488.645 626.698C488.305 624.66 487.852 622.736 487.512 620.699L486.493 614.7C485.36 606.664 484.567 598.514 484.114 590.365C483.661 582.215 483.661 574.066 483.661 565.803C483.661 557.653 483.888 549.391 483.661 541.128C483.435 532.866 482.755 524.603 480.943 516.453C480.603 514.416 479.923 512.379 479.357 510.341C478.677 508.417 478.111 506.38 477.318 504.456C475.845 500.494 473.92 496.759 471.881 493.137L470.182 490.42C469.616 489.515 469.049 488.723 468.37 487.817C467.237 486.12 465.878 484.422 464.632 482.837C463.386 481.139 461.913 479.668 460.554 478.083C459.081 476.499 457.382 475.141 455.57 473.896C453.758 472.65 451.832 471.745 449.907 470.839C447.981 470.047 445.942 469.255 443.903 468.689C439.826 467.444 435.748 466.764 431.67 466.199C423.401 465.18 415.133 465.067 406.864 465.407C398.595 465.746 390.327 466.538 382.171 467.557C374.016 468.802 365.973 470.387 357.931 472.198C350.229 473.896 342.64 475.819 335.164 477.97V478.083C350.909 474.801 366.653 472.085 382.624 470.5C390.78 469.481 398.822 468.689 406.977 468.349C415.133 468.009 423.288 468.123 431.33 469.141C435.295 469.707 439.372 470.387 443.224 471.519C445.149 472.084 447.075 472.763 448.887 473.556C450.7 474.348 452.512 475.253 454.098 476.385C455.683 477.517 457.269 478.649 458.515 480.121C459.874 481.705 461.234 483.064 462.48 484.648C463.726 486.233 464.972 487.817 466.104 489.515C466.671 490.307 467.237 491.1 467.803 492.005L469.389 494.609C471.428 498.117 473.24 501.739 474.599 505.475C475.392 507.286 475.959 509.323 476.525 511.134C476.978 513.058 477.658 514.982 477.998 517.019C479.81 524.942 480.376 533.092 480.603 541.242C480.829 549.391 480.716 557.54 480.603 565.803C480.603 574.066 480.603 582.215 481.056 590.478C481.509 598.741 482.189 606.89 483.435 615.153L484.454 621.264C484.794 623.302 485.247 625.339 485.587 627.376C485.926 629.414 486.493 631.452 486.946 633.376C487.172 634.394 487.399 635.413 487.739 636.431C487.852 636.997 487.965 637.451 488.192 638.016L488.758 639.488C490.344 643.449 492.836 647.071 495.781 650.127C498.726 653.183 502.237 655.674 505.862 657.824C513.111 662.012 521.153 664.728 529.309 666.539C533.273 667.445 537.691 667.671 541.316 668.69C545.053 669.708 548.565 671.859 551.17 674.802C553.775 677.745 555.701 681.48 556.834 685.328C558.079 689.177 558.646 693.252 558.646 697.44C559.212 693.252 558.872 689.064 557.966 684.989Z" fill="#EDCFC5"/>
<path d="M256.554 245.937C257.007 245.711 257.346 245.258 257.573 244.918L258.479 249.106C261.198 262.576 274.337 271.178 287.703 268.462C293.366 267.33 298.237 264.273 301.748 260.085L299.596 249.559C298.69 249.785 297.784 249.786 296.878 249.786C294.159 249.786 291.441 248.993 289.175 247.409C288.496 246.956 288.382 246.05 288.722 245.484C289.175 244.805 290.081 244.692 290.648 245.032C293.14 246.616 296.085 247.182 298.917 246.729L297.444 239.599L306.619 237.788L304.24 226.356C301.522 212.887 288.382 204.284 275.017 207.001C262.783 209.491 254.515 220.583 255.194 232.694C255.308 233.713 254.175 234.392 253.269 233.826C251.683 232.808 250.097 232.468 248.851 233.147C246.699 234.392 246.699 238.241 248.738 241.749C250.777 245.258 254.515 247.182 256.554 245.937Z" fill="#1E2B3C"/>
<path d="M290.767 245.146C290.087 244.693 289.181 244.919 288.841 245.598C288.388 246.277 288.615 247.183 289.294 247.523C291.673 249.107 294.278 249.899 296.997 249.899C297.903 249.899 298.809 249.786 299.715 249.673L299.149 246.957C296.204 247.41 293.259 246.844 290.767 245.146Z" fill="#E5AA20"/>
<path d="M154.272 590.367C154.272 590.367 168.318 599.874 179.645 601.459C190.972 603.043 201.619 608.476 201.619 608.476C201.619 608.476 214.645 616.06 203.771 634.623C199.127 642.659 207.623 650.922 216.684 640.282C229.031 625.794 223.933 613.796 223.933 613.796C228.804 613.117 224.387 631.453 227.558 633.717C233.335 637.678 243.303 628.284 244.322 613.796C245.228 601.911 239.678 593.31 239.678 593.31C241.717 591.272 250.212 613.57 254.743 612.777C259.614 611.872 263.125 606.326 261.539 595.686C260.633 591.724 258.594 588.216 256.329 585.047C253.95 581.877 251.345 578.821 248.513 576.105C245.681 573.388 242.623 570.785 239.338 568.748L238.092 568.069L236.846 567.389L234.128 566.031C232.315 565.126 230.503 564.221 228.691 563.315C221.442 559.919 214.079 556.75 206.49 554.373C198.901 551.883 191.085 550.185 183.27 549.393L182.024 549.279L181.91 548.035L174.321 440.733L174.208 439.941L174.888 439.488L216.118 411.418L221.215 407.909C222.914 406.777 224.613 405.532 226.425 404.4L236.96 397.722C243.982 393.308 251.005 388.894 258.141 384.48C251.458 389.46 244.775 394.327 238.092 399.307L228.011 406.664C226.312 407.909 224.613 409.041 222.914 410.173L218.95 412.889C220.309 420.699 221.328 428.396 222.461 435.98C225.179 457.485 228.578 485.895 233.335 510.57C237.526 532.302 242.85 550.864 249.759 558.9C272.3 585.046 306.621 588.442 336.524 584.707C369.712 580.633 397.463 567.843 397.463 567.843L431.331 723.135L558.873 697.328C558.873 693.253 558.193 689.178 557.061 685.217C555.928 681.369 554.002 677.634 551.397 674.691C548.792 671.748 545.281 669.598 541.543 668.579C537.805 667.673 533.5 667.333 529.536 666.428C521.494 664.617 513.452 662.014 506.089 657.713C502.465 655.562 499.066 653.072 496.008 650.016C493.063 646.96 490.571 643.338 488.985 639.376L488.419 637.905C488.193 637.452 488.079 636.887 487.966 636.321C487.626 635.302 487.4 634.283 487.173 633.264C486.72 631.227 486.267 629.19 485.814 627.266C485.474 625.228 485.021 623.19 484.681 621.153L483.662 615.041C482.416 606.892 481.736 598.629 481.283 590.367C480.83 582.104 480.83 573.841 480.83 565.692C480.83 557.429 481.056 549.28 480.83 541.13C480.603 532.981 479.924 524.832 478.225 516.908C477.885 514.871 477.205 512.947 476.752 511.022C476.073 509.098 475.506 507.174 474.827 505.363C473.467 501.628 471.542 498.006 469.616 494.497L468.03 491.894C467.464 490.989 466.898 490.196 466.331 489.404C465.199 487.706 463.953 486.122 462.707 484.537C461.461 482.952 460.102 481.481 458.742 480.009C457.383 478.538 455.911 477.406 454.325 476.274C452.739 475.142 450.927 474.237 449.114 473.444C447.302 472.652 445.376 471.973 443.451 471.407C439.6 470.275 435.635 469.596 431.557 469.03C423.515 468.011 415.36 467.899 407.204 468.238C399.049 468.578 390.893 469.37 382.851 470.389C366.994 471.973 351.136 474.689 335.391 477.972V477.859C342.867 475.708 350.569 473.784 358.158 472.086C366.201 470.275 374.243 468.804 382.398 467.446C390.554 466.314 398.822 465.635 407.091 465.295C415.36 464.956 423.629 465.068 431.897 466.087C435.975 466.653 440.166 467.332 444.13 468.577C446.169 469.143 448.095 469.822 450.134 470.728C452.059 471.52 453.985 472.539 455.797 473.784C457.61 474.916 459.309 476.387 460.781 477.972C462.14 479.556 463.613 481.028 464.859 482.726C466.105 484.31 467.464 486.008 468.597 487.706C469.163 488.611 469.843 489.404 470.409 490.31L472.108 493.026C474.26 496.648 476.073 500.383 477.545 504.345C478.338 506.269 478.904 508.306 479.584 510.23C480.15 512.267 480.717 514.305 481.17 516.342C482.982 524.492 483.548 532.754 483.888 541.017C484.115 549.28 484.001 557.542 483.888 565.692C483.888 573.841 483.888 582.104 484.341 590.253C484.681 598.403 485.474 606.552 486.72 614.588L487.739 620.587C488.079 622.625 488.532 624.549 488.872 626.586C489.212 628.624 489.778 630.548 490.118 632.585C490.345 633.604 490.571 634.623 490.798 635.528C490.911 635.981 491.024 636.434 491.251 636.887L491.817 638.244C493.29 641.866 495.555 645.149 498.274 647.979C500.992 650.808 504.277 653.185 507.675 655.222C511.073 657.26 514.811 658.844 518.662 660.203C520.588 660.882 522.513 661.561 524.439 662.014L527.384 662.806L530.329 663.485C534.293 664.617 538.258 664.957 542.449 666.315C546.527 667.673 550.264 670.163 552.87 673.559C555.475 676.841 557.174 680.803 558.193 684.878C559.1 688.952 559.553 693.027 559.213 697.215L600.103 688.952C600.103 688.952 599.65 665.522 577.336 662.014C544.941 656.92 527.95 637.112 525.458 623.417C511.866 545.092 514.245 493.139 468.937 465.182C421.137 435.753 384.89 470.728 355.553 464.389C353.401 463.937 351.362 462.691 349.55 460.994C349.437 460.881 349.323 460.768 349.21 460.768C347.398 459.07 345.925 456.919 344.566 454.768C341.961 450.354 340.149 445.714 338.676 440.96C336.071 431.226 334.598 421.492 333.352 411.645C330.86 391.95 329.841 372.142 328.142 352.561C327.236 342.714 326.33 332.867 324.517 323.246C323.611 318.492 322.478 313.738 320.893 309.097C319.307 304.57 317.155 300.155 314.323 296.307C311.491 292.458 307.867 289.29 303.676 287.139C301.523 286.12 299.371 285.215 296.993 284.649C295.18 284.083 293.255 283.857 291.329 283.63C287.138 282.385 282.834 281.593 278.53 281.14C263.918 279.668 248.966 282.725 235.374 290.308C230.39 293.138 225.633 295.968 221.102 298.91C200.373 312.04 139.774 353.579 116.78 402.702C106.926 423.868 112.023 461.899 120.178 496.082C129.013 533.546 141.473 566.145 141.473 566.145C148.382 585.5 154.272 590.367 154.272 590.367Z" fill="#1E2B3C"/>
<path d="M217.933 413.792L219.066 413L223.03 410.283C224.729 409.152 226.542 408.02 228.127 406.775L238.209 399.417C244.891 394.55 251.574 389.57 258.257 384.59C251.121 389.004 244.099 393.419 237.076 397.833L226.542 404.511C224.729 405.643 223.03 406.775 221.331 408.02L216.234 411.529L175.004 439.599L174.324 440.051L174.437 440.844L182.027 548.145L182.14 549.39L183.386 549.503C191.201 550.296 199.017 551.993 206.606 554.483C214.195 556.86 221.558 560.029 228.807 563.425C230.619 564.331 232.432 565.123 234.244 566.142L236.963 567.5L238.209 568.179L239.454 568.858C242.739 570.896 245.798 573.499 248.629 576.216C251.461 578.932 254.18 581.988 256.445 585.157C258.71 588.44 260.863 591.835 261.655 595.797C261.089 591.835 259.39 587.987 257.238 584.591C255.086 581.196 252.594 577.913 249.875 574.857C247.157 571.801 244.212 568.971 240.814 566.481L239.568 565.576L238.209 564.784C237.302 564.331 236.396 563.878 235.49 563.425L230.053 560.822C222.804 557.313 215.328 554.144 207.512 551.767C200.15 549.39 192.561 547.693 184.858 546.9L181.347 497.324L177.383 441.523L217.933 413.792Z" fill="#EDCFC5"/>
</svg>
