<svg width="1195" height="844" viewBox="0 0 1195 844" fill="none" xmlns="http://www.w3.org/2000/svg">
<g clip-path="url(#clip0_3_5147)">
<path d="M574.322 91.4004C574.808 91.0753 575.132 90.5872 575.293 89.9372L576.913 94.8126C581.931 110.089 598.284 118.54 613.665 113.502C620.141 111.389 625.321 107.164 628.884 101.801L624.998 89.7752C623.378 90.2628 621.76 90.5878 619.979 90.5878C617.388 90.5878 614.96 89.9376 612.531 88.8C611.722 88.4749 611.397 87.4993 611.884 86.6868C612.208 85.8743 613.179 85.5493 613.988 86.0368C617.065 87.662 620.626 87.8246 624.026 86.8495L621.274 78.561L631.798 75.1488L627.589 62.1474C622.569 46.8708 606.218 38.4199 590.837 43.458C576.913 48.0084 568.818 62.1469 571.246 76.2859C571.409 77.4235 570.275 78.3985 569.141 77.911C567.198 76.9359 565.255 76.7732 563.96 77.7483C561.694 79.5361 562.18 83.9243 565.094 87.8247C568.009 91.7252 572.056 93.0256 574.322 91.4004Z" fill="#1E2B3C"/>
<path d="M613.393 85.9098C612.576 85.5719 611.759 85.9105 611.269 86.5864C610.942 87.4311 611.269 88.2756 611.923 88.7826C614.211 89.9654 616.826 90.6414 619.44 90.6414C621.075 90.6414 622.872 90.3034 624.506 89.7965L623.526 86.7547C620.094 87.7684 616.661 87.5995 613.393 85.9098Z" fill="#E5AA20"/>
<path d="M841.486 228.047L735.991 258.415L681.615 274.167C688.453 304.697 701.64 365.595 712.385 429.903L778.97 413.177L792.646 409.766C789.715 405.544 787.436 401.322 786.459 397.749C783.041 385.57 781.087 370.792 782.552 368.032C784.018 365.27 784.994 362.347 787.924 361.859C790.855 361.373 796.878 363.808 796.878 363.808C796.878 363.808 783.529 348.219 792.972 342.048C802.414 335.877 814.623 352.441 814.623 352.441C814.298 350.167 814.135 347.893 814.623 345.458C814.786 344.808 814.949 344.159 815.6 343.51C815.763 343.185 816.252 342.86 816.577 342.697L817.391 342.21C818.368 341.56 819.508 340.911 820.811 340.425C823.415 339.774 826.183 340.262 828.625 341.074C831.067 341.885 833.02 343.184 834.974 344.645C838.719 347.407 842.137 350.33 845.393 353.74C848.65 356.988 851.579 360.56 854.347 364.133C860.045 371.278 865.255 378.586 870.139 386.219C870.953 387.518 871.604 388.817 872.418 390.117L899.118 383.459L841.486 228.047Z" fill="white"/>
<path d="M871.545 408.637C872.032 407.664 872.355 406.691 872.355 405.72C872.518 403.774 872.032 401.668 871.221 399.886C870.734 397.941 870.087 395.996 869.113 394.051C868.141 392.106 867.006 390.323 865.871 388.379C861.171 380.923 855.984 373.63 850.472 366.661C847.717 363.257 844.799 359.854 841.881 356.612C838.963 353.533 835.56 350.616 832.155 348.023C830.372 346.726 828.589 345.753 826.806 345.105C825.022 344.457 823.077 344.295 821.294 344.62C820.322 344.781 819.349 344.781 818.377 345.268L817.566 345.591C817.404 345.754 817.404 345.591 817.242 345.753C816.918 345.915 816.756 346.239 816.432 346.726C815.945 347.536 815.458 348.508 815.135 349.643C814.811 350.616 814.486 351.75 814.325 352.885C814.325 352.885 802.005 336.353 792.765 342.511C783.363 348.67 796.655 364.23 796.655 364.23C796.655 364.23 790.82 361.798 787.739 362.284C784.822 362.771 783.85 365.526 782.391 368.443C780.931 371.361 782.877 385.785 786.281 398.103C787.253 401.668 789.523 405.882 792.441 410.096L778.824 413.5C797.789 423.709 811.406 430.517 811.406 430.517L811.569 430.355C812.216 430.678 812.704 430.841 813.19 431.003C818.052 431.489 823.564 430.517 829.885 427.276C836.207 424.034 847.555 427.276 851.931 422.576C856.307 417.875 863.278 414.148 869.113 411.231C870.248 410.42 871.059 409.61 871.545 408.637Z" fill="#1E2B3C"/>
<path d="M854.251 363.855C851.478 360.282 848.54 356.874 845.277 353.464C842.013 350.055 838.587 347.133 834.834 344.372C832.877 343.074 830.755 341.774 828.471 340.8C826.024 339.989 823.25 339.664 820.64 340.15C819.335 340.638 818.192 341.124 817.213 341.937L816.397 342.423C816.234 342.586 815.744 342.911 815.418 343.235C814.929 343.885 814.766 344.534 814.439 345.183C813.787 347.619 814.113 349.892 814.439 352.164C814.602 351.029 814.929 349.892 815.256 348.918C815.581 347.944 815.908 346.807 816.561 345.996C816.886 345.671 817.05 345.183 817.376 345.022C817.539 344.859 817.539 345.022 817.703 344.859L818.518 344.534C819.497 344.209 820.476 344.046 821.455 343.885C823.25 343.56 825.044 343.723 827.003 344.372C828.798 345.022 830.593 346.157 832.387 347.294C835.814 349.729 839.24 352.815 842.177 355.899C845.277 358.984 848.051 362.393 850.824 365.965C856.372 372.946 861.593 380.252 866.325 387.72C867.467 389.668 868.609 391.455 869.589 393.403C870.567 395.351 871.219 397.299 871.709 399.248C872.526 401.196 873.014 403.144 872.851 405.092C872.688 406.066 872.526 407.04 872.036 408.014C871.546 408.988 870.73 409.8 869.914 410.45C871.057 410.125 872.036 409.637 873.014 408.826C873.993 408.014 874.646 406.878 875.136 405.741C876.115 403.306 876.115 400.708 875.951 398.273C875.136 395.026 873.831 392.104 872.362 389.344C871.709 388.045 870.894 386.746 870.077 385.447C865.183 378.303 859.799 370.998 854.251 363.855Z" fill="#F45F63"/>
<path d="M431.307 386.129C431.681 395.74 432.147 404.871 432.522 412.881C432.522 412.401 432.522 411.92 432.522 411.439C432.147 402.949 431.681 394.459 431.307 386.129Z" fill="#1E2B3C"/>
<path d="M499.352 507.729L497.51 386.129C496.404 422.56 496.772 464.011 499.352 507.729Z" fill="#1E2B3C"/>
<path d="M681.762 274.226L736.118 258.437C721.146 224.25 702.593 185.18 690.713 171.342C674.927 153.11 661.582 144.481 654.91 140.9C632.126 127.388 611.62 126.899 595.346 125.923C586.395 125.76 577.607 126.574 568.982 128.365C564.751 129.179 560.356 130.318 556.288 131.62C552.057 132.923 547.987 134.551 544.082 136.179C542.129 137.156 540.177 137.969 538.223 138.946C536.27 139.76 534.317 140.737 532.365 141.714C528.458 143.667 524.716 145.947 521.135 148.389C513.811 153.272 506.977 158.645 500.793 164.83C494.445 170.854 488.749 177.528 483.705 184.691C481.101 188.272 478.823 191.855 476.382 195.599C474.102 199.343 471.824 203.087 469.708 206.994C465.315 214.645 461.246 222.459 457.503 230.436C453.76 238.413 450.342 246.551 447.25 254.691C441.066 271.133 436.672 288.227 434.068 305.645C431.139 323.065 431.953 340.646 433.091 358.228C434.231 375.809 436.184 393.554 437.322 411.298C437.648 415.693 437.811 420.251 437.811 424.646C437.811 426.926 437.811 429.204 437.648 431.483C437.485 433.763 437.322 436.042 436.998 438.158C435.37 446.624 434.068 455.251 432.929 463.879C432.929 464.693 433.091 465.507 433.254 466.32C436.021 478.367 435.207 491.229 435.207 491.229C435.207 491.229 432.929 507.345 410.308 504.089C400.38 502.624 395.661 514.67 409.819 519.391C429.023 525.74 438.951 515.809 438.951 515.809C441.555 520.531 421.7 523.461 420.723 527.531C419.096 534.857 432.44 541.042 447.25 536.159C459.293 532.252 465.64 523.136 465.64 523.136C468.407 524.438 449.854 542.019 452.458 546.089C455.387 550.485 457.828 553.903 467.756 547.88C477.683 542.02 491.19 518.577 491.841 509.297C492.33 500.996 496.235 469.577 489.4 443.856L483.867 337.715L508.604 249.971C504.373 267.064 498.839 317.855 497.212 385.414L504.535 801.998H664.837C663.697 797.441 662.07 792.882 660.281 788.486C658.489 784.09 656.374 779.859 653.77 775.952C651.166 772.045 648.075 768.464 644.331 766.022C642.379 764.881 640.426 764.068 638.31 763.579C636.356 763.254 633.753 763.254 631.311 762.928C626.429 762.278 621.71 761.463 616.99 759.836C612.271 758.371 607.714 756.254 603.646 753.161C599.577 750.068 596.16 745.998 594.044 741.439C591.766 736.882 591.115 731.672 590.952 726.789C590.463 717.184 590.789 707.58 590.952 697.974C591.278 688.369 591.603 678.765 591.928 669.323L594.532 612.02C596.323 573.927 597.624 535.67 597.787 497.578L596.81 440.274C597.136 421.227 597.298 402.018 597.787 382.972L604.459 382.483L648.562 765.207C651.492 767.975 653.77 771.23 655.723 774.649C660.443 783.114 663.209 792.393 664.837 801.835H811.631C811.631 801.835 809.027 760.648 778.432 759.346C747.998 758.045 744.418 746.974 741.326 734.277C737.908 719.951 730.748 561.717 722.61 497.252C719.843 475.275 716.264 452.483 712.52 430.019C701.78 365.879 688.597 304.831 681.762 274.226Z" fill="#1E2B3C"/>
<path d="M436.786 438.548C437.111 436.425 437.275 434.14 437.438 431.854C437.601 429.567 437.601 427.281 437.601 424.995C437.601 420.421 437.275 416.012 437.111 411.603C435.971 393.803 434.015 376.166 432.875 358.366C431.734 340.729 430.919 322.928 433.852 305.617C436.297 288.145 440.86 270.998 447.052 254.504C450.148 246.176 453.571 238.173 457.318 230.172C461.23 222.169 465.14 214.33 469.54 206.654C471.659 202.735 473.94 198.979 476.222 195.224C478.503 191.468 480.947 187.712 483.555 184.282C488.606 177.097 494.472 170.401 500.666 164.36C506.858 158.317 513.701 152.764 521.034 147.865C524.62 145.415 528.531 143.293 532.279 141.17C534.234 140.19 536.19 139.21 538.145 138.394C540.1 137.414 542.057 136.597 544.012 135.617C548.086 133.821 552.16 132.351 556.233 131.045C560.47 129.738 564.707 128.595 568.944 127.779C577.581 126.146 586.381 125.329 595.344 125.329C577.581 123.369 559.493 125.982 542.545 132.025C538.308 133.495 534.234 135.454 530.161 137.577C526.249 139.7 522.338 141.987 518.591 144.436C511.095 149.335 504.087 155.051 497.57 161.42C491.051 167.626 485.184 174.647 479.97 181.833C477.362 185.425 474.918 189.345 472.473 193.101C470.192 197.02 467.91 200.776 465.792 204.695C461.392 212.534 457.318 220.373 453.408 228.539C449.659 236.704 446.075 244.868 442.978 253.197C436.786 270.018 432.223 287.492 429.615 305.291C429.29 307.578 428.964 309.701 428.801 311.987C428.475 314.273 428.311 316.396 428.149 318.682C427.823 323.255 427.66 327.665 427.66 332.237C427.66 341.219 428.149 350.201 428.638 359.019C429.29 368.165 430.105 377.309 430.919 386.455C431.734 395.109 432.386 403.601 433.038 412.093C433.038 412.583 433.038 413.073 433.038 413.563C433.201 417.482 433.527 421.402 433.527 425.322C433.527 427.444 433.527 429.731 433.364 431.854C433.201 433.976 432.711 436.263 432.711 438.385C432.548 442.794 432.386 447.366 432.386 451.776C432.386 456.185 432.386 460.758 432.711 465.168C432.711 465.005 432.711 464.842 432.711 464.515C433.689 455.696 435.156 447.041 436.786 438.548Z" fill="#F45F63"/>
<path d="M493.524 494.541C493.524 498.279 493.361 501.853 493.035 505.59C492.548 509.815 491.572 514.201 489.622 518.264C490.272 520.376 490.435 522.65 490.109 524.925L488.485 537.275L399.083 525.414L399.657 513.064C399.982 510.626 400.795 506.077 402.095 504.127C405.346 500.878 430.54 499.253 430.54 499.253C430.54 499.253 437.042 494.541 434.605 482.191C429.566 483.167 400.383 484.467 396.157 487.717C388.842 493.404 384.128 501.527 382.828 510.626L381.202 522.977L366.898 521.027L362.672 520.539L323.498 515.34C318.296 514.689 313.582 518.264 312.932 523.464L294.076 665.153C293.426 670.353 297.002 675.065 302.204 675.715L332.438 679.778L385.754 686.926L389.98 687.413L510.591 703.5L537.899 707.075C543.101 707.725 547.814 704.15 548.464 698.951L567.32 557.261C567.97 552.062 564.394 547.35 559.194 546.699L507.991 539.875L506.365 539.713L507.828 529.151L508.154 527.362C508.641 523.301 508.478 519.402 507.665 515.664C505.715 507.053 500.676 499.579 493.524 494.541Z" fill="#F45F63"/>
</g>
<defs>
<clipPath id="clip0_3_5147">
<rect width="605.118" height="760" fill="white" transform="translate(294 42)"/>
</clipPath>
</defs>
</svg>
