<svg width="1195" height="844" viewBox="0 0 1195 844" fill="none" xmlns="http://www.w3.org/2000/svg">
<path d="M784.203 640.446C790.852 635.909 797.35 631.07 803.546 626.079C798.106 631.523 792.212 636.515 786.318 641.354C780.425 646.193 774.229 651.032 768.033 655.568C755.189 664.188 742.041 672.204 728.29 679.161C714.538 686.117 700.333 692.318 685.524 696.855C670.714 701.392 655.452 704.717 639.887 705.473C627.344 706.078 614.65 705.171 602.41 702.449C577.324 723.318 543.323 748.271 506.148 765.964L535.314 843.998L864.295 720.596L803.697 624.266C803.848 624.417 796.594 631.07 784.203 640.446Z" fill="#F45F63"/>
<path d="M307.432 727.403C257.262 664.341 230.816 574.664 225.376 568.01C216.762 557.424 208.451 548.805 179.437 561.205C150.422 573.757 129.417 536.403 129.417 536.403L277.813 465.024L404.6 667.367L510.533 605.968C509.324 602.943 508.266 599.919 507.057 596.894C508.417 599.767 509.928 602.641 511.288 605.514L511.742 605.212C505.999 591.148 501.012 576.177 496.63 560.752C495.421 560.449 494.061 559.843 493.154 558.785C491.643 557.424 490.737 555.458 490.283 553.644C489.528 549.863 490.434 546.384 491.492 543.208L491.794 541.999C489.225 530.959 486.959 519.769 485.145 508.578C478.647 505.1 471.998 501.772 465.5 498.294C471.998 501.318 478.345 504.192 484.843 507.217L465.047 496.781C465.047 496.781 398.253 494.665 362.438 469.863C326.775 445.062 331.913 403.928 382.99 361.736C448.424 307.596 520.658 302.758 541.361 302.607C548.765 301.85 556.926 302.758 565.841 305.328C569.166 306.236 572.491 307.446 576.117 308.958C578.686 310.017 581.104 311.529 583.069 313.192C581.255 311.227 578.989 309.412 576.571 307.9C579.744 308.807 582.615 310.319 585.335 312.436C587.904 314.554 590.171 317.124 592.136 319.998C595.309 325.896 597.274 332.397 598.483 338.749C598.483 339.051 598.634 339.505 598.634 339.808L680.388 410.582L747.483 380.791C749.75 377.313 752.017 375.498 752.319 375.196C753.528 373.532 755.342 370.961 756.702 369.903C758.817 368.39 775.742 361.736 777.556 361.433C779.218 361.131 781.031 362.341 781.031 362.341L783.601 361.132C784.054 360.981 784.356 360.828 784.658 360.677L785.565 360.224C785.565 360.224 785.565 360.224 785.414 360.376C787.076 359.922 788.738 360.375 790.552 361.585L820.473 348.277C830.598 343.589 874.875 336.633 887.266 348.277C901.773 361.737 927.614 386.084 918.547 395.158C917.338 396.368 915.979 396.972 914.619 397.124L914.769 397.274C916.583 400.45 918.396 403.625 920.058 406.801C917.792 404.987 915.676 403.021 913.561 401.055C917.641 408.767 919.454 416.481 915.525 422.379C906.005 436.443 897.391 412.7 891.346 406.651C885.302 400.602 884.395 399.695 884.395 399.695C884.395 399.695 863.843 385.63 848.732 390.318C833.62 394.855 837.851 399.24 843.443 404.533C851.905 412.397 873.515 415.422 882.431 419.354C894.52 424.647 906.156 433.568 881.373 436.291C846.465 440.071 825.309 434.476 800.979 428.729L772.115 445.97C772.115 445.97 771.965 445.818 771.511 445.667C748.239 462.907 714.389 486.196 674.948 481.961C634.599 477.576 611.781 461.395 599.087 446.575C598.785 449.297 598.482 451.868 598.18 454.59C597.727 451.112 597.425 447.785 597.122 444.307C596.971 444.156 596.82 443.852 596.669 443.701C596.669 455.951 596.971 468.049 598.331 479.542C603.318 486.801 607.096 494.816 609.817 503.133C610.572 505.553 611.328 507.972 611.932 510.392C612.536 512.963 612.99 515.383 613.141 518.105C613.141 518.257 613.141 518.407 613.141 518.709C613.141 519.163 612.99 519.314 612.99 519.466C612.839 519.919 612.839 520.071 612.688 520.524L612.083 522.339C611.781 523.247 611.479 524.306 611.025 525.213C618.128 538.673 628.404 549.711 643.364 557.272C677.063 574.059 692.628 499.202 808.081 507.519C886.964 513.115 933.961 625.628 961.616 684.153L1149 613.983L919.303 0L659.534 97.3909C594.402 39.6221 508.72 4.53682 414.876 4.53682C211.171 4.53682 46.0006 169.829 46.0006 373.683C45.6984 540.638 156.013 681.43 307.432 727.403ZM475.927 162.268C481.67 162.268 486.354 166.805 486.657 172.551C486.808 172.551 486.808 172.551 486.959 172.551C486.959 166.653 491.794 161.813 497.688 161.813C497.99 161.813 498.292 161.813 498.595 161.813C500.106 154.857 504.941 148.808 512.044 146.237C521.866 142.759 532.445 146.993 537.431 155.613C537.734 155.462 538.036 155.311 538.489 155.16C541.965 153.95 545.592 154.252 548.614 155.613C551.183 152.891 554.81 151.379 558.89 151.379C566.899 151.379 573.246 157.882 573.246 165.746C573.246 166.502 573.246 167.107 573.095 167.712C578.989 167.258 584.58 170.736 586.696 176.482C587.753 179.205 587.753 182.229 586.846 184.8C590.322 186.161 593.194 188.883 594.554 192.664C596.669 198.562 594.403 204.913 589.416 208.24L597.274 226.69L595.914 227.296C597.878 229.867 599.389 232.891 600.447 236.067L604.83 249.677L593.949 253.306L597.122 262.985L597.425 263.741L601.958 277.502C598.331 283.097 592.891 287.483 586.091 289.6C572.339 294.137 557.681 288.24 550.579 276.142C548.916 279.015 545.743 280.981 542.116 280.981C541.814 280.981 541.512 280.981 541.058 280.981C539.547 284.46 536.071 286.878 532.142 286.878C528.213 286.878 524.738 284.46 523.227 280.981C521.867 281.737 520.204 282.191 518.542 282.191C513.102 282.191 508.719 277.805 508.719 272.361C508.719 269.488 509.928 266.917 511.893 265.103V264.95C512.346 264.194 512.8 263.59 513.404 262.985C513.706 263.136 514.16 263.287 514.462 263.438C515.671 262.833 517.031 262.531 518.542 262.531C518.844 262.531 519.146 262.531 519.6 262.531C520.355 257.843 524.436 254.214 529.271 254.214C530.631 254.214 531.84 254.516 532.898 254.97C533.049 253.911 533.503 252.853 534.258 252.248C535.316 251.492 536.525 251.34 538.036 251.793C538.792 251.491 539.698 251.188 540.605 251.037L532.445 232.134L533.049 231.833C531.387 231.53 529.725 230.773 528.364 229.865C528.213 230.017 528.062 230.017 527.76 230.168C520.809 232.588 513.253 229.11 510.684 222.153C509.324 218.524 509.777 214.743 511.44 211.567C508.871 213.685 505.546 214.895 501.919 214.895C493.608 214.895 486.807 208.09 486.807 199.772C486.807 199.47 486.807 199.318 486.807 199.016C481.367 199.016 476.078 195.689 474.114 190.245C473.358 187.977 473.207 185.556 473.509 183.288C468.673 182.229 465.047 177.996 465.047 172.854C465.198 167.107 470.034 162.268 475.927 162.268ZM453.562 162.569C457.793 161.057 462.478 163.326 463.989 167.409C465.5 171.643 463.233 176.332 459.153 177.844C454.922 179.356 450.237 177.088 448.726 173.005C447.215 168.921 449.331 164.082 453.562 162.569Z" fill="#F45F63"/>
<path d="M480.161 407.555L471.396 411.185L448.427 420.561C442.684 422.83 436.942 425.249 431.199 427.517C447.218 431.449 463.085 435.38 479.103 439.312C479.103 428.273 479.406 417.687 480.161 407.555Z" fill="#F45F63"/>
<path d="M541.82 251.036C541.82 250.885 541.82 250.886 541.82 250.734L541.062 251.036C541.365 251.188 541.517 251.188 541.82 251.036C541.82 251.188 541.82 251.188 541.82 251.036Z" fill="#E5AA20"/>
<path d="M513.406 263.137C512.65 263.742 512.197 264.348 511.895 265.105V265.256C512.65 264.65 513.557 264.046 514.463 263.592C514.161 263.441 513.859 263.288 513.406 263.137Z" fill="#EDCFC5"/>
<path d="M798.406 428.731C799.917 428.731 800.976 428.731 800.976 428.731C800.22 428.579 799.464 428.579 798.406 428.731Z" fill="#E5AA20"/>
<path d="M784.665 360.527C784.363 360.679 783.908 360.83 783.605 360.981L784.665 360.527Z" fill="#E5AA20"/>
<path d="M781.934 365.518L790.698 361.586C788.885 360.225 787.223 359.923 785.56 360.376C785.107 360.83 783.747 362.796 781.934 365.518Z" fill="#E5AA20"/>
<path d="M541.817 251.188C541.515 251.188 541.212 251.188 540.91 251.188L540.608 251.338V251.188C539.701 251.339 538.795 251.641 538.039 251.944C538.644 252.095 539.248 252.246 539.701 252.548C540.759 253.305 541.968 252.398 541.817 251.188Z" fill="#F45F63"/>
<path d="M546.198 265.403C545.896 266.008 545.594 266.461 545.14 266.915C542.723 268.73 538.34 267.067 535.318 262.984C533.353 260.413 532.447 257.389 532.749 255.272C531.54 254.818 530.331 254.516 529.122 254.516C524.286 254.516 520.206 258.145 519.451 262.833C519.148 262.833 518.846 262.833 518.393 262.833C516.882 262.833 515.521 263.135 514.312 263.74C513.406 264.194 512.499 264.798 511.744 265.403C509.779 267.218 508.57 269.79 508.57 272.663C508.57 278.107 512.953 282.493 518.393 282.493C520.055 282.493 521.566 282.038 523.077 281.282C524.588 284.76 528.064 287.18 531.993 287.18C536.074 287.18 539.398 284.76 540.909 281.282C541.211 281.282 541.513 281.282 541.967 281.282C545.594 281.282 548.767 279.317 550.43 276.444C549.372 274.629 548.465 272.662 547.709 270.545L546.198 265.403Z" fill="#E5AA20"/>
<path d="M601.206 377.465C601.206 383.968 600.904 390.319 600.601 396.822C600.148 403.173 600.299 409.676 600.299 416.028V435.385C599.997 439.165 599.544 442.946 599.241 446.727C611.935 461.547 634.905 477.578 675.102 482.115C714.543 486.349 748.393 463.06 771.665 445.82C767.585 443.854 744.918 431.452 741.895 407.558C740.233 394.855 744.011 386.085 747.486 380.943L680.391 410.735L598.637 339.961C600.903 352.21 601.206 364.913 601.206 377.465Z" fill="#1E2B3C"/>
<path d="M781.94 365.515C778.767 370.203 774.384 377.16 771.966 383.058C765.922 398.03 776.349 414.816 784.963 423.889C788.589 427.67 794.936 428.576 798.412 428.728C799.319 428.576 800.226 428.576 800.981 428.728C825.311 434.474 846.618 440.07 881.375 436.289C906.007 433.567 894.522 424.646 882.433 419.353C873.517 415.421 851.907 412.546 843.445 404.531C837.853 399.238 833.471 394.854 848.734 390.317C863.845 385.78 884.397 399.693 884.397 399.693C884.397 399.693 885.304 400.449 891.349 406.649C897.393 412.698 906.007 436.441 915.527 422.377C919.456 416.479 917.643 408.615 913.563 401.053C912.958 400.6 912.354 399.995 911.901 399.541L905.1 391.224C900.567 385.628 896.033 380.185 891.349 374.741C889.082 372.019 886.664 369.295 884.246 366.724C881.828 364.154 879.41 361.433 876.69 359.618C873.97 357.803 870.797 356.442 867.472 355.837C864.299 354.627 860.823 353.72 857.196 353.266C860.672 352.207 864.45 351.905 868.228 352.057C871.855 352.813 875.482 354.324 878.806 356.441C879.562 356.895 880.317 357.651 881.073 358.256L883.188 360.222C884.397 361.583 885.757 362.794 886.966 364.155C889.384 366.877 891.802 369.598 894.22 372.32C898.905 377.764 903.438 383.36 908.123 388.804L914.772 397.122C916.132 396.971 917.492 396.366 918.701 395.156C927.768 386.083 901.927 361.735 887.42 348.276C875.028 336.631 830.751 343.588 820.626 348.276L790.705 361.584L781.94 365.515Z" fill="#1E2B3C"/>
<path d="M593.653 700.334C592.746 700.032 591.84 699.729 590.933 699.426L588.213 698.369C586.399 697.613 584.586 697.007 582.773 696.251C580.959 695.344 579.146 694.587 577.483 693.68L572.346 690.655C565.697 686.421 559.803 681.129 554.363 675.685C548.922 670.24 543.936 664.191 539.251 657.991L535.776 653.302L532.451 648.464C531.393 646.951 530.335 645.288 529.277 643.624C528.22 641.961 527.162 640.449 526.255 638.634C522.628 631.829 519.001 625.023 515.828 617.916C514.166 614.437 512.654 610.808 511.294 607.33C510.992 606.725 510.841 606.27 510.69 605.665L404.757 667.064L277.971 464.723L129.574 536.101C129.574 536.101 150.579 573.303 179.594 560.903C208.608 548.502 216.92 557.122 225.533 567.708C230.973 574.362 257.419 664.04 307.59 727.102C332.524 758.406 363.2 783.055 400.073 787.743C435.283 792.28 472.155 781.997 506.308 765.815C543.482 748.122 577.484 723.321 602.569 702.3C599.547 701.846 596.524 701.242 593.653 700.334Z" fill="#1E2B3C"/>
<path d="M541.813 250.887C541.813 251.038 541.813 251.039 541.813 251.19C541.964 252.4 540.755 253.307 539.697 252.702C539.093 252.4 538.488 252.248 538.035 252.097C536.675 251.794 535.315 251.794 534.257 252.55C533.502 253.155 533.048 254.064 532.897 255.273C532.595 257.542 533.501 260.415 535.466 262.985C538.488 266.917 542.87 268.731 545.288 266.917C545.742 266.614 546.044 266.009 546.346 265.404L548.008 270.396C548.764 272.513 549.671 274.478 550.729 276.293C557.831 288.391 572.489 294.29 586.241 289.753C593.041 287.485 598.481 283.099 602.108 277.655L597.575 263.892C597.273 264.648 596.97 265.102 596.668 265.707C596.063 265.858 595.61 265.859 595.006 266.01C593.797 266.161 592.739 266.161 591.53 266.161C590.321 266.009 589.263 265.859 588.206 265.557C587.601 265.405 587.148 265.254 586.543 265.103C586.241 264.347 585.939 263.59 585.788 262.683C586.543 262.229 587.299 261.927 587.903 261.473C588.357 261.624 588.81 261.775 589.112 261.927C590.019 262.229 590.926 262.38 591.681 262.38C592.437 262.38 593.494 262.38 594.401 262.38C594.855 262.38 595.308 262.23 595.761 262.079L597.273 263.288L594.099 253.609L604.979 249.98L600.597 236.37C599.539 233.043 597.877 230.169 596.064 227.598L541.813 250.887Z" fill="#1E2B3C"/>
<path d="M594.399 262.38C593.492 262.531 592.586 262.531 591.679 262.38C590.772 262.228 589.865 262.229 589.11 261.926C588.656 261.775 588.203 261.624 587.901 261.473C587.297 261.775 586.692 262.229 585.785 262.682C585.936 263.59 586.239 264.347 586.541 265.103C587.145 265.255 587.599 265.406 588.203 265.557C589.261 265.859 590.47 266.01 591.528 266.161C592.737 266.312 593.794 266.162 595.003 266.01C595.608 266.01 596.061 265.859 596.665 265.707C596.968 265.102 597.27 264.497 597.572 263.892L597.27 263.136L595.759 261.926C595.155 262.229 594.852 262.228 594.399 262.38Z" fill="#EDCFC5"/>
<path d="M807.93 507.67C692.477 499.352 676.912 574.362 643.213 557.424C628.252 550.014 617.977 538.823 610.874 525.364C610.723 525.666 610.723 525.817 610.572 526.12C609.665 528.539 608.759 530.807 607.852 533.076C605.887 537.764 603.923 542.301 601.656 546.838C600.447 549.107 599.238 551.374 597.727 553.491C596.972 554.55 596.216 555.609 594.705 556.668L594.402 556.819L593.949 556.971C593.647 557.122 593.496 557.272 593.042 557.272C592.891 557.272 592.589 557.272 592.438 557.272C592.287 557.272 591.985 557.272 591.985 557.272L591.531 557.121C590.927 556.97 590.171 556.819 589.567 556.668C586.998 555.912 584.277 554.551 582.313 552.434C580.348 550.317 579.14 547.745 578.384 545.174C577.024 539.881 577.326 534.739 577.931 529.598C578.535 524.607 579.593 519.616 580.198 514.928C580.349 513.719 580.349 512.509 580.198 511.904L578.535 511.3C576.268 510.393 574.002 509.636 571.735 509.031C570.677 508.729 569.468 508.578 568.864 508.578C568.864 508.729 568.864 509.031 568.864 509.182L569.015 509.938L569.166 510.997C569.317 511.753 569.317 512.359 569.317 513.115C569.317 514.476 569.317 515.836 569.166 517.046C568.713 522.188 567.504 527.028 566.295 532.018C563.575 541.697 560.099 551.224 555.263 560.146C552.694 564.532 549.823 568.917 545.441 572.244C544.836 572.698 544.232 573.001 543.627 573.303C543.023 573.605 542.267 573.907 541.663 574.21C541.058 574.512 540.152 574.513 539.547 574.815C538.792 574.967 538.036 574.815 537.281 574.815C535.769 574.664 534.258 574.21 532.898 573.303C531.538 572.396 530.631 570.883 530.027 569.522C528.969 566.649 529.12 563.926 529.422 561.355C529.724 558.785 530.329 556.214 530.933 553.794C532.142 548.955 533.654 544.116 535.014 539.428C535.618 537.008 536.374 534.739 536.827 532.32C537.28 530.051 537.734 527.632 537.583 525.514C537.583 524.456 537.28 523.398 536.978 522.339C536.676 521.281 536.223 520.373 535.618 519.465C535.014 518.558 534.409 517.802 533.503 517.046C533.2 516.744 532.898 516.593 532.596 516.29C530.329 521.734 528.062 527.027 525.644 532.32C524.284 535.344 522.924 538.218 521.413 541.243C519.902 544.116 518.391 547.14 516.275 550.013C514.311 552.736 512.044 555.458 509.173 557.575C506.302 559.692 502.977 561.507 498.897 561.205C498.141 561.205 497.537 561.053 496.781 560.902C501.164 576.479 506.15 591.451 511.893 605.364L511.439 605.665C513.404 609.597 515.52 613.681 517.635 617.462C521.262 624.267 525.342 630.77 529.422 637.121C533.502 643.624 537.583 650.127 542.116 656.025C546.65 662.074 551.486 667.972 556.926 673.416C562.215 678.86 567.957 683.85 574.304 687.933L579.14 690.807L584.127 693.226C585.94 693.982 587.602 694.587 589.416 695.192L592.136 696.1C593.042 696.402 593.949 696.704 594.856 697.007C609.363 701.392 624.626 702.905 639.737 702.149C654.849 701.393 669.81 698.065 684.468 693.679C698.975 689.143 713.029 683.094 726.629 676.138C740.23 669.181 753.377 661.317 766.071 652.848C772.267 649.067 778.311 644.985 784.356 640.902C796.748 631.375 804.001 624.72 804.001 624.72L864.599 721.052L924.592 816.627L1072.99 745.249C1072.99 745.249 1051.98 708.046 1022.97 720.447C993.955 732.847 984.888 724.832 977.03 713.642C972.798 707.593 967.66 697.461 961.767 684.758C933.961 625.628 886.813 513.265 807.93 507.67Z" fill="#1E2B3C"/>
<path d="M501.012 514.474L501.616 514.777L501.465 515.533L494.362 543.813V543.964C493.455 546.837 492.851 550.013 493.607 552.735C494.211 555.457 496.327 557.121 498.896 557.121C501.465 557.121 504.336 555.76 506.603 554.096C509.021 552.282 511.136 550.013 512.95 547.442C514.763 544.871 516.274 542.15 517.785 539.276C519.296 536.403 520.657 533.53 522.017 530.505C524.737 524.608 527.306 518.558 529.724 512.509L530.479 510.694L532.141 511.45C537.581 514.021 540.755 519.466 541.057 524.91C541.209 527.783 540.755 530.354 540.302 532.774C539.848 535.345 539.093 537.763 538.488 540.183C537.128 545.022 535.617 549.711 534.408 554.399C533.804 556.819 533.35 559.087 533.048 561.507C532.746 563.775 532.746 566.195 533.502 568.01C533.804 568.917 534.408 569.521 535.013 570.126C535.768 570.579 536.675 570.883 537.582 571.034C539.395 571.185 541.359 570.429 543.173 569.219C546.8 566.497 549.52 562.414 551.938 558.33C556.622 549.862 560.098 540.637 562.667 531.109C563.876 526.421 564.934 521.583 565.387 516.895C565.538 515.685 565.538 514.474 565.538 513.416C565.538 512.811 565.538 512.358 565.387 511.753L565.236 510.997L565.085 509.938C565.085 509.182 564.934 508.275 565.387 507.065C565.538 506.763 565.689 506.46 565.992 506.309C566.294 506.007 566.445 505.855 566.747 505.704C567.352 505.401 567.805 505.249 568.258 505.098C570.072 504.947 571.432 505.251 572.641 505.553C575.21 506.158 577.476 507.065 579.894 507.972L581.708 508.578C581.859 508.729 581.859 508.576 582.312 508.879C582.765 509.03 583.068 509.332 583.219 509.635C583.672 510.24 583.823 510.694 583.974 511.147C584.277 512.962 584.125 514.172 583.974 515.533C583.37 520.675 582.312 525.363 581.708 530.203C581.103 535.042 580.952 539.881 582.01 544.267C582.614 546.384 583.521 548.501 585.032 550.013C586.392 551.525 588.357 552.585 590.472 553.19C591.077 553.341 591.53 553.491 592.134 553.491H592.437L592.588 553.34C593.192 552.887 593.948 551.979 594.553 551.072C595.913 549.106 597.121 546.989 598.179 544.872C600.446 540.486 602.41 535.949 604.224 531.412C605.131 529.144 606.037 526.875 606.944 524.607L608.153 521.129L608.757 519.465C608.757 519.162 608.909 518.86 608.909 518.709C608.909 518.557 608.909 518.407 608.909 518.558C608.909 518.709 608.909 518.406 608.909 518.255C608.757 516.138 608.304 513.568 607.851 511.299C607.246 508.88 606.642 506.61 605.886 504.342C602.864 495.117 598.633 486.195 592.588 478.633C591.077 476.819 589.415 475.004 587.752 473.34C586.09 471.677 584.126 470.317 582.161 468.956C580.197 467.595 578.081 466.687 575.814 465.931C575.21 465.78 574.756 465.477 574.152 465.326L572.489 464.872C571.432 464.57 570.072 464.419 568.863 464.116C559.191 461.999 549.52 459.73 539.848 457.462C501.163 448.388 462.628 438.861 424.093 429.484L418.2 428.124L423.791 425.856C431.498 422.831 439.205 420.109 447.063 417.236L470.335 408.768L516.879 391.98L479.855 407.103C479.1 417.235 478.797 427.973 478.797 438.861C499.349 443.851 520.052 448.842 540.604 453.681C550.275 455.949 559.947 458.219 569.618 460.185C570.827 460.487 572.036 460.638 573.245 460.941L575.21 461.394C575.814 461.546 576.418 461.847 577.023 461.998C579.441 462.906 581.859 463.965 584.126 465.478C586.392 466.839 588.357 468.501 590.321 470.316C592.286 472.131 593.948 473.946 595.61 476.064C596.517 477.122 597.273 478.331 598.028 479.389C596.668 467.745 596.366 455.648 596.366 443.55C596.517 443.701 596.668 444.003 596.819 444.154C596.517 441.129 596.366 438.105 596.064 435.08V415.723C596.064 409.221 596.064 402.869 596.366 396.367C596.668 390.015 596.819 383.512 596.971 377.16C597.122 364.306 596.668 351.452 594.401 339.051C593.192 332.851 591.379 326.801 588.357 321.357C586.997 318.181 585.183 315.309 582.765 312.738C580.65 311.075 578.383 309.561 575.814 308.503C572.339 306.99 568.863 305.782 565.538 304.874C556.622 302.303 548.462 301.396 541.057 302.152C520.354 302.304 448.121 307.142 382.687 361.282C331.61 403.474 326.472 444.759 362.135 469.409C397.799 494.21 464.744 496.327 464.744 496.327L484.54 506.762C490.282 509.485 495.722 511.904 501.012 514.474Z" fill="#1E2B3C"/>
<path d="M499.498 515.687C494.814 513.267 489.978 510.848 485.293 508.277C487.106 519.468 489.373 530.658 491.942 541.698L499.498 515.687Z" fill="#1E2B3C"/>
<path d="M592.742 553.641C592.742 553.491 592.742 553.641 592.742 553.641C592.742 553.641 592.892 553.641 592.742 553.641Z" fill="#1E2B3C"/>
<path d="M515.827 618.066C519 625.174 522.476 631.98 526.254 638.785C527.161 640.448 528.219 642.111 529.277 643.775C530.334 645.438 531.392 647.102 532.45 648.615L535.775 653.454L539.25 658.142C543.935 664.342 548.77 670.391 554.362 675.835C559.802 681.431 565.696 686.573 572.345 690.808L577.483 693.832C579.296 694.739 581.109 695.494 582.772 696.402C584.585 697.158 586.399 697.763 588.212 698.52L590.932 699.578C591.839 699.881 592.745 700.183 593.652 700.485C596.523 701.393 599.394 702.149 602.417 702.754C614.657 705.476 627.351 706.383 639.894 705.778C655.459 704.871 670.721 701.695 685.531 697.158C700.34 692.621 714.545 686.422 728.297 679.465C742.049 672.509 755.347 664.493 768.041 655.873C774.236 651.336 780.281 646.498 786.326 641.659C792.219 636.819 798.113 631.677 803.553 626.384C797.206 631.374 790.708 636.214 784.21 640.75C778.165 644.985 772.121 648.917 765.925 652.698C753.231 661.167 740.084 669.181 726.484 675.986C712.883 682.943 698.829 688.993 684.322 693.529C669.815 698.066 654.854 701.241 639.592 701.997C624.48 702.754 609.217 701.242 594.71 696.857C593.803 696.705 592.897 696.251 591.99 695.948L589.27 695.042C587.456 694.437 585.643 693.832 583.981 693.076L578.994 690.655L574.158 687.783C567.811 683.7 562.22 678.708 556.78 673.264C551.491 667.971 546.655 662.073 541.97 655.873C537.286 649.824 533.206 643.321 529.277 636.97C525.196 630.618 521.116 624.115 517.489 617.31C515.374 613.378 513.258 609.447 511.293 605.515C509.782 602.641 508.423 599.768 507.062 596.895C508.271 599.919 509.329 602.944 510.538 605.968C510.689 606.573 510.991 607.028 511.143 607.633C512.805 610.96 514.165 614.588 515.827 618.066Z" fill="#EDCFC5"/>
<path d="M509.024 557.119C511.895 555.002 514.162 552.28 516.127 549.558C518.091 546.836 519.753 543.811 521.265 540.787C522.776 537.914 524.136 534.888 525.496 531.864C527.914 526.571 530.18 521.127 532.447 515.834C532.749 516.137 533.052 516.288 533.354 516.591C534.109 517.347 534.865 518.102 535.469 519.01C536.074 519.917 536.527 520.976 536.83 521.884C537.132 522.942 537.434 524 537.434 525.059C537.585 527.176 537.132 529.596 536.678 531.864C536.225 534.284 535.621 536.552 534.865 538.972C533.505 543.66 531.994 548.499 530.785 553.338C530.18 555.758 529.576 558.329 529.274 560.9C528.972 563.471 528.82 566.193 529.878 569.067C530.483 570.428 531.389 571.94 532.75 572.847C534.11 573.755 535.621 574.208 537.132 574.36C537.887 574.36 538.643 574.36 539.399 574.36C540.154 574.208 540.91 574.208 541.514 573.754C542.27 573.452 542.874 573.301 543.479 572.847C544.083 572.545 544.687 572.091 545.292 571.789C549.674 568.462 552.546 564.076 555.114 559.69C560.101 550.768 563.577 541.391 566.146 531.561C567.506 526.722 568.564 521.732 569.017 516.591C569.169 515.381 569.168 514.019 569.168 512.658C569.168 511.902 569.169 511.298 569.017 510.541L568.866 509.483L568.715 508.726C568.715 508.424 568.715 508.272 568.715 508.121C569.319 507.97 570.529 508.273 571.586 508.576C573.853 509.181 576.12 510.088 578.387 510.844L580.049 511.448C580.2 512.053 580.2 513.414 580.049 514.473C579.444 519.161 578.386 524.152 577.782 529.142C577.177 534.133 576.875 539.425 578.235 544.718C578.991 547.289 580.2 550.011 582.165 551.977C584.129 554.094 586.698 555.456 589.418 556.212C590.023 556.364 590.778 556.515 591.382 556.666L591.836 556.816C591.836 556.816 592.138 556.816 592.289 556.816C592.44 556.816 592.742 556.816 592.894 556.816C593.347 556.816 593.498 556.665 593.8 556.514L594.254 556.363L594.556 556.212C596.067 555.154 596.823 554.094 597.578 553.036C599.09 550.919 600.299 548.651 601.508 546.383C603.774 541.846 605.89 537.308 607.703 532.62C608.61 530.352 609.517 527.933 610.423 525.664C610.574 525.362 610.574 525.211 610.725 524.908C611.028 524.001 611.481 523.093 611.783 522.034L612.388 520.219C612.539 519.917 612.539 519.615 612.69 519.162C612.69 519.011 612.841 518.859 612.841 518.406C612.841 517.952 612.841 517.951 612.841 517.8C612.69 515.078 612.237 512.508 611.632 510.088C611.028 507.668 610.423 505.248 609.516 502.828C606.796 494.511 603.17 486.496 598.032 479.237C597.276 478.179 596.369 476.968 595.614 475.91C593.951 473.944 592.289 471.978 590.325 470.164C588.511 468.349 586.396 466.836 584.129 465.324C582.014 463.963 579.595 462.753 577.026 461.846C576.422 461.695 575.818 461.392 575.213 461.241L573.248 460.787C572.04 460.485 570.831 460.333 569.622 460.031C559.95 457.914 550.279 455.797 540.608 453.529C520.056 448.689 499.352 443.699 478.801 438.709C462.782 434.777 446.764 430.845 430.897 426.913C436.639 424.645 442.382 422.224 448.124 419.956L471.094 410.579L479.859 406.951L516.882 391.828L470.338 408.614L447.066 417.083C439.359 419.957 431.501 422.678 423.794 425.702L418.203 427.971L424.097 429.332C462.631 438.708 501.166 448.236 539.852 457.309C549.523 459.578 559.195 461.847 568.866 463.964C570.075 464.266 571.284 464.417 572.493 464.72L574.155 465.173C574.76 465.325 575.213 465.475 575.818 465.777C577.933 466.533 580.2 467.592 582.165 468.802C584.129 470.012 586.094 471.525 587.756 473.188C589.569 474.852 591.08 476.515 592.591 478.481C598.636 486.042 602.867 494.965 605.89 504.19C606.645 506.458 607.25 508.877 607.854 511.146C608.459 513.414 608.912 515.986 608.912 518.103C608.912 518.254 608.912 518.406 608.912 518.406C608.912 518.254 608.912 518.405 608.912 518.556C608.912 518.707 608.761 519.01 608.761 519.312L608.157 520.975L606.948 524.455C606.041 526.723 605.134 528.992 604.227 531.26C602.414 535.797 600.298 540.333 598.183 544.718C597.125 546.835 595.916 548.953 594.556 550.919C593.952 551.827 593.196 552.734 592.591 553.188L592.441 553.338H592.138C591.534 553.187 591.08 553.187 590.476 553.036C588.36 552.431 586.396 551.373 585.036 549.861C583.524 548.348 582.618 546.383 582.013 544.114C580.804 539.729 581.107 534.888 581.711 530.049C582.316 525.21 583.373 520.372 583.978 515.381C584.129 514.02 584.28 512.81 583.978 510.995C583.827 510.541 583.676 510.088 583.222 509.483C583.071 509.18 582.618 508.878 582.315 508.726C581.862 508.424 581.862 508.575 581.711 508.424L579.898 507.82C577.48 506.912 575.213 506.004 572.644 505.399C571.284 505.097 570.075 504.643 568.262 504.946C567.809 505.097 567.204 505.098 566.751 505.551C566.449 505.703 566.146 505.853 565.995 506.155C565.693 506.458 565.542 506.76 565.39 506.911C564.786 508.121 565.088 509.029 565.088 509.785L565.24 510.844L565.39 511.6C565.542 512.054 565.542 512.658 565.542 513.263C565.542 514.473 565.542 515.531 565.39 516.741C564.937 521.429 563.879 526.269 562.67 530.957C560.101 540.333 556.626 549.709 551.941 558.178C549.523 562.261 546.803 566.496 543.176 569.067C541.363 570.428 539.399 571.183 537.585 570.88C536.527 570.729 535.621 570.427 535.016 569.973C534.412 569.52 533.807 568.763 533.505 567.856C532.901 566.041 532.901 563.622 533.052 561.353C533.354 559.085 533.807 556.665 534.412 554.245C535.621 549.557 537.132 544.719 538.492 540.031C539.096 537.611 539.852 535.191 540.305 532.62C540.759 530.049 541.212 527.478 541.061 524.756C540.759 519.161 537.585 513.717 532.145 511.298L530.483 510.541L529.727 512.357C527.309 518.406 524.74 524.454 522.02 530.352C520.66 533.376 519.3 536.249 517.789 539.123C516.278 541.996 514.767 544.87 512.953 547.289C511.14 549.86 509.024 552.129 506.606 553.944C504.188 555.759 501.468 556.969 498.899 556.969C496.33 556.969 494.215 555.304 493.61 552.582C492.855 549.86 493.459 546.685 494.366 543.811V543.659L501.468 515.381L501.619 514.625L501.015 514.322C495.726 511.751 490.286 509.331 484.997 506.911C478.499 503.887 472.152 501.014 465.654 497.99C472.152 501.468 478.801 504.795 485.299 508.273C489.983 510.693 494.819 513.263 499.504 515.682L491.797 541.846L491.495 543.055C490.286 546.231 489.53 549.86 490.286 553.489C490.588 555.304 491.494 557.27 493.157 558.631C494.215 559.539 495.424 560.143 496.632 560.597C497.388 560.748 497.993 560.9 498.748 560.9C502.828 561.051 506.153 559.236 509.024 557.119ZM592.743 553.641C592.743 553.641 592.894 553.641 592.743 553.641C592.743 553.49 592.743 553.641 592.743 553.641Z" fill="#EDCFC5"/>
<path d="M459.004 177.844C463.235 176.332 465.351 171.643 463.84 167.409C462.328 163.174 457.644 161.057 453.413 162.569C449.181 164.082 447.066 168.77 448.577 173.004C450.088 177.239 454.773 179.356 459.004 177.844Z" fill="#E5AA20"/>
<path d="M465.195 173.002C465.195 178.143 468.822 182.53 473.658 183.437C473.205 185.705 473.356 188.124 474.262 190.393C476.227 195.837 481.365 199.315 486.956 199.164C486.956 199.466 486.956 199.617 486.956 199.92C486.956 208.237 493.757 215.042 502.068 215.042C505.695 215.042 509.019 213.832 511.588 211.715C509.926 214.891 509.624 218.672 510.833 222.301C513.251 229.258 520.957 232.888 527.909 230.317C528.06 230.317 528.362 230.166 528.513 230.015C529.873 230.922 531.535 231.678 533.198 231.98L589.262 207.784L589.413 208.237C594.4 204.91 596.667 198.559 594.551 192.661C593.191 188.88 590.32 186.158 586.844 184.797C587.6 182.226 587.6 179.202 586.693 176.48C584.578 170.733 578.986 167.255 573.093 167.709C573.244 167.104 573.244 166.348 573.244 165.743C573.244 157.728 566.746 151.376 558.888 151.376C554.807 151.376 551.181 153.04 548.612 155.61C545.59 154.098 541.963 153.947 538.487 155.157C538.185 155.308 537.731 155.459 537.429 155.61C532.442 146.839 521.864 142.605 512.041 146.234C504.939 148.805 499.952 154.854 498.592 161.81C498.29 161.81 497.988 161.81 497.685 161.81C491.792 161.81 486.956 166.65 486.956 172.548C486.805 172.548 486.805 172.548 486.654 172.548C486.503 166.802 481.818 162.265 475.925 162.265C470.031 162.265 465.195 167.104 465.195 173.002Z" fill="#E5AA20"/>
<path d="M533.042 232.286L532.438 232.437L540.598 251.34L541.051 251.19L541.807 250.887L595.906 227.597L597.267 226.993L589.257 208.543L589.106 208.09L533.042 232.286Z" fill="#1E98F5"/>
<path d="M894.215 372.472C891.797 369.75 889.53 367.027 886.961 364.305C885.752 362.944 884.392 361.735 883.183 360.374L881.068 358.407C880.312 357.802 879.557 357.198 878.801 356.593C875.628 354.476 872.001 352.963 868.223 352.207C864.445 351.904 860.667 352.206 857.191 353.416C860.818 353.87 864.294 354.778 867.467 355.987C870.792 356.592 873.965 357.953 876.685 359.768C879.405 361.583 881.823 364.305 884.241 366.876C886.659 369.447 888.926 372.169 891.344 374.891C896.028 380.335 900.562 385.78 905.095 391.375L911.896 399.693C912.5 400.146 913.105 400.751 913.558 401.205C915.674 403.171 917.789 404.985 920.056 406.951C918.393 403.624 916.58 400.449 914.767 397.424L914.616 397.272L907.966 388.955C903.584 383.359 898.9 377.916 894.215 372.472Z" fill="#EDCFC5"/>
<path d="M588.814 321.66C591.837 327.104 593.499 333.153 594.859 339.353C597.277 351.754 597.579 364.609 597.428 377.463C597.428 383.814 597.126 390.318 596.824 396.669C596.37 403.172 596.522 409.523 596.522 416.026V435.383C596.824 438.407 596.975 441.432 597.277 444.456C597.579 447.935 597.882 451.261 598.335 454.739C598.637 452.017 598.939 449.447 599.242 446.725C599.695 442.944 599.997 439.163 600.299 435.383V416.026C600.299 409.523 600.299 403.171 600.602 396.82C600.904 390.317 601.055 383.966 601.206 377.463C601.357 364.911 601.055 352.207 598.637 339.807C598.637 339.504 598.486 339.05 598.486 338.748C597.126 332.396 595.312 325.894 592.139 319.997C590.326 317.123 588.059 314.552 585.339 312.435C582.77 310.318 579.748 308.806 576.574 307.898C579.143 309.259 581.259 311.074 583.072 313.191C585.49 315.611 587.454 318.484 588.814 321.66Z" fill="#EDCFC5"/>
<path d="M741.743 407.406C744.765 431.3 767.433 443.7 771.513 445.666C771.966 445.817 772.117 445.969 772.117 445.969L800.981 428.728C800.981 428.728 799.923 428.728 798.411 428.728C794.936 428.577 788.589 427.671 784.962 423.89C776.349 414.817 765.921 398.03 771.966 383.059C774.384 377.01 778.766 370.052 781.94 365.516C783.753 362.794 785.113 360.828 785.567 360.375C785.567 360.224 785.718 360.223 785.718 360.223L784.811 360.676L783.602 361.131L781.033 362.34C780.882 362.492 778.615 365.818 777.709 367.028C774.082 370.809 766.375 387.746 767.886 387.444L744.916 394.249C744.916 394.249 744.161 393.492 744.765 391.678C746.73 384.721 751.565 376.707 751.565 376.707C751.565 376.707 752.019 376.102 752.472 375.195C752.17 375.497 749.903 377.312 747.637 380.79C743.859 385.932 740.081 394.703 741.743 407.406Z" fill="#1E98F5"/>
<path d="M744.465 391.528C743.86 393.494 744.616 394.1 744.616 394.1L767.586 387.294C766.075 387.597 773.782 370.659 777.408 366.879C778.466 365.82 780.733 362.341 780.733 362.19C780.733 362.19 779.07 360.98 777.257 361.283C775.595 361.585 758.519 368.239 756.403 369.751C755.043 370.81 753.078 373.381 752.021 375.044C751.416 375.951 751.114 376.556 751.114 376.556C751.114 376.556 746.429 384.723 744.465 391.528Z" fill="#E5AA20"/>
</svg>
