<svg width="1195" height="844" viewBox="0 0 1195 844" fill="none" xmlns="http://www.w3.org/2000/svg">
<path d="M392.254 731.455C391.801 718.329 390.215 704.976 387.497 691.623C379.228 650.885 361.331 614.674 336.639 584.686C306.735 588.421 272.414 585.026 249.874 558.886C242.964 550.964 237.754 532.293 233.45 510.566C216.686 504.229 199.242 499.702 181.232 497.1L184.743 546.664C192.446 547.57 200.035 549.154 207.397 551.53C215.1 554.02 222.576 557.075 229.938 560.583L235.375 563.186C236.281 563.639 237.187 564.091 238.094 564.544L239.453 565.336L240.699 566.241C244.097 568.731 247.042 571.559 249.76 574.615C252.479 577.67 254.971 580.839 257.123 584.347C259.275 587.741 260.974 591.589 261.541 595.549C263.126 606.187 259.502 611.732 254.744 612.637C250.327 613.542 241.832 591.25 239.679 593.174C239.679 593.174 245.23 601.773 244.323 613.655C243.191 628.14 233.223 637.532 227.56 633.572C224.388 631.421 228.805 613.089 223.935 613.655C223.935 613.655 228.919 625.651 216.686 640.135C207.624 650.772 199.015 642.512 203.773 634.477C214.647 615.919 201.621 608.337 201.621 608.337C201.621 608.337 190.86 602.905 179.646 601.321C168.319 599.737 154.274 590.231 154.274 590.231C154.274 590.231 148.384 585.252 141.361 565.902C141.361 565.902 128.901 533.312 120.066 495.855C112.59 496.648 105.001 497.779 97.4122 499.363C60.9393 506.718 28.091 521.882 0 542.704V830.811H749.281L716.773 666.954L392.254 731.455Z" fill="#E5AA20"/>
<path d="M1013.31 283.907C1013.31 283.907 1003.35 288.773 995.758 288.886C988.282 288.886 980.806 291.489 980.806 291.489C980.806 291.489 971.631 295.223 977.068 308.35C979.447 314.008 973.104 318.648 968.12 310.84C961.437 300.316 965.741 292.96 965.741 292.96C962.57 292.055 963.816 304.389 961.55 305.521C957.473 307.558 951.809 300.542 952.375 291.036C952.828 283.228 957.246 278.136 957.246 278.136C956.113 276.665 948.524 290.357 945.692 289.452C942.634 288.433 940.822 284.473 942.747 277.683C944.786 270.894 956 262.181 961.324 260.483C961.664 260.37 962.117 260.256 962.57 260.03L957.699 258.898C920.32 275.194 870.368 267.499 870.368 267.499L874.559 365.383L839.898 373.983L797.762 564.319L1123.07 636.176L1195 311.179L1021.81 272.931C1016.6 281.757 1013.31 283.907 1013.31 283.907Z" fill="#1E98F5"/>
<path d="M821.661 296.126C821.095 285.263 820.981 274.399 822.001 263.423C823.02 252.559 824.946 241.583 829.476 231.512C830.609 229.022 831.968 226.533 833.554 224.269C835.14 221.893 836.952 219.743 839.104 217.932C841.257 216.009 843.635 214.424 846.014 213.179C848.506 211.821 850.998 210.803 853.603 209.898C858.813 208.087 864.137 206.616 869.461 205.485C874.785 204.353 880.221 203.335 885.545 202.656C890.982 202.09 896.419 201.75 901.856 201.524C907.293 201.298 912.73 201.184 918.167 201.184C907.406 202.203 896.646 203.448 885.998 205.485C880.675 206.277 875.351 207.069 870.14 208.314C864.93 209.445 859.72 210.803 854.736 212.614C849.752 214.424 844.881 216.688 841.03 220.196C839.104 221.893 837.405 223.93 835.933 226.08C834.46 228.23 833.214 230.493 832.082 232.982C827.664 242.601 825.852 253.351 824.832 263.988C823.926 274.739 823.926 285.489 824.606 296.239C824.946 301.671 825.399 306.99 825.965 312.308C826.192 315.024 826.531 317.627 826.871 320.343L827.438 324.303C827.551 324.982 827.551 325.774 827.664 326.453C827.664 327.132 827.664 327.924 827.664 328.603C827.211 334.374 824.719 339.693 821.548 344.22C818.376 348.859 814.525 352.82 810.334 356.441C809.314 357.346 808.068 358.138 807.049 358.93L805.576 360.175L805.237 360.515L804.897 360.854L804.217 361.533C802.518 363.457 801.272 365.72 800.479 368.209C799.686 370.699 799.46 373.415 799.573 376.017C799.573 378.733 800.026 381.336 800.706 384.052L840.124 374.207L874.784 365.607L870.594 267.723C870.594 267.723 920.546 275.418 957.925 259.123C964.947 256.067 971.63 252.106 977.407 247.014C991.453 234.68 997.909 191.792 1003.35 175.836L1012.97 184.55L999.495 253.125L1000.63 253.804C984.883 252.446 969.138 257.991 962.909 260.028C962.456 260.141 962.002 260.368 961.663 260.481C956.339 262.178 945.125 270.891 943.086 277.681C941.048 284.47 942.973 288.431 946.031 289.449C948.863 290.468 956.339 276.662 957.585 278.133C957.585 278.133 953.167 283.226 952.714 291.034C952.148 300.54 957.811 307.555 961.889 305.518C964.155 304.387 962.909 292.052 966.08 292.958C966.08 292.958 961.776 300.313 968.459 310.837C973.329 318.532 979.673 314.006 977.407 308.347C972.083 295.334 981.145 291.487 981.145 291.487C981.145 291.487 988.621 288.884 996.097 288.884C1003.57 288.884 1013.65 283.905 1013.65 283.905C1013.65 283.905 1017.05 281.755 1022.15 273.041C1022.83 271.91 1023.51 270.665 1024.3 269.307C1024.3 269.307 1064.51 195.866 1055.22 165.086C1046.73 137.362 1005.38 95.8318 997.343 88.0237C996.55 87.1184 995.757 86.3267 994.851 85.6478C994.624 85.4214 994.398 85.3083 994.171 85.082C992.585 83.724 990.886 82.5923 989.074 81.5739C985.676 79.3107 982.618 77.8395 979.559 76.9342C966.76 72.0683 958.264 75.1235 952.374 82.4789L905.367 117.106L895.626 78.2923L893.248 61.6575C893.248 61.6575 899.477 45.8153 899.817 40.9493C900.384 32.6886 905.707 25.5593 903.215 21.4855C902.196 19.9013 899.704 20.2409 896.872 22.7304C894.04 25.3331 892.794 35.7439 888.15 34.0464C883.62 32.349 880.108 14.2435 876.144 13.225C870.707 11.7539 871.839 17.9774 871.839 17.9774L872.972 29.6333L871.839 29.9726C871.839 29.9726 867.082 16.5063 862.098 16.8458C857.114 17.1853 861.419 30.3118 861.419 30.3118L862.325 35.6306C862.325 35.6306 862.098 37.3281 860.059 37.4413C858.021 37.5544 846.694 30.1991 844.541 31.8965C841.257 34.4992 845.448 39.4779 850.205 42.8727C860.852 50.5677 865.723 64.7131 865.723 64.7131L865.383 68.2206H865.27C865.27 68.2206 856.435 133.288 878.975 151.62C898.005 167.01 923.717 156.147 931.193 152.412C927.682 164.408 923.151 173.234 915.562 173.8C895.853 175.271 859.946 149.47 833.554 162.144C807.389 174.705 811.127 207.522 797.308 259.915C794.929 268.742 785.867 284.81 764.346 285.15C749.508 285.376 749.508 312.647 749.508 312.647L823.133 308.687C822.227 304.5 821.887 300.313 821.661 296.126Z" fill="#1E2B3C"/>
<path d="M800.253 367.982C801.046 365.492 802.292 363.115 803.991 361.305L804.671 360.626L805.011 360.286L805.35 359.947L806.823 358.702C807.842 357.91 809.088 357.118 810.108 356.212C814.299 352.591 818.15 348.631 821.322 343.991C824.493 339.352 826.985 334.147 827.438 328.375C827.438 327.696 827.438 326.904 827.438 326.225C827.325 325.546 827.325 324.754 827.212 324.075L826.645 320.114C826.305 317.398 825.966 314.796 825.739 312.08C825.173 306.761 824.72 301.33 824.38 296.011C823.813 285.261 823.7 274.511 824.606 263.761C825.626 253.124 827.438 242.373 831.856 232.755C832.875 230.378 834.234 228.002 835.707 225.852C837.179 223.702 838.878 221.665 840.804 219.967C844.655 216.459 849.526 214.196 854.51 212.386C859.494 210.575 864.704 209.217 869.914 208.085C875.125 206.954 880.449 206.049 885.772 205.256C896.42 203.333 907.18 201.975 917.941 200.957C912.504 200.843 907.067 200.956 901.63 201.296C896.193 201.522 890.756 201.975 885.319 202.427C879.882 203.106 874.558 204.125 869.235 205.256C863.911 206.388 858.587 207.859 853.377 209.67C850.772 210.688 848.28 211.707 845.788 212.952C843.296 214.31 840.917 215.894 838.878 217.704C836.726 219.628 834.914 221.778 833.328 224.041C831.742 226.418 830.383 228.794 829.25 231.283C824.72 241.468 822.794 252.331 821.775 263.195C820.755 274.058 820.868 285.035 821.435 295.898C821.661 300.085 822.001 304.385 822.454 308.572C822.568 309.817 822.681 310.948 822.794 312.193C823.021 314.909 823.36 317.625 823.7 320.341L824.267 324.415C824.38 325.094 824.38 325.659 824.493 326.338C824.493 326.904 824.493 327.583 824.493 328.262C824.153 333.354 821.775 338.22 818.83 342.52C815.885 346.934 812.147 350.668 808.069 354.176L805.011 356.778L803.425 358.25L803.085 358.589L802.745 359.041L802.066 359.947C800.367 362.21 799.121 364.926 798.554 367.642C797.422 373.187 798.328 378.732 800.14 383.711C800.14 383.711 800.14 383.711 800.14 383.824C799.46 381.221 799.121 378.505 799.007 375.79C799.347 373.187 799.574 370.471 800.253 367.982Z" fill="#EDCFC5"/>
<path d="M953.055 50.9053L959.171 50.7921V55.0925C960.984 55.0925 962.683 54.3 963.929 53.0553C964.495 52.4895 965.401 52.4895 965.967 53.0553C966.534 53.6211 966.534 54.5267 965.967 55.0925C964.155 56.9031 961.776 57.9211 959.171 58.0342L959.285 64.5979C962.116 66.7479 965.628 68.1058 969.479 67.9927C978.54 67.8795 985.676 60.524 985.676 51.4711V48.6421C985.903 48.8684 986.13 49.0948 986.469 49.2079C987.942 49.7737 989.981 48.0761 990.774 45.5866C991.567 43.097 991.113 40.6076 989.528 40.0418C988.622 39.7023 987.602 40.1549 986.809 41.0601C986.356 41.5128 985.563 41.2866 985.45 40.6076C984.204 32.6864 977.408 26.6892 969.139 26.8024C960.077 26.9155 952.941 34.2705 952.941 43.3234L953.055 50.9053Z" fill="#1E2B3C"/>
<path d="M966.077 53.0572C965.511 52.4914 964.605 52.4914 964.039 53.0572C962.793 54.3019 961.094 55.0944 959.281 55.0944V57.9234C961.886 57.9234 964.265 56.7917 966.077 54.9811C966.644 54.5285 966.644 53.623 966.077 53.0572Z" fill="#E5AA20"/>
<path d="M330.863 352.254C332.562 371.944 333.581 391.747 335.96 411.324C337.206 421.056 338.678 430.788 341.283 440.293C341.283 440.52 341.397 440.633 341.397 440.859C353.064 446.064 366.656 448.667 381.494 444.48C424.877 432.145 451.835 333.922 451.835 333.922L451.608 333.809L453.307 328.717C453.307 328.717 468.939 311.516 488.761 307.103C497.709 305.066 506.658 300.427 503.599 294.882C501.447 290.921 480.945 294.769 478 293.298C475.169 291.827 475.848 289.337 475.848 289.337L480.379 282.321C480.379 282.321 494.424 266.252 487.628 262.744C480.832 259.236 465.767 275.531 465.767 275.531L464.408 274.286L473.016 258.331C473.016 258.331 478.453 250.183 469.845 248.939C463.502 248.033 447.644 271.684 440.055 271.344C432.466 271.005 436.997 255.162 434.618 249.844C432.126 244.525 428.841 242.488 426.349 244.186C420.233 248.486 423.517 261.839 419.326 273.947C416.835 281.076 416.042 307.556 416.042 307.556L402.449 329.848L364.844 379.3L323.387 308.8C324.972 313.44 326.218 318.193 327.125 323.059C329.05 332.451 329.956 342.296 330.863 352.254Z" fill="#1E2B3C"/>
<path d="M291.217 283.564C293.143 283.79 295.069 284.13 296.881 284.582C299.146 285.148 301.412 286.054 303.564 287.072C307.755 289.222 311.38 292.39 314.211 296.238C317.043 300.085 319.195 304.386 320.781 309.025C322.367 313.552 323.499 318.304 324.406 323.17C326.218 332.789 327.124 342.634 328.03 352.479C329.729 372.169 330.749 391.859 333.241 411.549C334.487 421.394 335.959 431.239 338.564 440.857C340.037 445.61 341.962 450.362 344.454 454.663C345.7 456.813 347.286 458.85 349.099 460.66C349.212 460.774 349.325 460.886 349.438 460.886C351.251 462.471 353.403 463.716 355.781 464.055C353.403 463.376 351.364 461.905 349.778 460.095C348.192 458.284 346.946 456.134 345.927 453.984C343.888 449.797 342.642 445.27 341.623 440.744C341.623 440.518 341.509 440.405 341.509 440.178C338.904 430.786 337.432 420.941 336.186 411.209C333.807 391.632 332.674 371.943 331.089 352.14C330.182 342.295 329.276 332.45 327.464 322.605C326.558 317.852 325.425 312.986 323.726 308.346C323.726 308.233 323.613 308.12 323.613 308.007C321.914 303.254 319.762 298.614 316.703 294.54C313.645 290.467 309.681 286.959 305.036 284.582C300.392 282.206 295.409 280.961 290.311 280.509C286.347 280.282 282.496 280.509 278.645 281.074C282.722 281.527 287.027 282.319 291.217 283.564Z" fill="#EDCFC5"/>
<path d="M557.966 684.832C556.947 680.759 555.361 676.911 552.643 673.516C550.037 670.122 546.299 667.632 542.222 666.274C538.031 664.916 534.066 664.576 530.102 663.445L527.157 662.766L524.212 661.974C522.286 661.521 520.361 660.729 518.435 660.163C514.697 658.692 510.959 657.221 507.448 655.184C504.05 653.147 500.765 650.771 498.046 647.942C495.328 645.113 493.062 641.831 491.59 638.21L491.024 636.852C490.91 636.399 490.797 635.947 490.571 635.494C490.231 634.589 490.004 633.571 489.891 632.552C489.438 630.515 488.985 628.592 488.645 626.555C488.305 624.518 487.852 622.594 487.512 620.557L486.493 614.56C485.36 606.525 484.567 598.378 484.114 590.23C483.661 582.083 483.661 573.935 483.661 565.674C483.661 557.527 483.888 549.266 483.661 541.005C483.435 532.745 482.755 524.484 480.943 516.336C480.603 514.299 479.923 512.262 479.357 510.225C478.677 508.302 478.111 506.265 477.318 504.341C475.845 500.381 473.92 496.646 471.881 493.025L470.182 490.309C469.616 489.404 469.049 488.612 468.37 487.707C467.237 486.009 465.878 484.312 464.632 482.728C463.386 481.03 461.913 479.559 460.554 477.975C459.081 476.39 457.382 475.033 455.57 473.788C453.758 472.543 451.832 471.638 449.907 470.733C447.981 469.94 445.942 469.148 443.903 468.583C439.826 467.338 435.748 466.659 431.67 466.093C423.401 465.074 415.133 464.962 406.864 465.301C398.595 465.641 390.327 466.433 382.171 467.451C374.016 468.696 365.973 470.28 357.931 472.091C350.229 473.788 342.64 475.711 335.164 477.861V477.975C350.909 474.693 366.653 471.977 382.624 470.393C390.78 469.375 398.822 468.582 406.977 468.243C415.133 467.903 423.288 468.017 431.33 469.035C435.295 469.601 439.373 470.28 443.224 471.412C445.149 471.977 447.075 472.656 448.887 473.448C450.7 474.24 452.512 475.146 454.098 476.277C455.683 477.409 457.269 478.541 458.515 480.012C459.874 481.596 461.234 482.954 462.48 484.538C463.726 486.123 464.972 487.707 466.104 489.404C466.671 490.196 467.237 490.988 467.803 491.894L469.389 494.496C471.428 498.004 473.24 501.625 474.599 505.36C475.392 507.17 475.959 509.207 476.525 511.018C476.978 512.941 477.658 514.865 477.998 516.902C479.81 524.823 480.376 532.971 480.603 541.119C480.829 549.266 480.716 557.413 480.603 565.674C480.603 573.935 480.603 582.083 481.056 590.343C481.509 598.604 482.189 606.751 483.435 615.012L484.454 621.123C484.794 623.16 485.247 625.196 485.587 627.233C485.926 629.27 486.493 631.307 486.946 633.231C487.172 634.25 487.399 635.268 487.739 636.286C487.852 636.852 487.965 637.305 488.192 637.871L488.758 639.342C490.344 643.302 492.836 646.923 495.781 649.979C498.726 653.034 502.237 655.524 505.862 657.674C513.111 661.861 521.153 664.576 529.309 666.387C533.273 667.292 537.691 667.518 541.316 668.537C545.053 669.555 548.565 671.706 551.17 674.648C553.775 677.59 555.701 681.324 556.834 685.172C558.08 689.019 558.646 693.093 558.646 697.28C559.212 693.093 558.872 688.906 557.966 684.832Z" fill="#EDCFC5"/>
<path d="M256.557 245.881C257.011 245.655 257.35 245.202 257.577 244.863L258.483 249.05C261.202 262.516 274.341 271.116 287.707 268.4C293.37 267.269 298.241 264.213 301.752 260.026L299.6 249.502C298.694 249.729 297.788 249.729 296.882 249.729C294.163 249.729 291.445 248.937 289.179 247.352C288.5 246.9 288.386 245.994 288.726 245.428C289.179 244.749 290.085 244.636 290.652 244.976C293.144 246.56 296.089 247.126 298.92 246.673L297.448 239.544L306.623 237.734L304.244 226.304C301.526 212.838 288.386 204.238 275.02 206.954C262.787 209.443 254.519 220.533 255.198 232.641C255.312 233.66 254.179 234.339 253.273 233.773C251.687 232.755 250.101 232.415 248.855 233.094C246.703 234.339 246.703 238.186 248.742 241.694C250.781 245.202 254.519 247.126 256.557 245.881Z" fill="#1E2B3C"/>
<path d="M290.767 245.091C290.087 244.638 289.181 244.865 288.841 245.544C288.388 246.222 288.615 247.128 289.294 247.467C291.673 249.052 294.278 249.843 296.997 249.843C297.903 249.843 298.809 249.731 299.715 249.617L299.149 246.902C296.204 247.354 293.259 246.788 290.767 245.091Z" fill="#E5AA20"/>
<path d="M154.272 590.232C154.272 590.232 168.318 599.737 179.645 601.322C190.972 602.906 201.619 608.338 201.619 608.338C201.619 608.338 214.645 615.92 203.771 634.478C199.127 642.512 207.623 650.773 216.684 640.136C229.031 625.651 223.933 613.656 223.933 613.656C228.804 612.977 224.387 631.309 227.558 633.572C233.335 637.533 243.303 628.141 244.322 613.656C245.228 601.774 239.678 593.174 239.678 593.174C241.717 591.138 250.212 613.43 254.743 612.638C259.614 611.732 263.125 606.187 261.539 595.55C260.633 591.59 258.594 588.082 256.329 584.913C253.95 581.745 251.345 578.69 248.513 575.974C245.681 573.258 242.623 570.655 239.338 568.618L238.092 567.939L236.846 567.26L234.128 565.903C232.315 564.997 230.503 564.092 228.691 563.187C221.442 559.792 214.079 556.623 206.49 554.247C198.901 551.757 191.085 550.06 183.27 549.268L182.024 549.155L181.91 547.91L174.321 440.634L174.208 439.842L174.888 439.389L216.118 411.325L221.215 407.817C222.914 406.686 224.613 405.441 226.425 404.309L236.96 397.633C243.982 393.219 251.005 388.806 258.141 384.393C251.458 389.372 244.775 394.238 238.092 399.217L228.011 406.572C226.312 407.817 224.613 408.949 222.914 410.08L218.95 412.796C220.309 420.604 221.328 428.3 222.461 435.881C225.179 457.382 228.578 485.785 233.335 510.454C237.526 532.181 242.85 550.739 249.759 558.773C272.3 584.913 306.621 588.308 336.524 584.574C369.712 580.5 397.463 567.713 397.463 567.713L431.331 722.969L558.873 697.169C558.873 693.095 558.193 689.021 557.061 685.06C555.928 681.213 554.002 677.479 551.397 674.537C548.792 671.595 545.281 669.445 541.543 668.426C537.805 667.521 533.501 667.181 529.536 666.276C521.494 664.465 513.452 661.863 506.089 657.563C502.465 655.413 499.066 652.923 496.008 649.867C493.063 646.812 490.571 643.191 488.985 639.23L488.419 637.76C488.193 637.307 488.079 636.741 487.966 636.175C487.626 635.157 487.4 634.138 487.173 633.12C486.72 631.083 486.267 629.046 485.814 627.123C485.474 625.086 485.021 623.048 484.681 621.011L483.662 614.901C482.416 606.753 481.736 598.493 481.283 590.232C480.83 581.971 480.83 573.71 480.83 565.563C480.83 557.302 481.056 549.155 480.83 541.007C480.603 532.86 479.924 524.712 478.225 516.791C477.885 514.754 477.205 512.83 476.752 510.906C476.073 508.983 475.506 507.059 474.827 505.248C473.467 501.514 471.542 497.893 469.616 494.385L468.03 491.782C467.464 490.877 466.898 490.085 466.331 489.293C465.199 487.595 463.953 486.011 462.707 484.427C461.461 482.843 460.102 481.372 458.742 479.901C457.383 478.43 455.911 477.298 454.325 476.166C452.739 475.034 450.927 474.129 449.114 473.337C447.302 472.545 445.376 471.866 443.451 471.3C439.6 470.169 435.635 469.49 431.557 468.924C423.515 467.905 415.36 467.793 407.204 468.132C399.049 468.471 390.894 469.264 382.851 470.282C366.994 471.866 351.136 474.582 335.391 477.863V477.751C342.867 475.601 350.569 473.677 358.159 471.979C366.201 470.169 374.243 468.698 382.398 467.34C390.554 466.208 398.822 465.529 407.091 465.19C415.36 464.85 423.629 464.963 431.897 465.982C435.975 466.547 440.166 467.227 444.13 468.471C446.169 469.037 448.095 469.716 450.134 470.621C452.059 471.413 453.985 472.432 455.797 473.677C457.61 474.808 459.309 476.279 460.781 477.863C462.14 479.448 463.613 480.919 464.859 482.616C466.105 484.201 467.464 485.898 468.597 487.595C469.163 488.501 469.843 489.293 470.409 490.198L472.108 492.914C474.26 496.535 476.073 500.27 477.545 504.23C478.338 506.154 478.904 508.19 479.584 510.114C480.15 512.151 480.717 514.188 481.17 516.225C482.982 524.373 483.548 532.633 483.888 540.894C484.115 549.155 484.002 557.415 483.888 565.563C483.888 573.71 483.888 581.971 484.341 590.119C484.681 598.266 485.474 606.414 486.72 614.448L487.739 620.446C488.079 622.483 488.532 624.407 488.872 626.444C489.212 628.48 489.778 630.404 490.118 632.441C490.345 633.459 490.571 634.478 490.798 635.383C490.911 635.836 491.024 636.289 491.251 636.741L491.817 638.099C493.29 641.72 495.555 645.002 498.274 647.831C500.992 650.66 504.277 653.036 507.675 655.073C511.073 657.11 514.811 658.694 518.662 660.052C520.588 660.731 522.513 661.41 524.439 661.863L527.384 662.655L530.329 663.334C534.293 664.466 538.258 664.805 542.449 666.163C546.527 667.521 550.265 670.01 552.87 673.405C555.475 676.687 557.174 680.647 558.193 684.721C559.1 688.795 559.553 692.869 559.213 697.056L600.103 688.795C600.103 688.795 599.65 665.371 577.336 661.863C544.941 656.77 527.95 636.967 525.458 623.275C511.866 544.968 514.245 493.027 468.937 465.076C421.137 435.655 384.89 470.621 355.553 464.284C353.401 463.831 351.362 462.587 349.55 460.889C349.437 460.776 349.323 460.663 349.21 460.663C347.398 458.966 345.925 456.816 344.566 454.665C341.961 450.252 340.149 445.613 338.676 440.86C336.071 431.128 334.598 421.397 333.352 411.552C330.86 391.862 329.841 372.059 328.142 352.482C327.236 342.637 326.33 332.792 324.517 323.173C323.611 318.421 322.478 313.668 320.893 309.028C319.307 304.502 317.155 300.088 314.323 296.241C311.491 292.393 307.867 289.225 303.676 287.075C301.523 286.057 299.371 285.151 296.993 284.585C295.18 284.02 293.255 283.793 291.329 283.567C287.138 282.322 282.834 281.53 278.53 281.077C263.918 279.606 248.966 282.662 235.374 290.243C230.39 293.072 225.633 295.902 221.102 298.844C200.373 311.97 139.774 353.5 116.78 402.612C106.926 423.773 112.023 461.795 120.178 495.969C129.013 533.425 141.473 566.016 141.473 566.016C148.382 585.366 154.272 590.232 154.272 590.232Z" fill="#1E2B3C"/>
<path d="M217.929 413.7L219.062 412.907L223.026 410.192C224.725 409.06 226.538 407.928 228.124 406.683L238.205 399.328C244.888 394.462 251.57 389.483 258.253 384.504C251.117 388.917 244.095 393.331 237.072 397.744L226.538 404.42C224.725 405.552 223.026 406.684 221.327 407.928L216.23 411.436L175 439.5L174.32 439.953L174.434 440.745L182.023 548.021L182.136 549.266L183.382 549.379C191.198 550.171 199.013 551.868 206.602 554.358C214.191 556.734 221.554 559.903 228.803 563.298C230.616 564.203 232.428 564.995 234.24 566.014L236.959 567.371L238.205 568.051L239.451 568.73C242.735 570.766 245.794 573.369 248.625 576.085C251.457 578.801 254.176 581.856 256.441 585.025C258.706 588.306 260.859 591.701 261.652 595.662C261.085 591.701 259.386 587.854 257.234 584.459C255.082 581.064 252.59 577.782 249.871 574.727C247.153 571.672 244.208 568.843 240.81 566.353L239.564 565.448L238.205 564.656C237.298 564.203 236.392 563.75 235.486 563.298L230.049 560.695C222.8 557.187 215.324 554.019 207.508 551.642C200.146 549.266 192.557 547.569 184.854 546.777L181.343 497.212L177.379 441.424L217.929 413.7Z" fill="#EDCFC5"/>
</svg>
