<svg width="1195" height="844" viewBox="0 0 1195 844" fill="none" xmlns="http://www.w3.org/2000/svg">
<path d="M1030.34 133.838C1005.11 135.59 993.904 151.18 990.576 174.654L964.479 257.337C964.479 257.337 874.451 181.31 865.168 167.647C865.168 167.647 865.168 167.647 865.168 167.471C856.235 154.158 849.404 153.633 842.398 149.429C837.143 146.1 824.182 143.648 815.775 144.349C813.323 144.524 811.396 145.049 809.995 145.75C803.514 149.253 806.492 156.785 806.492 156.785C806.492 156.785 797.909 160.639 799.31 168.172C800.712 175.704 808.243 179.033 808.243 179.033C808.243 179.033 798.084 182.537 798.435 187.792C798.785 193.398 802.638 197.076 806.316 197.952C807.192 198.127 808.068 198.477 809.119 198.828C812.972 200.229 817.701 202.507 817.701 202.507L845.025 224.404L850.98 229.134C856.935 241.922 864.117 254.184 872.349 265.57C879.88 277.307 888.638 288.343 898.622 298.153C903.701 302.883 908.956 307.438 914.736 311.467C920.34 315.496 926.471 318.824 932.776 321.802C939.082 324.78 945.738 326.707 952.393 328.284L957.473 329.334C959.224 329.509 960.976 329.685 962.552 329.86C963.428 330.035 964.304 330.035 965.179 330.21L967.807 330.385C969.558 330.385 971.31 330.561 973.061 330.561C979.892 330.385 986.898 329.509 993.379 327.758C1000.03 325.831 1006.34 323.028 1012.3 319.525C1024.03 312.167 1033.84 302.007 1041.55 290.621C1049.43 279.059 1055.38 266.446 1060.29 253.308C1065.72 240.345 1070.1 226.856 1073.25 213.017C1072.55 220.024 1071.32 227.031 1069.92 234.038C1068.52 241.045 1066.59 247.878 1064.49 254.71C1059.59 268.023 1053.46 281.161 1045.22 293.073C1037.17 304.985 1027.01 315.671 1014.57 323.378C1008.62 326.882 1002.14 329.685 995.481 331.787C991.452 345.977 985.847 358.589 979.717 371.727C962.202 409.565 952.218 421.477 926.12 503.46C900.899 583.34 900.023 636.944 909.656 727.159C911.758 746.429 888.638 784.792 845.901 800.734C816.65 811.594 823.131 844.002 823.131 844.002L951.167 843.302H1106L1114.23 338.093C1114.23 337.918 1114.23 337.743 1114.23 337.392C1121.24 217.922 1084.28 130.159 1030.34 133.838ZM1013.35 753.261L1013.17 760.618C1013.17 763.071 1013 765.698 1012.65 768.151C1011.94 773.231 1010.02 778.311 1006.87 782.515C1003.89 786.895 999.684 790.223 995.306 792.851C986.373 797.931 976.214 800.033 966.405 801.084L964.479 801.26C963.778 801.26 963.428 801.259 962.902 801.434C961.852 801.609 960.801 801.785 959.75 802.135C957.648 802.836 955.721 803.887 953.794 805.288C950.116 808.091 947.139 811.77 944.511 815.799C941.884 819.828 939.782 824.207 938.031 828.762C936.104 833.316 934.528 837.871 933.302 842.601C935.053 832.966 937.681 823.506 942.41 814.572C944.687 810.193 947.664 805.989 951.518 802.485C953.444 800.734 955.721 799.332 958.173 798.281C959.399 797.756 960.801 797.405 962.027 797.055C962.727 796.88 963.428 796.88 963.953 796.705L965.705 796.529C974.287 795.829 982.87 794.077 990.226 790.398L1005.29 590.522C1005.29 590.522 1005.46 590.347 1005.64 589.822L1004.24 533.414C1003.89 513.795 1003.36 494.35 1003.01 474.73L1003.54 445.476C1003.71 435.667 1004.06 425.856 1004.41 416.222C1005.46 435.841 1006.16 455.286 1007.39 474.73L1008.62 533.24L1011.42 650.433C1011.94 670.052 1012.3 689.497 1012.65 709.117C1012.82 718.927 1012.82 728.736 1013 738.371L1013.35 753.261Z" fill="#1E2B3C"/>
<path d="M979.019 77.6023V87.9376C983.223 87.9376 987.076 86.1856 990.054 83.3828C990.754 82.6821 991.805 82.6821 992.331 83.3828C993.031 84.0835 993.031 85.1351 992.331 85.6606C988.653 89.1641 983.923 91.2657 978.844 91.2657V106.331C984.624 111.061 992.156 113.863 1000.21 113.863C1019.13 113.863 1034.72 98.6236 1034.72 79.5294V73.5728C1035.24 74.0983 1035.77 74.449 1036.29 74.7993C1039.45 75.8504 1043.65 72.5224 1045.4 67.2671C1047.15 62.0118 1046.1 56.7562 1042.95 55.53C1041.02 54.8292 1038.92 55.7055 1037.17 57.6324C1036.12 58.6835 1034.54 57.9826 1034.37 56.5812C1032.09 39.9394 1017.73 26.9766 1000.39 26.9766C981.471 26.9766 965.883 42.2162 965.883 61.3104V77.427L979.019 77.6023Z" fill="#1E2B3C"/>
<path d="M992.507 83.3849C991.806 82.6842 990.755 82.6842 990.23 83.3849C987.252 86.3629 983.399 87.9397 979.195 87.9397V91.2678C984.275 91.2678 989.004 89.3414 992.682 85.6627C993.032 85.1372 993.032 84.0856 992.507 83.3849Z" fill="#E5AA20"/>
<path d="M808.941 198.648C801.059 221.246 787.047 237.362 787.047 237.362C787.047 237.362 790.375 258.383 808.766 269.244C827.332 280.105 837.841 274.675 837.841 274.675C837.841 274.675 840.468 249.799 844.847 224.223L817.523 202.326C817.523 202.326 812.794 200.05 808.941 198.648Z" fill="#E5AA20"/>
<path d="M842.402 149.426C849.233 153.63 856.239 154.33 865.172 167.469C865.172 167.469 865.172 167.469 865.172 167.644C872.704 162.739 882.687 160.462 882.687 160.462L883.913 138.565C887.767 138.214 891.445 138.039 894.422 137.513C895.824 137.338 897.225 137.163 898.276 136.813V137.164L938.561 131.908C943.465 131.208 947.494 128.055 949.245 123.325C951.522 116.668 954.325 106.157 954.149 92.4936C953.974 85.4865 953.274 80.2311 952.223 76.5524C950.646 70.7716 945.917 66.7425 939.962 66.0418L911.938 62.5383L911.412 59.5599C910.712 56.0564 907.559 53.4288 904.056 53.4288H887.066C884.264 53.4288 881.812 55.0057 880.586 57.283C835.221 57.9837 740.464 57.9833 708.411 47.2976C674.081 35.9111 656.041 15.2408 650.436 7.53309V5.25529C650.436 2.45247 648.159 0.175176 645.356 0C642.554 0 640.102 2.27798 640.102 5.0808L638 187.264C638 190.242 640.452 192.695 643.43 192.519L646.407 192.344C649.21 192.169 651.487 189.892 651.487 187.089V183.41C656.566 177.104 670.929 165.542 710.863 152.054C737.486 143.12 778.122 140.842 815.604 139.967C815.779 140.667 815.954 142.068 815.954 143.995C824.187 143.645 836.973 146.098 842.402 149.426Z" fill="#E5AA20"/>
<path d="M266.125 79.2485C266.65 78.8982 267 78.372 267.176 77.6713L268.927 82.9265C274.357 99.3931 292.047 108.502 308.687 103.072C315.693 100.795 321.298 96.2405 325.151 90.4596L320.947 77.4968C319.196 78.0223 317.444 78.3727 315.518 78.3727C312.715 78.3727 310.088 77.6718 307.461 76.4455C306.585 76.0952 306.235 75.0436 306.76 74.1677C307.11 73.2919 308.161 72.9417 309.037 73.4672C312.365 75.219 316.218 75.3941 319.896 74.3431L316.919 65.4089L328.304 61.7309L323.75 47.7168C318.32 31.2502 300.63 22.1411 283.99 27.5715C268.927 32.4765 260.17 47.7163 262.797 62.9566C262.972 64.1829 261.746 65.2339 260.52 64.7084C258.418 63.6573 256.316 63.482 254.915 64.533C252.463 66.46 252.988 71.1901 256.141 75.3943C259.294 79.5985 263.673 81.0003 266.125 79.2485Z" fill="#1E2B3C"/>
<path d="M308.86 73.2896C307.984 72.9393 307.108 73.2903 306.583 73.9909C306.232 74.8667 306.583 75.7421 307.283 76.2676C309.735 77.4936 312.538 78.1944 315.34 78.1944C317.092 78.1944 319.019 77.8441 320.77 77.3187L319.719 74.1654C316.041 75.2163 312.363 75.0412 308.86 73.2896Z" fill="#F45F63"/>
<path d="M554.245 226.043L440.747 258.801L382.246 275.793C389.602 308.726 403.79 374.417 415.35 443.787L486.987 425.744L501.7 422.065C498.547 417.51 496.095 412.956 495.044 409.102C491.366 395.964 489.264 380.023 490.84 377.045C492.417 374.067 493.468 370.914 496.62 370.388C499.773 369.863 506.254 372.49 506.254 372.49C506.254 372.49 491.891 355.674 502.05 349.017C512.209 342.36 525.345 360.228 525.345 360.228C524.995 357.776 524.82 355.323 525.345 352.695C525.52 351.994 525.696 351.294 526.396 350.593C526.571 350.243 527.097 349.893 527.447 349.718L528.323 349.192C529.374 348.491 530.6 347.791 532.001 347.265C534.803 346.565 537.781 347.09 540.408 347.966C543.036 348.842 545.137 350.243 547.239 351.819C551.268 354.797 554.946 357.951 558.449 361.629C561.952 365.133 565.105 368.986 568.082 372.84C574.213 380.548 579.818 388.431 585.072 396.664C585.948 398.066 586.648 399.467 587.524 400.869L616.249 393.687L554.245 226.043Z" fill="#F45F63"/>
<path d="M587.003 420.665C587.529 419.614 587.879 418.563 587.879 417.512C588.054 415.409 587.529 413.133 586.653 411.206C586.128 409.104 585.427 407.001 584.376 404.899C583.325 402.797 582.099 400.87 580.873 398.768C575.794 390.71 570.189 382.827 564.234 375.295C561.256 371.616 558.103 367.937 554.951 364.433C551.798 361.105 548.12 357.952 544.441 355.149C542.515 353.748 540.588 352.697 538.661 351.996C536.735 351.295 534.633 351.12 532.706 351.471C531.655 351.646 530.604 351.646 529.553 352.171L528.678 352.522C528.503 352.697 528.503 352.521 528.327 352.696C527.977 352.872 527.802 353.222 527.452 353.748C526.926 354.623 526.401 355.675 526.05 356.901C525.7 357.952 525.35 359.179 525.175 360.405C525.175 360.405 511.863 342.536 501.879 349.193C491.721 355.85 506.083 372.667 506.083 372.667C506.083 372.667 499.778 370.039 496.45 370.565C493.297 371.09 492.246 374.068 490.67 377.221C489.093 380.374 491.195 395.965 494.873 409.279C495.924 413.133 498.376 417.687 501.529 422.242L486.816 425.921C507.309 436.957 522.022 444.314 522.022 444.314L522.197 444.139C522.898 444.489 523.423 444.664 523.949 444.839C529.203 445.365 535.158 444.314 541.989 440.811C548.82 437.307 561.081 440.811 565.81 435.731C570.539 430.65 578.071 426.621 584.376 423.468C585.602 422.592 586.478 421.716 587.003 420.665Z" fill="#1E2B3C"/>
<path d="M190.34 395.723C191.04 406.233 191.916 416.218 192.617 424.977C192.617 424.451 192.617 423.926 192.617 423.4C191.916 414.116 191.04 404.832 190.34 395.723Z" fill="#1E2B3C"/>
<path d="M263.377 527.108L261.625 395.551C260.574 434.965 260.924 479.811 263.377 527.108Z" fill="#1E2B3C"/>
<path d="M382.249 275.795L440.749 258.804C424.635 222.017 404.668 179.974 391.882 165.084C374.892 145.465 360.53 136.18 353.348 132.326C328.827 117.786 306.758 117.26 289.243 116.209C279.61 116.034 270.151 116.91 260.868 118.837C256.314 119.713 251.585 120.939 247.206 122.341C242.652 123.742 238.274 125.494 234.07 127.246C231.968 128.297 229.866 129.172 227.765 130.223C225.663 131.099 223.561 132.151 221.459 133.202C217.255 135.304 213.227 137.757 209.374 140.384C201.492 145.64 194.135 151.421 187.48 158.077C180.649 164.559 174.518 171.74 169.089 179.448C166.286 183.302 163.834 187.156 161.207 191.185C158.755 195.214 156.303 199.243 154.026 203.448C149.296 211.681 144.918 220.089 140.889 228.673C136.861 237.257 133.182 246.015 129.855 254.774C123.199 272.467 118.47 290.861 115.667 309.605C112.515 328.349 113.39 347.267 114.616 366.186C115.842 385.105 117.944 404.2 119.17 423.294C119.521 428.024 119.696 432.928 119.696 437.658C119.696 440.11 119.696 442.563 119.521 445.016C119.345 447.468 119.17 449.921 118.82 452.198C117.068 461.307 115.667 470.591 114.441 479.876C114.441 480.751 114.616 481.627 114.792 482.503C117.769 495.466 116.893 509.306 116.893 509.306C116.893 509.306 114.441 526.648 90.0951 523.144C79.4108 521.568 74.3314 534.531 89.5696 539.611C110.238 546.443 120.922 535.757 120.922 535.757C123.724 540.837 102.356 543.99 101.305 548.37C99.5533 556.253 113.916 562.909 129.855 557.654C142.816 553.449 149.647 543.639 149.647 543.639C152.624 545.041 132.657 563.96 135.459 568.34C138.612 573.069 141.239 576.748 151.924 570.267C162.608 563.96 177.146 538.735 177.846 528.75C178.372 519.816 182.575 486.007 175.219 458.329L169.264 344.114L195.887 249.694C191.333 268.088 185.378 322.743 183.626 395.441L191.508 843.717H364.033C362.807 838.812 361.055 833.907 359.129 829.177C357.202 824.447 354.925 819.893 352.122 815.689C349.32 811.485 345.992 807.63 341.964 805.003C339.862 803.777 337.76 802.901 335.483 802.375C333.381 802.025 330.579 802.025 327.951 801.675C322.697 800.974 317.618 800.098 312.538 798.346C307.459 796.77 302.554 794.492 298.176 791.164C293.797 787.836 290.119 783.456 287.842 778.551C285.39 773.646 284.689 768.041 284.514 762.785C283.988 752.45 284.339 742.115 284.514 731.78C284.864 721.444 285.214 711.109 285.565 700.948L288.367 639.286C290.294 598.295 291.695 557.129 291.87 516.137L290.819 454.475C291.17 433.979 291.345 413.309 291.87 392.813L299.051 392.287L346.518 804.127C349.67 807.105 352.122 810.608 354.224 814.287C359.304 823.396 362.281 833.381 364.033 843.542H522.02C522.02 843.542 519.217 799.222 486.289 797.82C453.535 796.419 449.682 784.507 446.354 770.844C442.676 755.428 434.969 585.156 426.212 515.787C423.234 492.138 419.381 467.614 415.352 443.439C403.792 374.42 389.605 308.728 382.249 275.795Z" fill="#1E2B3C"/>
</svg>
