<svg width="1195" height="844" viewBox="0 0 1195 844" fill="none" xmlns="http://www.w3.org/2000/svg">
<path d="M251.328 737.364C251.189 737.225 251.19 737.225 251.051 737.086C251.19 737.225 251.328 737.364 251.328 737.364Z" fill="#1E2B3C"/>
<path d="M572.495 406.036C568.872 423.181 564.692 428.617 564.692 428.617C564.692 428.617 550.062 443.532 536.825 448.271C523.588 453.01 512.023 462.21 512.023 462.21C512.023 462.21 498.229 474.477 515.785 494.27C523.449 502.773 515.088 514.9 501.573 504.307C483.18 489.81 486.246 474.058 486.246 474.058C480.115 474.477 490.008 495.525 486.803 498.87C480.811 505.004 466.46 496.082 461.584 478.937C457.543 464.859 462.141 453.01 462.141 453.01C459.075 451.198 454.338 480.052 448.764 480.192C442.773 480.192 437.06 474.477 436.364 461.235C435.946 452.593 441.798 440.047 448.347 430.708L433.02 433.775C406.824 452.871 376.449 466.113 351.508 474.755L424.659 844.002H1084L981.169 324.91L572.495 406.036Z" fill="white"/>
<path d="M477.887 385.543C495.025 355.016 479.698 275.145 479.28 243.782L501.853 253.261L520.663 382.894L523.031 383.452C492.377 391.258 466.461 413.281 458.38 419.415C455.453 421.645 451.831 425.687 448.348 430.845C441.799 440.184 435.947 452.729 436.365 461.371C437.061 474.613 442.774 480.468 448.765 480.328C454.339 480.328 459.076 451.335 462.142 453.147C462.142 453.147 457.544 464.996 461.585 479.074C466.461 496.219 480.812 505.14 486.804 499.007C490.148 495.522 480.255 474.614 486.247 474.195C486.247 474.195 483.181 489.947 501.574 504.444C515.089 515.037 523.45 502.91 515.786 494.407C498.23 474.614 512.024 462.347 512.024 462.347C512.024 462.347 523.589 453.147 536.826 448.408C550.063 443.669 564.694 428.754 564.694 428.754C564.694 428.754 569.012 423.318 572.496 406.173C573.053 403.245 573.75 399.9 574.168 396.276C574.168 396.276 599.528 241.552 563.857 193.044C531.671 149.275 432.881 101.743 413.792 92.8216C411.841 91.7065 409.891 90.8703 407.94 90.1733C407.383 90.0339 406.825 89.7553 406.268 89.6159C402.784 88.222 399.301 87.246 395.678 86.549C388.015 84.5975 381.466 83.7612 375.474 84.1794C321.969 82.9249 324.059 130.597 329.633 180.22C335.067 229.564 347.468 284.484 323.084 295.218C289.225 309.993 209.943 286.854 171.207 325.605C132.89 363.937 159.782 419.833 168.003 520.752C169.396 537.897 163.405 571.769 125.505 585.848C99.4491 595.605 116.448 643.695 116.448 643.695L244.638 590.587C241.294 583.339 238.089 576.229 235.024 568.842C227.221 550.024 220.254 530.928 215.238 511.134C212.729 501.237 210.64 491.201 209.386 481.025C208.828 476.007 208.271 470.85 208.131 465.692C207.853 460.535 208.132 455.377 208.55 450.22C208.968 445.062 209.943 440.044 211.197 435.026C212.451 430.008 214.402 425.13 216.91 420.53C219.418 415.93 222.623 411.748 226.106 407.845C229.59 404.082 233.49 400.597 237.392 397.252C245.334 390.7 253.834 384.985 262.472 379.688C271.111 374.391 280.029 369.373 289.086 364.773C298.282 360.313 307.478 356.131 316.814 352.228C326.149 348.325 335.624 344.562 345.099 341.217C326.568 349.301 308.314 358.083 290.619 367.98C281.701 372.579 272.784 377.458 264.284 382.755C255.645 388.052 247.424 393.767 239.621 400.039C231.958 406.451 224.712 413.56 219.975 422.203C217.606 426.524 215.795 431.124 214.541 436.002C213.287 440.742 212.451 445.76 212.033 450.638C211.615 455.657 211.475 460.674 211.615 465.553C211.754 470.571 212.173 475.589 212.869 480.608C214.123 490.644 216.073 500.401 218.581 510.298C223.598 529.812 230.425 548.909 238.228 567.587C242.129 576.927 246.309 586.126 250.629 595.326C252.858 599.926 255.088 604.387 257.317 608.987L260.801 615.817C261.358 616.932 261.915 618.187 262.472 619.441C262.89 620.696 263.309 621.95 263.727 623.204C265.12 628.362 265.538 633.659 265.259 638.816C264.98 643.974 264.005 649.131 262.751 654.149C261.497 659.167 259.686 664.046 257.596 668.785L256.063 672.27L254.391 675.755C253.276 678.125 252.022 680.355 250.629 682.445C249.235 684.676 247.842 686.767 246.449 688.857C245.055 690.809 243.941 693.039 243.105 695.27C241.293 699.73 240.736 704.748 241.015 709.766C241.293 714.784 242.687 719.663 244.498 724.263C246.31 729.002 248.679 733.462 251.744 737.505L371.016 658.888L302.741 488.552C302.741 488.552 323.92 484.65 352.066 474.892C377.007 466.25 407.383 453.008 433.578 433.912C451.134 420.53 467.158 404.639 477.887 385.543Z" fill="#1E2B3C"/>
<path d="M240.737 709.628C240.458 704.749 241.015 699.731 242.827 695.131C243.802 692.901 244.917 690.671 246.171 688.719C247.564 686.628 249.097 684.537 250.351 682.307C251.605 680.077 252.998 677.847 254.112 675.616L255.785 672.132L257.317 668.647C259.408 663.908 261.218 659.029 262.473 654.011C263.727 648.993 264.702 643.835 264.981 638.678C265.26 633.52 264.842 628.223 263.448 623.066C263.03 621.811 262.612 620.557 262.194 619.303C261.637 618.048 261.079 616.793 260.522 615.678L257.039 608.848C254.809 604.388 252.58 599.788 250.351 595.188C246.031 585.988 241.851 576.788 237.95 567.449C230.147 548.771 223.319 529.674 218.303 510.159C215.795 500.402 213.844 490.505 212.59 480.469C212.033 475.451 211.476 470.433 211.336 465.415C211.197 460.397 211.336 455.379 211.754 450.5C212.172 445.482 213.009 440.603 214.263 435.864C215.517 431.125 217.328 426.386 219.697 422.064C224.295 413.422 231.68 406.313 239.343 399.901C247.146 393.628 255.367 387.914 264.005 382.617C272.644 377.32 281.422 372.441 290.34 367.841C308.036 358.084 326.289 349.302 344.82 341.078C335.206 344.424 325.871 348.187 316.535 352.09C307.2 355.993 297.865 360.175 288.808 364.635C279.751 369.235 270.833 374.253 262.194 379.55C253.555 384.847 245.056 390.701 237.114 397.113C233.212 400.459 229.311 403.804 225.827 407.707C222.344 411.471 219.139 415.652 216.631 420.391C214.123 424.991 212.311 429.87 210.918 434.888C209.664 439.906 208.689 445.064 208.271 450.082C207.853 455.24 207.714 460.397 207.853 465.554C207.992 470.711 208.41 475.73 209.107 480.887C210.361 491.063 212.451 501.099 214.959 510.996C219.975 530.789 226.942 550.025 234.745 568.703C237.81 575.952 241.015 583.2 244.359 590.448C245.334 592.539 246.31 594.491 247.285 596.581C249.514 601.181 251.744 605.782 253.974 610.242L257.457 617.072C258.014 618.187 258.432 619.302 258.989 620.417C259.407 621.533 259.826 622.648 260.104 623.902C261.358 628.642 261.776 633.52 261.498 638.399C261.219 643.277 260.382 648.156 258.989 653.035C256.481 662.653 252.162 671.853 247.146 680.495C245.891 682.725 244.638 684.817 243.384 687.047C241.99 689.277 240.876 691.786 240.04 694.295C238.368 699.313 237.95 704.61 238.647 709.767C240.04 719.943 244.638 729.282 250.908 737.088C251.047 737.227 251.047 737.227 251.187 737.366C248.261 733.185 245.892 728.724 243.941 724.124C242.269 719.524 241.015 714.646 240.737 709.628Z" fill="#EDCFC5"/>
<path d="M313.608 54.6294L324.476 50.7264L327.542 59.0898C330.886 57.8353 333.673 55.3265 335.206 51.9811C335.624 51.1447 336.599 50.7264 337.575 51.1446C338.411 51.5628 338.828 52.5384 338.41 53.5142C336.459 57.6959 333.115 60.7627 328.796 62.4354L333.255 74.8411C339.525 76.9319 346.631 77.0714 353.319 74.5623C369.204 68.8473 377.285 51.2839 371.572 35.3934L369.761 30.3755C370.318 30.6543 370.876 30.9328 371.572 30.7934C374.638 30.7934 377.006 26.6119 376.867 21.5938C376.728 16.5757 374.22 12.5332 371.294 12.6726C369.622 12.6726 368.089 14.0665 367.113 16.1573C366.556 17.2725 365.024 17.2725 364.466 16.1573C357.499 2.91519 341.615 -3.35713 327.124 1.80034C311.24 7.51537 303.158 25.0784 308.871 40.969L313.608 54.6294Z" fill="#1E2B3C"/>
<path d="M338.271 53.3738C338.689 52.5374 338.271 51.422 337.435 51.0039C336.599 50.5857 335.484 51.004 335.066 51.8404C333.533 55.1857 330.746 57.6949 327.402 58.9494L328.656 62.1551C332.976 60.6218 336.32 57.5555 338.271 53.3738Z" fill="#E5AA20"/>
</svg>
