<svg width="1195" height="844" viewBox="0 0 1195 844" fill="none" xmlns="http://www.w3.org/2000/svg">
<path d="M1110.74 370.961C1135.52 368.009 1158.88 358.252 1170.44 352.732L1043.09 371.217C1056.82 372.373 1085.32 374.042 1110.74 370.961Z" fill="#FFFFFF"/>
<path d="M973.633 398.303C995.072 394.452 1009.45 387.777 1018.05 382.77C1024.73 378.791 1028.84 375.196 1031.02 373.143L974.018 381.487C974.147 387.006 974.018 392.655 973.633 398.303Z" fill="#FFFFFF"/>
<path d="M789.792 427.314C819.062 423.335 855.265 405.62 873.366 395.992L727.656 417.173C737.67 422.308 760.137 431.422 789.792 427.314Z" fill="#F45F63"/>
<path d="M680.158 446.441C683.624 446.954 687.09 447.596 690.685 448.238C693.509 448.752 696.077 449.393 698.516 450.164C694.151 446.313 691.327 440.793 691.327 434.503C691.327 429.625 692.996 425.132 695.82 421.666L678.874 424.105C682.083 423.977 685.679 423.463 689.658 422.564C689.658 422.564 685.293 434.374 679.516 444.9C679.259 445.285 679.003 445.799 678.746 446.184C679.131 446.184 679.388 446.313 679.773 446.313C680.158 445.799 680.415 445.414 680.8 444.9C680.8 445.542 680.543 446.056 680.158 446.441Z" fill="#F45F63"/>
<path d="M529.953 754.656C550.879 758.25 572.447 760.175 594.4 760.175C601.46 760.175 608.393 759.919 615.325 759.533L540.609 715.246L529.953 754.656Z" fill="#F45F63"/>
<path d="M412.103 348.495C444.326 255.556 522.124 223.335 552.549 240.408C585.799 259.15 570.908 296.249 548.442 338.226C529.185 374.298 521.738 397.275 528.157 416.146C529.826 416.274 531.367 416.402 533.036 416.659C531.496 416.787 529.955 416.916 528.414 417.044C528.543 417.173 528.542 417.429 528.671 417.558L598.894 418.2C598.894 418.2 628.293 398.687 674.124 399.971C683.239 400.228 691.455 410.626 692.354 411.91L974.018 375.838C971.45 168.393 802.503 1 594.401 1C384.758 1 214.656 170.96 214.656 380.716C214.656 416.787 219.663 451.576 229.035 484.567L447.536 544.13C385.015 523.719 381.806 435.915 412.103 348.495ZM578.097 214.478C575.401 213.707 574.245 209.471 575.529 205.107C576.813 200.742 580.022 197.661 582.718 198.431C584.259 198.817 585.286 200.486 585.671 202.539C585.8 203.695 587.212 204.08 587.982 203.181C597.482 193.169 613.016 191.372 624.699 199.587C637.408 208.573 640.36 226.031 631.374 238.74L623.8 249.523L615.07 243.361L609.549 251.063L609.165 251.577L601.462 262.488C595.3 262.873 589.009 261.204 583.617 257.353C570.908 248.368 567.955 230.909 576.941 218.201L579.766 214.221C579.252 214.606 578.61 214.606 578.097 214.478Z" fill="#F45F63"/>
<path d="M634.067 545.798C634.067 545.798 516.857 555.94 460.242 546.826C458.317 546.569 456.391 546.183 454.594 545.67L577.837 579.174L540.992 714.347C588.878 656.453 627.006 599.328 634.067 545.798Z" fill="#F45F63"/>
<path d="M894.68 392.911C906.619 397.404 931.91 404.336 966.572 399.458C969.011 399.072 971.45 398.688 973.761 398.302C974.018 392.654 974.146 387.006 974.146 381.357L894.68 392.911Z" fill="#F45F63"/>
<path d="M887.237 393.938L884.284 394.322C872.73 400.869 826.514 426.158 790.311 431.165C761.811 435.144 739.986 427.57 728.689 422.05C731.385 425.516 733.054 429.88 733.054 434.63C733.054 446.055 723.81 455.426 712.256 455.426C711.742 455.426 711.229 455.426 710.716 455.298C764.378 484.823 736.135 581.228 698.391 638.866C698.391 638.866 662.06 687.646 659.107 693.166C656.283 698.301 644.472 719.61 675.796 746.953C677.08 748.108 678.236 749.391 679.263 750.675C841.277 713.705 963.879 573.012 973.507 402.153C971.453 402.538 969.27 402.923 967.088 403.18C923.824 409.47 895.196 397.789 887.237 393.938Z" fill="#F45F63"/>
<path d="M675.793 746.953C644.469 719.482 656.408 698.301 659.104 693.167C662.057 687.647 698.388 638.866 698.388 638.866C736.131 581.228 764.375 484.823 710.712 455.298C711.226 455.298 711.739 455.427 712.253 455.427C723.678 455.427 733.05 446.184 733.05 434.631C733.05 429.881 731.381 425.517 728.685 422.051C726.631 419.355 723.935 417.173 720.854 415.761L722.138 413.964C722.266 413.964 724.192 415.376 727.658 417.173L873.368 395.992C880.429 392.27 884.794 389.574 884.922 389.574L885.821 389.06L886.848 389.574C886.976 389.574 889.544 391.114 894.551 392.911L974.018 381.358L1031.02 373.014C1032.17 371.858 1032.69 371.217 1032.81 371.217L1033.46 370.446L1034.48 370.575C1034.61 370.575 1037.69 370.96 1042.96 371.345L1170.31 352.86C1172.88 351.576 1174.93 350.549 1176.21 349.907L974.018 375.838L692.354 411.91C691.455 410.626 683.111 400.228 674.124 399.971C628.293 398.687 598.894 418.2 598.894 418.2L528.671 417.558C528.542 417.43 528.543 417.173 528.414 417.045C526.104 417.301 523.793 417.43 521.482 417.686L515.705 418.071C514.806 418.2 513.779 418.2 512.88 418.2C511.982 418.2 510.954 418.2 510.056 418.2H508.13L508.516 416.274L521.738 353.502L528.286 322.18L529.955 314.349C530.211 313.066 530.468 311.782 530.725 310.37C530.982 309.086 531.367 307.802 531.752 306.519C533.293 301.384 534.833 296.249 536.373 291.114C535.86 296.506 535.09 301.769 534.448 307.032C534.319 308.316 534.191 309.728 533.806 311.012C533.549 312.295 533.164 313.579 532.908 314.863L531.238 322.693L524.692 354.015L511.854 414.862C512.11 414.862 512.495 414.862 512.752 414.862C513.651 414.862 514.678 414.991 515.576 414.991L521.354 415.504C523.536 415.632 525.719 415.889 527.901 416.146C521.482 397.147 528.928 374.298 548.185 338.226C570.523 296.249 585.543 259.151 552.293 240.409C521.996 223.336 444.197 255.556 411.846 348.496C381.549 435.915 384.758 523.719 447.279 543.873L228.778 484.31L120.041 454.657L14 844H505.306L529.698 754.655L540.353 715.374L615.07 759.662L672.841 793.936C672.841 793.936 691.84 768.006 679.003 750.804C678.232 749.392 677.205 748.109 675.793 746.953ZM458.448 330.78C453.441 346.826 449.718 363.386 448.306 380.074C447.022 396.762 448.049 413.835 453.826 429.496C456.522 437.327 460.887 444.516 466.664 450.292C472.441 456.069 479.758 460.305 487.59 463.001C495.421 465.696 503.765 466.98 512.11 467.237C520.455 467.622 528.799 467.108 537.144 466.081C553.833 464.027 570.137 459.92 586.57 455.812C588.624 455.298 590.678 454.785 592.86 454.4C593.887 454.143 594.914 454.015 596.07 453.886C597.225 453.758 598.253 453.63 599.793 453.758L612.246 456.839C620.462 458.765 628.678 460.69 637.023 462.102C639.077 462.487 641.131 462.872 643.185 463.258C644.212 463.386 645.239 463.514 646.266 463.642C647.293 463.771 648.32 463.771 649.091 463.642C649.347 463.642 649.861 463.386 650.374 463.258L651.914 462.744L654.868 461.717C656.793 460.947 658.847 460.305 660.773 459.406C664.624 457.738 668.476 455.941 672.07 453.758C675.151 451.833 678.104 449.651 680.286 446.698C679.901 446.698 679.645 446.57 679.26 446.57C679.516 446.184 679.773 445.799 680.03 445.286C685.807 434.76 690.172 422.95 690.172 422.95C686.192 423.977 682.726 424.361 679.388 424.49L696.334 422.051C693.509 425.645 691.84 430.01 691.84 434.888C691.84 441.178 694.665 446.698 699.03 450.549C696.462 449.779 693.894 449.137 691.199 448.624C687.604 447.982 684.138 447.339 680.672 446.826C678.618 449.907 675.793 452.474 672.841 454.657C669.374 457.096 665.651 459.149 661.8 461.075C659.874 461.974 657.949 462.872 656.023 463.771L653.07 465.055L651.658 465.696C651.145 465.953 650.759 466.082 649.989 466.338C648.705 466.595 647.678 466.595 646.523 466.595C645.368 466.595 644.341 466.467 643.313 466.338C641.131 466.082 639.077 465.825 636.895 465.568C628.55 464.156 620.205 462.23 611.989 460.305L605.827 458.765L599.793 457.224C599.151 457.096 598.124 457.224 597.097 457.352C596.07 457.481 595.043 457.737 594.016 457.866C591.962 458.251 589.908 458.764 587.854 459.278C571.549 463.386 554.989 467.622 538.043 469.676C529.57 470.703 520.969 471.216 512.496 470.831C503.894 470.446 495.292 469.162 487.076 466.338C478.86 463.643 471.158 459.021 464.995 452.86C458.833 446.698 454.211 438.996 451.387 430.908C448.434 422.821 446.637 414.349 445.738 405.748C444.84 397.275 444.968 388.675 445.61 380.074C447.022 363.001 450.745 346.313 455.88 330.138C458.705 322.051 461.785 314.221 465.252 306.39C468.718 298.688 472.441 290.986 476.549 283.669C468.975 298.688 463.07 314.477 458.448 330.78ZM454.468 545.799C456.265 546.184 458.191 546.569 460.117 546.954C516.86 556.068 633.941 545.927 633.941 545.927C626.881 599.457 588.753 656.453 540.739 714.604L577.583 579.432L454.468 545.799Z" fill="#1E2B3C"/>
<path d="M583.751 257.609C589.143 261.46 595.433 263.001 601.595 262.744L609.298 251.832C608.656 251.961 608.143 252.089 607.501 252.089C607.116 251.704 606.73 251.447 606.345 251.062C605.574 250.292 604.933 249.522 604.419 248.623C603.906 247.725 603.393 246.826 603.007 245.799C602.751 245.286 602.622 244.772 602.493 244.259C602.879 243.617 603.135 242.975 603.777 242.462C604.547 242.847 605.061 243.103 605.703 243.36C605.831 243.745 605.96 244.131 606.088 244.516C606.345 245.286 606.73 246.056 607.244 246.698C607.757 247.468 608.271 248.11 608.784 248.623C609.041 248.88 609.426 249.265 609.683 249.522V251.191L615.203 243.488L623.933 249.651L631.507 238.867C640.494 226.159 637.413 208.7 624.832 199.714C613.278 191.499 597.615 193.296 588.115 203.309C587.345 204.079 585.933 203.694 585.804 202.667C585.419 200.485 584.392 198.944 582.852 198.559C580.156 197.789 576.946 200.742 575.662 205.235C574.379 209.599 575.534 213.835 578.23 214.605C578.743 214.734 579.386 214.734 579.899 214.605L577.075 218.585C568.088 231.165 571.041 248.623 583.751 257.609Z" fill="#1E2B3C"/>
<path d="M608.654 248.753C608.012 248.111 607.498 247.47 607.113 246.828C606.599 246.058 606.343 245.415 605.958 244.645C605.829 244.26 605.701 243.875 605.573 243.49C605.059 243.233 604.417 242.849 603.647 242.592C603.134 243.234 602.748 243.747 602.363 244.389C602.492 244.902 602.62 245.415 602.877 245.929C603.262 246.956 603.775 247.855 604.289 248.753C604.802 249.652 605.444 250.422 606.215 251.192C606.6 251.577 606.985 251.963 607.37 252.219C608.012 252.219 608.525 252.091 609.167 251.962L609.552 251.449V249.78C609.295 249.266 608.91 249.01 608.654 248.753Z" fill="#EDCFC5"/>
<path d="M886.075 393.424C885.69 393.681 885.048 394.066 884.277 394.452L887.23 394.066C886.845 393.681 886.46 393.552 886.075 393.424Z" fill="#1E2B3C"/>
<path d="M1176.34 349.779C1175.06 350.421 1173.01 351.448 1170.44 352.731C1158.88 358.251 1135.65 368.007 1110.74 370.96C1085.19 374.041 1056.82 372.372 1042.96 371.216C1037.69 370.831 1034.61 370.446 1034.48 370.446L1033.46 370.318L1032.82 371.088C1032.82 371.088 1032.17 371.73 1031.02 372.885C1028.84 374.939 1024.73 378.534 1018.05 382.513C1009.45 387.648 995.073 394.194 973.633 398.045C971.322 398.43 968.883 398.816 966.444 399.201C931.91 404.079 906.619 397.147 894.552 392.654C889.673 390.729 886.977 389.316 886.849 389.316L885.822 388.803L884.923 389.316C884.795 389.445 880.43 392.012 873.369 395.735C855.139 405.491 818.937 423.077 789.795 427.057C760.14 431.165 737.544 422.051 727.659 416.916C724.065 415.119 722.139 413.707 722.139 413.707L720.855 415.504C723.937 416.916 726.633 419.098 728.687 421.794C740.112 427.313 761.937 434.887 790.309 430.908C826.511 425.902 872.727 400.613 884.282 394.066C885.052 393.681 885.566 393.296 886.079 393.039C886.336 393.167 886.849 393.424 887.235 393.552C895.066 397.275 923.694 408.957 967.086 402.795C969.268 402.538 971.451 402.154 973.505 401.769C1014.2 394.58 1031.53 377.892 1035.13 374.041C1041.67 374.683 1078.78 378.277 1111.26 374.426C1140.78 370.831 1168.26 357.866 1176.99 353.373C1176.47 395.992 1170.69 839.892 1170.69 841.689H1172.62L1174.29 842.588C1174.55 842.203 1174.55 842.203 1177.63 595.991L1180.84 346.826L1177.88 348.495C1178.01 348.88 1177.37 349.266 1176.34 349.779Z" fill="#1E2B3C"/>
<path d="M528.157 416.145C525.974 415.888 523.792 415.76 521.609 415.503L515.832 414.989C514.934 414.861 513.907 414.861 513.008 414.861C512.752 414.861 512.366 414.861 512.11 414.861L524.947 354.014L531.495 322.692L533.164 314.862C533.42 313.578 533.677 312.294 534.062 311.01C534.319 309.727 534.448 308.315 534.704 307.031C535.475 301.768 536.117 296.376 536.63 291.113C534.961 296.248 533.42 301.383 532.008 306.518C531.623 307.801 531.238 309.085 530.982 310.369C530.725 311.652 530.468 312.936 530.211 314.348L528.542 322.179L521.995 353.501L508.772 416.273L508.387 418.199H510.312C511.211 418.199 512.238 418.199 513.137 418.199C514.036 418.199 515.062 418.07 515.961 418.07L521.738 417.685C524.049 417.557 526.36 417.3 528.67 417.044C530.211 416.915 531.752 416.786 533.292 416.658C531.366 416.401 529.697 416.273 528.157 416.145Z" fill="#EDCFC5"/>
<path d="M464.738 306.004C461.271 313.835 458.19 321.665 455.366 329.753C450.359 345.927 446.508 362.743 445.096 379.688C444.454 388.16 444.325 396.761 445.224 405.362C446.122 413.834 447.792 422.307 450.873 430.522C453.697 438.61 458.19 446.44 464.481 452.474C470.643 458.635 478.346 463.128 486.562 465.952C494.778 468.777 503.379 470.06 511.981 470.445C520.582 470.83 529.056 470.316 537.529 469.29C554.475 467.236 571.035 463 587.339 458.892C589.393 458.379 591.447 457.865 593.501 457.48C594.528 457.223 595.556 457.095 596.583 456.967C597.482 456.838 598.636 456.71 599.278 456.838L605.312 458.378L611.474 459.919C619.691 461.844 628.036 463.77 636.38 465.182C638.434 465.439 640.617 465.696 642.799 465.952C643.826 466.081 644.982 466.08 646.009 466.209C647.164 466.209 648.191 466.209 649.475 465.952C650.245 465.696 650.63 465.567 651.144 465.311L652.556 464.669L655.509 463.385C657.434 462.486 659.36 461.716 661.286 460.689C665.137 458.764 668.86 456.71 672.326 454.271C675.279 452.088 678.103 449.521 680.157 446.44C680.414 445.927 680.799 445.541 681.056 445.028C680.799 445.541 680.414 446.055 680.029 446.44C677.847 449.393 674.893 451.575 671.812 453.5C668.218 455.683 664.495 457.48 660.515 459.148C658.59 459.919 656.664 460.689 654.61 461.46L651.657 462.486L650.116 463C649.603 463.128 649.089 463.385 648.833 463.385C648.062 463.513 647.036 463.385 646.009 463.385C644.982 463.257 643.954 463.128 642.927 463C640.873 462.743 638.819 462.229 636.765 461.844C628.549 460.304 620.205 458.507 611.988 456.581L599.535 453.5C597.995 453.244 596.968 453.5 595.812 453.629C594.657 453.757 593.63 454.014 592.603 454.142C590.549 454.527 588.367 455.041 586.313 455.554C569.88 459.662 553.576 463.898 536.887 465.824C528.542 466.851 520.197 467.364 511.853 466.979C503.508 466.594 495.163 465.439 487.332 462.743C479.501 460.176 472.183 455.811 466.406 450.034C460.629 444.258 456.264 437.069 453.568 429.239C447.791 413.578 446.764 396.505 448.048 379.817C449.46 363.129 453.055 346.569 458.19 330.523C462.812 314.348 468.717 298.43 475.778 283.154C471.927 290.6 468.204 298.302 464.738 306.004Z" fill="#EDCFC5"/>
</svg>
