<svg width="1195" height="844" viewBox="0 0 1195 844" fill="none" xmlns="http://www.w3.org/2000/svg">
<path d="M284.727 843.89H285.275L303.389 824.035L284.727 843.89Z" fill="white"/>
<path d="M669.947 605.412C669.069 608.044 668.63 610.897 668.52 613.749L668.41 614.846V615.943C668.41 616.601 668.41 617.368 668.41 618.027C668.52 619.453 668.63 620.879 668.849 622.305L669.179 624.389C669.288 625.047 669.508 625.815 669.618 626.473C669.728 626.912 669.837 627.241 669.947 627.68L671.813 600.805L671.484 601.463C670.935 602.779 670.386 603.986 669.947 605.412Z" fill="#E5AA20"/>
<path d="M502.199 625.381C517.678 617.483 537.658 606.953 551.6 597.738L502.199 625.381Z" fill="#F45F63"/>
<path d="M777.309 388.439C777.528 388.11 777.858 387.781 778.077 387.452C778.297 387.123 778.516 386.903 778.736 386.574C778.187 387.232 777.857 387.562 777.857 387.562C777.857 387.562 777.638 387.781 777.309 388.439Z" fill="#E5AA20"/>
<path d="M354.327 438.131C355.754 435.169 357.071 432.098 358.498 429.136L362.89 420.251L397.58 349.169L397.69 349.06L397.8 348.95C407.57 336.554 416.682 323.501 425.245 310.118C429.416 303.427 433.588 296.626 437.32 289.715C439.296 286.314 441.053 282.695 442.919 279.184L445.444 273.809L446.761 271.177C447.2 270.299 447.53 269.422 447.969 268.434L450.384 262.95L452.47 257.465C452.799 256.587 453.238 255.6 453.458 254.723L454.336 251.87L455.214 249.019L455.654 247.592L455.983 246.166C458.069 238.598 459.386 230.809 459.606 223.021C459.935 215.233 458.947 207.335 456.971 199.766C455.983 196.036 454.665 192.307 453.129 188.687C452.36 186.822 451.592 185.067 450.823 183.202C450.055 181.337 449.286 179.363 448.957 177.169C448.628 175.085 448.518 172.891 449.067 170.697C449.616 168.503 450.933 166.419 452.909 165.103C454.775 163.786 457.081 163.128 459.166 163.018C461.362 162.799 463.448 163.128 465.534 163.567C467.619 164.006 469.486 164.664 471.462 165.432C473.328 166.199 475.194 167.077 476.951 167.845C480.574 169.49 484.196 171.245 487.709 173C494.845 176.62 501.871 180.679 508.238 185.615C511.422 188.029 514.495 190.771 517.24 193.842C518.557 195.378 519.875 196.914 521.082 198.669C522.29 200.314 523.278 202.179 524.046 204.044C524.924 205.909 525.473 207.993 525.913 209.967C526.352 212.052 526.352 214.026 526.571 216.001C526.791 220.059 526.901 224.008 526.901 228.067C526.791 233.881 526.242 239.804 525.583 245.508C529.645 243.314 532.06 242.218 532.06 242.218V242.437C537.769 239.695 543.916 238.927 550.174 238.598C551.052 238.598 551.93 238.488 552.699 238.488C556.98 238.159 561.042 238.268 564.994 238.817C608.467 242.547 607.04 274.906 602.758 314.177C601.99 320.868 601.112 327.779 600.233 334.58C616.261 333.812 640.632 332.935 657.977 333.702C690.472 321.307 734.384 307.485 748.656 313.08C763.586 319.003 777.747 327.669 774.783 336.006C779.284 335.238 784.005 335.238 788.506 336.225C791.579 336.884 794.653 337.871 797.508 339.406L799.593 340.613C800.362 341.162 801.13 341.82 801.569 342.697C802.557 344.452 802.667 346.317 802.557 347.963C802.338 351.363 801.24 354.325 800.032 357.287C798.825 360.139 797.398 362.991 795.861 365.623C792.787 370.998 789.384 376.154 785.761 381.2C784.005 383.613 782.248 386.027 780.492 388.33C786.749 384.71 792.128 381.639 796.08 379.774C812.218 372.315 829.783 362.771 850.641 371.218C871.499 379.664 878.196 392.498 852.617 405.771C829.014 418.057 777.198 459.302 737.348 476.743C739.105 501.754 731.42 534.991 730.103 582.05C729.773 595.542 733.725 622.198 763.586 633.277C784.114 640.956 770.721 678.8 770.721 678.8L672.908 636.129C674.225 639.53 675.762 642.93 677.409 646.111C678.726 648.634 680.263 651.157 681.8 653.68L683.007 655.545C683.446 656.203 683.885 656.861 684.215 657.519C684.544 658.178 684.983 658.836 685.203 659.604L685.642 660.701L685.971 661.798C687.838 667.721 687.179 674.083 685.313 679.787C683.446 685.491 680.482 690.647 676.75 695.145L676.64 695.254L582.669 633.387L640.303 515.246C640.303 515.246 640.303 515.246 640.193 515.246C639.315 516.233 638.546 517.221 637.668 518.098L636.131 519.853L634.594 521.499L631.411 524.899C629.215 527.093 627.129 529.287 624.934 531.481C620.543 535.869 616.151 540.147 611.65 544.315C593.756 561.208 575.533 577.662 557.09 593.897L556.98 594.007L556.87 594.116L551.381 597.188C537.439 606.402 517.459 617.042 501.981 624.831L479.695 637.336L462.021 656.313C523.607 703.481 600.672 731.453 684.215 731.453C886.21 731.453 1050 567.79 1050 365.952C1050 164.115 886.429 1 684.434 1C482.44 1 318.648 164.664 318.648 366.501C318.648 405.333 324.686 442.738 335.994 477.84C339.287 470.601 342.69 463.361 346.093 456.011L354.327 438.131ZM569.824 182.654C571.142 182.654 572.349 183.751 573.118 185.396C573.557 186.273 574.764 186.273 575.204 185.396C580.693 174.975 593.207 170.039 604.625 174.097C617.139 178.595 623.507 192.416 619.006 204.921L615.163 215.562L606.601 212.49L604.185 219.072L603.197 221.595L599.684 231.358C594.744 233.003 589.146 233.113 583.876 231.138C571.361 226.641 564.994 212.819 569.495 200.314L570.922 196.365C570.483 196.585 570.044 196.804 569.495 196.694C567.08 196.694 565.214 193.404 565.323 189.455C565.543 185.725 567.519 182.544 569.824 182.654Z" fill="#F45F63"/>
<path d="M726.918 371.109C731.309 367.489 735.81 363.979 740.201 360.359C743.275 357.836 746.349 355.203 749.423 352.57C743.275 355.642 736.03 359.371 728.455 363.32L726.918 371.109Z" fill="#F45F63"/>
<path d="M303.388 824.037L311.512 815.151L338.957 784.985C343.568 779.939 348.178 775.003 352.789 770.067L366.731 755.149L478.048 635.801L478.158 635.692L478.377 635.582L555.552 592.363C573.995 576.128 592.219 559.783 610.003 542.891C614.394 538.612 618.895 534.444 623.177 530.056C625.372 527.862 627.458 525.669 629.654 523.475L632.727 520.074L634.264 518.429L635.801 516.674C636.131 516.345 636.35 516.015 636.679 515.686C616.59 516.015 522.399 514.261 491.66 459.413C489.026 454.806 487.379 448.773 486.501 441.753C483.866 432.648 483.427 422.666 483.537 411.916C477.828 412.135 472.12 412.025 466.521 411.038C435.234 406.65 425.244 378.13 444.675 334.252C467.07 283.574 505.932 256.918 523.277 247.045C523.826 240.793 524.155 234.431 524.155 228.178C524.265 224.229 524.155 220.28 523.936 216.331C523.716 214.357 523.606 212.382 523.277 210.517C522.948 208.652 522.399 206.897 521.63 205.142C520.862 203.387 519.984 201.742 518.886 200.096C517.788 198.451 516.58 197.025 515.373 195.599C512.738 192.747 509.884 190.114 506.81 187.701C500.553 182.984 493.746 179.035 486.72 175.415C483.207 173.66 479.585 171.905 476.072 170.26C474.315 169.492 472.449 168.614 470.692 167.846C468.936 167.079 467.07 166.53 465.203 166.091C463.337 165.652 461.471 165.433 459.714 165.652C457.958 165.762 456.202 166.311 454.774 167.188C453.347 168.175 452.469 169.601 452.03 171.247C451.591 172.892 451.591 174.757 451.92 176.512C452.249 178.377 452.798 180.132 453.567 181.887C454.335 183.752 455.104 185.507 455.872 187.372C457.409 191.101 458.726 194.941 459.824 198.78C461.91 206.568 462.898 214.686 462.569 222.803C462.239 230.92 461.032 238.928 458.836 246.607L458.507 248.033L458.068 249.459L457.19 252.311L456.311 255.163C455.982 256.15 455.653 257.028 455.214 258.015L453.018 263.609L450.603 269.094C450.164 269.972 449.834 270.959 449.395 271.836L448.078 274.579L445.443 279.954C443.577 283.464 441.82 287.084 439.844 290.484C436.002 297.505 431.83 304.306 427.659 311.107C419.096 324.489 409.984 337.543 400.214 350.048L365.633 421.02L361.352 429.906C359.925 432.867 358.388 435.829 356.851 438.681L347.849 456.342C341.811 468.079 335.883 479.816 329.735 491.554L143 606.732V843.452H285.055L303.388 824.037Z" fill="#1E98F5"/>
<path d="M631.301 397.324C627.239 394.692 623.287 391.84 619.664 389.207C619.993 391.182 620.323 393.156 620.433 395.13C620.762 397.982 620.872 400.834 620.872 403.796L630.752 400.944L631.301 397.324Z" fill="#F45F63"/>
<path d="M850.64 371.656C829.672 363.21 812.217 372.753 796.08 380.212C792.128 382.077 786.858 385.039 780.491 388.768C780.381 388.878 780.381 388.988 780.272 389.098C778.405 391.511 776.429 393.924 774.453 396.337C766.659 405.881 758.645 415.205 750.521 424.419C746.459 429.026 742.398 433.633 738.226 438.131L734.933 441.422C733.835 442.519 732.627 443.506 731.529 444.603C730.322 445.7 729.114 446.797 727.797 447.894C733.835 456.34 736.579 465.993 737.348 477.182C777.198 459.741 829.014 418.496 852.616 406.21C878.195 392.937 871.499 380.103 850.64 371.656Z" fill="#1E98F5"/>
<path d="M600.346 397.765C600.017 396.229 599.687 394.694 599.138 393.268C598.699 392.061 598.26 390.854 597.602 389.867C598.26 392.829 599.138 395.462 600.346 397.765Z" fill="#F45F63"/>
<path d="M731.639 334.689C732.627 335.566 733.176 336.773 732.847 338.199L728.346 363.319C736.03 359.37 743.166 355.75 749.314 352.569C750.851 351.143 752.497 349.827 754.034 348.401C755.132 347.413 756.23 346.317 757.328 345.22C757.877 344.671 758.425 344.123 759.084 343.574C759.413 343.355 759.633 343.026 759.962 342.806L760.95 342.039C763.585 340.064 766.439 338.638 769.513 337.651C771.16 337.102 772.916 336.664 774.673 336.444C777.637 328.107 763.475 319.442 748.545 313.518C734.274 307.924 690.362 321.745 657.867 334.14C665.222 334.47 671.26 335.128 674.993 336.334C679.164 337.541 683.226 339.186 686.959 341.051L726.48 332.605C728.126 332.166 730.322 333.153 731.639 334.689Z" fill="#1E98F5"/>
<path d="M525.364 245.729C526.023 239.915 526.571 234.101 526.681 228.287C526.791 224.229 526.571 220.28 526.352 216.221C526.132 214.247 526.023 212.272 525.693 210.188C525.254 208.104 524.705 206.129 523.827 204.265C522.949 202.4 521.961 200.535 520.863 198.889C519.765 197.134 518.448 195.599 517.021 194.063C514.276 190.991 511.202 188.359 508.019 185.836C501.651 180.9 494.626 176.951 487.49 173.221C483.977 171.356 480.354 169.711 476.731 168.065C474.865 167.188 473.109 166.42 471.242 165.652C469.376 164.884 467.4 164.226 465.314 163.787C463.229 163.349 461.143 163.129 458.947 163.239C456.752 163.349 454.556 164.007 452.69 165.323C450.714 166.639 449.396 168.724 448.847 170.917C448.298 173.111 448.298 175.305 448.738 177.389C449.067 179.474 449.835 181.448 450.604 183.423C451.372 185.287 452.141 187.043 452.909 188.907C454.446 192.527 455.654 196.257 456.752 199.986C458.728 207.555 459.716 215.344 459.386 223.242C459.167 231.03 457.849 238.818 455.764 246.387L455.434 247.813L454.995 249.239L454.117 252.091L453.239 254.943C452.909 255.93 452.58 256.808 452.251 257.686L450.165 263.17L447.75 268.655C447.31 269.532 446.981 270.52 446.542 271.397L445.225 274.03L442.7 279.405C440.833 282.915 439.077 286.426 437.101 289.936C433.368 296.846 429.197 303.647 425.025 310.339C416.572 323.721 407.351 336.775 397.58 349.171L397.47 349.28L397.361 349.39L362.67 420.472L358.279 429.357C356.852 432.319 355.535 435.28 354.108 438.352L345.764 456.342C342.361 463.581 339.068 470.821 335.665 478.171C333.469 482.888 331.273 487.605 329.188 492.321C335.225 480.584 341.263 468.847 347.301 457.109L356.303 439.449C357.84 436.487 359.377 433.635 360.804 430.673L365.085 421.788L399.666 350.816C409.546 338.311 418.658 325.257 427.111 311.875C431.392 305.074 435.454 298.272 439.297 291.252C441.273 287.742 443.029 284.231 444.895 280.721L447.53 275.346L448.847 272.604C449.287 271.726 449.616 270.739 450.055 269.862L452.47 264.377L454.666 258.782C454.995 257.795 455.434 256.918 455.764 255.931L456.642 253.078L457.52 250.226L457.959 248.8L458.288 247.374C460.484 239.586 461.801 231.578 462.021 223.571C462.35 215.453 461.362 207.336 459.276 199.548C458.179 195.599 456.861 191.869 455.324 188.14C454.556 186.275 453.787 184.41 453.019 182.655C452.251 180.9 451.592 179.145 451.372 177.28C451.043 175.415 451.043 173.66 451.482 172.014C451.921 170.369 452.909 168.943 454.227 167.956C455.544 166.969 457.3 166.53 459.167 166.42C460.923 166.31 462.899 166.53 464.656 166.859C466.522 167.298 468.278 167.846 470.145 168.614C471.901 169.382 473.767 170.259 475.524 171.027C479.147 172.673 482.66 174.428 486.173 176.183C493.198 179.803 500.115 183.752 506.262 188.469C509.336 190.882 512.3 193.405 514.825 196.367C516.142 197.793 517.35 199.328 518.338 200.864C519.436 202.4 520.314 204.155 521.082 205.91C521.851 207.665 522.4 209.42 522.729 211.285C523.059 213.04 523.168 215.124 523.388 217.099C523.607 221.048 523.717 224.997 523.607 228.946C523.498 235.198 523.278 241.56 522.729 247.813C523.937 246.606 524.705 246.168 525.364 245.729Z" fill="#EDCFC5"/>
<path d="M710.34 418.277L718.903 415.863L710.34 418.277Z" fill="#F45F63"/>
<path d="M733.068 439.449L736.251 436.268C740.423 431.771 744.485 427.163 748.547 422.556C756.67 413.342 764.574 404.018 772.369 394.474C774.015 392.39 775.662 390.416 777.309 388.332C777.748 387.783 777.968 387.454 777.968 387.454C777.968 387.454 778.297 387.125 778.846 386.467C780.493 384.383 782.139 382.189 783.676 379.995C787.189 375.059 790.592 369.903 793.556 364.638C795.093 362.005 796.411 359.263 797.618 356.52C798.716 353.778 799.814 350.926 799.924 348.184C800.033 346.758 799.814 345.441 799.265 344.454C798.935 344.015 798.606 343.576 798.057 343.247L796.191 342.15C793.666 340.724 790.812 339.847 787.958 339.189C782.139 337.982 776.101 338.421 770.503 340.176C767.648 341.053 765.014 342.48 762.708 344.125L761.83 344.783C761.501 345.003 761.281 345.222 761.061 345.551C760.513 346.099 759.964 346.538 759.415 347.087C758.317 348.184 757.219 349.28 756.012 350.377C751.511 354.546 746.79 358.495 741.96 362.444C737.239 366.393 732.409 370.232 727.688 374.071L726.261 375.278L719.016 415.865C718.467 419.485 715.832 422.447 712.319 423.434C709.136 424.311 705.623 425.299 702 426.396C707.599 429.467 713.198 433.306 718.687 438.023C721.541 440.436 724.066 442.959 726.152 445.592C727.359 444.605 728.567 443.617 729.665 442.521C730.762 441.533 731.97 440.546 733.068 439.449Z" fill="#1E98F5"/>
<path d="M340.932 786.848C345.652 781.911 350.263 776.975 354.874 771.929L368.816 757.011L462.238 656.75L479.913 637.773L502.198 625.268L551.599 597.625L557.088 594.554L557.198 594.444L557.308 594.334C575.751 578.1 594.084 561.645 611.868 544.753C616.369 540.474 620.76 536.196 625.151 531.918C627.347 529.724 629.433 527.531 631.628 525.337L634.812 521.936L636.349 520.291L637.886 518.536C638.764 517.549 639.533 516.561 640.411 515.684C640.191 515.684 638.874 515.793 636.678 515.793C636.349 516.122 636.129 516.451 635.8 516.781L634.263 518.536L632.726 520.181L629.652 523.582C627.457 525.776 625.371 527.97 623.175 530.163C618.784 534.442 614.393 538.72 610.002 542.998C592.218 559.89 573.994 576.235 555.551 592.469L478.376 635.689L478.156 635.799L478.047 635.908L366.73 755.256L352.788 770.174C348.177 775.11 343.457 780.156 338.956 785.092L311.511 815.258L303.387 824.144L285.273 843.998H286.591L312.828 816.465L340.932 786.848Z" fill="#EDCFC5"/>
<path d="M734.931 441.423L738.224 438.132C742.396 433.635 746.458 429.027 750.52 424.42C758.643 415.206 766.547 405.772 774.452 396.339C776.428 393.925 778.404 391.622 780.27 389.099C780.38 388.989 780.38 388.879 780.489 388.77C782.356 386.466 784.112 384.053 785.759 381.64C789.382 376.594 792.785 371.438 795.859 366.063C797.395 363.321 798.823 360.578 800.03 357.726C801.238 354.874 802.336 351.803 802.555 348.402C802.665 346.757 802.555 344.892 801.567 343.137C801.128 342.26 800.36 341.601 799.591 341.053L797.505 339.846C794.651 338.311 791.577 337.213 788.503 336.665C784.002 335.678 779.282 335.678 774.781 336.446C773.024 336.775 771.268 337.104 769.621 337.652C766.547 338.64 763.693 340.175 761.058 342.04L760.07 342.808C759.741 343.027 759.521 343.356 759.192 343.576C758.643 344.124 757.985 344.673 757.436 345.221C756.338 346.318 755.24 347.305 754.142 348.402C752.605 349.828 751.068 351.254 749.422 352.571C746.458 355.203 743.384 357.836 740.2 360.359C735.809 363.979 731.418 367.599 726.917 371.109L726.148 375.277L727.576 374.071C732.406 370.231 737.126 366.392 741.847 362.443C746.567 358.494 751.288 354.545 755.899 350.377C756.997 349.28 758.204 348.293 759.302 347.086C759.851 346.537 760.4 346.099 760.949 345.55C761.168 345.331 761.498 345.002 761.717 344.782L762.595 344.124C764.901 342.369 767.535 341.053 770.39 340.175C775.988 338.42 782.136 337.981 787.845 339.188C790.699 339.736 793.553 340.724 796.078 342.15L797.944 343.247C798.493 343.576 798.823 344.015 799.152 344.453C799.701 345.441 799.92 346.757 799.811 348.183C799.591 350.925 798.603 353.777 797.505 356.52C796.298 359.262 794.98 362.004 793.443 364.637C790.479 369.902 787.076 375.058 783.563 379.994C782.026 382.188 780.38 384.382 778.733 386.466C778.513 386.795 778.294 387.014 778.074 387.344C777.855 387.673 777.525 388.002 777.306 388.331C775.659 390.415 774.012 392.39 772.366 394.474C764.571 403.907 756.667 413.341 748.544 422.556C744.482 427.163 740.42 431.77 736.248 436.267L733.065 439.448C731.967 440.545 730.869 441.533 729.771 442.52C728.673 443.617 727.466 444.604 726.258 445.591C726.807 446.359 727.356 447.017 727.905 447.785C729.112 446.688 730.43 445.701 731.637 444.494C732.625 443.617 733.833 442.629 734.931 441.423Z" fill="#EDCFC5"/>
<path d="M632.399 389.646C630.642 387.891 629.325 385.807 628.227 383.613C626.8 380.761 625.702 377.69 624.605 374.618C624.056 373.083 623.617 371.547 623.068 370.121C622.738 369.353 622.519 368.695 622.189 368.146C622.08 367.817 621.86 367.598 621.75 367.488H621.641C620.104 367.708 618.457 367.927 617.03 368.146C616.261 368.256 615.493 368.366 614.834 368.585C614.176 368.695 613.407 369.024 613.188 369.243C613.188 369.243 613.297 369.463 613.297 369.572C613.297 369.682 613.517 369.792 613.517 369.901L613.846 370.34C614.176 370.779 614.395 371.108 614.615 371.547C615.493 373.083 616.042 374.618 616.591 376.154C617.688 379.225 618.457 382.407 619.116 385.588C619.335 386.794 619.555 388.001 619.774 389.208C623.397 391.84 627.349 394.583 631.411 397.325L632.399 389.646Z" fill="#1E2B3C"/>
<path d="M602.54 409.173C602.431 408.515 602.211 407.747 602.101 407.089C601.552 403.908 601.004 400.837 600.345 397.765C599.137 395.462 598.259 392.829 597.6 389.867C597.491 389.758 597.381 389.538 597.271 389.429C596.393 388.332 595.405 387.344 594.087 386.686C593.429 386.357 592.88 386.138 592.111 385.918C591.892 385.918 591.782 385.809 591.562 385.809C591.892 390.087 592.111 394.255 592.331 398.533C592.441 400.946 592.441 403.36 592.441 405.663C592.441 407.748 592.331 409.941 592.111 412.135L602.54 409.173Z" fill="#1E2B3C"/>
<path d="M640.302 515.682L582.668 633.823L676.639 695.691C678.286 693.277 679.713 690.754 680.921 688.012C682.128 685.379 683.116 682.637 683.885 679.785C685.202 674.19 685.312 668.267 683.336 663.111C682.897 661.795 682.348 660.479 681.689 659.272C681.36 658.614 681.031 658.066 680.701 657.407L679.494 655.542C677.847 653.019 676.42 650.496 674.993 647.864C672.248 642.598 669.833 637.114 668.186 631.3C667.747 629.874 667.418 628.448 667.088 626.912C666.979 626.144 666.759 625.486 666.649 624.718L666.32 622.525C666.1 621.099 665.991 619.563 665.881 618.027C665.881 617.259 665.881 616.491 665.881 615.724V614.627L665.991 613.53C666.1 610.458 666.649 607.496 667.528 604.535C667.967 603.109 668.625 601.683 669.284 600.257L671.26 596.308C676.639 585.887 681.909 575.356 686.849 564.716C691.789 554.076 696.509 543.325 700.462 532.356C704.304 521.387 707.597 510.088 708.366 498.57C708.695 492.866 708.475 487.052 707.268 481.458C706.609 478.715 705.731 475.973 704.633 473.341C703.535 470.708 702.108 468.185 700.681 465.772C697.937 460.835 693.655 456.667 689.264 453.047C684.763 449.318 679.933 446.027 674.883 442.846C680.152 445.478 685.312 448.44 690.142 451.84C694.973 455.241 699.583 459.19 703.096 464.236C706.39 469.282 708.695 474.986 710.012 480.8C711.33 486.723 711.549 492.756 711.22 498.68C710.342 510.636 707.048 522.154 703.096 533.233C699.144 544.313 694.314 555.172 689.374 565.813C684.324 576.453 679.054 586.984 673.675 597.404L672.029 600.586L670.162 627.461C670.382 628.448 670.711 629.435 670.931 630.423C671.48 632.507 672.138 634.481 672.907 636.456L770.721 679.127C770.721 679.127 784.114 641.172 763.585 633.604C733.835 622.524 729.773 595.869 730.102 582.376C731.419 535.318 739.104 502.08 737.348 477.07C736.579 465.772 733.835 456.228 727.797 447.782C727.248 447.014 726.699 446.356 726.15 445.588C724.064 442.955 721.539 440.432 718.685 438.019C713.086 433.302 707.487 429.573 701.998 426.391C669.943 435.606 626.031 448.879 625.153 447.343C624.274 447.233 623.506 447.014 622.737 446.575L582.448 426.391C581.68 426.501 580.802 426.501 580.033 426.282C578.496 425.953 577.289 424.965 576.41 423.868C576.191 423.649 576.081 423.43 575.862 423.101L572.897 421.565L573.007 417.726H572.897L573.776 417.506C573.776 417.287 573.666 416.958 573.666 416.738L569.714 397.103L541.94 396.555C536.012 399.187 530.083 401.491 524.045 403.575C522.509 404.123 520.972 404.672 519.435 405.111C517.898 405.55 516.361 406.098 514.714 406.537C513.177 406.975 511.64 407.524 509.994 407.963C508.457 408.402 506.81 408.731 505.163 409.06C498.796 410.376 492.319 411.473 485.732 411.912C484.964 412.022 484.086 412.021 483.317 412.021C483.098 422.771 483.647 432.754 486.281 441.858C487.269 448.769 488.916 454.912 491.441 459.519C522.289 514.366 616.48 516.121 636.46 515.792C638.765 515.682 639.973 515.682 640.302 515.682Z" fill="#1E2B3C"/>
<path d="M676.641 695.692C676.641 695.582 676.641 695.692 676.641 695.692C680.484 691.085 683.448 685.929 685.314 680.225C687.18 674.521 687.729 668.269 685.972 662.235L685.643 661.138L685.204 660.041C684.875 659.274 684.545 658.616 684.216 657.957C683.887 657.299 683.448 656.641 683.008 655.983L681.801 654.118C680.264 651.705 678.837 649.182 677.41 646.549C675.653 643.258 674.116 639.968 672.909 636.567C672.14 634.593 671.482 632.618 670.933 630.534C670.713 629.547 670.384 628.559 670.164 627.572C670.054 627.133 669.945 626.804 669.835 626.365C669.725 625.707 669.506 624.939 669.396 624.281L669.066 622.197C668.847 620.771 668.737 619.345 668.627 617.919C668.627 617.261 668.627 616.493 668.627 615.835V614.738L668.737 613.641C668.847 610.789 669.286 608.047 670.164 605.304C670.603 603.988 671.152 602.672 671.701 601.465L672.03 600.807L673.677 597.626C679.056 587.205 684.326 576.674 689.376 566.034C694.316 555.393 699.146 544.534 703.098 533.455C707.05 522.375 710.344 510.858 711.222 498.901C711.551 492.977 711.332 486.834 710.014 481.021C708.697 475.097 706.392 469.503 703.098 464.457C699.695 459.411 694.974 455.462 690.144 452.061C685.314 448.661 680.154 445.699 674.885 443.066C679.825 446.248 684.765 449.538 689.266 453.268C693.767 456.998 697.938 461.056 700.683 465.993C702.22 468.406 703.537 470.929 704.635 473.561C705.733 476.194 706.611 478.936 707.27 481.679C708.477 487.273 708.807 493.087 708.368 498.791C707.489 510.309 704.306 521.608 700.463 532.577C696.511 543.546 691.791 554.296 686.851 564.937C681.801 575.577 676.641 585.998 671.262 596.529L669.286 600.477C668.627 601.904 667.969 603.33 667.53 604.756C666.651 607.717 666.102 610.679 665.993 613.751L665.883 614.848V615.944C665.883 616.712 665.883 617.48 665.883 618.248C665.993 619.784 666.102 621.21 666.322 622.745L666.651 624.939C666.761 625.707 666.981 626.365 667.09 627.133C667.42 628.559 667.749 630.095 668.188 631.521C669.835 637.225 672.14 642.82 674.995 648.085C676.422 650.718 677.849 653.35 679.495 655.763L680.703 657.628C681.032 658.177 681.472 658.835 681.691 659.493C682.35 660.7 682.899 662.016 683.338 663.332C685.314 668.598 685.314 674.411 683.887 680.006C683.228 682.858 682.24 685.6 680.923 688.233C679.715 690.646 678.288 693.279 676.641 695.692Z" fill="#EDCFC5"/>
<path d="M569.605 196.915C570.045 196.915 570.594 196.805 571.033 196.586L569.605 200.535C565.105 213.04 571.472 226.752 583.987 231.359C589.256 233.333 594.855 233.224 599.795 231.578L603.308 221.816C599.905 220.499 597.27 218.086 595.733 214.795C595.404 214.137 595.733 213.259 596.392 212.93C597.05 212.601 597.929 212.93 598.258 213.588C599.466 216.221 601.661 218.196 604.296 219.183L606.711 212.601L615.274 215.673L619.116 205.032C623.617 192.527 617.25 178.815 604.735 174.208C593.318 170.04 580.913 175.086 575.314 185.507C574.875 186.384 573.558 186.384 573.228 185.507C572.46 183.861 571.252 182.764 569.935 182.764C567.52 182.764 565.544 185.836 565.544 189.785C565.434 193.624 567.3 196.805 569.605 196.915Z" fill="#1E2B3C"/>
<path d="M598.252 213.479C597.922 212.82 597.154 212.491 596.386 212.821C595.727 213.15 595.398 213.917 595.727 214.685C597.264 217.976 599.898 220.389 603.302 221.706L604.29 219.183C601.655 218.086 599.459 216.111 598.252 213.479Z" fill="#EDCFC5"/>
<path d="M573.008 417.836L572.898 421.675L575.863 423.211C574.765 421.675 574.216 420.03 573.886 418.275L573.008 417.836Z" fill="white"/>
<path d="M622.736 442.739C623.943 443.397 625.371 443.617 626.688 443.507C626.798 442.739 626.908 441.752 627.017 440.655L710.34 418.167L627.017 440.655L639.422 355.313C639.642 353.777 640.85 352.461 642.387 352.132L728.344 333.813C729.552 333.593 730.759 333.922 731.637 334.69C730.32 333.264 728.124 332.167 726.478 332.496L686.957 340.943L640.52 350.815C639.313 351.035 638.325 351.912 637.776 353.009C637.776 353.119 637.666 353.228 637.666 353.338C637.556 353.558 637.556 353.777 637.556 353.996L632.506 388.55L632.287 389.647L631.189 397.326L630.64 400.946L620.76 403.797C620.76 404.127 620.76 404.565 620.76 404.894C620.65 408.185 620.431 411.476 619.552 414.657C619.113 416.303 618.455 417.948 617.466 419.484C617.247 419.923 616.918 420.252 616.588 420.581C616.259 420.91 615.93 421.239 615.49 421.568C614.722 422.117 613.734 422.555 612.856 422.775C612.417 422.884 611.868 422.994 611.319 422.994C610.77 422.994 610.221 422.994 609.782 422.775C609.233 422.665 608.794 422.446 608.355 422.117C607.916 421.787 607.477 421.568 607.147 421.129C605.72 419.703 605.061 418.167 604.403 416.522C603.415 414.109 602.866 411.586 602.427 409.063L591.998 412.134C591.998 412.354 591.888 412.683 591.888 412.902C591.558 415.315 590.9 417.838 589.692 420.142C588.924 421.787 587.826 423.323 586.289 424.53L622.736 442.739Z" fill="#F89FA1"/>
<path d="M573.777 417.508L572.898 417.728H573.008L573.886 418.167C573.886 418.057 573.886 417.727 573.777 417.508Z" fill="#F45F63"/>
<path d="M485.62 410.489C491.987 409.612 498.354 408.186 504.502 406.54C507.576 405.663 510.759 404.785 513.833 403.908C515.37 403.469 516.907 402.92 518.444 402.481C519.981 402.043 521.518 401.494 523.055 400.946C529.093 398.862 535.24 396.558 541.059 393.925L541.388 393.816H541.717L570.809 394.364H571.907L572.126 395.461L576.298 416.193C576.627 418.387 577.176 420.581 578.493 422.007C579.701 423.543 581.567 424.091 583.214 423.214C584.97 422.446 586.288 420.691 587.276 418.716C588.264 416.742 588.813 414.548 589.142 412.354C589.471 410.16 589.581 407.856 589.581 405.443C589.581 403.14 589.581 400.726 589.471 398.423C589.252 393.706 589.032 388.989 588.593 384.272L588.483 382.846L589.801 382.737C590.899 382.737 591.667 382.846 592.655 383.066C593.533 383.285 594.411 383.614 595.18 384.053C596.827 384.93 598.144 386.137 599.242 387.563C600.34 388.989 600.998 390.634 601.547 392.28C602.096 393.816 602.425 395.461 602.755 396.997C603.413 400.178 603.962 403.359 604.511 406.431C605.17 409.502 605.719 412.573 606.817 415.425C607.365 416.851 608.024 418.168 608.902 419.045C609.122 419.265 609.342 419.374 609.561 419.594C609.781 419.704 610 419.813 610.33 419.923C610.878 420.142 611.427 420.033 611.976 419.923C614.391 419.375 615.928 416.742 616.697 413.89C617.465 411.038 617.795 407.857 617.795 404.785C617.795 401.714 617.685 398.532 617.355 395.351C617.026 392.28 616.587 389.099 615.928 386.027C615.27 382.956 614.611 379.884 613.513 376.923C612.964 375.497 612.415 374.071 611.757 372.755C611.537 372.425 611.427 372.096 611.208 371.877L611.098 371.658L610.878 371.328C610.769 371.109 610.549 370.999 610.439 370.78C610.33 370.561 610.11 370.341 610 370.012L609.89 369.573C609.89 369.354 609.781 369.134 609.781 369.025C609.781 368.696 609.89 368.147 610.11 367.818C610.22 367.599 610.33 367.489 610.439 367.27C610.549 367.16 610.659 367.05 610.769 366.941C611.757 366.173 612.635 365.953 613.513 365.734C614.391 365.515 615.16 365.405 616.038 365.295C617.685 365.076 619.331 364.966 620.868 364.856H621.198C621.417 364.856 621.747 364.856 621.966 364.966C622.405 365.076 622.735 365.405 622.954 365.624C623.393 366.063 623.613 366.502 623.832 366.941C624.272 367.709 624.491 368.586 624.711 369.354C625.15 370.89 625.589 372.425 626.028 373.961C626.906 377.032 627.785 380.104 628.992 382.956C629.87 384.93 630.858 386.795 632.176 388.441L637.226 353.887C637.226 353.668 637.335 353.448 637.335 353.229C635.689 351.693 633.932 350.267 632.176 348.841C629.651 346.867 627.016 345.002 624.162 343.686C621.417 342.26 618.343 341.492 615.27 340.943C612.196 340.285 609.012 339.846 605.938 339.736C605.17 339.736 604.401 339.627 603.633 339.627C602.865 339.627 601.986 339.627 601.328 339.736C599.9 339.956 598.254 340.285 596.717 340.614L587.276 342.698L568.394 346.976C543.254 352.79 518.115 358.823 493.085 364.747L488.694 365.734L491.658 362.443L515.809 335.897C517.895 333.703 519.761 331.4 521.847 329.316L528.214 322.953C532.496 318.675 536.667 314.507 540.949 310.338C537.216 315.055 533.374 319.662 529.532 324.27L523.823 331.18C521.957 333.484 519.761 335.568 517.785 337.872L496.598 361.127C520.2 355.532 543.913 349.828 567.625 344.344L586.507 340.066L595.948 337.981L598.364 337.543C599.132 337.433 599.9 337.214 600.888 337.104C601.876 336.994 602.645 336.994 603.413 336.994C604.292 336.994 605.06 336.994 605.938 337.104C607.585 337.214 609.232 337.323 610.878 337.543C612.525 337.762 614.172 337.981 615.819 338.31C619.002 339.078 622.186 340.285 625.04 342.04C627.894 343.795 630.419 345.879 632.725 348.183C634.371 349.719 635.908 351.364 637.335 353.01C637.774 351.913 638.762 351.035 640.08 350.816L686.517 340.943C682.784 339.078 678.722 337.543 674.551 336.226C670.818 335.129 664.78 334.471 657.425 334.032C639.97 333.155 615.709 334.033 599.681 334.91C600.559 328.109 601.437 321.198 602.206 314.507C606.597 275.236 607.914 242.877 564.442 239.147C560.49 238.599 556.318 238.489 552.146 238.818C551.268 238.818 550.5 238.818 549.621 238.928C543.254 239.257 537.106 240.025 531.508 242.767V242.547C531.508 242.547 529.093 243.535 525.031 245.838C524.262 246.277 523.494 246.716 522.725 247.155C505.38 257.027 466.518 283.683 444.123 334.362C424.692 378.349 434.682 406.76 465.969 411.147C472.776 411.696 479.253 411.257 485.62 410.489Z" fill="#1E2B3C"/>
<path d="M633.273 348.29C630.858 346.096 628.443 344.012 625.589 342.147C622.734 340.392 619.551 339.185 616.367 338.417C614.72 338.088 613.074 337.869 611.427 337.65C609.78 337.43 608.134 337.32 606.487 337.211C605.609 337.211 604.84 337.101 603.962 337.101C603.084 337.101 602.315 337.101 601.437 337.211C600.449 337.32 599.79 337.54 598.912 337.65L596.497 338.088L587.056 340.172L568.174 344.45C544.461 349.935 520.859 355.53 497.146 361.234L518.334 337.978C520.31 335.784 522.505 333.591 524.372 331.287L530.08 324.376C533.923 319.769 537.765 315.162 541.497 310.445C537.216 314.614 532.935 318.892 528.763 323.06L522.396 329.422C520.2 331.507 518.334 333.81 516.358 336.004L492.206 362.55L489.242 365.841L493.633 364.853C518.773 358.82 543.803 352.897 568.942 347.083L587.824 342.805L597.265 340.721C598.802 340.392 600.449 340.063 601.876 339.843C602.535 339.734 603.413 339.734 604.182 339.734C604.95 339.734 605.718 339.734 606.487 339.843C609.671 340.063 612.744 340.392 615.818 341.05C618.892 341.598 621.966 342.366 624.71 343.792C627.455 345.218 630.199 346.973 632.724 348.948C634.481 350.374 636.237 351.8 637.884 353.336C637.884 353.226 637.994 353.116 637.994 353.007C636.347 351.361 634.92 349.826 633.273 348.29Z" fill="#EDCFC5"/>
<path d="M485.843 411.804C492.32 411.365 498.797 410.268 505.274 408.952C506.921 408.623 508.458 408.294 510.105 407.855C511.642 407.416 513.288 406.977 514.825 406.429C516.362 405.99 517.899 405.442 519.546 405.003C521.083 404.564 522.62 404.016 524.157 403.467C530.194 401.383 536.232 399.079 542.051 396.447L569.825 396.995L573.777 416.63C573.777 416.85 573.887 417.179 573.887 417.398C573.887 417.618 573.997 417.947 573.997 418.166C574.326 419.811 574.875 421.567 575.973 423.102C576.192 423.322 576.302 423.541 576.522 423.87C577.4 424.967 578.607 425.845 580.144 426.283C580.913 426.503 581.791 426.503 582.559 426.393C583.218 426.283 583.987 426.064 584.535 425.845C585.304 425.516 585.963 425.077 586.621 424.528C588.048 423.322 589.146 421.676 590.024 420.141C591.122 417.837 591.781 415.424 592.22 412.901C592.22 412.681 592.33 412.352 592.33 412.133C592.659 409.939 592.659 407.745 592.659 405.661C592.659 403.248 592.659 400.835 592.549 398.531C592.44 394.253 592.11 390.084 591.781 385.806C592 385.806 592.22 385.916 592.33 385.916C592.988 386.026 593.647 386.355 594.306 386.684C595.513 387.342 596.611 388.22 597.489 389.426C597.599 389.536 597.709 389.755 597.819 389.865C598.477 390.852 599.026 392.059 599.356 393.266C599.795 394.692 600.234 396.227 600.563 397.763C601.222 400.834 601.771 403.906 602.32 407.087C602.43 407.745 602.539 408.513 602.759 409.171C603.308 411.694 603.857 414.107 604.735 416.63C605.394 418.166 606.162 419.812 607.479 421.238C607.809 421.567 608.248 421.896 608.687 422.225C609.126 422.444 609.565 422.773 610.114 422.883C610.663 423.102 611.102 423.102 611.651 423.102C612.2 423.102 612.639 422.993 613.188 422.883C614.066 422.664 615.054 422.225 615.823 421.676C616.262 421.347 616.591 421.128 616.92 420.689C617.25 420.36 617.579 420.031 617.799 419.592C618.787 418.056 619.445 416.411 619.885 414.765C620.763 411.475 620.982 408.184 621.092 405.003C621.092 404.674 621.092 404.235 621.092 403.906C621.092 401.054 620.873 398.092 620.653 395.24C620.433 393.266 620.214 391.291 619.885 389.316C619.665 388.11 619.445 386.903 619.226 385.696C618.567 382.515 617.799 379.334 616.701 376.263C616.152 374.727 615.603 373.192 614.725 371.656C614.505 371.327 614.286 370.888 613.956 370.449L613.627 370.01C613.517 369.901 613.407 369.791 613.407 369.681C613.407 369.572 613.188 369.462 613.298 369.352C613.517 369.133 614.286 368.913 614.944 368.694C615.603 368.584 616.372 368.365 617.14 368.255C618.677 368.036 620.214 367.816 621.751 367.597H621.861C621.97 367.707 622.19 367.926 622.3 368.255C622.629 368.804 622.958 369.572 623.178 370.23C623.727 371.656 624.276 373.191 624.715 374.727C625.703 377.799 626.801 380.76 628.338 383.722C629.435 385.916 630.753 388 632.509 389.755L632.729 388.658C631.411 387.013 630.423 385.148 629.545 383.174C628.338 380.322 627.459 377.25 626.581 374.179C626.142 372.643 625.703 371.107 625.264 369.572C625.044 368.804 624.715 368.036 624.385 367.158C624.166 366.72 623.946 366.281 623.507 365.842C623.288 365.623 622.958 365.403 622.519 365.184C622.3 365.074 622.08 365.074 621.751 365.074H621.421C619.775 365.184 618.238 365.293 616.591 365.513C615.823 365.623 614.944 365.732 614.066 365.952C613.188 366.171 612.31 366.39 611.322 367.158C611.212 367.268 611.102 367.378 610.992 367.487C610.883 367.597 610.773 367.817 610.663 368.036C610.443 368.365 610.334 368.913 610.334 369.242C610.334 369.462 610.334 369.681 610.443 369.791L610.553 370.23C610.663 370.559 610.773 370.778 610.992 370.998C611.102 371.217 611.322 371.436 611.431 371.546L611.651 371.875L611.761 372.095C611.98 372.314 612.09 372.643 612.31 372.972C612.968 374.179 613.627 375.715 614.066 377.141C615.054 380.102 615.823 383.174 616.481 386.245C617.14 389.316 617.579 392.388 617.908 395.569C618.238 398.64 618.457 401.822 618.348 405.003C618.238 408.074 618.018 411.255 617.25 414.107C616.481 416.959 614.944 419.702 612.529 420.141C611.98 420.25 611.322 420.36 610.883 420.141C610.663 420.141 610.443 419.921 610.114 419.811C609.895 419.592 609.675 419.482 609.455 419.263C608.577 418.385 607.919 417.069 607.37 415.643C606.272 412.791 605.723 409.72 605.064 406.648C604.515 403.577 603.966 400.396 603.308 397.214C602.978 395.679 602.539 394.033 602.1 392.498C601.551 390.962 600.893 389.207 599.795 387.781C598.697 386.355 597.38 385.148 595.733 384.271C594.965 383.832 594.086 383.503 593.208 383.283C592.33 383.064 591.452 382.954 590.354 382.954L589.036 383.064L589.146 384.49C589.585 389.207 589.805 393.924 590.024 398.64C590.134 400.944 590.134 403.357 590.134 405.661C590.134 408.074 590.024 410.268 589.695 412.572C589.366 414.765 588.707 416.959 587.829 418.934C586.841 420.908 585.523 422.664 583.767 423.431C582.01 424.199 580.254 423.76 579.046 422.225C577.839 420.689 577.18 418.495 576.851 416.411L572.679 395.679L572.46 394.582H571.362L542.27 394.033H541.941L541.612 394.143C535.793 396.776 529.755 399.079 523.608 401.163C522.071 401.712 520.534 402.26 518.997 402.699C517.46 403.138 515.923 403.686 514.386 404.125C511.312 405.003 508.129 405.88 505.055 406.758C498.797 408.403 492.54 409.939 486.173 410.707C479.806 411.475 473.329 411.914 466.852 411.365C472.45 412.352 478.159 412.462 483.867 412.243C484.197 411.914 484.965 411.913 485.843 411.804Z" fill="#EDCFC5"/>
<path d="M732.843 338.201C733.063 336.775 732.514 335.458 731.636 334.69C730.757 333.922 729.55 333.593 728.342 333.813L642.385 352.132C640.848 352.461 639.64 353.777 639.421 355.313L627.016 440.655L710.338 418.168L718.901 415.864L726.147 375.277L726.915 371.109L728.342 363.211L732.843 338.201Z" fill="white"/>
<path d="M718.905 415.863L710.343 418.167L627.02 440.654C626.91 441.751 626.8 442.629 626.69 443.506C625.373 443.616 623.946 443.397 622.738 442.738L586.511 424.529C585.852 425.078 585.194 425.516 584.425 425.846C583.767 426.175 583.108 426.284 582.449 426.394L622.738 446.578C623.507 447.016 624.275 447.236 625.154 447.346C626.032 448.881 669.944 435.608 701.999 426.394C705.622 425.297 709.135 424.31 712.319 423.432C715.832 422.555 718.466 419.593 718.905 415.863Z" fill="white"/>
</svg>
