<svg width="1195" height="844" viewBox="0 0 1195 844" fill="none" xmlns="http://www.w3.org/2000/svg">
<path d="M512.89 779.758C512.126 794.387 502.71 806.472 474.972 808.762C456.904 810.161 450.16 844 450.16 844H589.997V666.54C556.533 664.505 524.723 656.744 495.331 644.15C503.219 706.865 514.035 756.224 512.89 779.758Z" fill="#1E2B3C"/>
<path d="M689.503 779.758C688.74 794.387 679.324 806.472 651.585 808.762C633.517 810.161 626.773 844 626.773 844H766.738L745.616 631.303C716.478 647.586 684.286 658.781 649.931 663.996C667.109 716.407 690.648 757.242 689.503 779.758Z" fill="#1E2B3C"/>
<path d="M697.134 104.777L699.297 100.452C699.425 100.961 699.679 101.47 700.061 101.851C701.969 103.759 706.168 102.742 709.477 99.5616C712.785 96.3813 713.803 92.1829 711.894 90.1475C710.749 89.0026 708.968 88.8761 706.932 89.6394C705.914 90.021 704.896 89.0028 705.278 87.8579C709.604 74.8824 703.751 60.3804 691.154 54.147C677.412 47.2776 660.616 53.0026 653.873 66.7414L648.02 78.4451L657.435 83.1509L653.236 91.5475L654.763 90.7835C655.145 90.9107 655.527 91.0389 655.908 91.1662C656.672 91.4206 657.563 91.5475 658.326 91.5475C659.217 91.5475 659.98 91.5468 660.871 91.4196C661.253 91.4196 661.634 91.2934 662.143 91.1662C662.652 91.5478 663.161 91.9287 663.797 92.3103C663.543 93.0736 663.161 93.7096 662.779 94.2185C662.27 94.3457 661.761 94.4731 661.252 94.4731C660.235 94.6004 659.217 94.5999 658.071 94.5999C657.054 94.4726 656.036 94.3462 655.018 94.0918C654.509 93.9646 654 93.8368 653.491 93.5824C653.236 93.0736 652.982 92.565 652.855 91.9289L648.401 100.96C663.543 103.123 678.303 106.558 692.554 111.011C694.335 109.484 695.862 107.321 697.134 104.777Z" fill="#1E2B3C"/>
<path d="M655.02 94.598C656.038 94.8524 657.056 95.1073 658.074 95.1073C659.092 95.2346 660.11 95.1078 661.255 94.9806C661.764 94.9806 662.273 94.8532 662.782 94.726C663.164 94.0899 663.545 93.5811 663.8 92.8178C663.164 92.309 662.655 92.054 662.146 91.6724C661.764 91.7996 661.382 91.7999 660.873 91.9271C660.11 92.0543 659.219 92.0538 658.328 92.0538C657.438 92.0538 656.674 91.7996 655.911 91.6724C655.529 91.5452 655.147 91.4182 654.766 91.291L653.239 92.0538L652.984 92.5631C653.112 93.1992 653.366 93.7078 653.621 94.2166C654.002 94.2166 654.511 94.4708 655.02 94.598Z" fill="#EDCFC5"/>
<path d="M834.813 541.492C830.741 535.768 827.56 526.99 831.505 522.537C834.049 519.611 841.175 523.809 847.282 528.643C837.103 517.83 821.198 499.64 827.56 490.608C832.013 484.247 846.773 495.187 859.243 505.618C849.318 495.569 835.067 477.886 840.284 472.289C847.791 464.02 862.933 476.995 870.822 482.592C871.331 482.974 871.713 483.229 872.221 483.611C870.695 481.321 869.677 477.887 870.695 472.798C873.112 460.459 881.001 440.231 881.001 440.231C881.001 440.231 883.164 440.868 885.582 442.268C889.653 423.186 891.816 403.34 891.816 382.986C891.816 255.648 808.092 147.901 692.685 111.646C678.434 107.193 663.674 103.758 648.533 101.596C635.172 99.6874 621.43 98.6699 607.434 98.6699C507.932 98.6699 420.39 149.809 369.494 227.153C372.421 228.043 374.711 229.316 374.711 229.316C374.711 229.316 365.168 248.906 357.788 258.956C354.734 263.154 351.553 264.808 348.881 265.19C349.517 265.317 350.026 265.317 350.535 265.444C359.951 267.352 379.801 269.642 378.91 280.71C378.274 288.342 355.752 289.868 341.501 289.486C357.661 291.522 375.602 294.956 374.075 302.589C371.784 313.402 347.609 314.165 332.722 314.038C340.356 315.31 348.245 317.727 347.863 321.544C347.227 327.523 338.575 331.085 331.704 331.975C330.686 332.103 329.159 332.229 327.378 332.102C324.451 348.512 322.797 365.559 322.797 382.86C322.797 500.148 393.797 600.899 495.208 644.278C524.6 656.872 556.41 664.632 589.875 666.667C595.601 667.049 601.326 667.176 607.179 667.176C621.685 667.176 635.936 666.031 649.805 663.996C684.033 658.78 716.352 647.586 745.49 631.303C782.899 610.44 815.09 581.436 839.648 546.707C837.485 544.672 835.831 542.764 834.813 541.492Z" fill="#E5AA20"/>
<path d="M885.453 442.14C883.035 440.741 880.872 440.105 880.872 440.105C880.872 440.105 872.983 460.332 870.566 472.671C869.548 477.759 870.438 481.194 872.092 483.484C871.583 483.102 871.202 482.721 870.693 482.466C862.804 476.869 847.79 463.894 840.155 472.163C834.938 477.887 849.189 495.442 859.114 505.491C846.644 495.06 831.884 484.247 827.431 490.481C821.069 499.513 836.974 517.704 847.153 528.517C840.919 523.81 833.92 519.613 831.375 522.411C827.431 526.864 830.739 535.64 834.684 541.365C835.574 542.764 837.356 544.546 839.519 546.581C846.644 553.196 858.605 561.083 863.695 554.85C867.257 550.525 862.549 543.019 857.714 537.803C864.84 541.365 872.347 539.457 875.401 534.623C879.345 528.39 874.764 520.249 866.748 512.234L866.876 512.361C872.22 515.669 882.781 519.867 885.071 511.344C886.98 504.093 880.999 492.516 874.383 485.647C876.291 486.792 878.327 486.791 879.218 485.773C881.508 483.484 892.069 469.491 892.96 452.572C893.469 447.611 889.015 444.049 885.453 442.14Z" fill="#1E2B3C"/>
<path d="M331.702 331.976C338.7 331.086 347.225 327.396 347.861 321.545C348.243 317.728 340.354 315.438 332.72 314.039C347.48 314.166 371.783 313.403 374.073 302.59C375.6 294.957 357.659 291.65 341.499 289.487C355.623 289.869 378.272 288.343 378.908 280.711C379.799 269.516 359.949 267.353 350.534 265.445C350.025 265.318 349.388 265.191 348.879 265.191C351.551 264.809 354.732 263.027 357.786 258.957C365.166 248.78 374.709 229.317 374.709 229.317C374.709 229.317 372.546 228.044 369.492 227.154C365.675 226.009 360.458 225.501 357.15 228.935C345.444 241.148 342.39 258.321 342.263 261.629C342.263 262.901 343.535 264.427 345.571 265.063C336.028 264.935 323.431 268.371 319.487 274.731C314.779 282.237 325.085 287.071 331.066 288.725C331.066 288.725 331.193 288.725 331.32 288.725C319.869 288.343 310.707 290.506 308.926 297.629C307.526 303.099 311.216 309.968 318.596 312.767C311.471 312.767 302.818 314.548 302.055 320.018C300.91 328.796 317.96 331.977 327.503 332.231C329.157 332.104 330.684 332.104 331.702 331.976Z" fill="#1E2B3C"/>
</svg>
