<svg width="1195" height="844" viewBox="0 0 1195 844" fill="none" xmlns="http://www.w3.org/2000/svg">
<path d="M392.258 731.623C391.805 718.494 390.219 705.138 387.501 691.782C379.232 651.035 361.335 614.815 336.642 584.82C306.739 588.556 272.418 585.16 249.878 559.013C242.968 551.09 237.758 532.415 233.453 510.683C216.689 504.345 199.246 499.817 181.236 497.213L184.747 546.79C192.45 547.695 200.039 549.279 207.401 551.656C215.104 554.146 222.58 557.203 229.942 560.711L235.379 563.315C236.285 563.768 237.191 564.22 238.098 564.673L239.457 565.465L240.703 566.371C244.101 568.861 247.046 571.69 249.764 574.746C252.483 577.802 254.975 580.972 257.127 584.481C259.279 587.876 260.978 591.724 261.544 595.686C263.13 606.325 259.506 611.872 254.748 612.777C250.331 613.683 241.835 591.385 239.683 593.309C239.683 593.309 245.234 601.911 244.327 613.796C243.195 628.284 233.227 637.678 227.563 633.717C224.392 631.566 228.809 613.23 223.939 613.796C223.939 613.796 228.923 625.794 216.689 640.282C207.628 650.922 199.019 642.659 203.777 634.623C214.651 616.06 201.625 608.476 201.625 608.476C201.625 608.476 190.864 603.043 179.65 601.459C168.323 599.874 154.278 590.366 154.278 590.366C154.278 590.366 148.388 585.386 141.365 566.031C141.365 566.031 128.905 533.434 120.07 495.969C112.594 496.761 105.005 497.892 97.4161 499.477C60.9432 506.834 28.0949 522.002 0.00390625 542.828V831.002H749.285L716.777 667.107L392.258 731.623Z" fill="#F45F63"/>
<path d="M1013.32 283.968C1013.32 283.968 1003.35 288.834 995.762 288.948C988.286 288.948 980.81 291.551 980.81 291.551C980.81 291.551 971.635 295.286 977.072 308.416C979.451 314.075 973.108 318.716 968.124 310.906C961.441 300.38 965.745 293.022 965.745 293.022C962.574 292.117 963.82 304.454 961.554 305.586C957.476 307.624 951.813 300.606 952.379 291.099C952.832 283.289 957.25 278.195 957.25 278.195C956.117 276.723 948.528 290.419 945.696 289.514C942.638 288.495 940.826 284.533 942.751 277.742C944.79 270.951 956.004 262.236 961.328 260.538C961.667 260.425 962.12 260.311 962.574 260.085L957.703 258.953C920.324 275.252 870.372 267.555 870.372 267.555L874.563 365.462L839.902 374.064L797.766 564.445L1123.08 636.319L1195 311.246L1021.81 272.989C1016.6 281.817 1013.32 283.968 1013.32 283.968Z" fill="#E5AA20"/>
<path d="M821.661 296.192C821.094 285.326 820.981 274.46 822.001 263.481C823.02 252.615 824.946 241.636 829.476 231.562C830.609 229.072 831.968 226.582 833.554 224.319C835.14 221.942 836.952 219.791 839.104 217.98C841.257 216.056 843.635 214.471 846.014 213.226C848.506 211.868 850.998 210.849 853.603 209.944C858.813 208.133 864.137 206.661 869.461 205.529C874.785 204.398 880.221 203.379 885.545 202.7C890.982 202.134 896.419 201.794 901.856 201.568C907.293 201.342 912.73 201.228 918.167 201.228C907.406 202.247 896.646 203.492 885.998 205.529C880.675 206.322 875.351 207.114 870.14 208.359C864.93 209.491 859.72 210.849 854.736 212.66C849.752 214.471 844.881 216.735 841.03 220.244C839.104 221.942 837.405 223.979 835.933 226.129C834.46 228.28 833.214 230.543 832.082 233.034C827.664 242.654 825.852 253.407 824.832 264.047C823.926 274.799 823.926 285.552 824.606 296.305C824.946 301.738 825.399 307.058 825.965 312.378C826.192 315.094 826.531 317.698 826.871 320.414L827.438 324.376C827.551 325.055 827.551 325.847 827.664 326.526C827.664 327.205 827.664 327.997 827.664 328.676C827.211 334.449 824.719 339.769 821.548 344.297C818.376 348.937 814.525 352.899 810.334 356.521C809.314 357.426 808.068 358.219 807.049 359.011L805.576 360.256L805.237 360.595L804.897 360.935L804.217 361.614C802.518 363.538 801.272 365.802 800.479 368.292C799.686 370.782 799.46 373.498 799.573 376.102C799.573 378.818 800.026 381.422 800.706 384.138L840.124 374.291L874.784 365.689L870.594 267.782C870.594 267.782 920.546 275.479 957.925 259.18C964.947 256.124 971.63 252.162 977.407 247.069C991.453 234.731 997.909 191.834 1003.35 175.874L1012.97 184.59L999.495 253.181L1000.63 253.86C984.883 252.502 969.138 258.048 962.909 260.085C962.456 260.198 962.002 260.425 961.663 260.538C956.339 262.236 945.125 270.951 943.086 277.742C941.047 284.534 942.973 288.495 946.031 289.514C948.863 290.532 956.339 276.724 957.585 278.195C957.585 278.195 953.167 283.289 952.714 291.099C952.148 300.606 957.811 307.624 961.889 305.586C964.155 304.455 962.909 292.117 966.08 293.023C966.08 293.023 961.776 300.38 968.459 310.906C973.329 318.603 979.673 314.076 977.407 308.416C972.083 295.4 981.145 291.551 981.145 291.551C981.145 291.551 988.621 288.948 996.097 288.948C1003.57 288.948 1013.65 283.968 1013.65 283.968C1013.65 283.968 1017.05 281.817 1022.15 273.102C1022.83 271.97 1023.51 270.725 1024.3 269.367C1024.3 269.367 1064.51 195.908 1055.22 165.121C1046.73 137.391 1005.38 95.851 997.343 88.0411C996.55 87.1356 995.757 86.3438 994.851 85.6646C994.624 85.4383 994.398 85.3251 994.171 85.0987C992.585 83.7405 990.886 82.6085 989.074 81.5898C985.676 79.3261 982.618 77.8545 979.559 76.949C966.76 72.082 958.264 75.1379 952.374 82.4951L905.367 117.13L895.626 78.3075L893.248 61.6688C893.248 61.6688 899.477 45.8229 899.817 40.9558C900.384 32.6932 905.707 25.5622 903.215 21.4875C902.196 19.9029 899.704 20.2425 896.872 22.7327C894.04 25.3359 892.794 35.7491 888.15 34.0513C883.62 32.3535 880.108 14.2437 876.144 13.2251C870.707 11.7536 871.839 17.9786 871.839 17.9786L872.972 29.6372L871.839 29.9765C871.839 29.9765 867.082 16.5072 862.098 16.8467C857.114 17.1863 861.419 30.3158 861.419 30.3158L862.325 35.6358C862.325 35.6358 862.098 37.3338 860.059 37.4469C858.02 37.5601 846.694 30.2031 844.541 31.9009C841.257 34.5042 845.448 39.4841 850.205 42.8797C860.852 50.5764 865.723 64.7251 865.723 64.7251L865.383 68.2334H865.27C865.27 68.2334 856.435 133.316 878.975 151.652C898.005 167.046 923.717 156.18 931.193 152.445C927.682 164.443 923.151 173.271 915.562 173.837C895.853 175.309 859.946 149.502 833.554 162.179C807.389 174.742 811.127 207.567 797.308 259.972C794.929 268.801 785.867 284.873 764.346 285.213C749.508 285.439 749.508 312.717 749.508 312.717L823.133 308.755C822.227 304.568 821.887 300.38 821.661 296.192Z" fill="#1E2B3C"/>
<path d="M800.253 368.067C801.046 365.577 802.292 363.2 803.991 361.389L804.671 360.71L805.011 360.37L805.35 360.031L806.823 358.786C807.842 357.993 809.088 357.201 810.108 356.295C814.299 352.673 818.15 348.712 821.322 344.071C824.493 339.431 826.985 334.224 827.438 328.452C827.438 327.773 827.438 326.98 827.438 326.301C827.325 325.622 827.325 324.83 827.212 324.15L826.645 320.189C826.305 317.472 825.966 314.869 825.739 312.153C825.173 306.833 824.72 301.4 824.38 296.08C823.813 285.328 823.7 274.575 824.606 263.822C825.626 253.183 827.438 242.43 831.856 232.809C832.875 230.432 834.234 228.055 835.707 225.905C837.179 223.754 838.878 221.716 840.804 220.019C844.655 216.51 849.526 214.246 854.51 212.435C859.494 210.624 864.704 209.266 869.914 208.134C875.125 207.002 880.449 206.097 885.772 205.304C896.42 203.38 907.18 202.022 917.941 201.003C912.504 200.89 907.067 201.003 901.63 201.343C896.193 201.569 890.756 202.022 885.319 202.475C879.882 203.154 874.558 204.172 869.235 205.304C863.911 206.436 858.587 207.907 853.377 209.718C850.772 210.737 848.28 211.756 845.788 213.001C843.296 214.36 840.917 215.944 838.878 217.755C836.726 219.679 834.914 221.83 833.328 224.093C831.742 226.47 830.383 228.847 829.25 231.337C824.72 241.524 822.794 252.39 821.775 263.256C820.755 274.122 820.868 285.101 821.435 295.967C821.661 300.155 822.001 304.456 822.454 308.644C822.568 309.889 822.681 311.021 822.794 312.266C823.021 314.982 823.36 317.699 823.7 320.416L824.267 324.49C824.38 325.169 824.38 325.735 824.493 326.414C824.493 326.98 824.493 327.66 824.493 328.339C824.153 333.432 821.775 338.299 818.83 342.6C815.885 347.015 812.147 350.75 808.069 354.258L805.011 356.861L803.425 358.333L803.085 358.672L802.745 359.125L802.066 360.031C800.367 362.295 799.121 365.011 798.554 367.727C797.422 373.274 798.328 378.82 800.14 383.8C800.14 383.8 800.14 383.8 800.14 383.913C799.46 381.31 799.121 378.594 799.007 375.877C799.347 373.274 799.574 370.557 800.253 368.067Z" fill="#EDCFC5"/>
<path d="M953.059 50.9148L959.175 50.8015V55.103C960.987 55.103 962.687 54.3103 963.933 53.0653C964.499 52.4993 965.405 52.4993 965.971 53.0653C966.538 53.6312 966.538 54.537 965.971 55.103C964.159 56.914 961.78 57.9322 959.175 58.0454L959.288 64.6106C962.12 66.7611 965.632 68.1194 969.483 68.0062C978.544 67.893 985.68 60.5357 985.68 51.4808V48.6511C985.907 48.8775 986.133 49.1039 986.473 49.217C987.946 49.783 989.985 48.085 990.778 45.5948C991.57 43.1047 991.117 40.6147 989.532 40.0488C988.625 39.7092 987.606 40.1619 986.813 41.0674C986.36 41.5201 985.567 41.2938 985.454 40.6147C984.208 32.6916 977.412 26.6931 969.143 26.8063C960.081 26.9194 952.945 34.2762 952.945 43.3311L953.059 50.9148Z" fill="#1E2B3C"/>
<path d="M966.081 53.0651C965.515 52.4991 964.609 52.4991 964.043 53.0651C962.797 54.3101 961.097 55.1028 959.285 55.1028V57.9324C961.89 57.9324 964.269 56.8005 966.081 54.9895C966.648 54.5367 966.648 53.631 966.081 53.0651Z" fill="#E5AA20"/>
<path d="M330.866 352.334C332.566 372.028 333.585 391.836 335.964 411.418C337.21 421.152 338.682 430.886 341.287 440.394C341.287 440.62 341.401 440.733 341.401 440.96C353.067 446.166 366.66 448.769 381.498 444.581C424.881 432.244 451.839 333.998 451.839 333.998L451.612 333.885L453.311 328.791C453.311 328.791 468.943 311.587 488.765 307.172C497.713 305.135 506.662 300.495 503.603 294.949C501.451 290.987 480.949 294.835 478.004 293.364C475.172 291.893 475.852 289.402 475.852 289.402L480.383 282.385C480.383 282.385 494.428 266.312 487.632 262.804C480.836 259.295 465.771 275.593 465.771 275.593L464.412 274.348L473.02 258.389C473.02 258.389 478.457 250.24 469.849 248.995C463.506 248.089 447.648 271.745 440.059 271.405C432.47 271.066 437 255.22 434.622 249.9C432.13 244.58 428.845 242.543 426.353 244.24C420.237 248.542 423.521 261.898 419.33 274.009C416.838 281.14 416.046 307.625 416.046 307.625L402.453 329.923L364.847 379.386L323.391 308.87C324.976 313.511 326.222 318.265 327.129 323.132C329.054 332.526 329.96 342.373 330.866 352.334Z" fill="#1E2B3C"/>
<path d="M291.221 283.627C293.147 283.854 295.073 284.193 296.885 284.646C299.15 285.212 301.416 286.118 303.568 287.136C307.759 289.287 311.383 292.456 314.215 296.304C317.047 300.152 319.199 304.454 320.785 309.094C322.371 313.622 323.503 318.376 324.41 323.243C326.222 332.864 327.128 342.711 328.034 352.558C329.733 372.253 330.753 391.947 333.245 411.642C334.491 421.489 335.963 431.336 338.568 440.957C340.041 445.711 341.966 450.464 344.458 454.766C345.704 456.916 347.29 458.954 349.102 460.765C349.216 460.878 349.329 460.991 349.442 460.991C351.255 462.575 353.407 463.821 355.785 464.16C353.407 463.481 351.368 462.01 349.782 460.199C348.196 458.388 346.95 456.237 345.931 454.087C343.892 449.899 342.646 445.371 341.627 440.844C341.627 440.617 341.513 440.504 341.513 440.278C338.908 430.883 337.436 421.036 336.19 411.302C333.811 391.721 332.678 372.026 331.092 352.219C330.186 342.371 329.28 332.524 327.468 322.677C326.562 317.923 325.429 313.056 323.73 308.415C323.73 308.302 323.617 308.189 323.617 308.076C321.918 303.322 319.765 298.681 316.707 294.606C313.649 290.531 309.684 287.023 305.04 284.646C300.396 282.269 295.412 281.024 290.315 280.571C286.351 280.345 282.5 280.571 278.648 281.137C282.726 281.59 287.03 282.382 291.221 283.627Z" fill="#EDCFC5"/>
<path d="M557.97 684.989C556.951 680.914 555.365 677.066 552.646 673.67C550.041 670.275 546.303 667.784 542.226 666.426C538.035 665.068 534.07 664.728 530.106 663.596L527.161 662.918L524.216 662.125C522.29 661.672 520.364 660.88 518.439 660.314C514.701 658.843 510.963 657.371 507.452 655.334C504.054 653.296 500.769 650.92 498.05 648.09C495.332 645.26 493.066 641.978 491.594 638.356L491.028 636.997C490.914 636.545 490.801 636.092 490.574 635.639C490.235 634.734 490.008 633.715 489.895 632.696C489.442 630.659 488.989 628.735 488.649 626.698C488.309 624.66 487.856 622.736 487.516 620.699L486.497 614.7C485.364 606.664 484.571 598.514 484.118 590.365C483.665 582.215 483.665 574.066 483.665 565.803C483.665 557.653 483.892 549.391 483.665 541.128C483.438 532.866 482.759 524.603 480.947 516.453C480.607 514.416 479.927 512.379 479.361 510.341C478.681 508.417 478.115 506.38 477.322 504.456C475.849 500.494 473.924 496.759 471.885 493.137L470.186 490.42C469.619 489.515 469.053 488.723 468.374 487.817C467.241 486.12 465.882 484.422 464.636 482.837C463.39 481.139 461.917 479.668 460.558 478.083C459.085 476.499 457.386 475.141 455.574 473.896C453.762 472.65 451.836 471.745 449.911 470.839C447.985 470.047 445.946 469.255 443.907 468.689C439.829 467.444 435.752 466.764 431.674 466.199C423.405 465.18 415.137 465.067 406.868 465.407C398.599 465.746 390.33 466.538 382.175 467.557C374.02 468.802 365.977 470.387 357.935 472.198C350.233 473.896 342.644 475.819 335.168 477.97V478.083C350.913 474.801 366.657 472.085 382.628 470.5C390.784 469.481 398.826 468.689 406.981 468.349C415.137 468.009 423.292 468.123 431.334 469.141C435.299 469.707 439.376 470.387 443.228 471.519C445.153 472.084 447.079 472.763 448.891 473.556C450.703 474.348 452.516 475.253 454.102 476.385C455.687 477.517 457.273 478.649 458.519 480.121C459.878 481.705 461.238 483.064 462.483 484.648C463.729 486.233 464.975 487.817 466.108 489.515C466.674 490.307 467.241 491.1 467.807 492.005L469.393 494.609C471.432 498.117 473.244 501.739 474.603 505.475C475.396 507.286 475.963 509.323 476.529 511.134C476.982 513.058 477.662 514.982 478.001 517.019C479.814 524.942 480.38 533.092 480.607 541.242C480.833 549.391 480.72 557.54 480.607 565.803C480.607 574.066 480.607 582.215 481.06 590.478C481.513 598.741 482.192 606.89 483.438 615.153L484.458 621.264C484.798 623.302 485.251 625.339 485.591 627.376C485.93 629.414 486.497 631.452 486.95 633.376C487.176 634.394 487.403 635.413 487.743 636.431C487.856 636.997 487.969 637.451 488.196 638.016L488.762 639.488C490.348 643.449 492.84 647.071 495.785 650.127C498.73 653.183 502.241 655.674 505.866 657.824C513.115 662.012 521.157 664.728 529.313 666.539C533.277 667.445 537.695 667.671 541.319 668.69C545.057 669.708 548.569 671.859 551.174 674.802C553.779 677.745 555.705 681.48 556.837 685.328C558.083 689.177 558.65 693.252 558.65 697.44C559.216 693.252 558.876 689.064 557.97 684.989Z" fill="#EDCFC5"/>
<path d="M256.557 245.937C257.011 245.711 257.35 245.258 257.577 244.918L258.483 249.106C261.202 262.576 274.341 271.178 287.707 268.462C293.37 267.33 298.241 264.273 301.752 260.085L299.6 249.559C298.694 249.785 297.788 249.786 296.882 249.786C294.163 249.786 291.445 248.993 289.179 247.409C288.5 246.956 288.386 246.05 288.726 245.484C289.179 244.805 290.085 244.692 290.652 245.032C293.144 246.616 296.089 247.182 298.92 246.729L297.448 239.599L306.623 237.788L304.244 226.356C301.526 212.887 288.386 204.284 275.02 207.001C262.787 209.491 254.519 220.583 255.198 232.694C255.312 233.713 254.179 234.392 253.273 233.826C251.687 232.808 250.101 232.468 248.855 233.147C246.703 234.392 246.703 238.241 248.742 241.749C250.781 245.258 254.519 247.182 256.557 245.937Z" fill="#1E2B3C"/>
<path d="M290.771 245.146C290.091 244.693 289.185 244.919 288.845 245.598C288.392 246.277 288.619 247.183 289.298 247.523C291.677 249.107 294.282 249.899 297.001 249.899C297.907 249.899 298.813 249.786 299.719 249.673L299.153 246.957C296.208 247.41 293.263 246.844 290.771 245.146Z" fill="#E5AA20"/>
<path d="M154.276 590.367C154.276 590.367 168.322 599.874 179.649 601.459C190.976 603.043 201.623 608.476 201.623 608.476C201.623 608.476 214.649 616.06 203.775 634.623C199.131 642.659 207.626 650.922 216.688 640.282C229.035 625.794 223.937 613.796 223.937 613.796C228.808 613.117 224.39 631.453 227.562 633.717C233.339 637.678 243.307 628.284 244.326 613.796C245.232 601.911 239.682 593.31 239.682 593.31C241.721 591.272 250.216 613.57 254.747 612.777C259.617 611.872 263.129 606.326 261.543 595.686C260.637 591.724 258.598 588.216 256.333 585.047C253.954 581.877 251.349 578.821 248.517 576.105C245.685 573.388 242.627 570.785 239.342 568.748L238.096 568.069L236.85 567.389L234.132 566.031C232.319 565.126 230.507 564.221 228.695 563.315C221.445 559.919 214.083 556.75 206.494 554.373C198.905 551.883 191.089 550.185 183.273 549.393L182.027 549.279L181.914 548.035L174.325 440.733L174.212 439.941L174.891 439.488L216.122 411.418L221.219 407.909C222.918 406.777 224.617 405.532 226.429 404.4L236.963 397.722C243.986 393.308 251.009 388.894 258.145 384.48C251.462 389.46 244.779 394.327 238.096 399.307L228.015 406.664C226.316 407.909 224.617 409.041 222.918 410.173L218.953 412.889C220.313 420.699 221.332 428.396 222.465 435.98C225.183 457.485 228.581 485.895 233.339 510.57C237.53 532.302 242.853 550.864 249.763 558.9C272.304 585.046 306.625 588.442 336.528 584.707C369.716 580.633 397.467 567.843 397.467 567.843L431.335 723.135L558.877 697.328C558.877 693.253 558.197 689.178 557.065 685.217C555.932 681.369 554.006 677.634 551.401 674.691C548.796 671.748 545.284 669.598 541.547 668.579C537.809 667.673 533.504 667.333 529.54 666.428C521.498 664.617 513.456 662.014 506.093 657.713C502.468 655.562 499.07 653.072 496.012 650.016C493.067 646.96 490.575 643.338 488.989 639.376L488.423 637.905C488.196 637.452 488.083 636.887 487.97 636.321C487.63 635.302 487.404 634.283 487.177 633.264C486.724 631.227 486.271 629.19 485.818 627.266C485.478 625.228 485.025 623.19 484.685 621.153L483.666 615.041C482.42 606.892 481.74 598.629 481.287 590.367C480.834 582.104 480.834 573.841 480.834 565.692C480.834 557.429 481.06 549.28 480.834 541.13C480.607 532.981 479.928 524.832 478.229 516.908C477.889 514.871 477.209 512.947 476.756 511.022C476.077 509.098 475.51 507.174 474.831 505.363C473.471 501.628 471.546 498.006 469.62 494.497L468.034 491.894C467.468 490.989 466.902 490.196 466.335 489.404C465.203 487.706 463.957 486.122 462.711 484.537C461.465 482.952 460.105 481.481 458.746 480.009C457.387 478.538 455.914 477.406 454.329 476.274C452.743 475.142 450.931 474.237 449.118 473.444C447.306 472.652 445.38 471.973 443.455 471.407C439.604 470.275 435.639 469.596 431.561 469.03C423.519 468.011 415.364 467.899 407.208 468.238C399.053 468.578 390.897 469.37 382.855 470.389C366.997 471.973 351.14 474.689 335.395 477.972V477.859C342.871 475.708 350.573 473.784 358.162 472.086C366.205 470.275 374.247 468.804 382.402 467.446C390.558 466.314 398.826 465.635 407.095 465.295C415.364 464.956 423.632 465.068 431.901 466.087C435.979 466.653 440.17 467.332 444.134 468.577C446.173 469.143 448.099 469.822 450.138 470.728C452.063 471.52 453.989 472.539 455.801 473.784C457.613 474.916 459.313 476.387 460.785 477.972C462.144 479.556 463.617 481.028 464.863 482.726C466.109 484.31 467.468 486.008 468.601 487.706C469.167 488.611 469.847 489.404 470.413 490.31L472.112 493.026C474.264 496.648 476.077 500.383 477.549 504.345C478.342 506.269 478.908 508.306 479.588 510.23C480.154 512.267 480.721 514.305 481.174 516.342C482.986 524.492 483.552 532.754 483.892 541.017C484.119 549.28 484.005 557.542 483.892 565.692C483.892 573.841 483.892 582.104 484.345 590.253C484.685 598.403 485.478 606.552 486.724 614.588L487.743 620.587C488.083 622.625 488.536 624.549 488.876 626.586C489.216 628.624 489.782 630.548 490.122 632.585C490.349 633.604 490.575 634.623 490.802 635.528C490.915 635.981 491.028 636.434 491.255 636.887L491.821 638.244C493.294 641.866 495.559 645.149 498.277 647.979C500.996 650.808 504.281 653.185 507.679 655.222C511.077 657.26 514.815 658.844 518.666 660.203C520.592 660.882 522.517 661.561 524.443 662.014L527.388 662.806L530.333 663.485C534.297 664.617 538.262 664.957 542.453 666.315C546.53 667.673 550.268 670.163 552.874 673.559C555.479 676.841 557.178 680.803 558.197 684.878C559.103 688.952 559.557 693.027 559.217 697.215L600.107 688.952C600.107 688.952 599.654 665.522 577.34 662.014C544.945 656.92 527.954 637.112 525.462 623.417C511.87 545.092 514.249 493.139 468.94 465.182C421.141 435.753 384.894 470.728 355.557 464.389C353.405 463.937 351.366 462.691 349.554 460.994C349.441 460.881 349.327 460.768 349.214 460.768C347.402 459.07 345.929 456.919 344.57 454.768C341.965 450.354 340.152 445.714 338.68 440.96C336.075 431.226 334.602 421.492 333.356 411.645C330.864 391.95 329.845 372.142 328.146 352.561C327.24 342.714 326.333 332.867 324.521 323.246C323.615 318.492 322.482 313.738 320.897 309.097C319.311 304.57 317.159 300.155 314.327 296.307C311.495 292.458 307.87 289.29 303.679 287.139C301.527 286.12 299.375 285.215 296.997 284.649C295.184 284.083 293.259 283.857 291.333 283.63C287.142 282.385 282.838 281.593 278.534 281.14C263.922 279.668 248.97 282.725 235.378 290.308C230.394 293.138 225.636 295.968 221.106 298.91C200.377 312.04 139.778 353.579 116.784 402.702C106.929 423.868 112.027 461.899 120.182 496.082C129.017 533.546 141.477 566.145 141.477 566.145C148.386 585.5 154.276 590.367 154.276 590.367Z" fill="#1E2B3C"/>
<path d="M217.937 413.792L219.07 413L223.034 410.283C224.733 409.152 226.546 408.02 228.131 406.775L238.212 399.417C244.895 394.55 251.578 389.57 258.261 384.59C251.125 389.004 244.102 393.419 237.08 397.833L226.546 404.511C224.733 405.643 223.034 406.775 221.335 408.02L216.238 411.529L175.008 439.599L174.328 440.051L174.441 440.844L182.03 548.145L182.144 549.39L183.39 549.503C191.205 550.296 199.021 551.993 206.61 554.483C214.199 556.86 221.562 560.029 228.811 563.425C230.623 564.331 232.436 565.123 234.248 566.142L236.966 567.5L238.212 568.179L239.458 568.858C242.743 570.896 245.802 573.499 248.633 576.216C251.465 578.932 254.184 581.988 256.449 585.157C258.714 588.44 260.866 591.835 261.659 595.797C261.093 591.835 259.394 587.987 257.242 584.591C255.09 581.196 252.598 577.913 249.879 574.857C247.161 571.801 244.216 568.971 240.818 566.481L239.572 565.576L238.212 564.784C237.306 564.331 236.4 563.878 235.494 563.425L230.057 560.822C222.808 557.313 215.332 554.144 207.516 551.767C200.154 549.39 192.565 547.693 184.862 546.9L181.351 497.324L177.386 441.523L217.937 413.792Z" fill="#EDCFC5"/>
</svg>
