<svg width="1195" height="844" viewBox="0 0 1195 844" fill="none" xmlns="http://www.w3.org/2000/svg">
<path d="M562.815 669.473C597.011 684.855 631.843 705.958 631.462 715.238C631.207 721.34 619.003 723.373 604.893 717.398C587.985 710.152 579.468 712.441 572.985 719.051C564.976 727.06 595.486 759.985 596.248 760.748H599.808L614.046 760.62C614.046 760.62 614.046 760.621 613.919 760.748H659.047V610.869C676.845 624.09 696.167 635.277 716.761 644.049C746.127 656.634 777.908 664.388 811.341 666.422C817.062 666.804 822.782 666.931 828.63 666.931C843.122 666.931 857.36 665.787 871.216 663.753C905.412 658.541 937.702 647.354 966.813 631.082C1004.19 610.234 1036.35 581.249 1060.88 546.545C1058.72 544.511 1056.94 542.604 1056.05 541.333C1051.99 535.612 1048.81 526.841 1052.75 522.391C1055.29 519.467 1062.41 523.663 1068.51 528.494C1058.34 517.688 1042.45 499.509 1048.81 490.483C1053.26 484.127 1068 495.06 1080.46 505.484C1070.55 495.441 1056.31 477.771 1061.52 472.177C1069.02 463.914 1084.15 476.881 1092.03 482.475C1092.54 482.856 1092.92 483.11 1093.43 483.491C1091.9 481.203 1090.89 477.771 1091.9 472.686C1094.32 460.355 1102.2 440.143 1102.2 440.143C1102.2 440.143 1104.36 440.778 1106.78 442.176C1110.84 423.108 1113.01 403.277 1113.01 382.937C1113.01 255.687 1029.36 148.013 914.057 111.783C899.819 107.333 885.073 103.901 869.945 101.74C856.597 99.8331 842.868 98.8164 828.884 98.8164C729.474 98.8164 642.013 149.92 591.163 227.211C594.087 228.101 596.375 229.372 596.375 229.372C596.375 229.372 586.841 248.949 579.468 258.992C576.417 263.187 573.239 264.839 570.569 265.221C571.078 265.348 571.713 265.348 572.222 265.475C581.629 267.382 601.46 269.67 600.571 280.73C599.935 288.357 577.434 289.883 563.196 289.502C579.341 291.536 597.265 294.968 595.74 302.595C593.452 313.4 569.298 314.163 554.425 314.036C562.052 315.307 569.934 317.723 569.552 321.536C568.917 327.511 560.272 331.071 553.408 331.961C552.391 332.088 550.865 332.215 549.086 332.088C547.814 339.08 546.797 346.326 546.035 353.572C545.399 353.572 544.891 353.444 544.382 353.19C537.39 350.012 538.916 340.224 541.458 331.452C534.975 330.435 528.11 328.401 525.059 324.842C513.745 325.096 501.541 324.333 501.541 324.333H423.996C463.023 422.6 520.229 599.936 524.805 616.971C526.585 624.344 536.755 657.778 562.815 669.473Z" fill="#E5AA20"/>
<path d="M259.375 351.032C182.211 377.473 264.46 443.323 276.028 543.751C284.164 614.431 261.155 713.079 256.07 760.623H495.825C488.324 741.554 485.909 710.537 476.756 691.214C426.797 586.083 336.793 324.463 259.375 351.032Z" fill="#E5AA20"/>
<path d="M410.903 260.643C414.336 266.236 419.42 270.177 425.141 272.211L436.455 265.219C435.819 265.092 435.311 264.965 434.675 264.711C434.421 264.202 434.294 263.821 434.04 263.312C433.658 262.295 433.404 261.278 433.277 260.261C433.15 259.244 433.023 258.227 433.023 257.21C433.023 256.701 433.15 256.193 433.15 255.685C433.658 255.176 434.294 254.795 434.929 254.541C435.438 255.177 435.819 255.685 436.328 256.193C436.201 256.575 436.201 257.083 436.201 257.464C436.201 258.354 436.201 259.117 436.328 260.007C436.455 260.77 436.709 261.659 436.964 262.422C437.091 262.804 437.218 263.185 437.472 263.566L436.836 265.092L444.845 260.134L450.439 269.033L461.625 262.168C474.719 254.032 478.787 236.871 470.651 223.904C463.278 211.954 448.278 207.505 435.819 212.971C434.802 213.48 433.658 212.463 433.913 211.446C434.421 209.412 434.04 207.505 432.896 206.488C430.734 204.708 426.667 206.234 423.87 209.793C421.073 213.353 420.438 217.548 422.471 219.327C422.853 219.709 423.488 219.836 423.997 219.963L419.929 222.506C406.835 230.387 402.895 247.549 410.903 260.643Z" fill="#1E2B3C"/>
<path d="M437.089 262.171C436.835 261.408 436.581 260.645 436.454 259.755C436.326 258.992 436.199 258.103 436.327 257.213C436.327 256.831 436.326 256.323 436.454 255.941C436.072 255.433 435.691 254.925 435.055 254.289C434.293 254.543 433.784 255.052 433.276 255.433C433.276 255.942 433.148 256.45 433.148 256.959C433.148 257.976 433.148 258.993 433.403 260.01C433.53 261.027 433.911 262.043 434.165 263.06C434.292 263.569 434.547 264.078 434.801 264.459C435.309 264.713 435.945 264.84 436.581 264.967L437.089 264.586L437.725 263.06C437.471 262.933 437.216 262.552 437.089 262.171Z" fill="#EDCFC5"/>
<path d="M81.5232 389.419C82.1588 396.411 83.8115 404.038 86.354 412.174C86.2268 411.793 86.0998 411.284 86.0998 410.903C82.0318 392.089 79.9978 372.766 80.6334 353.57C79.8707 366.028 80.5062 378.232 81.5232 389.419Z" fill="#1E2B3C"/>
<path d="M97.1617 437.473C100.34 446.499 104.026 455.27 108.094 464.042C116.23 481.331 125.891 497.984 136.824 513.62C142.29 521.502 148.138 529.129 154.113 536.502C160.215 543.875 166.571 551.122 173.436 557.605L173.944 558.113V558.749L176.741 700.746L178.139 771.808C178.393 777.783 178.266 783.63 178.266 789.605L178.139 807.402C178.139 819.225 178.012 831.047 177.885 842.87C177.249 831.047 176.741 819.225 176.232 807.402L175.47 789.605C175.215 783.63 174.834 777.783 174.834 771.808L173.436 700.746L170.639 559.384C163.774 552.774 157.545 545.655 151.571 538.409C145.469 530.909 139.621 523.281 134.027 515.4C122.968 499.509 113.179 482.856 105.043 465.313C100.975 456.542 97.2888 447.643 93.9836 438.49C92.331 433.914 90.8055 429.337 89.4072 424.761C88.5173 422.091 87.7545 419.295 87.1189 416.498L112.035 568.664V843.633H251.744C251.744 843.633 251.744 843.378 251.617 842.87H317.594C317.594 842.87 310.856 809.055 292.805 807.656C264.965 805.495 255.685 793.292 254.922 778.672C254.668 774.096 255.049 767.994 255.812 760.621C261.024 713.076 283.906 614.429 275.77 543.749C264.202 443.194 182.08 377.471 259.117 351.029C336.535 324.461 426.538 586.081 476.371 691.212C485.524 710.534 488.066 741.552 495.439 760.621C499.253 770.536 504.465 777.147 512.728 777.274C528.873 777.528 525.949 774.986 525.949 774.986C525.949 774.986 539.17 786.427 556.204 784.012C565.357 782.741 569.679 781.215 571.459 779.435C572.985 777.91 575.4 777.783 577.307 778.927C582.01 781.596 590.146 782.867 602.986 774.859C607.181 772.189 612.774 762.019 613.41 760.748C613.41 760.621 613.537 760.621 613.537 760.621L599.299 760.748H595.867C595.104 759.985 564.594 727.06 572.603 719.052C579.087 712.568 587.731 710.28 604.511 717.399C618.622 723.373 630.826 721.34 631.08 715.238C631.461 705.958 596.63 684.855 562.433 669.474C536.373 657.778 526.203 624.345 524.169 616.845C519.593 599.81 462.514 422.473 423.36 324.206C412.428 296.62 402.894 275.263 396.283 265.475C366.409 220.6 296.364 184.879 213.734 204.583C106.823 230.262 82.4153 296.747 80 353.445C80.6356 372.64 83.3052 391.709 88.263 410.142C91.314 419.295 93.8565 428.575 97.1617 437.473Z" fill="#1E2B3C"/>
<path d="M85.9737 410.78C86.1008 411.162 86.228 411.67 86.228 412.052C86.6094 413.577 86.8636 414.975 87.2449 416.501C87.8805 419.298 88.6433 422.094 89.5332 424.764C90.9316 429.34 92.457 434.044 94.1096 438.493C97.2877 447.646 101.102 456.545 105.169 465.316C113.305 482.859 123.221 499.512 134.153 515.403C139.62 523.284 145.468 531.039 151.697 538.412C157.671 545.658 163.9 552.65 170.765 559.388L173.562 700.749L174.96 771.811C174.96 777.786 175.341 783.633 175.596 789.608L176.359 807.405C176.867 819.228 177.375 831.05 178.011 842.873C178.138 831.05 178.138 819.228 178.265 807.405L178.393 789.608C178.393 783.633 178.52 777.786 178.265 771.811L176.867 700.749L174.07 558.752V558.116L173.562 557.608C166.824 550.997 160.341 543.751 154.239 536.505C148.137 529.132 142.417 521.505 136.95 513.623C126.018 497.86 116.356 481.334 108.22 464.045C104.152 455.401 100.466 446.502 97.2877 437.476C93.9825 428.451 91.5672 419.297 88.8976 410.017C83.9398 391.585 81.1431 372.516 80.6346 353.32V353.448C79.8718 372.643 81.9057 391.966 85.9737 410.78Z" fill="#EDCFC5"/>
<path d="M524.929 324.585C527.98 328.144 534.844 330.306 541.328 331.196C538.785 339.967 537.132 349.756 544.251 352.934C544.76 353.188 545.395 353.315 545.904 353.315C546.667 346.069 547.684 338.95 548.955 331.831C550.735 331.831 552.133 331.831 553.277 331.704C560.269 330.814 568.786 327.128 569.422 321.28C569.803 317.467 561.922 315.178 554.294 313.779C569.04 313.907 593.321 313.144 595.609 302.338C597.135 294.711 579.21 291.406 563.066 289.245C577.176 289.626 599.804 288.101 600.44 280.473C601.33 269.287 581.499 267.126 572.091 265.219C571.583 265.092 570.947 264.964 570.439 264.964C573.108 264.583 576.287 262.803 579.338 258.735C586.711 248.565 596.245 229.116 596.245 229.116C596.245 229.116 594.084 227.844 591.033 226.954C587.219 225.81 582.007 225.302 578.702 228.734C567.007 240.938 563.955 258.1 563.828 261.405C563.828 262.676 565.1 264.201 567.134 264.837C557.599 264.71 545.014 268.142 541.073 274.498C536.37 281.999 546.667 286.829 552.642 288.482C552.642 288.482 552.769 288.482 552.896 288.482C541.455 288.101 532.302 290.262 530.522 297.381C529.632 300.94 530.776 304.881 533.7 308.186C527.09 307.042 518.445 306.533 509.928 308.695C501.538 310.856 501.665 324.077 501.665 324.204C501.284 324.077 513.488 324.839 524.929 324.585Z" fill="#1E2B3C"/>
<path d="M910.625 779.306C909.862 793.926 900.455 806.002 872.742 808.29C854.691 809.689 847.953 843.504 847.953 843.504H987.662L966.559 630.953C937.448 647.225 905.286 658.412 870.962 663.624C888.251 715.999 911.769 756.806 910.625 779.306Z" fill="#1E2B3C"/>
<path d="M734.18 779.311C733.417 793.93 724.01 806.006 696.297 808.294C678.245 809.693 671.508 843.508 671.508 843.508H811.216V666.171C777.783 664.137 746.002 656.382 716.637 643.797C724.518 706.342 735.324 755.793 734.18 779.311Z" fill="#1E2B3C"/>
<path d="M918.253 104.793L920.414 100.471C920.542 100.979 920.796 101.488 921.177 101.869C923.084 103.776 927.279 102.759 930.584 99.5806C933.889 96.4025 934.906 92.2075 932.999 90.1736C931.855 89.0294 929.949 88.9024 928.042 89.6652C927.025 90.0466 926.008 89.0297 926.389 87.8856C930.711 74.919 924.864 60.4269 912.278 54.1979C898.549 47.3332 881.769 53.0536 875.031 66.783L869.184 78.4786L878.591 83.1818L874.395 91.572L875.921 90.8092C876.303 90.9363 876.684 91.0638 877.065 91.1909C877.828 91.4452 878.718 91.572 879.48 91.572C880.37 91.572 881.133 91.5719 882.023 91.4448C882.404 91.4448 882.786 91.318 883.294 91.1909C883.803 91.5723 884.311 91.9535 884.947 92.3349C884.693 93.0976 884.311 93.7333 883.93 94.2418C883.421 94.3689 882.913 94.4956 882.404 94.4956C881.387 94.6228 880.37 94.6229 879.226 94.6229C878.209 94.4958 877.192 94.3688 876.175 94.1145C875.667 93.9874 875.158 93.8604 874.65 93.6061C874.396 93.0976 874.141 92.5888 874.014 91.9532L869.565 100.979C884.693 103.14 899.439 106.572 913.677 111.022C915.457 109.496 916.982 107.335 918.253 104.793Z" fill="#1E2B3C"/>
<path d="M876.175 94.6217C877.192 94.876 878.209 95.1301 879.226 95.1301C880.243 95.2572 881.26 95.1306 882.404 95.0035C882.912 95.0035 883.421 94.8761 883.929 94.749C884.31 94.1134 884.692 93.6049 884.946 92.8421C884.31 92.3336 883.802 92.0795 883.293 91.6981C882.912 91.8253 882.531 91.8249 882.022 91.952C881.259 92.0791 880.37 92.0793 879.48 92.0793C878.59 92.0793 877.827 91.8253 877.065 91.6981C876.683 91.571 876.302 91.4435 875.921 91.3164L874.395 92.0793L874.141 92.5876C874.268 93.2233 874.522 93.7321 874.776 94.2406C875.158 94.2406 875.666 94.4946 876.175 94.6217Z" fill="#EDCFC5"/>
<path d="M1101.82 439.891C1101.82 439.891 1093.94 460.103 1091.52 472.434C1090.5 477.519 1091.39 480.952 1093.05 483.24C1092.54 482.858 1092.16 482.477 1091.65 482.222C1083.77 476.629 1068.77 463.663 1061.14 471.926C1055.93 477.647 1070.16 495.189 1080.08 505.232C1067.62 494.808 1052.88 484.003 1048.43 490.232C1042.07 499.257 1057.96 517.436 1068.13 528.241C1061.9 523.538 1054.91 519.343 1052.37 522.14C1048.43 526.589 1051.73 535.36 1055.67 541.081C1056.69 542.479 1058.34 544.259 1060.5 546.293C1067.62 552.904 1079.57 560.785 1084.66 554.556C1088.22 550.234 1083.51 542.733 1078.68 537.521C1085.8 541.081 1093.3 539.174 1096.35 534.343C1100.29 528.114 1095.72 519.979 1087.71 511.97L1087.83 512.096C1093.17 515.402 1103.72 519.597 1106.01 511.08C1107.92 503.834 1101.94 492.265 1095.33 485.401C1097.24 486.545 1099.28 486.545 1100.16 485.528C1102.45 483.24 1113 469.256 1113.89 452.348C1114.15 447.136 1109.83 443.704 1106.27 441.797C1103.98 440.526 1101.82 439.891 1101.82 439.891Z" fill="#1E2B3C"/>
<path d="M974.188 85.0884C979.4 85.9782 990.333 88.1392 994.401 92.5885C1003.81 102.886 1018.55 88.3939 1005.21 79.7495C994.655 72.8849 979.4 80.1305 973.807 83.1815C973.044 83.5629 973.171 84.8341 974.188 85.0884Z" fill="#1E2B3C"/>
<path d="M840.578 9.83093C844.01 9.83093 849.095 13.6445 851.383 15.4242C851.892 15.8056 852.527 15.4242 852.4 14.7886C851.638 11.2292 848.714 2.20353 841.849 0.296677C833.078 -1.99154 832.696 9.70381 840.578 9.83093Z" fill="#1E2B3C"/>
<path d="M940.115 28.6434C942.912 26.3552 949.141 21.9061 953.209 21.9061C962.743 21.9061 962.235 7.7954 951.683 10.465C943.293 12.6261 939.988 23.6855 938.971 27.8805C938.844 28.5161 939.607 29.0248 940.115 28.6434Z" fill="#1E2B3C"/>
</svg>
