<svg width="1195" height="844" viewBox="0 0 1195 844" fill="none" xmlns="http://www.w3.org/2000/svg">
<path d="M338.304 114.105C324.609 114.105 313.219 124.275 311.456 137.428C311.32 138.512 309.964 138.919 309.151 138.241C307.659 136.749 306.032 136.071 304.54 136.614C301.964 137.427 301.151 141.631 302.642 145.834C304.134 150.037 307.388 152.749 309.829 151.8C310.371 151.664 310.778 151.258 311.185 150.851V155.597C311.185 159.801 312.134 163.732 313.897 167.394C304.269 169.292 294.1 169.021 284.066 166.173C278.371 164.546 273.082 161.97 268.201 158.987C258.031 183.801 230.641 197.225 204.471 189.632C185.352 183.937 171.793 168.343 167.725 150.173C161.623 151.665 154.979 151.664 148.335 149.766C128.809 144.071 117.69 123.597 123.385 104.071C129.08 84.5453 149.555 73.4266 169.081 79.1216C178.03 81.8335 185.352 87.5281 189.963 94.9858C202.573 86.5789 218.573 83.5959 234.302 88.2061C236.878 89.0197 239.319 89.969 241.76 91.0537C241.895 90.5113 242.031 89.9687 242.167 89.4263C251.794 56.6123 286.235 37.9003 319.049 47.5275C351.863 57.1548 370.575 91.5962 360.948 124.41C360.812 124.953 360.677 125.359 360.541 125.766C355.524 118.715 347.524 114.105 338.304 114.105Z" fill="#F45F63"/>
<path d="M967.735 242.514L968.142 244.005C968.006 243.869 967.735 243.869 967.599 243.734C967.735 243.327 967.735 242.92 967.735 242.514Z" fill="#1E2B3C"/>
<path d="M1066.72 396.686C1066.72 385.025 1065.5 373.77 1063.33 362.787L1088.96 373.092C1090.72 373.092 1092.48 372.957 1094.38 372.821C1101.57 372.007 1109.02 371.737 1115.67 372.008C1126.11 372.008 1135.87 372.821 1141.43 376.211C1152.41 382.991 1163.67 389.5 1165.57 397.771C1165.97 398.72 1166.38 399.805 1166.65 400.889C1167.6 401.432 1168.69 401.974 1169.77 402.652C1175.74 405.906 1186.72 412.415 1178.99 417.975C1178.45 418.381 1177.91 418.517 1177.36 418.788C1177.23 418.788 1177.23 418.788 1177.09 418.788C1176.14 418.788 1175.06 418.517 1174.11 418.245C1172.08 417.703 1170.18 417.025 1168.28 416.211C1164.35 415.127 1160.41 413.635 1156.48 412.279C1148.62 409.432 1140.62 406.313 1132.08 404.957C1129.91 404.686 1127.74 404.279 1125.57 404.279C1123.4 404.144 1121.36 404.279 1119.33 404.008C1115.26 403.737 1111.19 403.059 1107.26 401.839C1103.33 400.754 1099.53 399.262 1095.74 397.364C1091.8 396.008 1087.74 394.516 1083.67 393.296C1087.19 395.737 1090.58 398.178 1094.24 400.347C1098.04 402.11 1102.11 403.737 1106.31 404.957C1110.52 406.178 1114.72 406.856 1119.06 407.127C1121.23 407.263 1123.4 407.262 1125.43 407.398C1127.19 407.398 1128.96 407.669 1130.72 407.941C1129.09 409.432 1127.47 410.924 1125.97 412.687C1123.8 415.127 1121.77 417.703 1120.14 420.551C1119.33 422.042 1118.65 423.67 1118.24 425.432C1118.24 426.246 1118.52 427.195 1118.79 428.008C1114.45 427.737 1110.52 427.059 1106.85 426.11C1100.48 424.619 1092.35 418.652 1085.29 412.822C1080.28 412.415 1073.63 411.873 1065.9 411.059C1066.58 406.449 1066.72 401.567 1066.72 396.686Z" fill="#1E2B3C"/>
<path d="M808.283 537.433C820.893 545.569 834.724 552.212 849.504 556.687C849.504 556.958 849.639 557.229 849.639 557.365C850.182 559.399 850.995 561.433 852.351 563.331C853.707 565.229 855.605 566.721 857.775 567.535C858.86 567.941 859.944 568.213 861.165 568.213C862.385 568.348 863.47 568.213 864.69 567.942C865.775 567.671 866.86 567.263 867.809 566.721C868.351 566.45 868.758 566.179 869.165 565.772C870.114 566.721 870.928 567.535 872.012 568.348C873.504 569.433 875.131 570.518 877.301 571.06C878.521 571.196 879.335 571.196 880.284 571.06L882.996 570.925C883.945 570.925 884.758 570.654 885.572 570.382C885.843 570.247 886.114 570.246 886.385 570.111C886.385 571.602 886.521 572.958 886.792 574.314C887.199 576.348 887.877 578.247 888.691 580.145C888.284 578.111 888.284 576.077 888.284 574.179C888.284 572.28 888.555 570.247 889.233 568.62L890.047 566.721L887.741 566.992C886.114 567.264 884.352 567.128 882.724 567.399C881.911 567.535 881.097 567.67 880.284 567.67C879.47 567.67 878.521 567.67 878.114 567.67C876.894 567.399 875.538 566.586 874.318 565.636C873.097 564.687 871.877 563.467 870.928 562.247L869.707 560.891L868.351 562.111C867.131 563.196 865.504 564.145 864.012 564.552C863.199 564.823 862.385 564.823 861.572 564.823C860.758 564.823 859.944 564.552 859.131 564.281C855.877 563.196 853.978 560.077 853.029 556.416C852.08 552.891 851.944 548.958 852.08 545.026C852.216 541.094 852.758 537.297 853.436 533.365C854.114 529.568 854.927 525.636 856.283 521.975C857.504 518.314 858.995 514.517 860.487 510.856C861.3 509.093 861.978 507.195 862.792 505.432C863.199 504.483 863.605 503.669 863.877 502.585L864.826 499.737L868.623 488.347C864.283 391.126 869.436 302.988 890.725 229.089C887.47 229.225 884.216 229.496 880.962 229.903C892.623 192.343 913.64 174.173 941.166 183.258C967.336 191.936 971.404 216.479 967.336 240.072L967.607 241.158C967.336 241.836 967.065 242.378 966.793 243.056C961.776 240.886 956.488 238.853 951.2 237.09C952.42 231.666 953.641 226.242 954.861 220.953C951.2 232.072 947.81 243.191 944.42 254.446C943.607 257.293 942.657 260.005 941.844 262.853L939.539 271.259L934.929 288.209L916.623 355.871V356.006V356.142L911.335 491.873V492.009V492.144L913.098 508.144C913.64 513.568 914.725 518.856 915.674 524.144C916.216 526.856 916.759 529.433 917.301 532.009C917.572 533.365 917.979 534.585 918.115 535.941C918.386 537.162 918.386 538.517 918.386 539.873C918.386 541.229 918.25 542.45 918.115 543.806C917.979 545.161 917.844 546.517 917.572 547.738C917.301 549.094 917.03 550.314 916.488 551.535L914.996 555.331V555.195C913.911 557.636 912.962 560.484 911.742 563.331C940.217 561.162 966.658 551.941 989.302 537.297C1031.2 637.773 1094.25 682.926 1097.91 684.689C1102.66 686.994 1133.44 696.621 1159.47 665.977C1175.47 647.129 1195 669.773 1195 669.773L1141.98 797.504C1141.98 797.504 984.556 743.673 909.437 569.162C906.589 575.942 903.199 582.586 898.725 586.247C895.199 589.095 892.352 587.467 890.453 584.078C877.029 602.247 861.707 619.061 845.029 634.248C829.164 648.892 811.944 662.044 793.91 673.841C781.164 682.248 767.875 689.842 754.18 696.757C748.892 699.469 741.841 701.367 737.095 705.028C732.485 708.418 713.502 722.113 729.502 758.995C739.4 781.64 707.807 798.86 707.807 798.86L624.009 675.469C624.416 675.875 735.468 629.909 808.283 537.433Z" fill="#1E2B3C"/>
<path d="M966.65 243.327C966.921 242.785 967.192 242.107 967.464 241.429C967.735 240.887 967.87 240.48 968.142 239.938C968.006 240.751 967.87 241.565 967.87 242.514C967.87 242.921 967.735 243.328 967.735 243.735C967.328 243.599 967.057 243.463 966.65 243.327Z" fill="#EDCFC5"/>
<path d="M1121.77 426.245C1122.04 424.889 1122.59 423.668 1123.26 422.312C1124.62 419.736 1126.52 417.296 1128.55 414.99C1130.59 412.821 1132.75 410.787 1135.06 408.889C1136.42 409.16 1137.77 409.567 1139.13 409.974C1139.13 409.974 1139.13 409.973 1139.13 410.109C1137.91 414.312 1136.55 418.38 1134.79 422.312C1133.43 425.702 1132.21 429.093 1131.67 432.889C1127.87 435.33 1123.13 433.432 1121.36 430.177C1121.09 429.635 1120.82 429.092 1120.82 428.414C1120.96 427.601 1121.36 426.923 1121.77 426.245Z" fill="#1E2B3C"/>
<path d="M1120.28 420.686C1121.91 417.703 1123.95 415.127 1126.12 412.821C1127.61 411.194 1129.23 409.567 1130.86 408.076C1129.1 407.804 1127.34 407.533 1125.57 407.533C1123.54 407.398 1121.23 407.534 1119.2 407.263C1114.86 406.991 1110.66 406.178 1106.45 405.093C1102.25 404.008 1098.32 402.246 1094.39 400.483C1090.72 398.178 1087.34 395.737 1083.81 393.432C1087.88 394.516 1091.95 396.144 1095.88 397.499C1099.67 399.262 1103.47 400.889 1107.4 401.974C1111.34 403.059 1115.4 403.737 1119.47 404.144C1121.51 404.279 1123.54 404.279 1125.71 404.415C1127.88 404.415 1130.05 404.686 1132.22 405.093C1140.76 406.584 1148.76 409.567 1156.62 412.415C1160.56 413.907 1164.49 415.262 1168.42 416.347C1170.32 417.161 1172.22 417.839 1174.25 418.381C1175.2 418.652 1176.29 418.788 1177.23 418.923C1177.37 418.923 1177.37 418.923 1177.51 418.923C1178.46 418.923 1179.4 418.924 1180.22 418.517C1179.4 419.195 1178.32 419.737 1177.23 419.873C1176.15 420.144 1175.07 420.144 1173.98 420.279C1171.81 420.279 1169.64 420.008 1167.47 419.737C1167.47 419.737 1167.47 419.737 1167.34 419.737C1163.4 418.652 1159.61 417.296 1155.81 415.805C1155.81 417.161 1155.68 418.381 1155.54 419.601L1155 422.449L1154.73 423.805C1154.73 424.212 1154.73 424.754 1154.59 425.161C1154.45 426.11 1154.59 426.923 1154.59 427.737C1154.73 428.551 1154.86 429.364 1155.13 430.178C1155.68 431.67 1156.62 433.025 1157.84 433.432C1158.25 433.839 1158.66 434.11 1159.2 434.246C1159.47 434.382 1159.61 434.381 1159.88 434.517C1160.69 434.652 1161.64 434.653 1162.45 434.11C1162.18 435.195 1161.23 436.009 1160.15 436.416C1159.06 436.822 1157.71 436.957 1156.49 436.551C1154.18 435.466 1152.69 433.432 1152.01 431.263C1151.61 430.178 1151.47 429.093 1151.34 428.008C1151.34 427.33 1151.2 426.788 1151.2 426.11C1151.2 425.703 1151.2 425.297 1151.2 424.754C1151.2 424.212 1151.2 423.669 1151.34 423.263L1151.61 421.771L1152.15 418.923C1152.42 417.432 1152.42 415.94 1152.42 414.313C1149.03 413.093 1145.78 411.872 1142.39 410.923C1142.39 410.923 1142.39 410.923 1142.39 411.059C1141.17 415.262 1139.67 419.601 1137.91 423.669C1136.28 427.601 1134.93 431.67 1134.66 435.738C1134.52 437.772 1134.79 439.805 1135.47 441.432C1135.61 442.381 1135.88 443.331 1136.42 444.144C1136.56 444.28 1136.56 444.416 1136.69 444.551C1137.23 445.229 1137.78 445.907 1138.59 446.449C1136.28 446.585 1133.84 444.958 1132.35 442.788C1131.4 440.347 1131.13 437.907 1131.27 435.602C1131.27 434.653 1131.4 433.839 1131.54 432.89C1132.08 429.229 1133.3 425.703 1134.66 422.313C1136.28 418.381 1137.78 414.313 1139 410.11C1139 410.11 1139 410.11 1139 409.975C1137.64 409.568 1136.28 409.296 1134.93 408.889C1132.62 410.788 1130.45 412.822 1128.42 414.991C1126.39 417.296 1124.49 419.737 1123.13 422.313C1122.45 423.533 1121.91 424.89 1121.64 426.246C1121.23 426.924 1120.83 427.601 1120.69 428.415C1120.56 429.093 1120.42 429.771 1120.56 430.585C1119.88 430.042 1119.34 429.229 1118.93 428.28C1118.66 427.466 1118.39 426.517 1118.39 425.703C1118.79 423.805 1119.47 422.178 1120.28 420.686Z" fill="#EDCFC5"/>
<path d="M1135.61 441.431C1134.8 439.804 1134.66 437.77 1134.8 435.736C1135.07 431.668 1136.29 427.6 1138.05 423.668C1139.82 419.6 1141.31 415.261 1142.53 411.058C1142.53 411.058 1142.53 411.057 1142.53 410.922C1145.92 412.007 1149.17 413.091 1152.56 414.312C1152.56 415.803 1152.56 417.295 1152.29 418.922L1151.75 421.769L1151.48 423.261C1151.34 423.804 1151.34 424.346 1151.34 424.753C1151.34 425.16 1151.34 425.566 1151.34 426.109C1148.09 436.143 1145.37 447.261 1139.14 445.499C1138.32 445.227 1137.51 444.957 1136.83 444.414C1136.7 444.279 1136.7 444.143 1136.56 444.007C1136.15 443.329 1135.75 442.38 1135.61 441.431Z" fill="#1E2B3C"/>
<path d="M1155.26 430.041C1154.99 429.363 1154.85 428.414 1154.72 427.601C1154.72 426.787 1154.58 425.837 1154.72 425.024C1154.72 424.617 1154.72 424.21 1154.85 423.668L1155.12 422.312L1155.67 419.465C1155.8 418.245 1155.94 416.888 1155.94 415.668C1159.73 417.024 1163.53 418.38 1167.46 419.6C1167.46 419.6 1167.46 419.6 1167.6 419.6C1166.38 425.973 1163.94 430.99 1162.58 432.889C1161.9 433.838 1160.82 434.245 1159.46 434.245C1158.92 433.974 1158.51 433.838 1158.11 433.431C1156.75 432.889 1155.8 431.533 1155.26 430.041Z" fill="#1E2B3C"/>
<path d="M979.276 154.106V163.191L978.327 161.835C977.92 161.835 977.513 161.699 977.106 161.699C976.293 161.564 975.479 161.292 974.801 161.021C974.123 160.75 973.309 160.343 972.632 159.936C972.36 159.665 971.954 159.529 971.682 159.258C971.004 159.394 970.462 159.53 969.648 159.665C969.513 160.479 969.513 161.156 969.648 161.97C970.055 162.241 970.462 162.648 970.869 162.919C971.682 163.462 972.632 164.004 973.581 164.411C974.53 164.818 975.479 165.089 976.564 165.225C977.106 165.36 977.513 165.36 978.055 165.496C978.462 165.089 979.004 164.682 979.276 164.14V177.157C974.665 180.818 968.835 183.123 962.326 183.123C947.275 183.123 935.207 170.919 935.207 156.004V151.258C934.8 151.665 934.394 152.072 933.851 152.208C931.275 153.021 928.021 150.445 926.665 146.242C925.173 142.038 926.122 137.97 928.563 137.021C930.055 136.478 931.682 137.157 933.173 138.648C933.987 139.462 935.207 138.919 935.478 137.834C937.377 124.682 948.631 114.512 962.326 114.512C977.377 114.512 989.445 126.715 989.445 141.631V154.377H979.276V154.106Z" fill="#1E2B3C"/>
<path d="M978.05 165.224C977.508 165.224 976.965 165.088 976.559 164.952C975.609 164.817 974.525 164.41 973.576 164.139C972.626 163.732 971.677 163.325 970.864 162.647C970.457 162.376 970.05 162.105 969.643 161.698C969.508 161.02 969.508 160.342 969.643 159.393C970.457 159.257 971.135 159.122 971.677 158.986C971.948 159.258 972.355 159.529 972.626 159.664C973.304 160.071 973.982 160.478 974.796 160.749C975.474 161.02 976.287 161.291 977.101 161.427C977.508 161.562 977.915 161.563 978.321 161.563L979.271 162.918V163.596C978.864 164.41 978.457 164.817 978.05 165.224Z" fill="#EDCFC5"/>
<path d="M868.498 488.618C866.328 492.008 864.294 495.533 862.396 498.923L860.904 501.5C860.362 502.314 859.955 503.263 859.548 504.212L857.243 509.771C855.752 513.432 854.26 517.229 852.904 521.026C851.548 524.958 850.735 528.89 849.921 532.822C849.243 536.754 848.701 540.823 848.565 544.89C848.43 548.687 848.565 552.619 849.514 556.551C834.87 551.941 821.039 545.433 808.293 537.297C762.191 507.466 731.682 455.533 731.682 396.549C731.682 310.175 796.903 239.123 880.837 230.038C884.091 229.632 887.345 229.36 890.6 229.225C869.311 303.26 864.159 391.397 868.498 488.618Z" fill="#1E98F5"/>
<path d="M915.268 555.602L917.03 552.077C917.573 550.856 918.115 549.501 918.386 548.28C918.793 546.924 919.064 545.568 919.2 544.348C919.471 542.992 919.742 541.636 919.742 540.28C919.878 538.924 919.878 537.568 919.742 536.077C919.607 534.721 919.335 533.365 919.2 532.009C918.793 529.297 918.522 526.72 918.115 524.008C917.844 521.296 917.573 518.72 917.302 516.008C917.03 513.296 916.759 510.72 916.352 508.008L914.59 492.143L919.878 356.684L938.048 289.158L942.658 272.209L944.963 263.801C945.641 260.954 946.319 258.107 946.997 255.259C948.353 249.293 949.709 243.191 951.065 237.225C956.353 238.987 961.506 240.886 966.658 243.191C966.929 243.327 967.336 243.462 967.607 243.598C967.743 243.733 968.014 243.734 968.15 243.869C1016.29 265.7 1052.35 309.632 1063.2 362.65C1065.51 373.633 1066.59 384.888 1066.59 396.549C1066.59 401.43 1066.32 406.312 1065.91 411.194C1061.3 464.347 1032.02 510.313 989.438 537.704C966.794 552.212 940.353 561.569 911.878 563.738C913.234 560.891 914.318 558.179 915.268 555.602Z" fill="#1E98F5"/>
<path d="M848.543 545.163C848.678 541.095 849.221 537.027 849.899 533.095C850.577 529.163 851.526 525.094 852.882 521.298C854.238 517.501 855.729 513.705 857.221 510.044L859.526 504.484C859.797 503.535 860.34 502.586 860.882 501.772L862.374 499.196C864.272 495.671 866.441 492.281 868.475 488.891L864.679 500.28L863.73 503.128C863.458 504.077 863.052 505.027 862.645 505.976C861.831 507.738 861.018 509.637 860.34 511.4C858.848 515.061 857.357 518.722 856.136 522.519C854.916 526.18 854.102 529.976 853.289 533.908C852.611 537.705 852.068 541.638 851.933 545.57C851.797 549.502 851.933 553.299 852.882 556.96C853.831 560.485 855.729 563.739 858.984 564.824C859.797 565.095 860.611 565.231 861.424 565.366C862.238 565.366 863.052 565.367 863.865 565.095C865.492 564.689 867.119 563.739 868.204 562.654L869.56 561.434L870.78 562.79C871.73 564.01 872.95 565.231 874.17 566.18C875.391 567.129 876.747 567.943 877.967 568.214C878.509 568.349 879.323 568.214 880.137 568.214C880.95 568.214 881.764 568.079 882.577 567.943C884.204 567.672 885.967 567.807 887.594 567.536L889.899 567.265L889.086 569.163C888.408 570.79 888.272 572.824 888.137 574.723C888.137 576.757 888.272 578.655 888.543 580.689C887.73 578.79 887.052 576.892 886.645 574.858C886.374 573.502 886.238 572.011 886.238 570.655C885.967 570.79 885.696 570.79 885.425 570.926C884.611 571.197 883.662 571.332 882.848 571.468L880.137 571.604C879.187 571.604 878.374 571.739 877.153 571.604C874.984 571.197 873.357 570.112 871.865 568.892C870.781 568.078 869.967 567.265 869.018 566.316C868.611 566.587 868.069 566.858 867.662 567.265C866.713 567.807 865.628 568.214 864.543 568.485C863.458 568.756 862.238 568.892 861.018 568.756C859.797 568.62 858.713 568.485 857.628 568.078C855.458 567.264 853.424 565.773 852.204 563.875C850.848 561.977 850.034 559.942 849.492 557.908C849.492 557.637 849.356 557.366 849.356 557.23C848.543 552.891 848.407 548.959 848.543 545.163Z" fill="#EDCFC5"/>
<path d="M945.1 263.937L942.795 272.344L938.185 289.294L920.015 356.82L914.727 492.279L916.489 508.144C916.896 510.856 917.167 513.432 917.438 516.144C917.71 518.856 917.981 521.432 918.252 524.144C918.523 526.856 918.93 529.432 919.337 532.144C919.472 533.5 919.744 534.72 919.879 536.212C920.015 537.568 920.015 538.924 919.879 540.415C919.744 541.771 919.472 543.127 919.337 544.483C919.066 545.839 918.794 547.195 918.523 548.415C918.116 549.771 917.71 550.992 917.167 552.212L915.405 555.738V555.873L916.896 552.077C917.303 550.856 917.71 549.501 917.981 548.28C918.252 546.924 918.388 545.703 918.523 544.348C918.659 542.992 918.794 541.636 918.794 540.415C918.794 539.059 918.659 537.839 918.523 536.483C918.252 535.263 917.981 533.907 917.71 532.551C917.167 529.975 916.625 527.263 916.083 524.686C915.133 519.398 914.049 514.11 913.506 508.686L911.743 492.686V492.551V492.415L917.032 356.684V356.548V356.413L935.337 288.751L939.947 271.801L942.252 263.395C943.066 260.547 944.015 257.835 944.829 254.988C948.354 243.869 951.744 232.615 955.27 221.496C954.049 226.92 952.829 232.344 951.608 237.632C950.252 243.598 948.897 249.699 947.541 255.666C946.32 258.242 945.778 261.09 945.1 263.937Z" fill="#EDCFC5"/>
<path d="M464.812 373.091C466.575 373.091 468.338 372.955 470.236 372.819C477.423 372.006 484.881 371.735 491.525 372.006C501.966 372.006 511.728 372.819 517.288 376.209C528.271 382.989 539.525 389.498 541.424 397.769C541.831 398.718 542.237 399.803 542.508 400.888C543.458 401.43 544.542 401.972 545.627 402.65C551.593 405.904 562.577 412.413 554.848 417.973C554.305 418.379 553.763 418.515 553.221 418.786C553.085 418.786 553.085 418.786 552.949 418.786C552 418.786 550.915 418.515 549.966 418.243C547.932 417.701 546.034 417.023 544.136 416.21C540.203 415.125 536.271 413.633 532.339 412.277C524.474 409.43 516.474 406.311 507.932 404.955C505.762 404.684 503.593 404.277 501.423 404.277C499.254 404.142 497.22 404.277 495.186 404.006C491.118 403.735 487.05 403.057 483.118 401.837C479.186 400.752 475.389 399.26 471.592 397.362C467.66 396.006 463.592 394.514 459.524 393.294C463.05 395.735 466.44 398.176 470.101 400.345C473.897 402.108 477.965 403.735 482.169 404.955C486.372 406.176 490.576 406.854 494.915 407.125C497.084 407.261 499.254 407.26 501.288 407.396C503.05 407.396 504.813 407.668 506.576 407.939C504.949 409.43 503.321 410.922 501.83 412.685C499.66 415.125 497.626 417.701 495.999 420.549C495.186 422.04 494.508 423.668 494.101 425.43C494.101 426.244 494.372 427.193 494.643 428.007C490.304 427.735 486.372 427.058 482.711 426.108C476.338 424.617 468.202 418.65 461.151 412.82C448.541 411.87 425.354 409.701 401.354 404.277L420.473 355.057L464.812 373.091Z" fill="#1E2B3C"/>
<path d="M339 263.395L339.813 260.141L340.762 256.886C340.898 256.344 341.034 255.802 341.305 255.259C341.441 254.717 341.712 254.174 341.847 253.632C342.525 249.971 343.339 246.31 343.881 242.514L352.288 270.581L338.729 265.293L339 263.395Z" fill="#1E2B3C"/>
<path d="M184.015 537.839L224.964 553.704C225.1 554.924 225.371 556.144 225.642 557.5C226.185 559.534 226.998 561.568 228.354 563.466C229.71 565.365 231.609 566.856 233.778 567.67C234.863 568.077 235.948 568.348 237.168 568.348C238.388 568.483 239.473 568.348 240.694 568.076C241.778 567.805 242.863 567.398 243.812 566.856C244.355 566.585 244.761 566.314 245.168 565.907C246.117 566.857 246.931 567.67 248.016 568.484C249.507 569.568 251.134 570.653 253.304 571.195C254.524 571.331 255.338 571.331 256.287 571.195L258.999 571.06C259.948 571.06 260.762 570.789 261.575 570.517C261.846 570.382 262.118 570.382 262.389 570.246C262.389 571.738 262.524 573.094 262.796 574.45C263.202 576.483 263.88 578.382 264.694 580.28C264.287 578.246 264.287 576.212 264.287 574.314C264.287 572.415 264.558 570.381 265.236 568.754L266.05 566.856L263.745 567.128C262.118 567.399 260.355 567.263 258.728 567.534C257.914 567.67 257.101 567.806 256.287 567.806C255.473 567.806 254.524 567.806 254.117 567.806C252.897 567.534 251.541 566.721 250.321 565.772C249.1 564.822 247.88 563.602 246.931 562.382L245.711 561.026L244.355 562.246C243.134 563.331 241.507 564.28 240.016 564.686C239.202 564.958 238.388 564.958 237.575 564.958C236.761 564.958 235.948 564.687 235.134 564.416C231.88 563.331 229.981 560.212 229.032 556.551C228.083 553.025 227.948 549.093 228.083 545.161C228.219 541.229 228.761 537.432 229.439 533.5C230.117 529.703 230.931 525.771 232.287 522.11C233.507 518.449 234.998 514.652 236.49 510.991C237.304 509.229 237.982 507.33 238.795 505.567C239.202 504.618 239.609 503.805 239.88 502.72L240.829 499.872L244.626 488.482C240.422 394.379 245.168 308.819 264.694 236.275L256.016 232.886C267.406 193.427 288.83 173.902 317.034 183.393C343.203 192.071 347.271 216.614 343.203 240.208L343.475 241.292C341.847 245.089 340.22 248.75 338.593 252.411C338.322 252.954 338.186 253.496 338.051 254.039C337.915 254.581 337.644 255.123 337.508 255.665L336.559 259.055L335.746 262.445L335.474 263.801L322.322 258.649C322.593 257.428 322.864 256.343 323.135 255.123C325.712 243.733 328.424 232.343 330.864 220.953C327.203 232.072 323.813 243.191 320.423 254.445C319.61 257.293 318.661 260.005 317.847 262.852L315.542 271.259L310.932 288.208L292.626 355.87V356.006V356.141L287.338 491.872V492.008V492.143L289.101 508.144C289.643 513.567 290.728 518.855 291.677 524.144C292.22 526.856 292.762 529.432 293.304 532.009C293.576 533.365 293.982 534.585 294.118 535.941C294.389 537.161 294.389 538.517 294.389 539.873C294.389 541.229 294.254 542.449 294.118 543.805C293.982 545.161 293.847 546.517 293.576 547.737C293.304 549.093 293.033 550.314 292.491 551.534L290.999 555.331V555.195C288.423 561.297 285.847 569.161 282.457 575.806C280.287 580.009 277.711 583.806 274.728 586.247C271.202 589.094 268.355 587.467 266.457 584.077C253.033 602.247 237.71 619.06 221.032 634.247C205.168 648.891 187.947 662.044 169.913 673.841C157.167 682.247 143.879 689.841 130.184 696.757C124.895 699.469 117.844 701.366 113.098 705.027C108.488 708.417 89.505 722.113 105.505 758.995C115.404 781.639 83.81 798.859 83.81 798.859L0.0121155 675.468C0.283325 675.875 111.2 630.044 184.015 537.839Z" fill="#1E2B3C"/>
<path d="M357.688 517.365C399.044 632.079 470.232 683.198 474.164 685.097C478.91 687.402 509.69 697.029 535.724 666.384C551.724 647.536 571.25 670.181 571.25 670.181L518.232 797.911C518.232 797.911 366.501 745.978 289.89 578.925L327.992 593.706L357.688 517.365Z" fill="#1E2B3C"/>
<path d="M341.286 255.259C341.151 255.802 340.879 256.344 340.744 256.886L339.795 260.141L338.981 263.395L338.574 265.293L335.32 264.073L335.591 262.717L336.405 259.327L337.354 255.937C337.489 255.395 337.761 254.852 337.896 254.31C338.032 253.767 338.167 253.225 338.439 252.683C340.066 249.022 341.693 245.225 343.32 241.564C343.591 241.022 343.727 240.615 343.998 240.072C343.862 240.886 343.727 241.699 343.727 242.648C343.184 246.445 342.506 250.106 341.693 253.768C341.693 254.174 341.422 254.717 341.286 255.259Z" fill="#EDCFC5"/>
<path d="M497.628 426.245C497.899 424.889 498.442 423.668 499.12 422.312C500.476 419.736 502.374 417.296 504.408 414.99C506.442 412.821 508.611 410.787 510.917 408.889C512.272 409.16 513.628 409.567 514.984 409.974C514.984 409.974 514.984 409.973 514.984 410.109C513.764 414.312 512.408 418.38 510.645 422.312C509.289 425.702 508.069 429.093 507.527 432.889C503.73 435.33 498.984 433.432 497.221 430.177C496.95 429.635 496.679 429.092 496.679 428.414C496.95 427.601 497.221 426.923 497.628 426.245Z" fill="#1E2B3C"/>
<path d="M496.281 420.686C497.908 417.703 499.942 415.127 502.111 412.821C503.603 411.194 505.23 409.567 506.857 408.076C505.094 407.804 503.332 407.533 501.569 407.533C499.535 407.398 497.23 407.534 495.196 407.263C490.857 406.991 486.654 406.178 482.45 405.093C478.247 404.008 474.314 402.246 470.382 400.483C466.721 398.178 463.331 395.737 459.806 393.432C463.874 394.516 467.941 396.144 471.874 397.499C475.67 399.262 479.467 400.889 483.399 401.974C487.332 403.059 491.399 403.737 495.467 404.144C497.501 404.279 499.535 404.279 501.705 404.415C503.874 404.415 506.044 404.686 508.213 405.093C516.756 406.584 524.756 409.567 532.62 412.415C536.553 413.907 540.485 415.262 544.417 416.347C546.315 417.161 548.214 417.839 550.248 418.381C551.197 418.652 552.282 418.788 553.231 418.923C553.366 418.923 553.366 418.923 553.502 418.923C554.451 418.923 555.4 418.924 556.214 418.517C555.4 419.195 554.316 419.737 553.231 419.873C552.146 420.144 551.061 420.144 549.976 420.279C547.807 420.279 545.637 420.008 543.468 419.737C543.468 419.737 543.468 419.737 543.332 419.737C539.4 418.652 535.603 417.296 531.807 415.805C531.807 417.161 531.671 418.381 531.536 419.601L530.993 422.449L530.722 423.805C530.722 424.212 530.722 424.754 530.586 425.161C530.451 426.11 530.586 426.923 530.586 427.737C530.722 428.551 530.858 429.364 531.129 430.178C531.671 431.67 532.62 433.025 533.841 433.432C534.247 433.839 534.654 434.11 535.197 434.246C535.468 434.382 535.603 434.381 535.875 434.517C536.688 434.652 537.637 434.653 538.451 434.11C538.18 435.195 537.23 436.009 536.146 436.416C535.061 436.822 533.705 436.957 532.485 436.551C530.18 435.466 528.688 433.432 528.01 431.263C527.603 430.178 527.468 429.093 527.332 428.008C527.332 427.33 527.332 426.788 527.196 426.11C527.196 425.703 527.196 425.297 527.196 424.754C527.196 424.212 527.196 423.669 527.332 423.263L527.603 421.771L528.146 418.923C528.417 417.432 528.417 415.94 528.417 414.313C525.027 413.093 521.773 411.872 518.383 410.923C518.383 410.923 518.383 410.923 518.383 411.059C517.162 415.262 515.671 419.601 513.908 423.669C512.281 427.601 510.925 431.67 510.654 435.738C510.518 437.772 510.789 439.805 511.467 441.432C511.603 442.381 511.874 443.331 512.417 444.144C512.552 444.28 512.552 444.416 512.688 444.551C513.23 445.229 513.773 445.907 514.586 446.449C512.281 446.585 509.705 444.958 508.349 442.788C507.4 440.347 507.128 437.907 507.264 435.602C507.264 434.653 507.4 433.839 507.535 432.89C508.078 429.229 509.298 425.703 510.654 422.313C512.281 418.381 513.773 414.313 514.993 410.11C514.993 410.11 514.993 410.11 514.993 409.975C513.637 409.568 512.281 409.296 510.925 408.889C508.62 410.788 506.45 412.822 504.417 414.991C502.383 417.296 500.484 419.737 499.128 422.313C498.45 423.533 497.908 424.89 497.637 426.246C497.23 426.924 496.823 427.601 496.688 428.415C496.552 429.093 496.416 429.771 496.552 430.585C495.874 430.042 495.332 429.229 494.925 428.28C494.654 427.466 494.382 426.517 494.382 425.703C494.789 423.805 495.467 422.178 496.281 420.686Z" fill="#EDCFC5"/>
<path d="M511.611 441.431C510.798 439.804 510.662 437.77 510.798 435.736C511.069 431.668 512.289 427.6 514.052 423.668C515.815 419.6 517.306 415.261 518.526 411.058C518.526 411.058 518.526 411.057 518.526 410.922C521.916 412.007 525.171 413.091 528.561 414.312C528.561 415.803 528.561 417.295 528.289 418.922L527.747 421.769L527.476 423.261C527.34 423.804 527.34 424.346 527.34 424.753C527.34 425.16 527.34 425.566 527.34 426.109C524.086 436.143 521.374 447.261 515.137 445.499C514.323 445.227 513.51 444.957 512.832 444.414C512.696 444.279 512.696 444.143 512.56 444.007C512.018 443.329 511.747 442.38 511.611 441.431Z" fill="#1E2B3C"/>
<path d="M531.257 430.041C530.985 429.363 530.85 428.414 530.714 427.601C530.714 426.787 530.579 425.837 530.714 425.024C530.714 424.617 530.714 424.21 530.85 423.668L531.121 422.312L531.663 419.465C531.799 418.245 531.935 416.888 531.935 415.668C535.731 417.024 539.528 418.38 543.46 419.6C543.46 419.6 543.46 419.6 543.596 419.6C542.375 425.973 539.935 430.99 538.579 432.889C537.901 433.838 536.816 434.245 535.46 434.245C534.918 433.974 534.511 433.838 534.104 433.431C532.748 432.889 531.799 431.533 531.257 430.041Z" fill="#1E2B3C"/>
<path d="M355.244 154.104V163.189L354.295 161.833C353.888 161.833 353.482 161.698 353.075 161.698C352.261 161.562 351.448 161.291 350.77 161.02C350.092 160.748 349.278 160.341 348.6 159.934C348.329 159.663 347.922 159.528 347.651 159.256C346.973 159.392 346.431 159.528 345.617 159.664C345.482 160.477 345.482 161.155 345.617 161.968C346.024 162.24 346.431 162.647 346.838 162.918C347.651 163.46 348.6 164.003 349.549 164.409C350.499 164.816 351.448 165.088 352.533 165.223C353.075 165.359 353.482 165.358 354.024 165.494C354.431 165.087 354.973 164.68 355.244 164.138V177.155C350.634 180.816 344.804 183.121 338.295 183.121C327.447 183.121 318.227 176.884 313.888 167.664C312.125 164.138 311.176 160.07 311.176 155.867V151.121C310.769 151.528 310.362 151.935 309.82 152.07C307.244 152.884 303.989 150.308 302.634 146.104C301.142 141.901 302.091 137.832 304.532 136.883C306.023 136.341 307.651 137.019 309.142 138.511C309.956 139.324 311.176 138.782 311.447 137.697C313.346 124.544 324.6 114.375 338.295 114.375C347.38 114.375 355.516 118.85 360.397 125.901C363.516 130.375 365.414 135.798 365.414 141.629V154.376H355.244V154.104Z" fill="#1E2B3C"/>
<path d="M353.908 165.224C353.365 165.224 352.823 165.088 352.416 164.952C351.467 164.817 350.382 164.41 349.433 164.139C348.484 163.867 347.535 163.325 346.721 162.647C346.314 162.376 345.907 162.105 345.501 161.698C345.365 161.02 345.365 160.342 345.501 159.393C346.314 159.257 346.992 159.122 347.535 158.986C347.806 159.258 348.213 159.529 348.484 159.664C349.162 160.071 349.84 160.478 350.653 160.749C351.331 161.02 352.145 161.291 352.958 161.427C353.365 161.562 353.772 161.563 354.179 161.563L355.128 162.918V163.596C354.857 164.41 354.45 164.817 353.908 165.224Z" fill="#EDCFC5"/>
<path d="M291.269 555.603L293.032 552.077C293.574 550.857 294.117 549.501 294.388 548.281C294.795 546.925 295.066 545.568 295.201 544.348C295.473 542.992 295.744 541.636 295.744 540.28C295.879 538.924 295.879 537.569 295.744 536.077C295.608 534.721 295.337 533.365 295.201 532.009C294.795 529.297 294.523 526.721 294.117 524.009C293.845 521.297 293.574 518.721 293.303 516.009C293.032 513.297 292.761 510.721 292.354 508.009L290.591 492.144L295.879 356.684L314.049 289.158L318.659 272.209L320.965 263.802C321.371 262.175 321.778 260.412 322.185 258.785L335.338 263.938L338.592 265.158L352.151 270.446L440.424 304.752L420.763 355.058L401.644 404.278L357.711 517.229L327.88 593.705L289.778 578.925L282.591 576.078C286.117 569.569 288.693 561.705 291.269 555.603Z" fill="#F45F63"/>
<path d="M244.343 488.619C242.174 492.009 240.14 495.534 238.241 498.924L236.75 501.501C236.207 502.314 235.801 503.263 235.394 504.213L233.089 509.771C231.597 513.432 230.106 517.23 228.75 521.026C227.394 524.958 226.58 528.89 225.767 532.823C225.089 536.755 224.546 540.823 224.411 544.891C224.275 547.739 224.411 550.586 224.818 553.569L183.868 537.704L38.9167 481.296L151.461 192.344L255.869 233.022L264.547 236.412C245.021 308.956 240.275 394.516 244.343 488.619Z" fill="#F45F63"/>
<path d="M224.539 545.163C224.675 541.095 225.217 537.027 225.895 533.095C226.573 529.163 227.522 525.094 228.878 521.298C230.234 517.501 231.726 513.705 233.217 510.044L235.522 504.484C235.793 503.535 236.336 502.586 236.878 501.772L238.37 499.196C240.268 495.671 242.438 492.281 244.471 488.891L240.675 500.28L239.726 503.128C239.454 504.077 239.048 505.027 238.641 505.976C237.827 507.738 237.014 509.637 236.336 511.4C234.844 515.061 233.353 518.722 232.132 522.519C230.912 526.18 230.098 529.976 229.285 533.908C228.607 537.705 228.064 541.638 227.929 545.57C227.793 549.502 227.929 553.299 228.878 556.96C229.827 560.485 231.726 563.739 234.98 564.824C235.793 565.095 236.607 565.231 237.421 565.366C238.234 565.366 239.048 565.367 239.861 565.095C241.488 564.689 243.116 563.739 244.2 562.654L245.556 561.434L246.777 562.79C247.726 564.01 248.946 565.231 250.167 566.18C251.387 567.129 252.743 567.943 253.963 568.214C254.506 568.349 255.319 568.214 256.133 568.214C256.946 568.214 257.76 568.079 258.573 567.943C260.201 567.672 261.963 567.807 263.59 567.536L265.896 567.265L265.082 569.163C264.404 570.79 264.268 572.824 264.133 574.723C264.133 576.757 264.268 578.655 264.54 580.689C263.726 578.79 263.048 576.892 262.641 574.858C262.37 573.502 262.234 572.011 262.234 570.655C261.963 570.79 261.692 570.79 261.421 570.926C260.607 571.197 259.658 571.332 258.845 571.468L256.133 571.604C255.183 571.604 254.37 571.739 253.15 571.604C250.98 571.197 249.353 570.112 247.861 568.892C246.777 568.078 245.963 567.265 245.014 566.316C244.607 566.587 244.065 566.858 243.658 567.265C242.709 567.807 241.624 568.214 240.539 568.485C239.454 568.756 238.234 568.892 237.014 568.756C235.793 568.62 234.709 568.485 233.624 568.078C231.454 567.264 229.42 565.773 228.2 563.875C226.844 561.977 226.031 559.942 225.488 557.908C225.217 556.688 224.946 555.468 224.81 554.112C224.403 550.858 224.403 548.01 224.539 545.163Z" fill="#EDCFC5"/>
<path d="M318.651 272.344L314.041 289.294L295.871 356.82L290.583 492.279L292.346 508.144C292.753 510.856 293.024 513.432 293.295 516.144C293.566 518.856 293.837 521.432 294.108 524.144C294.38 526.856 294.786 529.432 295.193 532.144C295.329 533.5 295.6 534.72 295.736 536.212C295.871 537.568 295.871 538.924 295.736 540.415C295.6 541.771 295.329 543.127 295.193 544.483C294.922 545.839 294.651 547.195 294.38 548.415C293.973 549.771 293.566 550.992 293.024 552.212L291.261 555.738V555.873L292.752 552.077C293.159 550.856 293.566 549.501 293.837 548.28C294.109 546.924 294.244 545.703 294.38 544.348C294.515 542.992 294.651 541.636 294.651 540.415C294.651 539.059 294.515 537.839 294.38 536.483C294.108 535.263 293.837 533.907 293.566 532.551C293.024 529.975 292.481 527.263 291.939 524.686C290.99 519.398 289.905 514.11 289.363 508.686L287.6 492.686V492.551V492.415L292.888 356.684V356.548V356.413L311.193 288.751L315.804 271.801L318.109 263.395C318.922 260.547 319.872 257.835 320.685 254.988C324.211 243.869 327.601 232.615 331.126 221.496C328.685 232.886 325.973 244.276 323.397 255.666C323.126 256.886 322.855 257.971 322.583 259.191C322.177 260.818 321.77 262.581 321.363 264.209L318.651 272.344Z" fill="#EDCFC5"/>
</svg>
