<svg width="1195" height="844" viewBox="0 0 1195 844" fill="none" xmlns="http://www.w3.org/2000/svg">
<path d="M338.314 114.105C324.619 114.105 313.229 124.275 311.466 137.428C311.33 138.512 309.974 138.919 309.161 138.241C307.669 136.749 306.042 136.071 304.551 136.614C301.974 137.427 301.161 141.631 302.652 145.834C304.144 150.037 307.398 152.749 309.839 151.8C310.381 151.664 310.788 151.258 311.195 150.851V155.597C311.195 159.801 312.144 163.732 313.907 167.394C304.279 169.292 294.11 169.021 284.076 166.173C278.381 164.546 273.093 161.97 268.211 158.987C258.042 183.801 230.652 197.225 204.482 189.632C185.363 183.937 171.804 168.343 167.736 150.173C161.634 151.665 154.99 151.664 148.346 149.766C128.82 144.071 117.702 123.597 123.397 104.071C129.092 84.5453 149.566 73.4266 169.092 79.1216C178.041 81.8335 185.363 87.5281 189.973 94.9858C202.584 86.5789 218.584 83.5959 234.313 88.2061C236.889 89.0197 239.33 89.969 241.771 91.0537C241.906 90.5113 242.042 89.9687 242.177 89.4263C251.804 56.6123 286.245 37.9003 319.059 47.5275C351.873 57.1548 370.585 91.5962 360.958 124.41C360.822 124.953 360.687 125.359 360.551 125.766C355.534 118.715 347.534 114.105 338.314 114.105Z" fill="#E5AA20"/>
<path d="M967.744 242.514L968.15 244.005C968.015 243.869 967.744 243.869 967.608 243.734C967.744 243.327 967.744 242.92 967.744 242.514Z" fill="#1E2B3C"/>
<path d="M1066.73 396.686C1066.73 385.025 1065.51 373.77 1063.34 362.787L1088.97 373.092C1090.73 373.092 1092.49 372.957 1094.39 372.821C1101.58 372.007 1109.03 371.737 1115.68 372.008C1126.12 372.008 1135.88 372.821 1141.44 376.211C1152.42 382.991 1163.68 389.5 1165.58 397.771C1165.98 398.72 1166.39 399.805 1166.66 400.889C1167.61 401.432 1168.69 401.974 1169.78 402.652C1175.75 405.906 1186.73 412.415 1179 417.975C1178.46 418.381 1177.92 418.517 1177.37 418.788C1177.24 418.788 1177.24 418.788 1177.1 418.788C1176.15 418.788 1175.07 418.517 1174.12 418.245C1172.08 417.703 1170.19 417.025 1168.29 416.211C1164.36 415.127 1160.42 413.635 1156.49 412.279C1148.63 409.432 1140.63 406.313 1132.08 404.957C1129.91 404.686 1127.75 404.279 1125.58 404.279C1123.41 404.144 1121.37 404.279 1119.34 404.008C1115.27 403.737 1111.2 403.059 1107.27 401.839C1103.34 400.754 1099.54 399.262 1095.75 397.364C1091.81 396.008 1087.75 394.516 1083.68 393.296C1087.2 395.737 1090.59 398.178 1094.25 400.347C1098.05 402.11 1102.12 403.737 1106.32 404.957C1110.52 406.178 1114.73 406.856 1119.07 407.127C1121.24 407.263 1123.41 407.262 1125.44 407.398C1127.2 407.398 1128.97 407.669 1130.73 407.941C1129.1 409.432 1127.47 410.924 1125.98 412.687C1123.81 415.127 1121.78 417.703 1120.15 420.551C1119.34 422.042 1118.66 423.67 1118.25 425.432C1118.25 426.246 1118.53 427.195 1118.8 428.008C1114.46 427.737 1110.52 427.059 1106.86 426.11C1100.49 424.619 1092.36 418.652 1085.3 412.822C1080.29 412.415 1073.64 411.873 1065.91 411.059C1066.59 406.449 1066.73 401.567 1066.73 396.686Z" fill="#1E2B3C"/>
<path d="M808.285 537.433C820.896 545.569 834.726 552.212 849.506 556.687C849.506 556.958 849.642 557.229 849.642 557.365C850.184 559.399 850.998 561.433 852.353 563.331C853.709 565.229 855.608 566.721 857.777 567.535C858.862 567.941 859.947 568.213 861.167 568.213C862.387 568.348 863.472 568.213 864.693 567.942C865.777 567.671 866.862 567.263 867.811 566.721C868.354 566.45 868.76 566.179 869.167 565.772C870.116 566.721 870.93 567.535 872.015 568.348C873.506 569.433 875.133 570.518 877.303 571.06C878.523 571.196 879.337 571.196 880.286 571.06L882.998 570.925C883.947 570.925 884.76 570.654 885.574 570.382C885.845 570.247 886.116 570.246 886.388 570.111C886.388 571.602 886.523 572.958 886.794 574.314C887.201 576.348 887.879 578.247 888.693 580.145C888.286 578.111 888.286 576.077 888.286 574.179C888.286 572.28 888.557 570.247 889.235 568.62L890.049 566.721L887.744 566.992C886.116 567.264 884.354 567.128 882.727 567.399C881.913 567.535 881.099 567.67 880.286 567.67C879.472 567.67 878.523 567.67 878.116 567.67C876.896 567.399 875.54 566.586 874.32 565.636C873.099 564.687 871.879 563.467 870.93 562.247L869.71 560.891L868.354 562.111C867.133 563.196 865.506 564.145 864.015 564.552C863.201 564.823 862.387 564.823 861.574 564.823C860.76 564.823 859.947 564.552 859.133 564.281C855.879 563.196 853.981 560.077 853.031 556.416C852.082 552.891 851.947 548.958 852.082 545.026C852.218 541.094 852.76 537.297 853.438 533.365C854.116 529.568 854.93 525.636 856.286 521.975C857.506 518.314 858.998 514.517 860.489 510.856C861.303 509.093 861.981 507.195 862.794 505.432C863.201 504.483 863.608 503.669 863.879 502.585L864.828 499.737L868.625 488.347C864.286 391.126 869.438 302.988 890.727 229.089C887.472 229.225 884.218 229.496 880.964 229.903C892.625 192.343 913.642 174.173 941.168 183.258C967.337 191.936 971.405 216.479 967.337 240.072L967.609 241.158C967.337 241.836 967.066 242.378 966.795 243.056C961.778 240.886 956.49 238.853 951.202 237.09C952.422 231.666 953.642 226.242 954.863 220.953C951.202 232.072 947.812 243.191 944.422 254.446C943.608 257.293 942.659 260.005 941.846 262.853L939.541 271.259L934.93 288.209L916.625 355.871V356.006V356.142L911.337 491.873V492.009V492.144L913.1 508.144C913.642 513.568 914.727 518.856 915.676 524.144C916.218 526.856 916.761 529.433 917.303 532.009C917.574 533.365 917.981 534.585 918.117 535.941C918.388 537.162 918.388 538.517 918.388 539.873C918.388 541.229 918.252 542.45 918.117 543.806C917.981 545.161 917.845 546.517 917.574 547.738C917.303 549.094 917.032 550.314 916.49 551.535L914.998 555.331V555.195C913.913 557.636 912.964 560.484 911.744 563.331C940.219 561.162 966.659 551.941 989.304 537.297C1031.2 637.773 1094.25 682.926 1097.91 684.689C1102.66 686.994 1133.44 696.621 1159.47 665.977C1175.47 647.129 1195 669.773 1195 669.773L1141.98 797.504C1141.98 797.504 984.558 743.673 909.439 569.162C906.591 575.942 903.201 582.586 898.727 586.247C895.201 589.095 892.354 587.467 890.455 584.078C877.032 602.247 861.709 619.061 845.031 634.248C829.167 648.892 811.946 662.044 793.912 673.841C781.167 682.248 767.878 689.842 754.183 696.757C748.895 699.469 741.844 701.367 737.098 705.028C732.488 708.418 713.505 722.113 729.505 758.995C739.404 781.64 707.81 798.86 707.81 798.86L624.013 675.469C624.42 675.875 735.471 629.909 808.285 537.433Z" fill="#1E2B3C"/>
<path d="M966.659 243.327C966.93 242.785 967.201 242.107 967.472 241.429C967.744 240.887 967.879 240.48 968.15 239.938C968.015 240.751 967.879 241.565 967.879 242.514C967.879 242.921 967.744 243.328 967.744 243.735C967.337 243.599 967.066 243.463 966.659 243.327Z" fill="#EDCFC5"/>
<path d="M1121.78 426.245C1122.05 424.889 1122.59 423.668 1123.27 422.312C1124.63 419.736 1126.52 417.296 1128.56 414.99C1130.59 412.821 1132.76 410.787 1135.07 408.889C1136.42 409.16 1137.78 409.567 1139.13 409.974C1139.13 409.974 1139.13 409.973 1139.13 410.109C1137.91 414.312 1136.56 418.38 1134.8 422.312C1133.44 425.702 1132.22 429.093 1131.68 432.889C1127.88 435.33 1123.13 433.432 1121.37 430.177C1121.1 429.635 1120.83 429.092 1120.83 428.414C1120.97 427.601 1121.37 426.923 1121.78 426.245Z" fill="#1E2B3C"/>
<path d="M1120.29 420.686C1121.91 417.703 1123.95 415.127 1126.12 412.821C1127.61 411.194 1129.24 409.567 1130.86 408.076C1129.1 407.804 1127.34 407.533 1125.57 407.533C1123.54 407.398 1121.24 407.534 1119.2 407.263C1114.86 406.991 1110.66 406.178 1106.46 405.093C1102.25 404.008 1098.32 402.246 1094.39 400.483C1090.73 398.178 1087.34 395.737 1083.81 393.432C1087.88 394.516 1091.95 396.144 1095.88 397.499C1099.68 399.262 1103.47 400.889 1107.4 401.974C1111.34 403.059 1115.4 403.737 1119.47 404.144C1121.51 404.279 1123.54 404.279 1125.71 404.415C1127.88 404.415 1130.05 404.686 1132.22 405.093C1140.76 406.584 1148.76 409.567 1156.63 412.415C1160.56 413.907 1164.49 415.262 1168.42 416.347C1170.32 417.161 1172.22 417.839 1174.25 418.381C1175.2 418.652 1176.29 418.788 1177.24 418.923C1177.37 418.923 1177.37 418.923 1177.51 418.923C1178.46 418.923 1179.41 418.924 1180.22 418.517C1179.41 419.195 1178.32 419.737 1177.24 419.873C1176.15 420.144 1175.07 420.144 1173.98 420.279C1171.81 420.279 1169.64 420.008 1167.47 419.737C1167.47 419.737 1167.47 419.737 1167.34 419.737C1163.41 418.652 1159.61 417.296 1155.81 415.805C1155.81 417.161 1155.68 418.381 1155.54 419.601L1155 422.449L1154.73 423.805C1154.73 424.212 1154.73 424.754 1154.59 425.161C1154.46 426.11 1154.59 426.923 1154.59 427.737C1154.73 428.551 1154.86 429.364 1155.13 430.178C1155.68 431.67 1156.63 433.025 1157.85 433.432C1158.25 433.839 1158.66 434.11 1159.2 434.246C1159.47 434.382 1159.61 434.381 1159.88 434.517C1160.69 434.652 1161.64 434.653 1162.46 434.11C1162.18 435.195 1161.24 436.009 1160.15 436.416C1159.07 436.822 1157.71 436.957 1156.49 436.551C1154.18 435.466 1152.69 433.432 1152.02 431.263C1151.61 430.178 1151.47 429.093 1151.34 428.008C1151.34 427.33 1151.2 426.788 1151.2 426.11C1151.2 425.703 1151.2 425.297 1151.2 424.754C1151.2 424.212 1151.2 423.669 1151.34 423.263L1151.61 421.771L1152.15 418.923C1152.42 417.432 1152.42 415.94 1152.42 414.313C1149.03 413.093 1145.78 411.872 1142.39 410.923C1142.39 410.923 1142.39 410.923 1142.39 411.059C1141.17 415.262 1139.68 419.601 1137.91 423.669C1136.29 427.601 1134.93 431.67 1134.66 435.738C1134.52 437.772 1134.79 439.805 1135.47 441.432C1135.61 442.381 1135.88 443.331 1136.42 444.144C1136.56 444.28 1136.56 444.416 1136.69 444.551C1137.24 445.229 1137.78 445.907 1138.59 446.449C1136.29 446.585 1133.85 444.958 1132.35 442.788C1131.4 440.347 1131.13 437.907 1131.27 435.602C1131.27 434.653 1131.4 433.839 1131.54 432.89C1132.08 429.229 1133.3 425.703 1134.66 422.313C1136.29 418.381 1137.78 414.313 1139 410.11C1139 410.11 1139 410.11 1139 409.975C1137.64 409.568 1136.29 409.296 1134.93 408.889C1132.63 410.788 1130.46 412.822 1128.42 414.991C1126.39 417.296 1124.49 419.737 1123.13 422.313C1122.46 423.533 1121.91 424.89 1121.64 426.246C1121.24 426.924 1120.83 427.601 1120.69 428.415C1120.56 429.093 1120.42 429.771 1120.56 430.585C1119.88 430.042 1119.34 429.229 1118.93 428.28C1118.66 427.466 1118.39 426.517 1118.39 425.703C1118.79 423.805 1119.47 422.178 1120.29 420.686Z" fill="#EDCFC5"/>
<path d="M1135.61 441.431C1134.8 439.804 1134.66 437.77 1134.8 435.736C1135.07 431.668 1136.29 427.6 1138.05 423.668C1139.82 419.6 1141.31 415.261 1142.53 411.058C1142.53 411.058 1142.53 411.057 1142.53 410.922C1145.92 412.007 1149.17 413.091 1152.56 414.312C1152.56 415.803 1152.56 417.295 1152.29 418.922L1151.75 421.769L1151.48 423.261C1151.34 423.804 1151.34 424.346 1151.34 424.753C1151.34 425.16 1151.34 425.566 1151.34 426.109C1148.09 436.143 1145.38 447.261 1139.14 445.499C1138.33 445.227 1137.51 444.957 1136.83 444.414C1136.7 444.279 1136.7 444.143 1136.56 444.007C1136.16 443.329 1135.75 442.38 1135.61 441.431Z" fill="#1E2B3C"/>
<path d="M1155.28 430.041C1155.01 429.363 1154.87 428.414 1154.74 427.601C1154.74 426.787 1154.6 425.837 1154.74 425.024C1154.74 424.617 1154.74 424.21 1154.87 423.668L1155.15 422.312L1155.69 419.465C1155.82 418.245 1155.96 416.888 1155.96 415.668C1159.76 417.024 1163.55 418.38 1167.48 419.6C1167.48 419.6 1167.48 419.6 1167.62 419.6C1166.4 425.973 1163.96 430.99 1162.6 432.889C1161.93 433.838 1160.84 434.245 1159.48 434.245C1158.94 433.974 1158.54 433.838 1158.13 433.431C1156.77 432.889 1155.82 431.533 1155.28 430.041Z" fill="#1E2B3C"/>
<path d="M979.275 154.106V163.191L978.326 161.835C977.919 161.835 977.512 161.699 977.105 161.699C976.292 161.564 975.478 161.292 974.8 161.021C974.122 160.75 973.309 160.343 972.631 159.936C972.359 159.665 971.953 159.529 971.681 159.258C971.004 159.394 970.461 159.53 969.648 159.665C969.512 160.479 969.512 161.156 969.648 161.97C970.054 162.241 970.461 162.648 970.868 162.919C971.682 163.462 972.631 164.004 973.58 164.411C974.529 164.818 975.478 165.089 976.563 165.225C977.105 165.36 977.512 165.36 978.054 165.496C978.461 165.089 979.004 164.682 979.275 164.14V177.157C974.665 180.818 968.834 183.123 962.325 183.123C947.275 183.123 935.207 170.919 935.207 156.004V151.258C934.8 151.665 934.393 152.072 933.851 152.208C931.274 153.021 928.02 150.445 926.664 146.242C925.173 142.038 926.122 137.97 928.563 137.021C930.054 136.478 931.681 137.157 933.173 138.648C933.986 139.462 935.207 138.919 935.478 137.834C937.376 124.682 948.63 114.512 962.325 114.512C977.376 114.512 989.444 126.715 989.444 141.631V154.377H979.275V154.106Z" fill="#1E2B3C"/>
<path d="M978.043 165.224C977.501 165.224 976.959 165.088 976.552 164.952C975.603 164.817 974.518 164.41 973.569 164.139C972.62 163.732 971.67 163.325 970.857 162.647C970.45 162.376 970.043 162.105 969.636 161.698C969.501 161.02 969.501 160.342 969.636 159.393C970.45 159.257 971.128 159.122 971.67 158.986C971.942 159.258 972.348 159.529 972.62 159.664C973.298 160.071 973.976 160.478 974.789 160.749C975.467 161.02 976.281 161.291 977.094 161.427C977.501 161.562 977.908 161.563 978.315 161.563L979.264 162.918V163.596C978.857 164.41 978.45 164.817 978.043 165.224Z" fill="#EDCFC5"/>
<path d="M868.487 488.618C866.318 492.008 864.284 495.533 862.385 498.923L860.894 501.5C860.351 502.314 859.945 503.263 859.538 504.212L857.233 509.771C855.741 513.432 854.25 517.229 852.894 521.026C851.538 524.958 850.724 528.89 849.911 532.822C849.233 536.754 848.69 540.823 848.555 544.89C848.419 548.687 848.555 552.619 849.504 556.551C834.86 551.941 821.029 545.433 808.283 537.297C762.181 507.466 731.672 455.533 731.672 396.549C731.672 310.175 796.893 239.123 880.826 230.038C884.08 229.632 887.335 229.36 890.589 229.225C869.301 303.26 864.148 391.397 868.487 488.618Z" fill="#F45F63"/>
<path d="M915.278 555.602L917.041 552.077C917.584 550.856 918.126 549.501 918.397 548.28C918.804 546.924 919.075 545.568 919.211 544.348C919.482 542.992 919.753 541.636 919.753 540.28C919.889 538.924 919.889 537.568 919.753 536.077C919.617 534.721 919.346 533.365 919.211 532.009C918.804 529.297 918.533 526.72 918.126 524.008C917.855 521.296 917.584 518.72 917.312 516.008C917.041 513.296 916.77 510.72 916.363 508.008L914.6 492.143L919.889 356.684L938.058 289.158L942.668 272.209L944.974 263.801C945.652 260.954 946.33 258.107 947.007 255.259C948.363 249.293 949.719 243.191 951.075 237.225C956.363 238.987 961.516 240.886 966.669 243.191C966.94 243.327 967.347 243.462 967.618 243.598C967.753 243.733 968.025 243.734 968.16 243.869C1016.3 265.7 1052.36 309.632 1063.21 362.65C1065.52 373.633 1066.6 384.888 1066.6 396.549C1066.6 401.43 1066.33 406.312 1065.92 411.194C1061.31 464.347 1032.03 510.313 989.448 537.704C966.804 552.212 940.363 561.569 911.889 563.738C913.245 560.891 914.329 558.179 915.278 555.602Z" fill="#F45F63"/>
<path d="M848.554 545.163C848.69 541.095 849.232 537.027 849.91 533.095C850.588 529.163 851.537 525.094 852.893 521.298C854.249 517.501 855.74 513.705 857.232 510.044L859.537 504.484C859.808 503.535 860.351 502.586 860.893 501.772L862.385 499.196C864.283 495.671 866.452 492.281 868.486 488.891L864.69 500.28L863.74 503.128C863.469 504.077 863.062 505.027 862.656 505.976C861.842 507.738 861.029 509.637 860.351 511.4C858.859 515.061 857.368 518.722 856.147 522.519C854.927 526.18 854.113 529.976 853.3 533.908C852.622 537.705 852.079 541.638 851.944 545.57C851.808 549.502 851.944 553.299 852.893 556.96C853.842 560.485 855.74 563.739 858.995 564.824C859.808 565.095 860.622 565.231 861.435 565.366C862.249 565.366 863.062 565.367 863.876 565.095C865.503 564.689 867.13 563.739 868.215 562.654L869.571 561.434L870.791 562.79C871.741 564.01 872.961 565.231 874.181 566.18C875.402 567.129 876.758 567.943 877.978 568.214C878.52 568.349 879.334 568.214 880.147 568.214C880.961 568.214 881.775 568.079 882.588 567.943C884.215 567.672 885.978 567.807 887.605 567.536L889.91 567.265L889.097 569.163C888.419 570.79 888.283 572.824 888.147 574.723C888.147 576.757 888.283 578.655 888.554 580.689C887.741 578.79 887.063 576.892 886.656 574.858C886.385 573.502 886.249 572.011 886.249 570.655C885.978 570.79 885.707 570.79 885.436 570.926C884.622 571.197 883.673 571.332 882.859 571.468L880.147 571.604C879.198 571.604 878.385 571.739 877.164 571.604C874.995 571.197 873.368 570.112 871.876 568.892C870.791 568.078 869.978 567.265 869.029 566.316C868.622 566.587 868.08 566.858 867.673 567.265C866.724 567.807 865.639 568.214 864.554 568.485C863.469 568.756 862.249 568.892 861.029 568.756C859.808 568.62 858.724 568.485 857.639 568.078C855.469 567.264 853.435 565.773 852.215 563.875C850.859 561.977 850.045 559.942 849.503 557.908C849.503 557.637 849.368 557.366 849.368 557.23C848.554 552.891 848.418 548.959 848.554 545.163Z" fill="#EDCFC5"/>
<path d="M945.106 263.937L942.801 272.344L938.191 289.294L920.021 356.82L914.733 492.279L916.495 508.144C916.902 510.856 917.173 513.432 917.445 516.144C917.716 518.856 917.987 521.432 918.258 524.144C918.529 526.856 918.936 529.432 919.343 532.144C919.479 533.5 919.75 534.72 919.885 536.212C920.021 537.568 920.021 538.924 919.885 540.415C919.75 541.771 919.479 543.127 919.343 544.483C919.072 545.839 918.801 547.195 918.529 548.415C918.123 549.771 917.716 550.992 917.173 552.212L915.411 555.738V555.873L916.902 552.077C917.309 550.856 917.716 549.501 917.987 548.28C918.258 546.924 918.394 545.703 918.529 544.348C918.665 542.992 918.801 541.636 918.801 540.415C918.801 539.059 918.665 537.839 918.529 536.483C918.258 535.263 917.987 533.907 917.716 532.551C917.173 529.975 916.631 527.263 916.089 524.686C915.139 519.398 914.055 514.11 913.512 508.686L911.75 492.686V492.551V492.415L917.038 356.684V356.548V356.413L935.343 288.751L939.953 271.801L942.258 263.395C943.072 260.547 944.021 257.835 944.835 254.988C948.36 243.869 951.75 232.615 955.275 221.496C954.055 226.92 952.835 232.344 951.614 237.632C950.258 243.598 948.902 249.699 947.547 255.666C946.326 258.242 945.784 261.09 945.106 263.937Z" fill="#EDCFC5"/>
<path d="M464.832 373.091C466.594 373.091 468.357 372.955 470.255 372.819C477.442 372.006 484.9 371.735 491.544 372.006C501.984 372.006 511.747 372.819 517.307 376.209C528.29 382.989 539.544 389.498 541.442 397.769C541.849 398.718 542.256 399.803 542.527 400.888C543.476 401.43 544.561 401.972 545.646 402.65C551.612 405.904 562.595 412.413 554.866 417.973C554.324 418.379 553.781 418.515 553.239 418.786C553.104 418.786 553.103 418.786 552.968 418.786C552.019 418.786 550.934 418.515 549.985 418.243C547.951 417.701 546.053 417.023 544.154 416.21C540.222 415.125 536.29 413.633 532.358 412.277C524.493 409.43 516.493 406.311 507.951 404.955C505.781 404.684 503.612 404.277 501.442 404.277C499.273 404.142 497.239 404.277 495.205 404.006C491.137 403.735 487.069 403.057 483.137 401.837C479.205 400.752 475.408 399.26 471.611 397.362C467.679 396.006 463.611 394.514 459.543 393.294C463.069 395.735 466.459 398.176 470.12 400.345C473.917 402.108 477.984 403.735 482.188 404.955C486.391 406.176 490.595 406.854 494.934 407.125C497.103 407.261 499.273 407.26 501.307 407.396C503.069 407.396 504.832 407.668 506.595 407.939C504.968 409.43 503.34 410.922 501.849 412.685C499.679 415.125 497.645 417.701 496.018 420.549C495.205 422.04 494.527 423.668 494.12 425.43C494.12 426.244 494.391 427.193 494.662 428.007C490.323 427.735 486.391 427.058 482.73 426.108C476.357 424.617 468.222 418.65 461.171 412.82C448.56 411.87 425.374 409.701 401.374 404.277L420.492 355.057L464.832 373.091Z" fill="#1E2B3C"/>
<path d="M338.999 263.395L339.812 260.141L340.762 256.886C340.897 256.344 341.033 255.802 341.304 255.259C341.44 254.717 341.711 254.174 341.846 253.632C342.524 249.971 343.338 246.31 343.88 242.514L352.287 270.581L338.728 265.293L338.999 263.395Z" fill="#1E2B3C"/>
<path d="M184.001 537.839L224.951 553.704C225.086 554.924 225.357 556.144 225.629 557.5C226.171 559.534 226.985 561.568 228.34 563.466C229.696 565.365 231.595 566.856 233.764 567.67C234.849 568.077 235.934 568.348 237.154 568.348C238.374 568.483 239.459 568.348 240.68 568.076C241.764 567.805 242.849 567.398 243.798 566.856C244.341 566.585 244.747 566.314 245.154 565.907C246.103 566.857 246.917 567.67 248.002 568.484C249.493 569.568 251.12 570.653 253.29 571.195C254.51 571.331 255.324 571.331 256.273 571.195L258.985 571.06C259.934 571.06 260.747 570.789 261.561 570.517C261.832 570.382 262.103 570.382 262.375 570.246C262.375 571.738 262.51 573.094 262.781 574.45C263.188 576.483 263.866 578.382 264.68 580.28C264.273 578.246 264.273 576.212 264.273 574.314C264.273 572.415 264.544 570.381 265.222 568.754L266.036 566.856L263.731 567.128C262.103 567.399 260.341 567.263 258.714 567.534C257.9 567.67 257.086 567.806 256.273 567.806C255.459 567.806 254.51 567.806 254.103 567.806C252.883 567.534 251.527 566.721 250.307 565.772C249.086 564.822 247.866 563.602 246.917 562.382L245.697 561.026L244.341 562.246C243.12 563.331 241.493 564.28 240.002 564.686C239.188 564.958 238.374 564.958 237.561 564.958C236.747 564.958 235.934 564.687 235.12 564.416C231.866 563.331 229.968 560.212 229.018 556.551C228.069 553.025 227.934 549.093 228.069 545.161C228.205 541.229 228.747 537.432 229.425 533.5C230.103 529.703 230.917 525.771 232.273 522.11C233.493 518.449 234.985 514.652 236.476 510.991C237.29 509.229 237.968 507.33 238.781 505.567C239.188 504.618 239.595 503.805 239.866 502.72L240.815 499.872L244.612 488.482C240.408 394.379 245.154 308.819 264.68 236.275L256.002 232.886C267.392 193.427 288.816 173.902 317.019 183.393C343.189 192.071 347.257 216.614 343.189 240.208L343.46 241.292C341.833 245.089 340.206 248.75 338.579 252.411C338.307 252.954 338.172 253.496 338.036 254.039C337.901 254.581 337.629 255.123 337.494 255.665L336.545 259.055L335.731 262.445L335.46 263.801L322.307 258.649C322.579 257.428 322.85 256.343 323.121 255.123C325.697 243.733 328.409 232.343 330.85 220.953C327.189 232.072 323.799 243.191 320.409 254.445C319.595 257.293 318.646 260.005 317.833 262.852L315.528 271.259L310.917 288.208L292.612 355.87V356.006V356.141L287.324 491.872V492.008V492.143L289.087 508.144C289.629 513.567 290.714 518.855 291.663 524.144C292.205 526.856 292.748 529.432 293.29 532.009C293.561 533.365 293.968 534.585 294.104 535.941C294.375 537.161 294.375 538.517 294.375 539.873C294.375 541.229 294.239 542.449 294.104 543.805C293.968 545.161 293.833 546.517 293.561 547.737C293.29 549.093 293.019 550.314 292.477 551.534L290.985 555.331V555.195C288.409 561.297 285.832 569.161 282.443 575.806C280.273 580.009 277.697 583.806 274.714 586.247C271.188 589.094 268.341 587.467 266.442 584.077C253.019 602.247 237.697 619.06 221.018 634.247C205.154 648.891 187.933 662.044 169.899 673.841C157.154 682.247 143.865 689.841 130.17 696.757C124.882 699.469 117.831 701.366 113.085 705.027C108.475 708.417 89.4921 722.113 105.492 758.995C115.391 781.639 83.7971 798.859 83.7971 798.859L-0.000183105 675.468C0.270996 675.875 111.187 630.044 184.001 537.839Z" fill="#1E2B3C"/>
<path d="M357.707 517.365C399.063 632.079 470.25 683.198 474.182 685.097C478.928 687.402 509.708 697.029 535.742 666.384C551.742 647.536 571.268 670.181 571.268 670.181L518.25 797.911C518.25 797.911 366.52 745.978 289.91 578.925L328.012 593.706L357.707 517.365Z" fill="#1E2B3C"/>
<path d="M341.304 255.259C341.168 255.802 340.897 256.344 340.761 256.886L339.812 260.141L338.999 263.395L338.592 265.293L335.338 264.073L335.609 262.717L336.422 259.327L337.371 255.937C337.507 255.395 337.778 254.852 337.914 254.31C338.049 253.767 338.185 253.225 338.456 252.683C340.083 249.022 341.711 245.225 343.338 241.564C343.609 241.022 343.744 240.615 344.016 240.072C343.88 240.886 343.744 241.699 343.744 242.648C343.202 246.445 342.524 250.106 341.711 253.768C341.711 254.174 341.439 254.717 341.304 255.259Z" fill="#EDCFC5"/>
<path d="M497.644 426.245C497.915 424.889 498.457 423.668 499.135 422.312C500.491 419.736 502.39 417.296 504.424 414.99C506.458 412.821 508.627 410.787 510.932 408.889C512.288 409.16 513.644 409.567 515 409.974C515 409.974 515 409.973 515 410.109C513.78 414.312 512.424 418.38 510.661 422.312C509.305 425.702 508.085 429.093 507.542 432.889C503.746 435.33 499 433.432 497.237 430.177C496.966 429.635 496.695 429.092 496.695 428.414C496.966 427.601 497.237 426.923 497.644 426.245Z" fill="#1E2B3C"/>
<path d="M496.277 420.686C497.904 417.703 499.938 415.127 502.108 412.821C503.599 411.194 505.227 409.567 506.854 408.076C505.091 407.804 503.328 407.533 501.565 407.533C499.532 407.398 497.226 407.534 495.193 407.263C490.854 406.991 486.65 406.178 482.447 405.093C478.243 404.008 474.311 402.246 470.379 400.483C466.718 398.178 463.328 395.737 459.802 393.432C463.87 394.516 467.938 396.144 471.87 397.499C475.667 399.262 479.464 400.889 483.396 401.974C487.328 403.059 491.396 403.737 495.464 404.144C497.498 404.279 499.532 404.279 501.701 404.415C503.871 404.415 506.04 404.686 508.21 405.093C516.752 406.584 524.752 409.567 532.617 412.415C536.549 413.907 540.481 415.262 544.413 416.347C546.312 417.161 548.21 417.839 550.244 418.381C551.193 418.652 552.278 418.788 553.227 418.923C553.362 418.923 553.362 418.923 553.498 418.923C554.447 418.923 555.396 418.924 556.21 418.517C555.396 419.195 554.312 419.737 553.227 419.873C552.142 420.144 551.057 420.144 549.973 420.279C547.803 420.279 545.634 420.008 543.464 419.737C543.464 419.737 543.464 419.737 543.329 419.737C539.396 418.652 535.6 417.296 531.803 415.805C531.803 417.161 531.667 418.381 531.532 419.601L530.989 422.449L530.718 423.805C530.718 424.212 530.718 424.754 530.583 425.161C530.447 426.11 530.583 426.923 530.583 427.737C530.718 428.551 530.854 429.364 531.125 430.178C531.667 431.67 532.617 433.025 533.837 433.432C534.244 433.839 534.65 434.11 535.193 434.246C535.464 434.382 535.6 434.381 535.871 434.517C536.684 434.652 537.634 434.653 538.447 434.11C538.176 435.195 537.227 436.009 536.142 436.416C535.057 436.822 533.701 436.957 532.481 436.551C530.176 435.466 528.684 433.432 528.006 431.263C527.6 430.178 527.464 429.093 527.328 428.008C527.328 427.33 527.328 426.788 527.193 426.11C527.193 425.703 527.193 425.297 527.193 424.754C527.193 424.212 527.193 423.669 527.328 423.263L527.6 421.771L528.142 418.923C528.413 417.432 528.413 415.94 528.413 414.313C525.023 413.093 521.769 411.872 518.379 410.923C518.379 410.923 518.379 410.923 518.379 411.059C517.159 415.262 515.667 419.601 513.905 423.669C512.277 427.601 510.921 431.67 510.65 435.738C510.515 437.772 510.786 439.805 511.464 441.432C511.599 442.381 511.871 443.331 512.413 444.144C512.549 444.28 512.549 444.416 512.684 444.551C513.227 445.229 513.769 445.907 514.583 446.449C512.277 446.585 509.701 444.958 508.345 442.788C507.396 440.347 507.125 437.907 507.26 435.602C507.26 434.653 507.396 433.839 507.532 432.89C508.074 429.229 509.294 425.703 510.65 422.313C512.277 418.381 513.769 414.313 514.989 410.11C514.989 410.11 514.989 410.11 514.989 409.975C513.633 409.568 512.277 409.296 510.921 408.889C508.616 410.788 506.447 412.822 504.413 414.991C502.379 417.296 500.481 419.737 499.125 422.313C498.447 423.533 497.904 424.89 497.633 426.246C497.226 426.924 496.82 427.601 496.684 428.415C496.548 429.093 496.413 429.771 496.549 430.585C495.871 430.042 495.328 429.229 494.921 428.28C494.65 427.466 494.379 426.517 494.379 425.703C494.786 423.805 495.464 422.178 496.277 420.686Z" fill="#EDCFC5"/>
<path d="M511.604 441.431C510.791 439.804 510.655 437.77 510.791 435.736C511.062 431.668 512.282 427.6 514.045 423.668C515.808 419.6 517.299 415.261 518.52 411.058C518.52 411.058 518.52 411.057 518.52 410.922C521.91 412.007 525.164 413.091 528.554 414.312C528.554 415.803 528.554 417.295 528.283 418.922L527.74 421.769L527.469 423.261C527.333 423.804 527.333 424.346 527.333 424.753C527.333 425.16 527.333 425.566 527.333 426.109C524.079 436.143 521.367 447.261 515.13 445.499C514.316 445.227 513.503 444.957 512.825 444.414C512.689 444.279 512.689 444.143 512.554 444.007C512.011 443.329 511.74 442.38 511.604 441.431Z" fill="#1E2B3C"/>
<path d="M531.272 430.041C531.001 429.363 530.865 428.414 530.73 427.601C530.73 426.787 530.594 425.837 530.73 425.024C530.73 424.617 530.73 424.21 530.866 423.668L531.137 422.312L531.679 419.465C531.815 418.245 531.95 416.888 531.95 415.668C535.747 417.024 539.544 418.38 543.476 419.6C543.476 419.6 543.476 419.6 543.611 419.6C542.391 425.973 539.95 430.99 538.594 432.889C537.916 433.838 536.832 434.245 535.476 434.245C534.933 433.974 534.527 433.838 534.12 433.431C532.764 432.889 531.815 431.533 531.272 430.041Z" fill="#1E2B3C"/>
<path d="M355.268 154.104V163.189L354.319 161.833C353.912 161.833 353.505 161.698 353.098 161.698C352.285 161.562 351.471 161.291 350.793 161.02C350.115 160.748 349.302 160.341 348.624 159.934C348.353 159.663 347.946 159.528 347.675 159.256C346.997 159.392 346.454 159.528 345.641 159.664C345.505 160.477 345.505 161.155 345.641 161.968C346.047 162.24 346.454 162.647 346.861 162.918C347.675 163.46 348.624 164.003 349.573 164.409C350.522 164.816 351.471 165.088 352.556 165.223C353.098 165.359 353.505 165.358 354.048 165.494C354.454 165.087 354.997 164.68 355.268 164.138V177.155C350.658 180.816 344.827 183.121 338.319 183.121C327.471 183.121 318.251 176.884 313.912 167.664C312.149 164.138 311.2 160.07 311.2 155.867V151.121C310.793 151.528 310.386 151.935 309.844 152.07C307.268 152.884 304.013 150.308 302.657 146.104C301.166 141.901 302.115 137.832 304.556 136.883C306.047 136.341 307.674 137.019 309.166 138.511C309.979 139.324 311.2 138.782 311.471 137.697C313.369 124.544 324.624 114.375 338.319 114.375C347.403 114.375 355.539 118.85 360.42 125.901C363.539 130.375 365.438 135.798 365.438 141.629V154.376H355.268V154.104Z" fill="#1E2B3C"/>
<path d="M353.909 165.224C353.366 165.224 352.824 165.088 352.417 164.952C351.468 164.817 350.383 164.41 349.434 164.139C348.485 163.867 347.536 163.325 346.722 162.647C346.315 162.376 345.909 162.105 345.502 161.698C345.366 161.02 345.366 160.342 345.502 159.393C346.315 159.257 346.993 159.122 347.536 158.986C347.807 159.258 348.214 159.529 348.485 159.664C349.163 160.071 349.841 160.478 350.654 160.749C351.332 161.02 352.146 161.291 352.959 161.427C353.366 161.562 353.773 161.563 354.18 161.563L355.129 162.918V163.596C354.858 164.41 354.451 164.817 353.909 165.224Z" fill="#EDCFC5"/>
<path d="M291.256 555.603L293.018 552.077C293.561 550.857 294.103 549.501 294.374 548.281C294.781 546.925 295.052 545.568 295.188 544.348C295.459 542.992 295.73 541.636 295.73 540.28C295.866 538.924 295.866 537.569 295.73 536.077C295.595 534.721 295.323 533.365 295.188 532.009C294.781 529.297 294.51 526.721 294.103 524.009C293.832 521.297 293.561 518.721 293.289 516.009C293.018 513.297 292.747 510.721 292.34 508.009L290.578 492.144L295.866 356.684L314.035 289.158L318.646 272.209L320.951 263.802C321.358 262.175 321.764 260.412 322.171 258.785L335.324 263.938L338.578 265.158L352.137 270.446L440.409 304.752L420.748 355.058L401.629 404.278L357.697 517.229L327.866 593.705L289.764 578.925L282.577 576.078C286.103 569.569 288.679 561.705 291.256 555.603Z" fill="#1E98F5"/>
<path d="M244.343 488.619C242.174 492.009 240.14 495.534 238.242 498.924L236.75 501.501C236.208 502.314 235.801 503.263 235.394 504.213L233.089 509.771C231.597 513.432 230.106 517.23 228.75 521.026C227.394 524.958 226.581 528.89 225.767 532.823C225.089 536.755 224.547 540.823 224.411 544.891C224.275 547.739 224.411 550.586 224.818 553.569L183.868 537.704L38.9182 481.296L151.461 192.344L255.869 233.022L264.547 236.412C245.021 308.956 240.276 394.516 244.343 488.619Z" fill="#1E98F5"/>
<path d="M224.548 545.163C224.684 541.095 225.226 537.027 225.904 533.095C226.582 529.163 227.531 525.094 228.887 521.298C230.243 517.501 231.735 513.705 233.226 510.044L235.531 504.484C235.802 503.535 236.345 502.586 236.887 501.772L238.379 499.196C240.277 495.671 242.447 492.281 244.48 488.891L240.684 500.28L239.735 503.128C239.463 504.077 239.057 505.027 238.65 505.976C237.836 507.738 237.023 509.637 236.345 511.4C234.853 515.061 233.362 518.722 232.141 522.519C230.921 526.18 230.107 529.976 229.294 533.908C228.616 537.705 228.074 541.638 227.938 545.57C227.802 549.502 227.938 553.299 228.887 556.96C229.836 560.485 231.735 563.739 234.989 564.824C235.802 565.095 236.616 565.231 237.43 565.366C238.243 565.366 239.057 565.367 239.87 565.095C241.497 564.689 243.124 563.739 244.209 562.654L245.565 561.434L246.786 562.79C247.735 564.01 248.955 565.231 250.175 566.18C251.396 567.129 252.752 567.943 253.972 568.214C254.514 568.349 255.328 568.214 256.141 568.214C256.955 568.214 257.769 568.079 258.582 567.943C260.209 567.672 261.972 567.807 263.599 567.536L265.904 567.265L265.091 569.163C264.413 570.79 264.277 572.824 264.142 574.723C264.142 576.757 264.277 578.655 264.548 580.689C263.735 578.79 263.057 576.892 262.65 574.858C262.379 573.502 262.243 572.011 262.243 570.655C261.972 570.79 261.701 570.79 261.43 570.926C260.616 571.197 259.667 571.332 258.853 571.468L256.141 571.604C255.192 571.604 254.379 571.739 253.158 571.604C250.989 571.197 249.362 570.112 247.87 568.892C246.786 568.078 245.972 567.265 245.023 566.316C244.616 566.587 244.074 566.858 243.667 567.265C242.718 567.807 241.633 568.214 240.548 568.485C239.463 568.756 238.243 568.892 237.023 568.756C235.802 568.62 234.718 568.485 233.633 568.078C231.463 567.264 229.429 565.773 228.209 563.875C226.853 561.977 226.04 559.942 225.497 557.908C225.226 556.688 224.955 555.468 224.819 554.112C224.412 550.858 224.412 548.01 224.548 545.163Z" fill="#EDCFC5"/>
<path d="M318.646 272.344L314.036 289.294L295.867 356.82L290.578 492.279L292.341 508.144C292.748 510.856 293.019 513.432 293.29 516.144C293.561 518.856 293.833 521.432 294.104 524.144C294.375 526.856 294.782 529.432 295.189 532.144C295.324 533.5 295.595 534.72 295.731 536.212C295.867 537.568 295.867 538.924 295.731 540.415C295.595 541.771 295.324 543.127 295.189 544.483C294.917 545.839 294.646 547.195 294.375 548.415C293.968 549.771 293.561 550.992 293.019 552.212L291.256 555.738V555.873L292.748 552.077C293.155 550.856 293.562 549.501 293.833 548.28C294.104 546.924 294.239 545.703 294.375 544.348C294.511 542.992 294.646 541.636 294.646 540.415C294.646 539.059 294.511 537.839 294.375 536.483C294.104 535.263 293.833 533.907 293.561 532.551C293.019 529.975 292.477 527.263 291.934 524.686C290.985 519.398 289.9 514.11 289.358 508.686L287.595 492.686V492.551V492.415L292.884 356.684V356.548V356.413L311.189 288.751L315.799 271.801L318.104 263.395C318.918 260.547 319.867 257.835 320.68 254.988C324.206 243.869 327.596 232.615 331.121 221.496C328.68 232.886 325.968 244.276 323.392 255.666C323.121 256.886 322.85 257.971 322.579 259.191C322.172 260.818 321.765 262.581 321.358 264.209L318.646 272.344Z" fill="#EDCFC5"/>
</svg>
