<svg width="1195" height="844" viewBox="0 0 1195 844" fill="none" xmlns="http://www.w3.org/2000/svg">
<path d="M512.89 779.76C512.126 794.389 502.71 806.474 474.972 808.764C456.904 810.163 450.16 844.002 450.16 844.002H589.997V666.542C556.533 664.507 524.723 656.746 495.331 644.152C503.219 706.867 514.035 756.226 512.89 779.76Z" fill="#1E2B3C"/>
<path d="M689.503 779.76C688.74 794.389 679.324 806.474 651.585 808.764C633.517 810.163 626.773 844.002 626.773 844.002H766.738L745.616 631.305C716.478 647.588 684.286 658.783 649.931 663.998C667.109 716.409 690.648 757.244 689.503 779.76Z" fill="#1E2B3C"/>
<path d="M697.134 104.779L699.297 100.454C699.425 100.963 699.679 101.471 700.061 101.853C701.969 103.761 706.168 102.744 709.477 99.5635C712.785 96.3833 713.803 92.1848 711.894 90.1494C710.749 89.0045 708.968 88.8781 706.932 89.6413C705.914 90.023 704.896 89.0048 705.278 87.8599C709.604 74.8844 703.751 60.3823 691.154 54.149C677.412 47.2796 660.616 53.0046 653.873 66.7434L648.02 78.447L657.435 83.1528L653.236 91.5495L654.763 90.7855C655.145 90.9127 655.527 91.0409 655.908 91.1681C656.672 91.4225 657.563 91.5495 658.326 91.5495C659.217 91.5495 659.98 91.5488 660.871 91.4215C661.253 91.4215 661.634 91.2953 662.143 91.1681C662.652 91.5497 663.161 91.9306 663.797 92.3123C663.543 93.0755 663.161 93.7116 662.779 94.2204C662.27 94.3476 661.761 94.4751 661.252 94.4751C660.235 94.6023 659.217 94.6018 658.071 94.6018C657.054 94.4746 656.036 94.3481 655.018 94.0937C654.509 93.9665 654 93.8388 653.491 93.5844C653.236 93.0755 652.982 92.5669 652.855 91.9309L648.401 100.962C663.543 103.125 678.303 106.56 692.554 111.013C694.335 109.486 695.862 107.323 697.134 104.779Z" fill="#1E2B3C"/>
<path d="M655.02 94.6C656.038 94.8544 657.056 95.1093 658.074 95.1093C659.092 95.2365 660.11 95.1098 661.255 94.9826C661.764 94.9826 662.273 94.8551 662.782 94.7279C663.164 94.0919 663.545 93.583 663.8 92.8197C663.164 92.3109 662.655 92.056 662.146 91.6744C661.764 91.8016 661.382 91.8018 660.873 91.929C660.11 92.0562 659.219 92.0557 658.328 92.0557C657.438 92.0557 656.674 91.8016 655.911 91.6744C655.529 91.5471 655.147 91.4202 654.766 91.293L653.239 92.0557L652.984 92.5651C653.112 93.2011 653.366 93.7097 653.621 94.2186C654.002 94.2186 654.511 94.4727 655.02 94.6Z" fill="#EDCFC5"/>
<path d="M834.813 541.494C830.741 535.77 827.56 526.991 831.505 522.539C834.049 519.613 841.175 523.811 847.282 528.645C837.103 517.832 821.198 499.642 827.56 490.61C832.013 484.249 846.773 495.189 859.243 505.62C849.318 495.571 835.067 477.888 840.284 472.291C847.791 464.022 862.933 476.997 870.822 482.594C871.331 482.976 871.713 483.231 872.221 483.613C870.695 481.323 869.677 477.889 870.695 472.8C873.112 460.461 881.001 440.233 881.001 440.233C881.001 440.233 883.164 440.87 885.582 442.269C889.653 423.188 891.816 403.342 891.816 382.988C891.816 255.65 808.092 147.903 692.685 111.648C678.434 107.195 663.674 103.76 648.533 101.597C635.172 99.6893 621.43 98.6719 607.434 98.6719C507.932 98.6719 420.39 149.811 369.494 227.155C372.421 228.045 374.711 229.318 374.711 229.318C374.711 229.318 365.168 248.908 357.788 258.958C354.734 263.156 351.553 264.81 348.881 265.192C349.517 265.319 350.026 265.319 350.535 265.446C359.951 267.354 379.801 269.644 378.91 280.712C378.274 288.344 355.752 289.87 341.501 289.488C357.661 291.524 375.602 294.958 374.075 302.591C371.784 313.404 347.609 314.167 332.722 314.04C340.356 315.312 348.245 317.729 347.863 321.546C347.227 327.525 338.575 331.087 331.704 331.977C330.686 332.105 329.159 332.231 327.378 332.104C324.451 348.514 322.797 365.561 322.797 382.862C322.797 500.15 393.797 600.901 495.208 644.28C524.6 656.874 556.41 664.633 589.875 666.669C595.601 667.051 601.326 667.178 607.179 667.178C621.685 667.178 635.936 666.033 649.805 663.998C684.033 658.782 716.352 647.587 745.49 631.305C782.899 610.442 815.09 581.438 839.648 546.709C837.485 544.674 835.831 542.766 834.813 541.494Z" fill="#F45F63"/>
<path d="M885.453 442.14C883.035 440.741 880.872 440.105 880.872 440.105C880.872 440.105 872.983 460.332 870.566 472.671C869.548 477.759 870.438 481.194 872.092 483.484C871.583 483.102 871.202 482.721 870.693 482.466C862.804 476.869 847.79 463.894 840.155 472.163C834.938 477.887 849.189 495.442 859.114 505.491C846.644 495.06 831.884 484.247 827.431 490.481C821.069 499.513 836.974 517.704 847.153 528.517C840.919 523.81 833.92 519.613 831.375 522.411C827.431 526.864 830.739 535.64 834.684 541.365C835.574 542.764 837.356 544.546 839.519 546.581C846.644 553.196 858.605 561.083 863.695 554.85C867.257 550.525 862.549 543.019 857.714 537.803C864.84 541.365 872.347 539.457 875.401 534.623C879.345 528.39 874.764 520.249 866.748 512.234L866.876 512.361C872.22 515.669 882.781 519.867 885.071 511.344C886.98 504.093 880.999 492.516 874.383 485.647C876.291 486.792 878.327 486.791 879.218 485.773C881.508 483.484 892.069 469.491 892.96 452.572C893.469 447.611 889.015 444.049 885.453 442.14Z" fill="#1E2B3C"/>
<path d="M331.702 331.976C338.7 331.086 347.225 327.396 347.861 321.545C348.243 317.728 340.354 315.438 332.72 314.039C347.48 314.166 371.783 313.403 374.073 302.59C375.6 294.957 357.659 291.65 341.499 289.487C355.623 289.869 378.272 288.343 378.908 280.711C379.799 269.516 359.949 267.353 350.534 265.445C350.025 265.318 349.388 265.191 348.879 265.191C351.551 264.809 354.732 263.027 357.786 258.957C365.166 248.78 374.709 229.317 374.709 229.317C374.709 229.317 372.546 228.044 369.492 227.154C365.675 226.009 360.458 225.501 357.15 228.935C345.444 241.148 342.39 258.321 342.263 261.629C342.263 262.901 343.535 264.427 345.571 265.063C336.028 264.935 323.431 268.371 319.487 274.731C314.779 282.237 325.085 287.071 331.066 288.725C331.066 288.725 331.193 288.725 331.32 288.725C319.869 288.343 310.707 290.506 308.926 297.629C307.526 303.099 311.216 309.968 318.596 312.767C311.471 312.767 302.818 314.548 302.055 320.018C300.91 328.796 317.96 331.977 327.503 332.231C329.157 332.104 330.684 332.104 331.702 331.976Z" fill="#1E2B3C"/>
<path d="M784.172 79.5873C773.611 72.7179 758.342 79.9692 752.744 83.0223C751.853 83.5311 752.108 84.8027 753.125 85.0571C758.342 85.9476 769.285 88.1107 773.357 92.5631C782.9 102.74 797.66 88.2377 784.172 79.5873Z" fill="#1E2B3C"/>
<path d="M628.172 11.2762C631.608 11.2762 636.697 15.093 638.988 16.874C639.497 17.2556 640.133 16.874 640.006 16.2379C639.242 12.676 636.315 3.64354 629.445 1.73537C620.665 -0.427213 620.156 11.2762 628.172 11.2762Z" fill="#1E2B3C"/>
<path d="M703.366 18.5272C706.166 16.2374 712.4 11.7853 716.472 11.7853C726.015 11.7853 725.506 -2.33511 714.945 0.336321C706.547 2.49891 703.239 13.5665 702.221 17.7645C702.094 18.4005 702.857 18.9089 703.366 18.5272Z" fill="#1E2B3C"/>
</svg>
