<svg width="1195" height="844" viewBox="0 0 1195 844" fill="none" xmlns="http://www.w3.org/2000/svg">
<path d="M240.021 391.953C240.25 386.806 240.593 381.888 240.822 376.969C233.381 370.564 226.168 363.815 219.413 356.723C209.797 346.657 200.523 336.134 191.822 325.267C210.484 345.971 230.748 365.073 252.156 382.688C263.033 391.382 274.367 399.388 286.388 406.022C292.456 409.339 298.638 412.428 305.049 414.83C311.46 417.346 318.1 418.948 324.969 420.206C338.593 422.723 352.446 423.867 366.299 424.439C380.152 424.782 394.119 425.01 408.086 425.353L491.661 427.069H492.004L492.348 427.298L511.696 438.165C511.811 435.648 512.612 433.017 514.1 430.73C515.932 428.556 518.107 426.841 520.511 425.582C521.771 424.896 523.03 424.438 524.289 423.981C525.549 423.637 526.923 423.294 528.411 423.18C529.899 423.065 531.388 423.295 532.761 423.867C534.135 424.439 535.395 425.239 536.425 426.268L537.226 427.069L537.913 427.87C538.371 428.442 538.829 429.242 539.058 430.043C539.516 431.53 539.631 433.018 539.516 434.39C539.287 437.135 538.6 439.766 537.799 442.282C536.997 444.799 535.853 447.201 534.708 449.603C534.479 449.946 534.135 450.289 533.906 450.632L534.25 450.861C535.28 448.802 536.539 446.858 538.142 445.257C538.829 443.999 539.745 442.74 541.004 441.825C541.348 441.596 541.691 441.368 542.035 441.253C542.378 441.139 542.836 441.139 543.18 441.024C543.981 440.91 544.782 440.909 545.584 440.909C548.789 441.138 551.537 442.74 553.712 444.799C554.743 445.828 555.773 446.972 556.575 448.23C556.803 448.459 557.032 448.917 557.261 449.374C557.49 449.832 557.605 450.174 557.605 450.632C557.834 451.433 557.834 452.234 557.834 453.035C557.834 454.522 557.605 456.008 557.261 457.381C557.261 457.61 557.147 457.724 557.147 457.953C557.147 458.182 557.147 458.296 557.032 458.525L556.346 459.44C556.002 459.897 555.544 460.355 555.086 460.813C554.743 461.499 554.399 462.299 554.056 462.871C556.231 464.816 558.75 466.532 561.383 468.019C564.131 469.506 567.222 470.764 570.313 471.221C571.916 471.45 573.518 471.336 575.007 470.993C576.495 470.65 578.098 470.078 579.472 469.162C580.846 468.362 581.99 467.219 582.906 465.846C583.708 464.473 584.166 462.872 584.166 461.271C584.166 461.499 584.166 461.842 584.166 462.07C584.166 461.613 584.166 461.271 584.166 461.271C584.166 461.271 596.301 465.617 603.514 461.271C610.841 456.924 607.979 446.401 607.979 446.401C607.979 446.401 615.764 450.633 620.114 448.688C622.404 447.201 624.579 445.371 626.068 443.312C626.411 442.74 626.754 442.282 626.983 441.71C627.098 441.481 627.212 441.138 627.327 440.909C627.441 440.566 627.556 440.338 627.67 440.109C628.243 438.966 628.357 437.821 628.472 436.563C628.586 434.046 628.014 431.53 626.983 429.128C625.953 426.726 624.579 424.439 623.091 422.38C616.336 415.288 609.581 408.31 602.712 401.333C599.278 397.901 595.843 394.47 592.294 391.038C591.836 390.581 591.378 390.238 590.92 389.78C590.462 389.437 590.004 388.979 589.661 388.522C588.86 387.606 588.058 386.692 587.257 385.777C586.455 384.862 585.654 383.946 584.853 383.031C584.395 382.574 584.051 382.116 583.593 381.658L582.219 380.401C580.273 379.257 576.953 378.342 573.289 377.77C570.084 377.884 566.878 377.999 563.787 378.113L563.444 378.799L562.757 380.401C562.528 380.973 562.299 381.544 562.07 382.001C561.841 382.573 561.497 383.031 561.154 383.603C559.895 385.777 557.948 387.607 555.888 388.979C553.827 390.238 551.537 391.267 549.362 392.068C547.072 392.869 544.668 393.44 542.035 393.44C540.775 393.44 539.402 393.098 538.142 392.64C536.883 392.068 535.853 391.267 534.822 390.466C534.593 390.238 534.364 390.009 534.135 389.78L533.792 389.436L533.677 389.322L533.563 389.208L533.448 389.093C532.761 388.293 532.533 387.264 532.533 386.463C532.647 384.861 533.219 383.717 533.677 382.573C535.853 378.227 538.371 374.682 539.745 370.335C540.547 368.162 541.119 365.873 542.378 363.7C543.065 362.556 543.981 361.527 544.897 360.726C545.927 359.926 546.958 359.24 548.103 358.668C549.934 357.753 551.881 357.066 553.712 356.38C545.698 358.439 518.336 374.566 518.336 374.566L413.925 346.771L342.715 322.637L237.159 191.324C229.259 167.875 214.491 153.576 188.731 146.828C121.642 129.327 82.4883 233.76 82.4883 402.134C82.4883 496.043 81.6869 691.869 81 844H209.224C209.797 836.565 210.484 829.244 211.056 821.809C215.063 773.424 218.727 725.041 222.161 676.656L227.313 604.022L233.495 531.502C232.579 555.751 231.32 580.001 230.175 604.251C228.572 628.5 226.855 652.635 225.138 676.885C221.589 725.27 217.925 773.653 214.033 822.038C213.46 829.359 212.773 836.679 212.201 844H236.93C241.166 718.52 240.135 519.606 240.021 391.953Z" fill="white"/>
<path d="M243.454 76.1386C241.622 76.4818 239.79 76.7106 238.073 76.7106C233.608 76.7106 229.143 75.4521 225.25 73.0501C224.563 72.5925 224.334 71.7916 224.792 71.1053C225.25 70.419 226.052 70.1909 226.739 70.6484C231.547 73.6224 237.271 74.5373 242.767 73.279L239.447 59.3239L256.047 55.4344L251.124 34.7313C245.4 10.4818 221.014 -4.50227 196.743 1.21694C174.533 6.47862 160.108 27.1815 162.169 49.1433C162.283 50.9734 160.337 52.2321 158.848 51.317C155.986 49.4869 152.895 49.0296 150.72 50.4022C146.942 52.8043 147.056 59.7819 151.063 66.0731C155.07 72.3642 161.253 75.4521 165.031 73.0501C165.832 72.5925 166.404 71.9064 166.748 70.9914L168.58 78.5403C174.304 102.79 198.689 117.774 222.961 112.055C233.264 109.653 241.965 103.819 248.033 96.0408L243.454 76.1386Z" fill="white"/>
<path d="M226.739 70.6484C226.052 70.1908 225.136 70.4189 224.793 71.1053C224.335 71.7916 224.564 72.7069 225.251 73.05C229.143 75.4521 233.608 76.7105 238.073 76.7105C239.905 76.7105 241.737 76.4818 243.454 76.1386L242.767 73.3929C237.272 74.5368 231.548 73.6224 226.739 70.6484Z" fill="#F45F63"/>
<path d="M853.774 728.814L890.868 735.22C889.036 717.148 887.319 699.189 885.716 681.116C884.685 668.648 883.54 656.295 882.625 643.827L881.251 625.183C880.793 619.006 880.335 612.715 879.991 606.538L879.19 587.893L878.732 569.134C878.274 556.666 878.503 544.198 878.503 531.73L879.19 550.375C879.304 553.463 879.419 556.552 879.533 559.755L880.106 569.134L881.251 587.779L882.739 606.423C883.426 618.891 884.456 631.245 885.372 643.713C886.288 656.181 887.433 668.534 888.463 681.002C890.066 699.303 891.898 717.605 893.73 735.792L915.024 739.452L917.314 726.298C919.031 716.575 924.412 707.997 932.426 702.392C937.005 699.189 942.157 697.016 947.653 696.101C946.737 703.879 943.073 715.203 943.073 715.203C943.073 715.203 941.012 718.406 939.41 722.409C937.921 724.583 936.891 726.984 936.433 729.615L934.143 742.769L1029.28 759.126L1031.57 745.972C1032.03 743.112 1031.8 740.367 1031 737.736C1030.65 738.422 1030.31 739.109 1029.85 739.91C1029.17 741.054 1028.37 742.083 1027.45 743.112C1026.53 744.142 1025.5 745.057 1024.36 745.743C1023.21 746.544 1021.95 747.116 1020.58 747.459C1019.32 747.802 1017.95 748.031 1016.57 748.146C1015.89 748.146 1015.2 748.146 1014.63 748.146L1012.68 748.031C1011.42 748.031 1010.16 747.917 1008.9 747.803C1006.38 747.574 1003.87 747.23 1001.35 746.773C998.828 746.315 996.424 745.629 994.019 744.828C991.844 744.027 989.669 743.112 987.608 741.74C985.204 743.684 982.342 744.943 979.365 745.629C976.16 746.315 972.954 746.201 969.748 745.629C966.657 744.943 963.681 743.799 960.704 742.655C959.216 742.084 957.842 741.396 956.468 740.596C955.094 739.795 953.72 738.995 952.575 737.851C953.72 738.881 955.094 739.681 956.468 740.368C957.842 741.054 959.33 741.626 960.818 742.197C963.795 743.227 966.772 744.142 969.863 744.714C972.839 745.286 976.045 745.172 979.022 744.371C981.884 743.571 984.746 742.198 986.921 740.139L987.379 739.681L987.952 740.024C989.898 741.282 992.188 742.197 994.477 742.883C996.767 743.57 999.171 744.142 1001.69 744.485C1004.09 744.828 1006.61 745.057 1009.02 745.286C1010.28 745.286 1011.42 745.4 1012.68 745.4H1014.51C1015.08 745.4 1015.66 745.4 1016.23 745.286C1017.37 745.172 1018.52 744.942 1019.55 744.599C1020.58 744.256 1021.61 743.684 1022.53 743.112C1023.44 742.54 1024.36 741.74 1025.16 740.94C1025.96 740.139 1026.65 739.224 1027.22 738.194C1029.62 734.191 1030.88 729.386 1031.69 724.582C1033.17 714.859 1032.83 704.908 1032.03 695.071C1031.23 685.12 1029.85 675.283 1028.25 665.446C1027.91 662.93 1027.45 660.528 1027.11 658.011C1026.76 655.495 1026.42 653.093 1026.08 650.576L1023.79 635.82C1022.3 625.983 1021.04 615.917 1021.38 605.737C1021.5 600.704 1022.07 595.671 1022.53 590.752L1023.9 575.882L1026.76 546.028V545.914V545.799C1031.69 518.576 1036.38 491.353 1040.39 464.015C1041.42 457.152 1042.33 450.289 1043.13 443.541L1043.71 438.393L1044.16 433.246L1044.39 430.729L1044.62 428.213C1044.74 426.497 1044.85 424.781 1044.97 423.065C1045.08 416.317 1044.62 409.339 1044.28 402.476C1043.82 395.613 1043.25 388.75 1042.68 381.773C1040.27 354.206 1037.18 326.754 1034.2 299.301C1031.57 271.735 1028.59 244.282 1025.73 216.716C1029.74 244.053 1033.29 271.506 1036.95 298.958C1037.87 305.821 1038.55 312.684 1039.24 319.548L1041.42 340.137C1042.9 353.863 1044.28 367.703 1045.42 381.429C1046 388.292 1046.57 395.27 1047.03 402.133C1047.48 409.111 1047.94 415.974 1047.71 422.951C1047.71 424.667 1047.48 426.382 1047.37 428.213L1047.14 430.843L1046.91 433.474L1046.45 438.621L1045.88 443.768C1045.08 450.632 1044.16 457.495 1043.13 464.358C1039.13 491.695 1034.43 519.033 1029.51 546.142L1026.65 575.882L1025.27 590.752C1024.82 595.671 1024.36 600.704 1024.13 605.622C1023.79 615.459 1025.05 625.297 1026.53 635.134L1028.82 649.889C1029.17 652.406 1029.62 654.808 1029.85 657.324C1030.2 659.726 1030.65 662.243 1031 664.645C1032.6 674.482 1033.97 684.433 1034.78 694.499C1035.23 700.447 1035.58 706.51 1035.35 712.458C1039.36 715.317 1042.79 719.092 1045.31 723.21L1052.29 415.63C1053.78 399.159 1054.35 384.174 1054.12 372.278C1052.29 201.617 1034.32 149.916 983.83 142.824C953.262 138.477 926.816 157.465 909.758 190.636L752.225 315.544L606.37 369.648C606.37 369.648 591.372 361.298 587.823 358.781C583.816 356.493 579.351 355.007 575.001 354.893C570.765 354.778 566.071 355.464 561.721 356.38C559.545 356.837 557.256 357.409 555.08 358.095C552.905 358.782 550.73 359.467 548.898 360.497C546.952 361.526 545.349 362.785 544.319 364.5C543.288 366.216 542.716 368.504 541.915 370.678C541.571 371.821 541.113 372.85 540.655 373.994C540.197 375.138 539.625 376.168 539.052 377.198C537.908 379.257 536.763 381.201 535.732 383.26C535.274 384.175 534.816 385.318 534.816 386.004C534.816 386.348 534.816 386.462 534.931 386.576L535.045 386.691L535.16 386.805L535.503 387.148C535.732 387.377 535.847 387.491 536.076 387.72C537.564 389.207 539.396 389.893 541.457 390.008C543.517 390.008 545.578 389.551 547.753 388.75C549.814 387.949 551.875 387.148 553.707 386.004C555.538 384.861 557.027 383.489 558.057 381.544C558.286 381.087 558.515 380.629 558.858 380.057L559.774 378.569L560.69 377.083L561.263 376.282C561.377 376.167 561.492 376.054 561.606 375.825C561.721 375.71 561.721 375.71 562.064 375.367C562.179 375.252 562.293 375.253 562.407 375.253C562.407 375.253 562.98 375.139 563.323 375.482C566.529 375.939 569.849 376.511 573.055 376.969C572.94 376.969 572.826 376.969 572.711 376.969C576.375 377.541 579.58 378.341 581.641 379.599L583.244 380.4C583.816 380.743 584.274 381.086 584.847 381.315C585.877 382.001 586.907 382.687 587.938 383.374C588.968 384.06 589.884 384.861 590.915 385.548C591.372 385.891 591.945 386.348 592.288 386.805C592.746 387.263 593.204 387.607 593.662 388.064C597.211 391.496 600.646 394.927 604.08 398.359C610.95 405.336 617.819 412.313 624.573 419.405C626.405 421.807 627.779 424.209 628.924 426.84C629.153 427.412 629.382 428.099 629.611 428.671L771.917 397.215V396.528C783.251 393.325 805.919 386.005 845.875 370.22C861.33 364.157 876.9 355.579 891.44 346.314C893.272 380.629 894.188 406.479 881.938 433.131C859.04 482.774 820.802 543.626 786.685 651.376C763.101 725.84 757.835 777.085 761.384 843.085H823.206L841.639 736.135C843.127 731.446 848.279 727.785 853.774 728.814ZM941.699 306.164L939.181 290.151L937.807 282.144C937.349 279.513 937.005 276.768 936.662 274.137L927.618 209.968C931.625 231.243 935.517 252.518 939.41 273.794C939.867 276.425 940.44 279.056 940.783 281.801L942.043 289.808L944.561 305.821L949.599 337.849C952.919 359.239 956.239 380.514 959.33 402.018C960.132 407.394 960.818 412.771 961.505 418.147C961.62 419.52 961.849 420.892 961.849 422.264C961.849 422.608 961.849 422.951 961.849 423.294C961.849 423.523 961.849 423.637 961.849 423.866C961.849 423.981 961.849 424.094 961.849 424.323C961.849 424.438 961.849 424.552 961.62 424.895L961.505 425.01V425.124L961.391 425.582L961.162 426.497C960.704 429.128 960.36 431.759 960.017 434.39C958.643 445.028 957.613 455.779 956.582 466.531C954.407 488.036 952.461 509.54 950.629 531.045L949.255 547.172C948.912 552.548 948.454 557.924 947.996 563.3C946.966 574.052 945.592 584.804 943.531 595.557C942.501 600.933 941.356 606.195 939.868 611.456C938.379 616.718 936.776 621.865 935.174 627.012C931.854 637.307 928.076 647.487 924.641 657.667C920.977 667.847 917.314 677.914 914.566 688.323L913.536 692.211C913.192 693.47 912.734 694.843 912.276 696.101C911.361 698.617 910.445 701.248 909.643 703.765C908.842 706.281 908.155 708.912 907.811 711.543C907.468 714.174 907.468 716.919 908.269 719.55C907.354 717.033 907.125 714.174 907.354 711.543C907.582 708.797 908.155 706.167 908.842 703.536C909.529 700.905 910.33 698.274 911.132 695.758C911.933 693.127 912.505 690.61 913.078 687.979C914.223 682.717 915.597 677.456 917.199 672.194C918.688 667.047 920.29 661.786 922.008 656.638C925.557 646.458 929.335 636.278 932.655 626.097C934.372 620.95 935.975 615.803 937.349 610.656C938.723 605.508 939.982 600.246 940.898 594.985C942.844 584.461 944.218 573.709 945.248 562.957C945.821 557.581 946.164 552.32 946.508 546.829L947.882 530.701C949.828 509.196 951.774 487.693 953.835 466.188C954.865 455.436 956.01 444.684 957.269 433.932C957.613 431.187 957.956 428.556 958.414 425.811L958.643 424.781L958.758 424.209C958.872 423.98 958.872 423.866 958.987 423.523V423.179V422.264C958.872 421.006 958.758 419.634 958.643 418.261C958.071 412.885 957.269 407.623 956.582 402.247C953.491 380.857 950.171 359.467 946.851 338.192L941.699 306.164Z" fill="#1E2B3C"/>
<path d="M961.627 424.895C961.17 425.465 961.399 425.123 961.627 424.895V424.895Z" fill="#1E2B3C"/>
<path d="M998.034 53.7205C995.859 52.3479 992.882 52.8063 989.906 54.6365C988.417 55.5515 986.357 54.2929 986.585 52.4627C988.646 30.5009 974.106 9.68253 952.011 4.53524C927.74 -1.18397 903.469 13.8013 897.63 38.0507L892.707 58.7538L909.307 62.6433L905.987 76.5973C911.483 77.8556 917.207 76.9407 922.015 73.9667C922.702 73.5092 923.618 73.7384 923.962 74.4247C924.42 75.111 924.191 76.0263 923.504 76.3695C919.611 78.7715 915.146 80.0289 910.681 80.0289C908.85 80.0289 907.018 79.8001 905.3 79.4569L900.607 99.4742C906.674 107.252 915.375 113.086 925.679 115.488C949.95 121.207 974.221 106.223 980.06 81.9736L981.892 74.4247C982.35 75.2254 982.922 75.9115 983.609 76.4834C987.387 78.8855 993.684 75.7975 997.576 69.5064C1001.7 63.1009 1001.81 56.1226 998.034 53.7205Z" fill="#1E2B3C"/>
<path d="M1104.62 771.938L1048.4 762.215L1050.69 749.061C1052.3 739.91 1050.35 730.874 1045.77 723.554C1043.25 719.321 1039.82 715.661 1035.81 712.801C1035.7 716.919 1035.35 720.923 1034.78 725.04C1034.09 729.273 1033.06 733.619 1031.12 737.623C1031.92 740.253 1032.15 742.999 1031.69 745.859L1029.4 759.013L934.261 742.656L936.551 729.502C937.009 726.871 938.039 724.468 939.528 722.295C941.131 718.291 943.191 715.089 943.191 715.089C943.191 715.089 946.855 703.764 947.771 695.986C942.39 696.901 937.238 698.96 932.544 702.277C924.416 707.997 919.035 716.462 917.432 726.184L915.142 739.338L893.848 735.678L890.871 735.221L853.778 728.815C848.282 727.9 843.016 731.56 842.1 737.051L823.668 844H1102.44L1112.86 783.719C1113.78 778.114 1110.11 772.853 1104.62 771.938Z" fill="#1E98F5"/>
<path d="M562.646 377.426C562.646 377.54 562.531 377.54 562.531 377.655C562.646 377.769 562.76 377.77 562.988 377.77L562.646 377.426Z" fill="white"/>
<path d="M562.07 376.74C562.07 376.855 562.07 376.74 562.07 376.854C562.07 376.854 562.07 376.855 562.07 377.084C562.185 377.313 562.07 377.198 562.414 377.656C562.414 377.542 562.528 377.542 562.528 377.427L562.07 376.74Z" fill="#1E2B3C"/>
<path d="M529.102 455.434C529.56 454.977 529.789 454.405 530.133 453.833C530.476 453.261 530.705 452.69 530.934 452.118C531.392 450.974 531.85 449.715 532.193 448.571C533.338 446.398 534.369 443.996 535.17 441.708C535.971 439.306 536.544 436.904 536.773 434.616C536.887 433.472 536.773 432.329 536.429 431.299C536.315 430.842 536.086 430.498 535.742 430.041L535.17 429.355L534.598 428.783C532.995 427.181 530.934 426.381 528.644 426.495C527.499 426.495 526.355 426.838 525.21 427.181C524.065 427.524 522.92 427.982 521.89 428.554C519.714 429.698 517.883 431.185 516.28 433.015C514.448 434.502 512.96 436.561 511.7 438.963C511.471 439.879 511.242 440.793 511.128 441.594L493.039 431.413C491.093 438.162 490.978 445.255 495.1 448.114C501.855 452.918 510.556 443.539 510.556 443.539C510.556 443.539 510.67 443.768 510.785 444.111C510.556 448.915 512.502 451.888 516.852 455.205C522.233 458.865 525.668 457.836 529.102 455.434Z" fill="#1E2B3C"/>
<path d="M554.748 461.042L554.405 458.754L554.29 457.724C554.29 457.495 554.29 457.382 554.405 457.267C554.405 457.153 554.519 456.924 554.519 456.809C554.863 455.551 554.977 454.293 554.977 453.035C554.977 452.463 554.977 451.891 554.863 451.319C554.748 451.09 554.748 450.861 554.634 450.632C554.519 450.403 554.405 450.289 554.29 449.946C553.604 448.917 552.802 447.887 551.886 447.087C550.054 445.371 547.765 444.112 545.475 443.998C544.903 443.998 544.33 443.999 543.758 444.113C543.414 444.113 543.185 444.227 542.956 444.341C542.613 444.341 542.384 444.341 542.04 444.341C540.781 444.455 539.522 444.913 538.262 445.485C536.66 447.086 535.4 449.031 534.37 451.09C531.737 456.352 531.05 462.529 533.34 464.816C538.148 469.62 543.643 470.764 549.711 467.905C551.657 467.79 553.031 467.562 553.031 467.562L555.435 466.189C554.634 465.732 553.947 465.159 553.26 464.587C553.603 464.015 553.947 463.444 554.29 462.758C554.634 462.071 554.977 461.385 555.321 460.699C554.977 460.813 554.863 460.927 554.748 461.042Z" fill="#1E2B3C"/>
<path d="M542.037 444.227C542.381 444.227 542.609 444.227 542.953 444.227C543.182 444.113 543.525 443.998 543.754 443.998C544.327 443.884 544.899 443.884 545.472 443.884C547.761 443.999 550.051 445.257 551.883 446.973C552.799 447.773 553.6 448.803 554.287 449.832C554.516 450.176 554.631 450.289 554.631 450.518C554.745 450.747 554.745 450.975 554.86 451.204C554.974 451.776 554.974 452.348 554.974 452.92C554.974 454.178 554.745 455.437 554.516 456.695C554.516 456.81 554.402 457.038 554.402 457.152C554.402 457.267 554.287 457.496 554.287 457.61L554.402 458.639L554.745 460.927C554.859 460.812 554.974 460.698 555.089 460.584C555.546 460.126 556.004 459.669 556.348 459.211L557.035 458.296C557.149 458.182 557.149 457.953 557.149 457.724C557.149 457.495 557.264 457.381 557.264 457.152C557.607 455.78 557.836 454.293 557.836 452.806C557.836 452.005 557.836 451.205 557.607 450.404C557.493 449.947 557.378 449.603 557.264 449.145C557.149 448.688 556.806 448.345 556.577 448.002C555.775 446.743 554.86 445.599 553.715 444.57C551.539 442.511 548.792 440.91 545.586 440.682C544.785 440.682 543.983 440.681 543.182 440.796C542.838 440.91 542.381 440.91 542.037 441.025C541.694 441.139 541.35 441.482 541.007 441.596C539.747 442.512 538.717 443.77 538.145 445.028C539.518 444.799 540.778 444.456 542.037 444.227Z" fill="#F45F63"/>
</svg>
