<svg width="1116" height="844" viewBox="0 0 1116 844" fill="none" xmlns="http://www.w3.org/2000/svg">
<path d="M798.979 62.0267L811.448 57.7096L814.805 67.4617C818.642 66.0228 821.839 63.3048 823.757 59.4677C824.237 58.5084 825.516 58.0294 826.475 58.509C827.434 58.9887 827.913 60.268 827.434 61.2273C825.036 65.8639 821.199 69.3815 816.244 71.1402L821.199 85.3686C828.393 87.9267 836.386 88.2474 844.219 85.5294C862.443 79.2941 872.195 59.3078 865.96 41.0815L864.042 35.3264C864.682 35.6462 865.321 35.9666 865.96 35.9666C869.477 35.9666 872.195 31.33 872.195 25.5743C872.195 19.8187 869.477 15.1821 865.96 15.1821C864.042 15.1821 862.124 16.7809 861.005 19.1791C860.365 20.4582 858.607 20.4582 857.967 19.1791C850.134 3.83063 832.23 -3.84487 815.444 1.91082C797.22 8.14615 787.469 28.1324 793.704 46.3588L798.979 62.0267Z" fill="#1E2B3C"/>
<path d="M827.437 61.2272C827.917 60.2679 827.598 58.9886 826.479 58.5089C825.52 58.0293 824.241 58.3484 823.761 59.4676C821.843 63.1448 818.805 66.0227 814.809 67.4616L816.088 71.2994C821.044 69.5407 825.04 66.0236 827.437 61.2272Z" fill="#E5AA20"/>
<path d="M958.359 678.524C959.798 682.041 961.077 685.399 962.356 688.916C965.073 695.791 967.471 702.826 969.55 710.02L970.988 715.457L972.267 720.892L972.906 723.61L973.386 726.329L974.345 731.924C973.866 724.41 973.066 716.896 971.627 709.541C970.189 702.187 968.43 694.673 966.192 687.478C961.237 673.249 954.682 659.498 947.808 646.228C940.934 632.798 933.58 619.847 927.346 606.257C924.308 599.543 921.432 592.668 919.193 585.473C916.955 578.438 915.356 571.244 914.557 563.889C913.758 556.535 913.758 549.181 914.557 541.826C915.356 534.472 916.955 527.277 919.193 520.242C923.829 506.013 928.785 491.943 935.02 478.353C936.618 474.996 938.057 471.639 939.975 468.281L942.532 463.325L945.41 458.529C949.247 452.134 953.563 446.219 958.359 440.463C962.835 434.547 967.631 428.631 971.787 422.395C972.906 420.796 973.865 419.198 974.825 417.599C975.304 416.799 975.784 416 976.263 415.201L977.543 412.643C979.301 409.286 980.74 405.768 982.338 402.41C978.821 408.965 974.665 415.361 970.029 421.116C965.393 426.872 960.118 432.308 955.162 437.904C950.366 443.66 945.89 449.896 941.893 456.451L939.016 461.407L936.298 466.362C934.38 469.72 932.941 473.078 931.342 476.595C924.948 490.345 919.992 504.574 915.356 518.963C913.118 526.318 911.52 533.672 910.56 541.347C909.761 549.021 909.761 556.695 910.56 564.209C911.36 571.884 913.118 579.238 915.356 586.593C917.594 593.787 920.472 600.822 923.669 607.697C929.904 621.447 937.417 634.556 944.131 647.826C947.009 653.422 949.727 659.019 952.444 664.775C952.924 665.894 953.563 666.853 954.043 667.972C955.481 671.649 956.921 675.166 958.359 678.524Z" fill="#EDCFC5"/>
<path d="M909.126 823.538C910.245 818.102 912.484 812.986 915.841 808.669C919.198 804.352 923.833 801.155 928.949 799.076L937.102 795.718C938.541 795.238 939.819 794.44 941.098 793.801L945.095 791.721C950.21 788.683 955.326 785.486 959.642 781.329C963.959 777.172 967.955 772.536 970.673 767.1C973.55 761.664 975.308 755.909 976.108 749.834C976.427 743.758 975.629 737.842 974.35 732.086C974.19 738.002 973.55 743.758 972.271 749.193C971.951 751.592 971.312 753.99 970.673 756.388C969.713 759.426 968.595 762.304 967.156 765.181C961.881 775.094 953.088 782.769 943.177 788.205L939.34 790.122C938.061 790.762 936.782 791.402 935.503 791.882L927.51 795.239C921.915 797.637 916.64 801.154 912.804 806.11C908.967 810.907 906.409 816.663 905.13 822.738C904.49 828.814 904.97 834.889 906.728 840.484C906.569 834.569 907.368 828.814 909.126 823.538Z" fill="#EDCFC5"/>
<path d="M250.504 38.845C251.144 38.845 251.943 38.6845 252.423 38.2049L250.504 43.9615C244.27 62.1878 254.021 82.1726 272.245 88.4079C280.078 91.1258 288.071 90.8052 295.265 88.2471L300.221 74.0187C295.265 72.26 291.269 68.7423 289.031 64.1058C288.551 63.1465 288.871 61.8671 289.99 61.3875C290.949 60.9079 292.228 61.2286 292.707 62.3477C294.625 66.025 297.663 68.9028 301.659 70.3417L305.017 60.5881L317.486 64.9052L322.761 49.3965C328.996 31.1701 319.244 11.1854 301.02 4.95008C284.395 -0.805606 266.33 6.86833 258.497 22.2168C257.858 23.4959 256.099 23.4959 255.46 22.2168C254.341 19.8186 252.582 18.2198 250.504 18.2198C246.987 18.2198 244.27 22.8564 244.27 28.612C244.27 34.2079 247.147 38.845 250.504 38.845Z" fill="#1E2B3C"/>
<path d="M292.701 62.186C292.221 61.2267 290.943 60.7477 289.983 61.2273C289.024 61.707 288.544 62.9863 289.024 63.9456C291.422 68.5821 295.259 72.0983 300.214 73.8569L301.493 70.0208C297.656 68.7417 294.459 66.0231 292.701 62.186Z" fill="#E5AA20"/>
<path d="M84.5651 572.365L26.3757 829.291L27.3351 842.242L132.523 842.721L131.244 830.41L136.36 800.194L138.918 785.165C139.717 780.208 140.516 775.091 141.635 770.135L143.713 759.424C141.316 750.791 141.316 742.156 142.115 734.962C144.992 708.901 152.826 686.997 162.097 667.012L177.124 591.709C155.703 580.358 136.04 566.449 117.496 551.26C98.6326 535.592 81.2078 518.005 65.8612 498.82L60.1064 491.625C59.1473 490.506 58.1882 489.226 57.3889 487.947L54.831 484.11L49.5555 476.596C49.0759 475.956 48.5962 475.316 48.2765 474.677L47.1576 472.758L44.7597 468.761C38.2054 458.369 32.4506 447.658 26.5357 436.946C23.6583 431.51 20.9406 426.073 18.5427 420.318C15.985 414.722 13.747 408.966 11.8287 403.051C9.91035 397.135 8.4713 391.219 7.51213 385.144C6.55297 379.068 6.23341 372.993 6.07355 366.758C6.87285 378.909 9.43046 390.9 13.9065 402.251C18.2228 413.603 24.2976 424.156 30.0526 434.868C32.9301 440.304 35.9674 445.58 38.8449 450.856C41.7224 456.292 44.9197 461.407 48.1169 466.524L50.5148 470.36L51.6337 472.279C52.1133 472.918 52.4331 473.558 52.9127 474.198L58.0282 481.712L60.5861 485.389C61.3854 486.668 62.3445 487.947 63.3036 489.066L68.8987 496.261C84.0855 515.286 101.19 532.554 119.894 548.062C138.598 563.411 158.74 577.639 180.161 588.671L181.6 589.311L181.281 590.751L157.461 710.661L145.632 770.616C144.673 775.572 143.394 780.528 142.275 785.485L138.918 800.353L132.044 830.09L132.523 843.042L308.53 844C308.53 844 315.084 811.065 285.35 799.874C242.028 783.726 238.99 755.107 241.068 735.602C250.98 643.671 304.693 604.499 278.956 523.12C252.579 439.503 187.195 431.03 167.533 383.706C163.696 374.433 161.778 364.839 161.618 355.087C162.257 344.535 165.135 331.903 169.451 318.474C173.927 336.7 179.522 354.606 187.035 371.234C215.81 436.145 294.621 455.012 337.624 460.608C337.624 460.608 372.953 465.085 380.626 468.122C388.299 471.16 414.197 479.313 419.633 479.953C425.228 480.592 434.499 478.514 439.135 476.755C443.771 474.996 448.087 469.401 453.523 465.084C458.958 460.767 457.2 462.846 465.832 461.407C474.465 459.968 483.576 451.974 487.733 446.378C488.692 445.259 489.332 444.14 489.811 443.341C490.291 443.181 490.45 443.021 490.45 443.021C490.45 443.021 493.967 435.987 494.926 428.472H477.982C477.662 429.432 477.342 430.39 476.702 431.189V431.35C475.583 432.629 474.305 433.748 472.866 434.868C471.587 435.827 470.148 436.785 468.549 437.584C467.111 438.384 465.512 438.864 463.913 439.344C462.315 439.824 460.556 439.823 458.958 439.823C457.359 440.623 455.601 441.262 453.843 441.581C452.244 441.421 450.485 441.262 448.887 440.943C446.649 440.623 444.41 440.303 442.332 439.823C443.451 440.942 444.73 441.901 445.69 443.18C443.931 443.34 442.173 443.34 440.414 443.18C438.816 442.541 437.376 441.902 435.778 441.263C434.979 440.943 434.179 440.462 433.38 439.983C433.22 439.823 432.901 439.663 432.741 439.503C432.581 439.343 432.421 439.344 432.261 439.024C432.102 438.864 432.101 438.864 431.941 438.545C431.782 438.225 431.782 438.225 431.622 437.745C431.622 437.265 431.622 436.946 431.941 436.466C432.261 435.987 432.421 435.827 432.581 435.667C432.9 435.507 432.901 435.507 433.061 435.347C433.221 435.347 433.38 435.186 433.38 435.186C433.86 435.026 434.02 435.027 434.339 435.027C436.417 434.867 438.016 435.186 439.774 435.506C443.131 435.986 446.169 436.625 449.366 437.105C450.965 437.265 452.563 437.584 454.162 437.584C455.76 438.384 457.199 439.024 458.958 439.823C460.556 439.663 462.155 439.343 463.753 438.704C465.192 438.064 466.631 437.426 468.07 436.466C469.349 435.667 470.627 434.547 471.746 433.428C472.865 432.309 473.985 431.189 474.784 429.91C475.744 428.152 475.743 426.073 474.624 424.794C473.505 423.355 471.747 422.556 469.829 422.236C467.75 421.917 465.832 421.916 463.274 421.916C460.876 421.916 458.478 421.756 456.08 421.596C451.285 421.117 446.489 420.157 441.853 418.399C440.734 417.919 439.615 417.439 438.336 416.8C437.377 416.16 436.418 415.682 435.459 415.362C433.54 414.562 431.462 414.083 429.224 413.763C424.908 413.283 420.272 413.763 415.636 414.083C411 414.563 406.524 415.361 401.888 416.321C392.776 418.239 383.664 420.478 374.552 422.877L373.592 423.036L372.793 422.556L317.162 383.225L289.346 363.56L275.918 353.009L269.204 347.733L262.649 342.296V143.245C264.248 134.132 263.609 125.498 259.452 118.623C240.749 87.1268 222.365 74.9768 175.686 78.8139C122.452 83.2906 58.0281 191.53 45.559 213.113C29.2532 239.334 16.4643 270.19 9.91004 305.524C9.11074 309.041 8.31159 312.558 7.67215 316.075L7.51213 315.916C-29.8952 477.235 84.5651 572.365 84.5651 572.365Z" fill="#1E2B3C"/>
<path d="M132.048 830.411L138.922 800.674L142.279 785.805C143.398 780.849 144.677 775.891 145.636 770.935L157.466 710.98L181.285 591.07L181.605 589.632L180.166 588.992C158.745 577.8 138.762 563.731 119.899 548.383C101.195 532.875 83.9302 515.607 68.9033 496.581L63.3082 489.387C62.349 488.267 61.5498 486.989 60.5907 485.71L58.0327 482.033L52.9173 474.518C52.4377 473.878 52.1179 473.239 51.6383 472.599L50.5194 470.68L48.1215 466.844C44.9243 461.568 41.727 456.451 38.8495 451.175C35.8122 445.898 32.9347 440.463 30.0572 435.186C24.1423 424.475 18.0675 413.923 13.9111 402.572C9.43504 391.22 6.87743 379.229 6.07812 367.078C6.07812 373.154 6.55755 379.389 7.51671 385.464C8.47587 391.54 10.0748 397.456 11.8333 403.371C13.7516 409.287 15.9895 415.042 18.5473 420.638C21.1051 426.234 23.6628 431.83 26.5403 437.266C32.615 447.978 38.3698 458.689 44.7643 469.081L47.1622 473.078L48.2811 474.997C48.7607 475.637 49.0805 476.277 49.5601 476.916L54.8355 484.431L57.3935 488.267C58.1928 489.546 59.1518 490.825 60.111 491.944L65.8657 499.139C81.2123 518.324 98.6372 535.912 117.501 551.581C136.045 566.769 155.707 580.678 177.129 592.03L162.102 667.333L153.469 710.501L143.718 759.584L141.64 770.296C140.681 775.253 139.881 780.368 138.922 785.324L136.364 800.354L131.249 830.572L132.528 842.881V843.521L132.048 830.411Z" fill="#EDCFC5"/>
<path d="M401.086 412.483C405.722 411.524 410.358 410.565 415.154 410.085C419.95 409.605 424.586 409.125 429.701 409.765C432.259 410.085 434.657 410.565 437.055 411.684C438.174 412.164 439.293 412.803 440.412 413.283C441.371 413.762 442.33 414.241 443.289 414.721C447.446 416.319 451.922 417.278 456.398 417.598C458.636 417.758 460.874 417.918 463.272 417.918C465.35 417.918 468.228 417.439 470.786 418.238C472.064 418.558 473.343 419.197 474.462 419.996C475.581 420.796 476.7 421.755 477.339 423.194C478.139 424.473 478.458 426.072 478.299 427.511C478.299 427.991 478.139 428.31 477.979 428.79H494.924H626.009H642.955C642.795 428.47 642.795 427.991 642.635 427.511C642.476 426.072 642.795 424.473 643.594 423.194C644.393 421.915 645.353 420.796 646.472 419.996C647.591 419.197 648.87 418.718 650.148 418.238C652.706 417.439 655.584 417.918 657.662 417.918C659.9 417.918 662.138 417.758 664.536 417.598C669.012 417.119 673.648 416.319 677.645 414.721C678.604 414.401 679.723 413.922 680.522 413.283C681.481 412.643 682.76 412.164 683.879 411.684C686.277 410.725 688.675 410.085 691.233 409.765C696.189 409.285 700.984 409.765 705.78 410.085C710.576 410.565 715.212 411.524 719.848 412.483C728.8 414.402 737.592 416.64 746.545 418.878L747.344 418.398V29.25H363.039V411.044L374.07 418.878C383.342 416.48 392.134 414.242 401.086 412.483Z" fill="#F45F63"/>
<path d="M845.341 353.008L831.913 363.56L804.097 383.225L748.465 422.556L747.666 423.036L746.707 422.876C737.595 420.478 728.483 418.239 719.371 416.32C714.735 415.361 710.259 414.403 705.623 414.083C700.987 413.603 696.351 413.283 692.035 413.763C689.797 414.083 687.719 414.562 685.8 415.362C684.841 415.841 683.882 416.32 682.922 416.8C681.803 417.439 680.685 417.919 679.406 418.398C674.77 420.157 669.974 421.116 665.178 421.596C662.78 421.916 660.382 421.916 657.984 421.916C655.426 421.756 653.509 421.757 651.43 422.236C649.512 422.556 647.594 423.355 646.635 424.794C645.516 426.233 645.515 428.152 646.475 429.91C647.274 431.029 648.393 432.309 649.512 433.428C650.631 434.547 651.909 435.507 653.188 436.466C654.467 437.426 655.906 438.064 657.505 438.704C658.944 439.343 660.542 439.663 662.301 439.823C663.899 439.024 665.498 438.384 667.096 437.584C668.695 437.424 670.294 437.265 671.892 437.105C675.089 436.625 678.287 435.986 681.484 435.506C683.242 435.186 684.841 435.027 686.919 435.027C687.239 435.027 687.559 435.026 687.878 435.186L688.198 435.347C688.358 435.507 688.358 435.507 688.678 435.667C688.837 435.827 689.157 435.987 689.317 436.466C689.477 436.946 689.637 437.265 689.637 437.745C689.637 438.225 689.477 438.384 689.317 438.544C689.157 438.864 689.157 438.864 688.998 439.024C688.838 439.343 688.677 439.343 688.518 439.503C688.198 439.663 688.038 439.822 687.878 439.982C687.079 440.462 686.28 440.943 685.48 441.263C683.882 442.062 682.443 442.54 680.845 443.18C679.086 443.18 677.327 443.34 675.569 443.18C676.688 441.901 677.807 440.942 678.926 439.823C676.688 440.143 674.61 440.623 672.371 440.943C670.773 441.262 669.015 441.421 667.416 441.581C665.658 441.102 663.899 440.622 662.301 439.823C660.702 439.823 658.943 439.823 657.345 439.344C655.746 439.024 654.148 438.384 652.709 437.584C651.27 436.785 649.831 435.987 648.392 434.867C647.114 433.908 645.835 432.789 644.556 431.35V431.189C644.076 430.39 643.597 429.591 643.277 428.472H626.332C627.291 436.146 630.808 443.021 630.808 443.021C630.808 443.021 631.128 443.181 631.448 443.341C631.927 444.3 632.567 445.258 633.526 446.378C637.842 451.973 646.954 459.968 655.427 461.407C664.059 462.846 662.3 460.767 667.736 465.084C673.171 469.401 677.487 474.996 682.123 476.755C686.759 478.513 696.191 480.592 701.626 479.952C707.222 479.313 732.959 471.32 740.632 468.122C748.305 465.084 783.634 460.608 783.634 460.608C800.26 457.57 816.726 453.733 832.712 448.137C848.698 443.181 864.364 436.785 878.751 428.311C893.139 419.838 906.248 409.125 916.639 396.015C921.914 389.46 926.39 382.426 930.067 375.072C930.866 373.153 931.985 371.394 932.625 369.476L935.023 363.56C936.621 359.723 938.22 355.726 939.658 351.889L943.655 339.898C944.294 337.819 945.094 335.901 945.573 333.823L947.172 327.748C948.291 323.751 949.41 319.593 950.369 315.596L953.086 303.285C953.566 301.206 954.046 299.129 954.366 297.05L955.484 290.814C956.124 286.657 956.924 282.501 957.563 278.344C958.682 270.03 959.961 261.716 960.6 253.243C961.559 244.929 962.039 236.455 962.678 227.982C963.158 219.508 963.478 211.195 963.637 202.721C964.597 185.934 965.076 168.986 964.757 152.039C965.236 156.196 965.556 160.513 966.035 164.67C966.355 168.827 966.675 173.143 966.835 177.299C966.994 181.616 967.314 185.773 967.314 190.09C967.474 194.407 967.634 198.563 967.634 202.88C967.474 211.354 966.994 219.828 966.675 228.302C966.035 236.775 965.556 245.248 964.597 253.722C963.797 262.195 962.518 270.511 961.399 278.984C960.76 283.141 959.96 287.297 959.321 291.614L958.202 297.85C957.883 299.928 957.402 302.006 956.923 304.084L954.206 316.556C953.247 320.713 952.128 324.709 951.009 328.866L950.689 329.985C952.767 338.139 954.045 345.814 954.525 352.529C954.365 362.442 952.447 371.874 948.611 381.147C928.948 428.471 863.724 436.945 837.188 520.563C811.45 601.942 865.164 641.113 875.075 733.044C877.153 752.709 874.115 781.167 830.793 797.315C800.899 808.506 807.614 841.443 807.614 841.443L983.62 840.482V839.844L1088.81 839.365L1089.77 826.413L1031.58 569.485C1031.58 569.485 1146.04 474.517 1108.15 313.198L1107.99 313.358C1107.35 309.841 1106.55 306.323 1105.75 302.805C1099.2 267.312 1086.41 236.615 1070.1 210.395C1057.8 188.811 993.372 80.5721 939.978 76.0955C893.299 72.2584 869.16 83.929 860.207 119.422C858.289 126.777 857.81 134.132 858.13 141.167V342.455L851.575 347.892L845.341 353.008ZM905.128 822.736C906.407 816.821 908.806 810.905 912.802 806.108C916.639 801.312 921.914 797.635 927.509 795.237L935.502 791.88C936.781 791.4 938.059 790.76 939.338 790.12L943.176 788.203C953.087 782.607 962.039 775.092 967.155 765.179C968.593 762.461 969.712 759.424 970.671 756.386L952.447 665.095C949.73 659.499 947.012 653.743 944.134 648.147C937.26 634.877 929.907 621.767 923.672 608.017C920.475 601.143 917.597 594.108 915.359 586.913C913.121 579.718 911.523 572.204 910.563 564.53C909.764 556.855 909.604 549.182 910.563 541.667C911.523 534.153 913.121 526.638 915.359 519.284C919.995 504.895 924.951 490.665 931.345 476.916C932.944 473.558 934.543 470.04 936.301 466.683L939.019 461.727L941.896 456.77C945.893 450.375 950.209 443.98 955.165 438.224C960.121 432.628 965.396 427.193 970.032 421.437C974.668 415.681 978.665 409.286 982.341 402.731C980.743 406.088 979.464 409.606 977.546 412.964L976.266 415.521C975.787 416.32 975.307 417.12 974.828 417.919C973.868 419.518 972.909 421.117 971.79 422.716C967.634 428.951 962.838 434.866 958.362 440.782C953.566 446.537 949.25 452.614 945.413 458.849L942.535 463.646L939.978 468.602C938.22 471.799 936.621 475.316 935.023 478.674C928.788 492.263 923.832 506.333 919.197 520.563C916.958 527.597 915.519 534.792 914.56 542.146C913.761 549.501 913.761 556.855 914.56 564.21C915.359 571.564 916.958 578.759 919.197 585.793C921.435 592.828 924.152 599.703 927.349 606.578C933.583 620.168 940.937 633.118 947.811 646.548C954.685 659.818 961.24 673.567 966.195 687.797C968.433 694.991 970.192 702.347 971.63 709.862C973.069 717.216 973.869 724.73 974.348 732.245C975.787 738 976.426 743.915 976.106 749.991C975.307 755.906 973.389 761.822 970.671 767.258C967.953 772.693 963.957 777.331 959.641 781.488C955.325 785.644 950.209 789.002 945.093 791.88L941.097 793.958C939.818 794.597 938.539 795.397 937.1 795.877L928.947 799.234C923.832 801.312 919.196 804.67 915.839 808.826C912.482 813.143 910.084 818.259 909.125 823.695C907.526 828.971 906.727 834.728 906.887 840.643C904.969 834.888 904.489 828.812 905.128 822.736Z" fill="#1E2B3C"/>
<path d="M954.524 316.717L957.242 304.246C957.721 302.168 958.2 300.089 958.52 298.01L959.639 291.776C960.279 287.619 961.078 283.462 961.717 279.145C962.836 270.671 964.115 262.358 964.915 253.884C965.874 245.41 966.354 236.936 966.993 228.462C967.473 219.989 967.953 211.516 967.953 203.042C967.953 198.726 967.792 194.569 967.633 190.252C967.473 185.935 967.313 181.778 967.153 177.462C966.993 173.305 966.674 168.987 966.354 164.83C966.034 160.673 965.554 156.356 965.075 152.199C965.394 169.147 964.915 186.094 963.956 202.882C963.796 211.355 963.316 219.669 962.997 228.142C962.357 236.616 961.877 244.931 960.918 253.405C960.119 261.878 958.84 270.191 957.881 278.505C957.241 282.661 956.442 286.82 955.803 290.977L954.684 297.211C954.364 299.289 953.885 301.368 953.405 303.447L950.687 315.758C949.728 319.915 948.609 323.911 947.49 327.908L945.891 333.983C945.412 336.062 944.613 337.98 943.973 340.059L939.977 352.05C938.538 356.047 936.939 359.885 935.34 363.722L932.943 369.636C932.143 371.555 931.185 373.473 930.385 375.232C926.709 382.747 922.072 389.782 916.956 396.177C906.566 409.128 893.457 419.84 879.07 428.474C864.683 436.947 849.016 443.501 833.03 448.298C817.204 453.894 800.738 457.73 783.953 460.768C788.109 460.448 792.426 459.969 796.582 459.489C800.738 458.85 805.054 458.37 809.211 457.57C817.523 456.132 825.996 454.374 834.149 452.135C850.455 447.019 866.281 440.624 881.148 431.83C895.855 423.197 909.443 412.165 920.154 398.735C925.589 392.02 930.225 384.826 934.062 376.992C935.021 375.073 935.98 373.154 936.78 371.076L939.178 365.16C940.776 361.163 942.375 357.327 943.813 353.33L947.81 341.178C948.449 339.1 949.248 337.181 949.728 335.103L951.007 330.147L951.326 329.028C952.445 324.871 953.564 320.874 954.524 316.717Z" fill="#EDCFC5"/>
<path d="M672.212 440.785C674.45 440.465 676.688 440.147 678.766 439.667C677.647 440.786 676.529 441.745 675.41 443.024C677.168 443.184 678.926 443.184 680.685 443.024C682.283 442.384 683.722 441.745 685.32 441.105C686.12 440.785 686.919 440.306 687.718 439.826C687.878 439.666 688.198 439.507 688.358 439.347C688.517 439.187 688.678 439.187 688.838 438.868C688.997 438.708 688.997 438.707 689.157 438.387C689.317 438.067 689.317 438.067 689.477 437.587C689.477 437.108 689.477 436.788 689.157 436.309C688.837 435.829 688.677 435.669 688.518 435.509C688.198 435.349 688.198 435.349 688.038 435.189C687.878 435.189 687.718 435.03 687.718 435.03C687.239 434.87 687.079 434.871 686.759 434.871C684.681 434.711 683.082 435.03 681.324 435.35C677.967 435.83 674.929 436.469 671.732 436.949C670.134 437.109 668.535 437.428 666.936 437.428C665.338 438.228 663.899 438.868 662.141 439.667C663.739 440.466 665.498 441.105 667.256 441.425C669.015 441.265 670.614 441.105 672.212 440.785Z" fill="#EDCFC5"/>
<path d="M720.326 412.485C715.69 411.526 711.055 410.567 706.259 410.087C701.463 409.607 696.827 409.127 691.712 409.767C689.154 410.087 686.756 410.567 684.358 411.686C683.239 412.165 682.12 412.805 681.001 413.285C680.042 413.764 679.083 414.243 678.123 414.723C673.967 416.321 669.491 417.28 665.015 417.6C662.777 417.76 660.539 417.92 658.141 417.92C656.063 417.92 653.186 417.441 650.628 418.24C649.349 418.56 648.07 419.199 646.951 419.998C645.832 420.798 644.713 421.757 644.073 423.196C643.274 424.475 642.954 426.074 643.114 427.513C643.114 427.993 643.274 428.312 643.434 428.792C643.754 429.751 644.073 430.711 644.713 431.51V431.671C645.832 432.95 647.111 434.068 648.549 435.187C649.828 436.146 651.267 437.106 652.866 437.905C654.305 438.705 655.903 439.185 657.502 439.665C659.1 440.144 660.859 440.144 662.457 440.144C660.859 439.984 659.26 439.664 657.662 439.025C656.223 438.385 654.784 437.745 653.345 436.786C652.066 435.986 650.788 434.868 649.669 433.749C648.55 432.63 647.431 431.51 646.631 430.231C645.672 428.473 645.672 426.394 646.791 425.115C647.91 423.676 649.668 422.877 651.586 422.557C653.665 422.238 655.583 422.237 658.141 422.237C660.539 422.237 662.937 422.077 665.335 421.917C670.13 421.438 674.926 420.478 679.562 418.72C680.681 418.24 681.8 417.76 683.079 417.121C684.038 416.481 684.997 416.003 685.956 415.683C687.875 414.883 689.954 414.404 692.192 414.084C696.508 413.604 701.144 414.083 705.78 414.402C710.416 414.882 714.891 415.682 719.527 416.641C728.639 418.56 737.751 420.798 746.863 423.196L747.823 423.357L748.622 422.877L804.253 383.546L832.069 363.881L845.498 353.329L852.211 348.052L858.766 342.617L851.412 347.094L844.218 351.57L829.831 360.683L802.015 380.348L747.823 418.56L747.023 419.04C738.231 416.482 729.279 414.244 720.326 412.485Z" fill="#EDCFC5"/>
<path d="M454.482 437.425C452.883 437.265 451.285 437.105 449.686 436.945C446.489 436.466 443.292 435.826 440.094 435.347C438.336 435.027 436.738 434.867 434.659 434.867C434.34 434.867 434.02 434.867 433.7 435.026L433.38 435.186C433.22 435.346 433.22 435.346 432.901 435.506C432.741 435.666 432.421 435.826 432.261 436.305C432.102 436.785 431.941 437.104 431.941 437.584C431.941 438.064 432.102 438.223 432.261 438.383C432.421 438.703 432.421 438.704 432.581 438.864C432.741 439.184 432.901 439.184 433.061 439.344C433.38 439.503 433.54 439.663 433.7 439.823C434.499 440.302 435.299 440.782 436.098 441.102C437.697 441.901 439.135 442.381 440.734 443.02C442.492 443.02 444.251 443.18 446.01 443.02C444.891 441.741 443.771 440.783 442.652 439.664C444.89 439.983 446.969 440.462 449.207 440.782C450.805 441.101 452.563 441.262 454.162 441.422C455.92 440.942 457.679 440.463 459.278 439.664C457.679 438.704 456.08 438.224 454.482 437.425Z" fill="#EDCFC5"/>
<path d="M276.234 353.009L289.662 363.56L317.478 383.225L373.109 422.557L373.909 423.036L374.868 422.877C383.98 420.479 393.091 418.239 402.204 416.321C406.839 415.362 411.316 414.403 415.952 414.083C420.588 413.604 425.224 413.284 429.54 413.763C431.778 414.083 433.856 414.563 435.774 415.362C436.733 415.842 437.693 416.321 438.652 416.8C439.771 417.44 440.89 417.919 442.169 418.399C446.805 420.158 451.601 421.117 456.397 421.597C458.795 421.916 461.193 421.917 463.59 421.917C466.148 421.757 468.066 421.757 470.144 422.237C472.062 422.557 473.981 423.355 474.94 424.794C476.059 426.233 476.059 428.152 475.1 429.911C474.301 431.03 473.182 432.309 472.063 433.428C470.944 434.548 469.665 435.507 468.386 436.467C467.107 437.426 465.668 438.065 464.07 438.704C462.631 439.344 461.032 439.664 459.274 439.824C460.873 439.824 462.631 439.824 464.23 439.344C465.828 439.024 467.427 438.384 468.866 437.585C470.304 436.785 471.743 435.987 473.182 434.868C474.461 433.909 475.74 432.789 477.019 431.35V431.189C477.498 430.39 477.977 429.592 478.297 428.473C478.457 428.153 478.457 427.672 478.617 427.192C478.777 425.754 478.457 424.156 477.658 422.877C476.859 421.598 475.9 420.479 474.781 419.679C473.662 418.88 472.382 418.399 471.103 417.92C468.546 417.12 465.669 417.6 463.59 417.6C461.352 417.6 459.114 417.441 456.716 417.281C452.24 416.801 447.604 416.001 443.608 414.402C442.649 414.082 441.529 413.604 440.73 412.964C439.771 412.324 438.492 411.845 437.373 411.365C434.975 410.406 432.578 409.766 430.02 409.446C425.064 408.967 420.268 409.447 415.472 409.766C410.677 410.246 406.04 411.205 401.404 412.165C392.452 414.083 383.66 416.322 374.708 418.56L363.678 410.725L319.875 379.709L292.06 360.043L277.672 350.931L270.479 346.453L263.125 341.977L269.679 347.413L276.234 353.009Z" fill="#EDCFC5"/>
</svg>
