<svg width="1195" height="844" viewBox="0 0 1195 844" fill="none" xmlns="http://www.w3.org/2000/svg">
<path d="M170.289 227.726V105.887C137.069 108.453 108.304 127.23 91.9642 154.245C85.7522 152.489 79.2703 151.544 72.5181 151.544C32.4103 151.544 1.68756e-09 184.096 1.68756e-09 224.079C1.68756e-09 225.295 -0.000197819 226.511 0.134845 227.726H170.289Z" fill="#1E98F5"/>
<path d="M170.288 678.611H126.129V690.904C126.129 697.928 140.714 703.601 138.823 703.601H370.962C372.853 717.108 375.554 729.401 379.605 738.991C395.27 776.137 421.468 801.667 461.846 808.826C502.224 815.985 561.913 800.856 579.469 784.647C586.896 777.758 590.948 761.954 593.379 744.664C593.784 748.987 594.459 752.904 595.269 756.551C599.59 774.111 644.695 807.475 695.876 806.8C747.058 806.124 773.526 796.129 792.162 755.471C799.589 739.396 800.4 721.161 798.644 703.736H1093.98C1109.92 703.736 1115.59 698.063 1115.59 691.039V678.747H1080.34V219.216H1057.79V341.595L855.632 413.861L882.505 488.964H1057.79V678.611H794.458C793.377 674.019 792.297 669.562 791.351 665.374C793.107 665.509 794.998 665.374 796.483 664.294C796.213 664.429 795.943 664.429 795.673 664.564C794.323 664.969 792.972 665.104 791.622 665.104C790.271 665.104 788.921 664.969 787.57 664.699C786.22 664.429 784.87 664.158 783.519 663.753H783.384L783.249 663.618L771.635 650.381C761.372 650.921 751.244 651.056 741.116 650.786C730.717 650.651 720.184 650.111 709.785 649.03C704.519 648.49 699.387 647.949 694.12 647.139C688.989 646.328 683.722 645.383 678.59 644.303C673.459 643.087 668.327 641.736 663.331 639.98C658.334 638.224 653.472 635.928 648.881 633.226C639.698 628.093 630.92 622.285 622.547 616.207C620.792 614.856 618.901 613.505 617.146 612.155C616.065 617.153 614.715 622.015 613.229 626.877C611.609 632.145 609.718 637.278 607.693 642.411C606.612 644.978 605.667 647.545 604.317 649.976C602.966 652.408 601.751 654.838 600.265 657.27C599.59 658.485 598.915 659.702 598.105 660.782C597.835 664.429 597.565 668.346 597.16 672.533C597.16 669.426 597.295 665.914 597.295 661.997C595.404 665.104 593.243 668.076 591.083 671.048C584.33 679.828 576.228 687.932 566.1 693.065C565.424 693.335 564.884 693.741 564.209 694.011L562.183 694.821C561.508 695.091 560.833 695.362 560.158 695.632L558.132 696.171L556.107 696.712L554.081 697.117C552.73 697.387 551.38 697.657 549.894 697.793C544.358 698.468 538.821 698.469 533.284 698.333C522.211 697.793 511.272 696.307 500.468 694.281C489.665 692.255 478.997 689.823 468.328 686.986C447.262 681.448 426.6 674.83 406.073 667.4C402.967 668.481 399.861 669.156 396.62 669.831C393.244 670.507 389.868 671.183 386.492 671.723C383.116 672.128 379.605 672.533 376.229 672.533C373.528 672.533 370.962 672.399 368.261 671.993C368.396 674.29 368.531 676.586 368.666 678.882H192.975V489.235H363.94L276.567 244.746L192.975 274.597V76.4395H1057.93V110.345C1063.19 108.453 1068.87 107.373 1074.81 107.373C1076.7 107.373 1078.72 107.508 1080.61 107.643V42.3999C1080.61 36.7266 1076.02 32 1070.22 32H180.821C175.15 32 170.558 36.5916 170.558 42.3999V106.022V227.861V678.611H170.288ZM625.383 49.4241C629.84 49.4241 633.351 53.0717 633.351 57.3942C633.351 61.7166 629.705 65.3629 625.383 65.3629C620.927 65.3629 617.416 61.7166 617.416 57.3942C617.416 53.0717 620.927 49.4241 625.383 49.4241Z" fill="#1E2B3C"/>
<path d="M625.385 65.4974C629.786 65.4974 633.353 61.9288 633.353 57.5273C633.353 53.1259 629.786 49.5586 625.385 49.5586C620.985 49.5586 617.418 53.1259 617.418 57.5273C617.418 61.9288 620.985 65.4974 625.385 65.4974Z" fill="white"/>
<path d="M590.409 427.637C590.679 427.772 590.949 427.907 591.084 428.042C592.164 428.718 593.38 429.529 594.73 430.609C595 430.744 595.271 430.88 595.406 431.15C604.048 437.229 611.746 445.468 618.903 454.248C619.038 454.113 619.308 453.842 619.443 453.707C619.173 453.437 619.038 453.033 618.768 452.762C619.038 453.033 619.308 453.302 619.578 453.572C626.6 447.224 634.028 442.36 641.86 439.524C672.785 428.312 712.083 429.798 738.956 443.576C752.866 450.735 765.695 468.971 774.878 489.097H802.156C819.982 458.3 830.11 422.64 830.11 384.549C830.11 268.923 736.39 175.18 620.793 175.18C505.197 175.18 411.477 268.923 411.477 384.549C411.477 407.377 415.123 429.393 421.875 449.925C465.359 407.511 538.147 394.814 590.409 427.637ZM614.312 349.698C627.951 340.377 645.911 342.675 656.985 354.156C657.39 353.481 657.93 352.94 658.47 352.535C661.306 350.914 665.763 353.616 668.463 358.343C671.029 363.071 670.895 368.069 668.194 369.69L670.355 372.931C680.753 388.195 676.702 408.862 661.577 419.128C646.317 429.529 625.655 425.476 615.392 410.348L612.961 406.836C612.826 406.971 612.826 406.97 612.691 407.105C610.125 409.267 605.263 407.511 601.752 403.324C598.241 399.136 597.431 394.004 599.997 391.978C600.807 391.302 601.753 391.032 602.833 391.167C596.216 376.578 600.672 358.883 614.312 349.698ZM526.938 349.698L529.099 346.457C526.398 344.701 526.263 339.702 528.829 335.11C531.395 330.382 535.851 327.681 538.822 329.302C539.497 329.707 540.038 330.248 540.308 330.923C551.381 319.441 569.342 317.145 582.981 326.466C596.621 335.786 601.212 353.48 594.46 367.933C595.54 367.933 596.486 368.204 597.296 368.744C599.862 370.906 599.051 375.903 595.54 380.09C592.029 384.277 587.168 385.899 584.602 383.873C584.467 383.738 584.467 383.738 584.332 383.603L581.901 387.114C571.503 402.378 550.841 406.295 535.716 395.894C520.456 385.628 516.54 364.961 526.938 349.698Z" fill="#E5AA20"/>
<path d="M597.027 672.264C597.433 668.076 597.703 664.159 597.974 660.512C597.703 660.917 597.433 661.321 597.163 661.727C597.027 665.644 597.027 669.157 597.027 672.264Z" fill="#F45F63"/>
<path d="M365.967 671.318C359.214 669.967 358.945 661.322 357.594 656.459C356.244 651.596 358.945 646.734 357.594 641.196C356.244 635.658 355.838 632.01 356.514 627.282C357.189 622.419 365.832 612.018 365.832 612.018C365.832 612.018 358.81 607.021 356.109 601.483C355.028 599.727 354.758 597.431 355.298 595.27C355.839 593.244 357.189 591.081 359.35 590.136C360.43 589.73 361.781 589.596 362.861 589.867C363.941 590.137 364.886 590.406 365.967 590.811C367.722 591.351 369.343 592.027 371.099 592.703C374.475 557.988 379.606 520.571 394.596 488.828H363.941H192.977V678.476H368.668C368.532 676.18 368.398 673.884 368.263 671.588C367.452 671.723 366.642 671.453 365.967 671.318Z" fill="#F45F63"/>
<path d="M774.879 488.961C783.522 507.737 789.058 528.268 789.328 542.992C789.598 557.04 788.248 574.329 786.762 590.808C786.897 590.673 786.898 590.404 787.033 590.269C787.303 589.728 787.708 589.187 788.248 588.782C788.788 588.377 789.328 588.106 790.003 588.106C792.299 588.106 795.541 590.403 798.511 593.78C800.402 595.806 802.157 598.372 803.643 600.939C804.453 602.56 805.128 604.181 805.668 605.666C806.479 608.368 807.424 610.665 808.1 613.232C808.37 614.177 808.639 615.257 808.909 616.338C809.179 617.959 809.45 619.58 809.585 621.471C809.855 625.118 809.45 629.441 808.234 635.114C804.993 650.108 803.508 658.212 798.916 662.805C798.106 663.615 797.161 664.155 796.215 664.561C794.73 665.506 792.84 665.776 791.084 665.641C792.164 669.828 793.245 674.286 794.19 678.878H1057.52V489.231H882.238H801.888H774.879V488.961Z" fill="#F45F63"/>
<path d="M371.776 593.244L377.582 595.539L383.39 597.701C385.01 598.241 387.171 598.646 389.196 599.052C391.222 599.457 393.248 599.862 395.408 600.402C399.46 601.348 403.646 602.563 407.562 604.184C411.479 605.805 415.395 607.831 418.771 610.668C419.581 611.343 420.527 612.019 421.202 612.964C421.877 613.775 422.822 614.586 423.362 615.531L424.308 616.882C424.443 617.017 424.577 617.286 424.712 617.422H424.848C425.388 617.692 426.468 618.098 427.279 618.233C431.195 619.178 435.246 619.583 439.433 619.989C455.908 621.609 472.518 622.285 489.128 622.961C505.333 623.636 521.539 624.041 537.744 624.311C540.715 612.289 544.091 600.402 547.737 588.65C548.547 585.544 549.762 582.572 550.978 579.6C552.058 576.628 553.274 573.657 554.489 570.686C555.974 566.768 557.595 562.851 559.351 558.934C559.486 559.069 559.756 559.339 559.891 559.474C558.675 563.392 557.46 567.309 556.379 571.361C555.434 574.468 554.624 577.439 553.814 580.546C553.004 583.653 552.193 586.759 551.248 589.731C549.357 595.809 547.602 601.889 545.846 608.102C544.091 614.181 542.47 620.393 540.985 626.607L540.715 627.957H539.365C522.754 627.687 506.009 627.147 489.399 626.607C472.788 625.931 456.043 625.256 439.433 623.5C435.246 623.095 431.06 622.555 426.873 621.61C425.793 621.34 424.713 621.069 423.497 620.394C423.362 620.258 423.092 620.124 422.957 619.989C422.822 619.853 422.552 619.583 422.282 619.313L421.877 618.638L421.067 617.422C420.526 616.611 419.851 615.936 419.176 615.261C418.501 614.45 417.826 613.91 417.015 613.235C414.044 610.668 410.398 608.777 406.752 607.291C402.971 605.805 399.054 604.589 395.138 603.643C393.112 603.103 391.087 602.698 389.061 602.293L385.955 601.617C384.875 601.347 383.93 601.213 382.715 600.807C380.689 600.132 378.798 599.186 376.907 598.24L371.37 595.404C369.48 594.459 367.725 593.513 365.834 592.703C364.889 592.298 363.943 591.893 362.998 591.622C362.188 591.352 361.243 591.216 360.432 591.487C358.677 592.027 357.326 593.648 356.651 595.539C355.976 597.43 355.976 599.592 356.786 601.483C359.487 607.021 366.509 612.019 366.509 612.019C366.509 612.019 357.866 622.419 357.191 627.282C356.516 632.145 356.786 635.793 358.272 641.196C359.757 646.599 356.921 651.597 358.272 656.459C359.622 661.322 359.892 669.967 366.644 671.318C370.02 671.723 373.396 671.588 376.772 671.318C380.148 671.048 383.525 670.372 386.766 669.562C390.007 668.887 393.383 667.941 396.489 666.86C399.73 665.915 402.836 664.699 406.077 663.618L406.752 663.348L407.292 663.618C417.42 667.4 427.818 670.912 438.217 674.154C448.615 677.396 459.149 680.502 469.682 683.339C480.216 686.175 490.884 688.607 501.552 690.633C512.221 692.66 523.024 694.145 533.828 694.686C539.229 694.821 544.631 694.956 549.898 694.281C555.164 693.605 560.296 692.389 565.023 689.958C574.476 685.095 582.308 677.396 588.79 668.887C592.031 664.564 595.002 660.107 597.703 655.379C599.053 653.083 600.404 650.65 601.484 648.219C602.7 645.787 604.05 643.356 605.265 641.06C609.992 631.74 614.043 622.014 617.419 612.019C610.937 607.156 604.455 602.023 598.243 596.755C594.327 593.378 590.276 589.866 586.495 586.354C582.713 582.842 578.662 579.465 575.151 575.548C567.994 567.983 560.836 560.284 553.949 552.585C557.865 555.962 561.782 559.474 565.563 562.986C569.479 566.498 573.26 570.01 577.177 573.387C581.228 576.764 584.874 580.411 588.655 583.923C592.437 587.435 596.352 590.811 600.404 594.188C608.236 600.942 616.474 607.427 624.847 613.505C633.219 619.584 641.862 625.392 650.91 630.39C659.688 635.658 669.546 638.764 679.674 641.06C684.671 642.276 689.802 643.087 694.934 643.897C700.066 644.708 705.197 645.247 710.329 645.788C730.99 647.679 751.787 647.949 772.584 647.138H773.529L774.069 647.814L784.873 662.672C785.953 663.078 787.169 663.483 788.384 663.889C789.599 664.294 790.95 664.563 792.3 664.698C793.651 664.834 795.001 664.834 796.216 664.698C797.567 664.428 798.782 664.023 799.863 663.077C804.454 658.485 805.804 650.38 809.181 635.387C810.396 629.713 810.666 625.391 810.531 621.744C810.396 619.853 810.126 618.233 809.856 616.612C809.586 615.531 809.315 614.586 809.045 613.505C808.37 611.074 807.425 608.642 806.615 605.94C806.075 604.319 805.399 602.698 804.589 601.212C803.239 598.646 801.348 596.08 799.457 594.054C796.486 590.677 793.245 588.38 790.95 588.38C789.599 588.515 788.924 589.731 788.384 590.811C787.979 592.027 787.709 593.243 787.438 594.459C787.033 596.89 787.034 599.456 787.034 601.888V603.104L785.818 602.699L773.259 598.24C771.098 597.565 769.072 596.755 767.047 595.809L760.835 593.244L736.122 582.977L686.696 562.311L686.156 562.04L685.886 561.501C675.218 543.265 664.279 525.029 653.206 506.929C647.669 497.879 642.132 488.963 636.325 480.048C631.194 471.268 626.062 462.353 620.255 453.979C620.12 454.114 619.85 454.249 619.715 454.52C612.558 445.74 604.86 437.499 596.217 431.421C595.947 431.286 595.677 431.151 595.542 430.881C594.192 429.8 592.977 428.989 591.896 428.314C591.626 428.179 591.491 428.044 591.221 427.909C538.959 395.085 466.171 407.918 422.822 450.062C422.552 450.332 422.417 450.467 422.147 450.602C419.041 453.573 416.205 456.816 413.369 460.193C406.077 469.108 400.135 478.834 395.138 489.235C380.148 520.978 375.017 558.393 371.641 593.108C371.236 592.973 371.506 593.109 371.776 593.244Z" fill="#1E2B3C"/>
<path d="M738.96 443.442C711.951 429.664 672.789 428.178 641.864 439.389C634.032 442.226 626.604 447.089 619.582 453.438C622.823 457.085 625.929 461.002 628.9 464.92C632.141 469.107 635.247 473.429 638.353 477.752C644.025 486.667 649.697 495.717 655.233 504.767C666.172 522.732 676.975 540.697 687.644 558.932L736.53 579.328L761.242 589.595L767.454 592.161C769.48 592.971 771.641 593.917 773.531 594.862L784.47 600.131C784.74 597.97 785.01 595.943 785.55 593.782C785.82 592.701 786.225 591.756 786.63 590.81C787.98 574.196 789.466 557.042 789.196 542.994C788.926 528.27 783.389 507.739 774.747 488.963C765.699 468.836 752.87 450.601 738.96 443.442Z" fill="#1E2B3C"/>
<path d="M355.978 595.539C356.653 593.648 358.004 592.027 359.759 591.487C360.569 591.216 361.515 591.217 362.325 591.622C363.27 591.893 364.216 592.298 365.161 592.703C367.051 593.513 368.942 594.459 370.697 595.404L376.234 598.24C378.125 599.186 380.016 600.132 382.041 600.807C383.257 601.213 384.202 601.347 385.282 601.617L388.388 602.293C390.414 602.698 392.439 603.103 394.465 603.643C398.516 604.589 402.433 605.805 406.079 607.291C409.86 608.777 413.371 610.803 416.342 613.235C417.152 613.91 417.828 614.45 418.503 615.261C419.178 615.936 419.853 616.611 420.393 617.422L421.204 618.638L421.609 619.313C421.744 619.583 422.014 619.853 422.284 619.989C422.419 620.124 422.689 620.258 422.824 620.394C424.174 621.069 425.12 621.34 426.2 621.61C430.386 622.555 434.573 622.96 438.759 623.5C455.37 625.121 472.115 625.796 488.725 626.607C505.336 627.282 522.081 627.687 538.691 627.957H540.042L540.311 626.607C541.797 620.393 543.418 614.316 545.173 608.102C546.929 602.024 548.684 595.809 550.575 589.731C551.655 586.759 552.33 583.653 553.141 580.546C553.951 577.439 554.896 574.333 555.706 571.361C556.787 567.444 558.002 563.527 559.217 559.474C559.082 559.339 558.812 559.069 558.677 558.934C557.057 562.851 555.436 566.768 553.816 570.686C552.6 573.657 551.52 576.628 550.305 579.6C549.224 582.572 548.009 585.544 547.064 588.65C543.417 600.537 540.041 612.289 537.071 624.311C520.865 624.041 504.66 623.501 488.455 622.961C471.845 622.285 455.235 621.609 438.759 619.989C434.708 619.583 430.522 619.043 426.605 618.233C425.66 617.963 424.714 617.692 424.174 617.422C424.174 617.422 424.174 617.422 424.039 617.422C423.904 617.286 423.769 617.017 423.634 616.882L422.689 615.531C422.149 614.586 421.339 613.775 420.529 612.964C419.853 612.154 418.908 611.478 418.097 610.668C414.721 607.831 410.805 605.805 406.889 604.184C402.973 602.563 398.786 601.348 394.735 600.402C392.71 599.862 390.684 599.457 388.523 599.052C386.497 598.646 384.337 598.241 382.716 597.701L376.909 595.539L371.103 593.244C370.833 593.109 370.562 592.973 370.292 592.973C368.672 592.298 366.916 591.622 365.161 591.082C364.216 590.811 363.135 590.406 362.054 590.136C360.974 589.866 359.624 589.866 358.543 590.406C356.383 591.352 355.032 593.378 354.492 595.539C353.952 597.7 354.357 599.862 355.302 601.753C355.302 599.592 355.302 597.43 355.978 595.539ZM424.714 617.557C424.714 617.422 424.714 617.422 424.714 617.557C424.579 617.422 424.714 617.422 424.714 617.557Z" fill="#EDCFC5"/>
<path d="M784.729 600.129L773.79 594.861C771.765 593.915 769.739 592.969 767.713 592.159L761.502 589.593L736.788 579.327L687.903 558.931C677.235 540.83 666.431 522.731 655.493 504.765C649.956 495.715 644.284 486.665 638.613 477.75C635.507 473.428 632.401 469.105 629.159 464.918C626.189 461.001 623.082 457.083 619.841 453.436C619.571 453.166 619.301 452.895 619.031 452.625C619.301 452.895 619.436 453.301 619.706 453.571C625.513 462.081 630.645 470.86 635.776 479.64C641.583 488.555 647.12 497.471 652.657 506.521C663.73 524.621 674.669 542.721 685.337 561.091L685.607 561.632L686.147 561.903L735.573 582.569L760.286 592.834L766.498 595.401C768.524 596.347 770.549 597.157 772.71 597.833L785.269 602.29L786.485 602.696V601.48C786.485 599.048 786.485 596.482 786.89 594.051C787.025 592.835 787.295 591.619 787.835 590.403C788.24 589.323 789.05 588.107 790.401 587.972C789.726 587.972 789.05 588.242 788.645 588.648C788.105 589.053 787.7 589.593 787.43 590.133C787.295 590.268 787.16 590.539 787.16 590.674C786.755 591.619 786.349 592.7 786.079 593.646C785.269 595.942 784.864 597.968 784.729 600.129Z" fill="#EDCFC5"/>
<path d="M799.188 662.539C798.107 663.485 796.892 663.89 795.541 664.161C794.191 664.431 792.84 664.296 791.625 664.161C790.275 664.026 789.059 663.755 787.709 663.349C786.494 663.079 785.278 662.675 784.198 662.134L773.394 647.276L772.854 646.601H771.909C751.247 647.411 730.315 647.276 709.654 645.25C704.522 644.71 699.39 644.169 694.259 643.358C689.127 642.548 683.996 641.738 678.999 640.522C669.006 638.226 659.012 635.119 650.235 629.851C641.187 624.718 632.544 619.044 624.172 612.966C615.799 606.888 607.561 600.404 599.729 593.65C595.812 590.273 591.896 586.896 587.98 583.384C584.064 579.872 580.418 576.225 576.502 572.848C572.585 569.471 568.669 565.959 564.888 562.447C560.971 558.935 557.19 555.424 553.274 552.047C560.296 559.746 567.319 567.446 574.476 575.01C577.987 578.927 582.038 582.304 585.819 585.816C589.736 589.328 593.652 592.839 597.568 596.216C603.78 601.484 610.127 606.618 616.744 611.481C613.368 621.476 609.452 631.202 604.59 640.522C603.375 642.954 602.025 645.25 600.809 647.681C599.594 650.112 598.378 652.543 597.028 654.84C594.327 659.567 591.356 664.025 588.115 668.347C581.633 676.857 573.801 684.556 564.348 689.419C559.756 691.85 554.489 693.066 549.223 693.742C543.956 694.417 538.554 694.417 533.153 694.147C522.349 693.741 511.546 692.12 500.877 690.094C490.209 688.068 479.54 685.638 469.007 682.801C458.474 679.964 447.94 676.993 437.542 673.616C427.143 670.374 416.745 666.861 406.617 663.079L406.077 662.81L405.402 663.079C402.296 664.16 399.054 665.376 395.813 666.321C392.572 667.267 389.332 668.212 386.091 669.023C382.85 669.698 379.473 670.373 376.097 670.779C372.721 671.184 369.345 671.319 365.969 670.779C366.779 670.914 367.454 671.048 368.265 671.184C370.831 671.589 373.531 671.724 376.232 671.724C379.608 671.724 383.119 671.32 386.496 670.914C389.872 670.509 393.248 669.833 396.624 669.023C399.73 668.347 402.971 667.537 406.077 666.592C426.603 674.021 447.265 680.505 468.332 686.178C479 689.014 489.668 691.445 500.472 693.471C511.275 695.497 522.214 697.118 533.288 697.523C538.825 697.659 544.361 697.794 549.898 696.984C551.248 696.849 552.734 696.579 554.084 696.309L556.11 695.904L558.136 695.363L560.161 694.822C560.836 694.552 561.512 694.282 562.187 694.012L564.212 693.202C564.888 692.932 565.428 692.526 566.103 692.256C576.096 686.988 584.334 679.019 591.086 670.239C593.247 667.267 595.407 664.295 597.298 661.189C597.568 660.783 597.838 660.378 598.108 659.972C598.784 658.757 599.593 657.542 600.269 656.461C601.619 654.03 602.969 651.598 604.32 649.166C605.67 646.735 606.616 644.169 607.696 641.603C609.722 636.47 611.612 631.337 613.233 626.069C614.718 621.206 616.069 616.343 617.149 611.345C618.905 612.696 620.795 614.046 622.551 615.397C631.058 621.476 639.836 627.285 648.884 632.418C653.341 635.119 658.337 637.415 663.334 639.171C668.331 640.927 673.462 642.277 678.594 643.493C683.725 644.708 688.857 645.655 694.124 646.33C699.255 647.141 704.522 647.815 709.789 648.22C720.187 649.166 730.721 649.707 741.119 649.978C751.382 650.113 761.511 650.112 771.639 649.571L783.252 662.81L783.387 662.944H783.522C784.873 663.35 786.223 663.62 787.574 663.89C788.924 664.16 790.275 664.295 791.625 664.295C792.975 664.295 794.461 664.16 795.676 663.754C795.946 663.619 796.217 663.62 796.487 663.485C797.432 663.89 798.377 663.35 799.188 662.539Z" fill="#EDCFC5"/>
<path d="M535.719 396.034C550.979 406.435 571.641 402.383 581.904 387.254L584.335 383.742C584.47 383.877 584.47 383.877 584.605 384.012C587.171 386.173 592.032 384.418 595.543 380.23C599.054 376.043 599.865 370.909 597.299 368.883C596.489 368.208 595.543 367.938 594.463 368.073C601.215 353.485 596.623 335.925 582.984 326.604C569.345 317.284 551.384 319.58 540.31 331.062C539.905 330.386 539.365 329.846 538.825 329.441C535.989 327.82 531.533 330.522 528.832 335.25C526.266 339.978 526.401 344.975 529.102 346.596L526.941 349.838C516.543 364.966 520.459 385.634 535.719 396.034Z" fill="#1E2B3C"/>
<path d="M602.966 391.167C601.886 391.167 600.941 391.437 600.131 391.978C597.565 394.139 598.375 399.136 601.886 403.323C605.397 407.511 610.259 409.131 612.825 407.105C612.96 406.97 612.959 406.971 613.094 406.836L615.526 410.348C625.924 425.611 646.585 429.529 661.71 419.128C676.97 408.727 680.886 388.06 670.488 372.931L668.328 369.69C671.029 367.934 671.163 362.936 668.597 358.343C666.032 353.615 661.575 350.914 658.604 352.535C657.929 352.94 657.389 353.481 657.119 354.156C646.045 342.675 628.084 340.377 614.445 349.698C600.67 358.883 596.214 376.578 602.966 391.167Z" fill="#1E2B3C"/>
<path d="M1057.8 110.211C1044.56 114.939 1033.76 124.935 1028.22 137.768C1014.04 129.933 997.568 125.475 980.282 125.475C979.337 125.475 978.391 125.475 977.311 125.475C965.967 115.074 950.707 108.861 934.097 108.861C900.876 108.861 873.598 133.985 870.222 166.268C869.817 166.268 869.546 166.268 869.141 166.268C841.187 166.268 818.5 188.961 818.5 216.922C818.5 217.732 818.5 218.408 818.5 219.219H1057.66H1080.21H1195C1189.33 185.72 1160.16 160.326 1125.05 160.326C1125.05 159.515 1125.05 158.84 1125.05 158.029C1125.05 131.959 1105.47 110.617 1080.21 107.78C1078.32 107.51 1076.43 107.51 1074.41 107.51C1068.73 107.24 1063.06 108.32 1057.8 110.211Z" fill="#1E98F5"/>
</svg>
