<svg width="1195" height="844" viewBox="0 0 1195 844" fill="none" xmlns="http://www.w3.org/2000/svg">
<path d="M894.329 378.354C895.302 356.45 898.873 340.712 900.496 333.574C895.302 333.087 892.056 372.026 874.201 367.97C869.494 366.997 875.986 330.978 876.96 329.193C878.421 326.273 880.856 319.783 886.05 313.293L758.143 277.112H692.404L700.033 205.237L760.091 151.858C763.499 148.938 767.558 146.991 771.94 146.504L801.482 142.772C802.943 146.179 806.676 148.451 810.734 147.964L835.082 145.044C839.952 144.395 843.36 140.014 842.873 135.147C842.224 130.28 837.841 126.872 832.972 127.359L808.624 130.28C804.403 130.766 801.32 134.173 800.833 138.067L771.453 141.799C766.096 142.448 761.065 144.72 757.007 148.289L695.65 202.803L687.696 276.788H662.375V384.681H698.734V818.852H713.181H738.665H751.325C755.546 819.501 759.766 819.988 763.986 820.799C759.766 821.61 755.546 822.259 751.325 822.745H738.665H713.181H687.696H675.036C673.25 822.421 671.627 822.259 669.841 821.934V842.377H885.076V821.285H856.184V387.115H839.627H795.314H773.076C765.609 386.466 758.305 385.979 750.839 385.006C758.305 384.195 765.609 383.545 773.076 382.896H795.314H839.627H883.94H894.329C894.166 381.436 894.166 379.976 894.329 378.354Z" fill="#F45F63"/>
<path d="M925.654 354.831C925.654 354.831 920.622 353.37 916.078 360.185C912.993 364.89 912.669 374.625 912.02 383.549C914.617 383.711 917.213 384.035 919.811 384.197C919.648 371.542 925.654 354.831 925.654 354.831Z" fill="#1E2B3C"/>
<path d="M353.967 821.284C358.837 820.797 363.544 820.472 368.413 820.148C365.492 811.711 359.324 803.112 346.663 798.407C302.674 782.02 286.605 752.979 288.877 733.185C298.941 639.893 301.376 593.652 275.242 511.069C249.921 431.082 220.054 402.527 201.549 366.833C197.491 366.833 193.433 366.508 189.538 365.859C182.882 364.723 176.39 362.614 170.384 359.856C158.21 354.178 147.822 345.092 139.706 334.546C131.427 324 125.259 312.156 120.227 299.988C115.196 287.819 111.3 275.164 108.054 262.509C104.807 249.691 102.372 236.873 100.425 223.894C99.7754 217.404 99.1259 210.915 98.639 204.262C98.152 197.773 97.8275 191.12 97.5028 184.631C99.613 197.61 101.723 210.427 104.32 223.245C106.43 236.062 108.865 248.88 111.949 261.535C115.034 274.19 118.929 286.521 123.798 298.527C128.83 310.533 134.836 321.891 142.79 332.112C150.581 342.171 160.483 350.77 172.007 356.124C177.689 358.882 183.856 360.829 190.025 361.803C196.355 362.776 202.686 363.101 209.178 362.614C222.002 361.803 234.825 359.207 247.161 355.638C259.822 352.717 272.32 348.823 284.494 344.118L310.79 352.718L333.677 360.18L338.708 385.004L339.033 386.951C341.144 402.689 354.779 401.716 358.674 385.004C359.323 382.571 359.648 379.812 359.81 376.567C360.135 363.75 358.674 345.417 358.674 345.417L360.297 346.877C364.842 353.691 365.329 373.485 369.062 384.842C371.01 390.845 373.932 394.577 378.964 392.792C380.587 392.143 381.723 391.17 382.697 389.709C391.138 377.703 382.21 339.251 377.665 328.056C375.717 323.189 376.366 321.566 377.665 321.891C382.859 323.351 384.645 364.399 406.071 354.989C410.453 353.042 398.767 318.321 397.793 316.374C396.17 312.967 394.222 307.613 389.19 302.745C383.833 297.553 374.906 293.173 359.161 292.848C332.865 292.361 215.834 288.468 215.834 288.468L183.532 166.946C182.72 163.539 181.909 160.294 180.935 157.211L179.474 151.694L179.149 151.857C169.41 124.924 151.717 108.213 120.227 109.835C80.1347 111.782 59.3581 151.694 64.877 290.577C65.2016 296.904 65.5261 304.368 66.0131 312.48L78.0245 842.051H238.071L354.291 842.701V821.284H353.967ZM180.448 779.911C177.364 775.531 175.578 770.338 174.767 764.984C173.631 754.438 174.117 744.541 174.117 734.32L174.442 719.069L174.767 703.818C175.416 683.537 176.065 663.419 176.877 643.138L181.422 521.778C182.071 501.497 182.72 481.378 183.207 461.098C184.506 440.979 185.317 420.699 186.291 400.418C186.616 410.477 186.941 420.698 186.941 430.757C187.103 440.817 187.265 451.038 187.265 461.098C186.778 481.378 186.129 501.497 185.48 521.778L182.72 594.302L197.329 788.348C200.738 789.971 204.309 791.269 207.88 792.242C210.314 792.729 212.587 793.378 215.184 793.702L218.917 794.188C220.216 794.351 221.352 794.513 222.651 794.676C224.923 795 228.007 795.325 230.442 796.461C233.039 797.434 235.311 799.056 237.422 800.678C241.48 804.248 244.402 808.629 246.837 813.009C251.706 822.095 254.628 831.992 256.413 841.889C255.115 837.022 253.492 832.154 251.706 827.449C249.921 822.744 247.648 818.201 245.051 813.983C242.454 809.764 239.37 805.871 235.474 802.95C233.526 801.49 231.416 800.354 229.306 799.705C227.033 798.894 224.923 798.894 222.326 798.569C221.028 798.407 219.729 798.407 218.43 798.245C217.132 798.082 215.833 797.758 214.535 797.596C211.938 797.271 209.503 796.46 206.906 795.973C201.874 794.513 197.005 792.728 192.297 790.132C187.752 788.023 183.532 784.454 180.448 779.911Z" fill="#1E2B3C"/>
<path d="M310.789 352.719V385.006H338.707L333.676 360.181L310.789 352.719Z" fill="#E5AA20"/>
<path d="M358.672 345.582C358.672 345.582 360.295 363.754 359.808 376.734C359.645 379.816 359.321 382.737 358.672 385.171H369.06C365.327 373.813 364.84 354.019 360.295 347.204L358.672 345.582Z" fill="#E5AA20"/>
<path d="M397.795 316.703C398.769 318.488 410.455 353.37 406.073 355.317C384.809 364.727 382.861 323.679 377.667 322.219C376.368 321.895 375.719 323.355 377.667 328.385C382.212 339.58 391.302 378.032 382.699 390.038V819.341H407.696H461.586H515.476H540.473V387.117H512.067H471H450.549C443.731 386.469 436.914 385.982 430.096 385.009C436.914 384.197 443.731 383.548 450.549 382.899H471H512.067H553.134H573.586C574.722 383.061 575.696 383.061 576.832 383.224V277.115H546.479L538.688 203.942L538.525 203.131L477.331 148.616C473.273 145.046 468.403 142.775 463.047 142.126L433.667 138.395C433.342 134.338 430.096 130.769 425.876 130.282L401.528 127.361C396.658 126.712 392.276 130.282 391.626 135.15C390.977 140.017 394.549 144.398 399.418 145.047L423.766 147.967C427.824 148.454 431.557 146.02 433.018 142.451L462.56 146.182C467.105 146.669 471.163 148.616 474.572 151.698L534.63 205.078L542.259 276.953H481.064L389.029 302.912C394.061 307.942 396.01 313.458 397.795 316.703Z" fill="#E5AA20"/>
<path d="M542.415 823.235H515.471H461.58H407.69H380.746C371.818 822.586 362.728 822.098 353.801 821.125V842.866V843.028H569.036V821.287C560.271 822.099 551.342 822.748 542.415 823.235Z" fill="#E5AA20"/>
<path d="M976.782 48.8348L974.348 58.8944C978.406 59.8679 982.788 59.0563 986.359 56.9471C987.333 56.2981 988.632 56.6225 989.119 57.596C989.768 58.5694 989.444 59.8677 988.47 60.3545C985.223 62.3014 981.652 63.2746 977.919 63.2746C976.458 63.2746 974.997 63.1126 973.374 62.7881L969.803 77.7151C974.673 83.8804 981.327 88.423 989.605 90.37C1008.76 94.9129 1027.91 83.0692 1032.3 63.9242L1033.76 57.9208C1034.08 58.5697 1034.57 59.0565 1035.22 59.5432C1038.14 61.4902 1043.17 58.8944 1046.26 54.027C1049.34 49.1596 1049.5 43.6431 1046.58 41.6962C1044.79 40.5604 1042.52 41.047 1040.25 42.345C1039.11 43.1562 1037.49 42.0205 1037.65 40.7225C1039.28 23.3622 1027.91 7.13791 1010.38 2.91951C991.229 -1.62338 972.075 10.2203 967.692 29.3653L963.797 45.5899L976.782 48.8348Z" fill="#FFFFFF"/>
<path d="M102.212 57.4323C102.862 57.1079 103.186 56.4589 103.673 55.8099L105.134 61.8125C109.679 80.9575 128.832 92.802 147.824 88.2591C155.94 86.3121 162.757 81.7688 167.627 75.6034L164.056 60.6773C162.595 61.0018 161.134 61.1637 159.511 61.1637C155.777 61.1637 152.206 60.1905 148.96 58.2436C147.986 57.5946 147.661 56.4585 148.311 55.4851C148.96 54.5116 150.096 54.1873 151.07 54.8362C154.641 57.1077 158.862 57.7562 163.082 56.7827L160.647 46.7239L173.795 43.6414L169.899 27.4168C165.354 8.27179 146.201 -3.57264 127.209 0.970245C109.841 5.0264 98.3164 21.4137 99.9396 38.7741C100.102 40.2343 98.479 41.2077 97.3427 40.3965C95.0703 38.9363 92.6352 38.6112 91.0121 39.7469C88.0903 41.6938 88.2525 47.2104 91.3366 52.0777C94.4207 56.9451 99.2906 59.3793 102.212 57.4323Z" fill="#1E2B3C"/>
<path d="M1076.13 166.621C1062.66 119.083 1041.72 101.398 1010.71 108.212C986.202 113.729 974.191 133.36 968.672 155.263C958.446 185.766 967.374 229.085 966.237 254.234C965.75 263.968 965.426 278.571 965.263 296.742C970.62 297.067 975.977 297.229 981.334 297.554L1043.01 300.474L1012.17 250.989L1003.9 237.847L999.838 231.194L997.727 227.949C997.078 226.814 996.429 225.679 995.78 224.543C990.91 215.457 985.878 206.371 981.009 197.123C987.177 205.559 993.02 213.997 999.026 222.596C999.838 223.731 1000.49 224.705 1001.3 225.841L1003.25 229.085L1007.3 235.738L1015.58 248.88L1048.37 301.61L1050.48 304.855L1046.59 304.692L981.009 301.61L948.22 299.987C945.46 299.825 942.701 299.501 940.104 299.176L931.988 298.202L923.872 297.229L921.276 296.904C903.096 297.715 892.545 305.503 886.052 313.453C880.858 319.943 878.423 326.433 876.962 329.353C875.988 331.138 869.658 367.157 874.203 368.131C892.058 372.025 895.304 333.247 900.498 333.734C898.713 340.873 895.304 356.611 894.33 378.514C894.33 380.137 894.33 381.597 894.33 383.219C894.98 392.143 898.226 400.092 902.121 401.553C909.913 404.635 911.374 394.901 912.186 383.706C912.835 374.782 913.159 364.885 916.243 360.342C920.788 353.69 925.82 354.989 925.82 354.989C925.82 354.989 919.814 371.7 919.976 384.355C919.976 384.68 919.976 384.842 919.976 385.166C920.788 409.666 934.261 415.019 936.533 397.01L946.11 360.342C949.032 359.856 951.953 359.532 954.875 359.207L959.258 358.72C960.719 358.558 962.179 358.234 963.64 358.396C966.562 358.396 969.484 358.396 972.406 358.396H981.171H981.495L981.82 358.557C990.261 361.478 998.863 363.912 1007.47 366.021C1016.07 368.13 1024.83 370.078 1033.6 371.376C1042.36 372.836 1051.29 373.809 1060.06 373.971C1062.33 373.971 1064.44 373.971 1066.71 373.971C1067.85 373.809 1068.99 373.971 1069.96 373.971C1071.1 373.971 1072.23 373.971 1073.21 374.133C1077.59 374.133 1082.13 373.971 1086.52 373.484C1082.3 375.107 1077.91 376.405 1073.37 377.216C1071.1 377.54 1068.82 378.027 1066.55 378.189C1064.28 378.189 1062.01 378.189 1059.73 378.189C1050.64 378.027 1041.72 377.054 1032.79 375.593C1023.86 374.133 1015.1 372.349 1006.33 370.077C997.728 367.968 989.124 365.534 980.684 362.614H972.244C969.809 362.614 967.374 362.614 964.939 362.614C965.426 485.921 969.484 667.637 976.626 734.482C978.736 754.438 970.945 782.345 926.794 798.732C896.441 810.089 903.258 843.512 903.258 843.512L926.145 843.349V843.512C924.197 834.101 924.846 824.042 929.067 815.119C931.177 810.738 934.261 806.681 938.157 803.436C940.104 801.814 942.214 800.354 944.324 799.218C946.434 797.92 948.869 796.947 950.98 796.135C959.745 792.891 968.186 788.347 975.49 782.831C979.223 779.91 982.631 776.828 985.553 773.259C988.475 769.689 991.072 765.795 993.02 761.739C996.916 753.464 998.377 744.054 997.403 734.968C996.429 725.396 995.455 715.986 994.643 706.414C992.858 687.431 991.235 668.286 989.774 649.303C986.69 611.175 983.768 573.047 981.009 534.919C979.71 515.936 978.249 496.791 977.113 477.808C976.464 458.663 975.814 439.519 975.327 420.536L981.009 477.647L985.067 534.757C987.826 572.885 990.748 611.012 993.832 648.978C995.455 667.961 997.078 687.106 998.701 706.089C999.513 715.661 1000.49 725.072 1001.46 734.644C1002.6 744.541 1000.97 754.6 996.754 763.686C994.644 768.229 991.884 772.286 988.8 776.179C985.553 779.911 981.983 783.318 978.087 786.238C970.296 792.241 961.53 796.622 952.603 800.354L949.356 801.652C948.22 801.976 947.246 802.463 946.272 802.95C944.162 803.924 942.214 805.059 940.429 806.357C936.696 808.953 933.611 812.522 931.339 816.579C929.066 820.635 927.606 825.178 926.794 829.721C925.983 834.426 925.82 839.131 926.469 843.998L1095.44 843.024L1096.42 829.882C1096.42 829.882 1099.18 529.565 1095.93 371.051C1140.73 352.555 1136.02 296.255 1112.32 243.039C1097.88 209.292 1085.7 184.63 1076.13 166.621Z" fill="#FFFFFF"/>
</svg>
