<svg width="1195" height="844" viewBox="0 0 1195 844" fill="none" xmlns="http://www.w3.org/2000/svg">
<path d="M96.7809 712.302C95.7527 714.743 94.8531 717.314 94.339 719.884C92.154 730.55 90.7402 741.474 91.1258 752.269C91.3829 757.666 92.1538 763.064 93.8247 768.076C94.9815 771.546 96.6525 774.887 98.8375 777.843C100.38 756.51 102.308 727.98 104.621 696.109C103.079 699.065 101.536 702.021 99.9941 704.977C98.9659 707.29 97.8092 709.86 96.7809 712.302Z" fill="white"/>
<path d="M236.107 307.877C228.781 309.676 221.455 311.347 214.129 312.889C207.96 313.917 201.79 314.945 195.492 315.845C189.323 316.744 183.025 317.515 176.856 318.158C189.066 315.588 201.276 312.889 213.486 309.805C225.696 307.235 237.907 304.407 249.86 301.195C261.942 297.982 273.895 294.383 285.591 290.271C291.503 288.215 297.287 286.03 302.942 283.588C308.597 281.147 314.253 278.577 319.779 275.621C325.178 272.665 330.447 269.452 335.331 265.597L339.059 262.898C340.344 261.999 341.501 260.971 342.658 259.942L346.256 256.987L348.056 255.445L349.727 253.902C359.109 245.678 367.721 236.682 376.075 227.429C384.429 218.176 392.27 208.538 399.853 198.514C407.822 188.876 415.405 178.98 422.859 168.828C422.859 168.828 474.014 132.588 485.067 125.648C496.121 118.708 511.93 114.853 506.66 106.628C502.804 100.46 467.202 117.423 467.202 117.423C467.202 117.423 470.672 108.556 478.384 99.9458C486.995 90.1789 508.845 84.1389 506.275 74.2435C504.475 67.3039 463.86 87.2232 463.86 87.2232C463.86 87.2232 468.101 80.7976 472.086 76.4282C476.841 71.2878 490.337 68.2035 482.882 60.3643C479.54 56.766 455.506 67.4324 440.468 81.5687C434.941 86.8376 429.671 90.8215 425.43 93.7772C428.386 89.0223 430.957 84.6529 431.856 82.7253C432.628 81.0546 433.399 78.9984 434.041 76.8138C435.327 72.5729 435.584 68.2035 431.856 66.6613C429.286 65.6333 412.449 82.3397 411.42 86.4521C411.292 86.9661 411.035 87.7372 410.649 88.7653L407.308 95.1909L380.831 146.081L298.958 216.12L297.801 217.02L182.639 239.124C178.012 238.738 173.128 239.381 167.73 240.923C133.284 251.589 133.67 280.504 125.701 397.193C112.848 487.408 0 764.478 0 764.478L79.3021 828.22L137.269 828.734C137.526 823.208 137.011 817.682 135.855 812.413C134.698 807.144 132.513 801.875 129.043 798.019C127.244 796.092 125.187 794.421 122.745 793.393C121.588 792.879 120.303 792.365 119.018 792.108C117.732 791.851 116.318 791.594 115.033 791.337C109.506 790.18 104.108 787.61 99.7384 783.626C95.4969 779.642 92.5408 774.373 90.7414 768.976C88.942 763.578 88.0422 757.924 87.7851 752.269C87.271 740.96 88.8134 729.908 90.9984 718.985C91.641 716.158 92.5408 713.459 93.6976 710.889C94.7258 708.318 95.8825 705.748 97.1678 703.307C99.6098 698.295 102.18 693.411 104.88 688.656C110.278 679.018 115.805 669.508 121.331 659.998C132.256 640.979 143.052 621.702 152.949 602.04C172.871 562.844 189.837 522.106 201.79 479.825C202.561 477.127 203.204 474.556 203.975 471.858C204.746 469.159 205.389 466.589 205.903 463.89C207.06 458.492 207.959 453.095 208.859 447.698C210.53 436.903 211.558 425.979 212.329 414.927C214.386 393.08 214.257 370.976 213.101 349.001C214.257 359.924 215.285 370.976 215.543 382.028C215.671 384.727 215.8 387.554 215.8 390.253L215.928 398.478C215.8 404.004 215.8 409.53 215.543 415.056C214.9 426.108 213.615 437.16 212.072 448.083C211.301 453.609 210.273 459.007 209.116 464.404C208.602 467.103 207.831 469.801 207.188 472.5C206.546 475.199 205.774 477.769 205.003 480.468C193.05 523.005 175.956 564 156.034 603.325C146.009 622.987 135.212 642.264 124.287 661.412C118.76 670.922 113.234 680.432 107.964 690.07C106.936 691.998 105.908 693.925 104.88 695.724C102.695 727.595 100.638 756.125 99.0957 777.458C99.9954 778.743 101.024 779.899 102.18 781.056C105.908 784.783 110.663 787.353 115.804 788.638C117.09 789.024 118.375 789.281 119.789 789.666C121.202 790.052 122.488 790.566 123.773 791.208C126.344 792.493 128.657 794.421 130.457 796.606C134.055 801.104 135.983 806.501 136.883 812.027C137.783 817.553 137.911 823.079 137.397 828.477C137.397 828.477 137.397 828.477 137.397 828.348L230.709 828.862C230.709 828.862 235.979 802.389 212.072 793.393C177.241 780.413 170.943 758.181 172.614 742.503C178.655 686.343 205.646 510.668 219.013 405.417C226.211 410.686 234.179 415.827 243.048 420.71C243.048 388.197 247.032 356.454 254.358 326.126L236.107 307.877Z" fill="#1E2B3C"/>
<path d="M407.311 95.3203C363.611 127.834 326.723 168.957 298.961 216.121L380.834 146.082L407.311 95.3203Z" fill="#F45F63"/>
<path d="M1015.12 401.562C1005.35 395.394 996.357 388.197 987.745 380.486C983.633 376.374 979.777 372.262 975.921 367.892C972.194 363.651 968.466 359.153 965.125 354.527V354.398C952.143 341.162 933.763 324.198 920.654 318.672C897.904 309.034 861.273 291.813 851.248 291.171C841.608 290.528 835.31 287.444 839.68 282.818C846.492 275.492 872.969 282.689 872.969 282.689C872.969 282.689 862.687 276.007 860.116 274.85C854.204 271.894 860.888 267.011 872.07 267.782C877.853 268.167 910.371 277.677 910.371 277.677C910.371 277.677 911.785 278.448 912.942 278.063C914.099 277.677 906.13 271.252 903.816 269.71C901.503 268.167 899.575 265.469 903.431 263.926C907.287 262.384 924.895 271.38 930.679 273.693C936.463 276.007 954.714 282.304 964.353 290.4C968.081 293.484 974.379 300.681 980.805 308.263C987.489 310.962 994.043 313.917 1000.73 316.745L1021.03 327.154L1049.44 341.676C1044.94 319.058 1038.51 296.954 1030.29 275.878C971.551 123.335 823.486 15 650.229 15C570.799 15 496.766 37.7465 434.044 77.071C433.401 79.1272 432.63 81.1833 431.859 82.9825C430.959 84.9102 428.389 89.4081 425.433 94.0345C429.674 91.0787 434.815 87.0949 440.47 81.8259C455.508 67.6897 479.543 57.0232 482.885 60.6215C490.339 68.4607 476.844 71.545 472.089 76.6854C468.104 81.0548 463.863 87.4804 463.863 87.4804C463.863 87.4804 504.478 67.4326 506.277 74.5008C508.848 84.3961 486.998 90.4362 478.386 100.203C470.675 108.942 467.204 117.681 467.204 117.681C467.204 117.681 502.807 100.717 506.663 106.886C511.932 115.11 496.124 118.837 485.07 125.905C474.017 132.845 422.862 169.085 422.862 169.085C419.777 174.483 416.436 179.88 412.965 185.021C411.294 187.719 409.495 190.289 407.824 192.86L402.426 200.57C394.843 210.594 386.874 220.233 378.52 229.614C370.165 238.995 361.425 247.991 351.914 256.344L350.115 257.886L348.315 259.429L344.717 262.384C343.431 263.412 342.275 264.441 340.989 265.34L337.133 268.167C332.121 272.023 326.723 275.364 321.196 278.32C315.669 281.404 309.885 283.974 304.102 286.416C298.318 288.858 292.406 291.042 286.493 293.227C278.139 296.183 269.656 298.882 261.173 301.323C258.602 309.677 256.289 318.158 254.232 326.769C246.906 357.097 243.05 388.711 242.922 421.353C242.922 421.61 242.922 421.867 242.922 422.124C242.922 646.89 425.176 829.248 650.101 829.248C874.897 829.248 1057.28 647.019 1057.28 422.124C1057.28 420.582 1057.28 419.04 1057.28 417.498C1053.68 417.241 1050.21 416.598 1046.74 415.827C1035.43 412.871 1024.89 407.731 1015.12 401.562Z" fill="#F45F63"/>
<path d="M1124.75 248.374C1116.91 250.302 1110.74 253.643 1105.99 258.527L1105.86 258.398L1105.09 259.426C1103.16 261.611 1101.36 264.181 1099.82 266.88L1066.27 314.943L1030.16 275.619C1038.25 296.823 1044.68 318.798 1049.31 341.416L1059.98 346.942L1080.67 306.076L1091.34 284.871C1095.32 278.06 1099.31 271.249 1103.42 264.438C1100.46 271.763 1097.38 279.088 1094.16 286.285L1083.5 307.361L1062.16 349.641L1061.39 351.055L1059.98 350.284L1019.36 329.465L999.053 319.055C992.498 315.2 985.943 311.345 979.517 307.232C979.903 307.361 980.288 307.489 980.674 307.746C974.247 300.164 967.821 292.968 964.222 289.883C954.582 281.787 936.331 275.49 930.547 273.177C924.764 270.864 907.155 261.868 903.299 263.41C899.444 264.952 901.372 267.651 903.685 269.193C905.999 270.735 913.967 277.161 912.81 277.546C911.654 277.932 910.24 277.161 910.24 277.161C910.24 277.161 877.722 267.779 871.939 267.265C860.628 266.494 853.945 271.378 859.985 274.333C862.427 275.619 872.838 282.173 872.838 282.173C872.838 282.173 846.361 275.105 839.549 282.301C835.308 286.928 841.477 290.14 851.117 290.654C861.142 291.297 897.773 308.518 920.522 318.156C933.761 323.81 952.012 340.645 964.993 353.882V354.011C972.833 362.364 981.059 370.203 989.799 377.528C998.154 385.239 1007.15 392.178 1016.66 398.347C1026.17 404.387 1036.46 409.399 1047.38 411.969C1058.18 414.668 1069.87 414.539 1080.03 410.041C1085.17 407.857 1089.92 405.03 1094.42 401.56C1098.92 398.218 1103.16 394.492 1107.15 390.508C1111.13 386.524 1114.99 382.283 1118.58 377.914C1122.18 373.544 1125.65 369.046 1128.87 364.42C1135.42 355.167 1141.59 345.529 1147.25 335.633C1153.42 325.995 1159.07 316.1 1164.47 306.076C1162.41 311.345 1160.1 316.614 1157.66 321.883C1155.22 327.023 1152.77 332.164 1150.07 337.304C1144.42 347.199 1138.25 356.966 1131.57 366.348C1128.22 370.974 1124.75 375.6 1121.03 380.098C1117.43 384.596 1113.44 388.837 1109.46 392.949C1105.47 397.062 1100.98 400.917 1096.35 404.387C1095.71 404.773 1095.19 405.287 1094.55 405.672C1094.55 405.929 1094.55 406.058 1094.55 406.315C1094.55 508.867 1093.39 685.313 1099.56 742.372C1101.23 758.179 1095.06 780.283 1060.1 793.262C1036.07 802.258 1041.47 828.732 1041.47 828.732L1059.59 828.603V828.732C1058.05 821.278 1058.56 813.31 1061.9 806.242C1063.57 802.772 1066.02 799.559 1069.1 796.989C1070.64 795.704 1072.31 794.547 1073.99 793.648C1075.66 792.62 1077.58 791.849 1079.26 791.206C1086.2 788.636 1092.88 785.038 1098.66 780.668C1101.62 778.355 1104.32 775.913 1106.63 773.086C1108.95 770.259 1111 767.174 1112.54 763.962C1115.63 757.408 1116.79 749.954 1116.01 742.757C1115.24 735.175 1114.47 727.722 1113.83 720.139C1112.42 705.104 1111.13 689.939 1109.97 674.903C1107.53 644.703 1105.22 614.503 1103.03 584.303C1102 569.267 1100.85 554.103 1099.95 539.067C1099.43 523.903 1098.92 508.738 1098.53 493.702L1103.03 538.938L1106.25 584.174C1108.43 614.375 1110.74 644.575 1113.19 674.646C1114.47 689.682 1115.76 704.847 1117.04 719.882C1117.69 727.465 1118.46 734.918 1119.23 742.5C1120.13 750.34 1118.84 758.307 1115.5 765.504C1113.83 769.102 1111.64 772.315 1109.2 775.399C1106.63 778.355 1103.8 781.054 1100.72 783.367C1094.55 788.122 1087.61 791.592 1080.54 794.547L1077.97 795.576C1077.07 795.833 1076.3 796.218 1075.53 796.604C1073.86 797.375 1072.31 798.274 1070.9 799.302C1067.94 801.359 1065.5 804.186 1063.7 807.399C1061.9 810.611 1060.75 814.21 1060.1 817.808C1059.46 821.535 1059.33 825.262 1059.85 829.117L1193.65 828.346L1194.42 817.937C1194.42 817.937 1196.47 516.32 1192.87 412.997C1187.22 255.185 1160.87 239.764 1124.75 248.374ZM884.277 300.935C882.992 300.55 881.707 300.036 880.55 299.522C879.265 299.008 877.979 298.622 876.694 298.237C873.995 297.337 871.424 296.309 868.854 294.767C868.211 294.381 867.569 293.867 867.054 293.225C866.412 292.582 865.898 291.94 865.64 290.783C865.255 289.755 865.512 288.47 866.026 287.57C866.54 286.671 867.183 286.028 867.825 285.514C868.468 285 869.111 284.614 869.753 284.229C870.525 283.843 871.424 283.586 872.067 283.458C873.609 283.201 875.023 283.072 876.437 283.072C882.092 283.072 887.49 283.586 893.017 284.1C898.415 284.614 903.942 285.128 909.34 285.643C912.039 285.9 914.739 286.028 917.438 286.157C918.723 286.157 920.137 286.285 921.55 286.285C922.964 286.414 924.378 286.542 925.792 286.799C931.319 287.699 936.717 289.498 941.858 291.94C946.742 294.895 951.112 298.365 954.711 302.606C950.212 299.393 945.457 296.823 940.444 294.895C935.689 292.454 930.547 290.911 925.406 290.012C924.121 289.755 922.836 289.626 921.422 289.626C920.137 289.498 918.723 289.498 917.309 289.498C914.61 289.369 911.782 289.241 909.083 288.984C903.557 288.598 898.158 287.956 892.76 287.442C887.362 286.928 881.835 286.414 876.565 286.414C875.28 286.414 873.995 286.542 872.71 286.799C872.067 286.928 871.553 287.056 871.167 287.313C870.653 287.57 870.139 287.956 869.625 288.213C869.239 288.598 868.854 288.855 868.725 289.241C868.597 289.626 868.597 289.755 868.597 290.012C868.725 290.526 869.625 291.426 870.653 292.068C872.71 293.353 875.28 294.381 877.722 295.281C879.008 295.666 880.293 296.18 881.578 296.695L883.506 297.466C884.149 297.723 884.791 297.98 885.434 298.365C890.447 300.935 894.817 304.02 899.829 306.333C894.431 304.919 889.29 302.606 884.277 300.935Z" fill="#1E2B3C"/>
<path d="M1060.11 817.809C1060.75 814.082 1061.91 810.484 1063.71 807.399C1065.51 804.186 1067.95 801.488 1070.9 799.303C1072.32 798.275 1073.99 797.375 1075.53 796.604C1076.3 796.219 1077.2 795.833 1077.97 795.576L1080.54 794.548C1087.61 791.721 1094.68 788.251 1100.72 783.368C1103.81 781.055 1106.63 778.356 1109.2 775.4C1111.65 772.444 1113.96 769.103 1115.5 765.505C1118.84 758.436 1120.13 750.34 1119.23 742.501C1118.46 735.047 1117.69 727.465 1117.05 719.883C1115.63 704.847 1114.35 689.811 1113.19 674.647C1110.75 644.447 1108.43 614.375 1106.25 584.175L1103.04 538.939L1098.67 493.703C1098.92 508.867 1099.57 524.032 1100.08 539.068C1100.98 554.232 1102.14 569.268 1103.16 584.304C1105.35 614.504 1107.66 644.704 1110.1 674.904C1111.39 689.94 1112.68 705.104 1113.96 720.14C1114.6 727.722 1115.37 735.176 1116.15 742.758C1116.92 749.955 1115.76 757.408 1112.68 763.962C1111.13 767.304 1109.08 770.26 1106.76 773.087C1104.45 775.914 1101.75 778.356 1098.79 780.669C1093.01 785.167 1086.33 788.637 1079.39 791.207C1077.72 791.849 1075.79 792.621 1074.12 793.649C1072.45 794.548 1070.77 795.705 1069.23 796.99C1066.15 799.56 1063.71 802.773 1062.03 806.243C1058.69 813.311 1058.18 821.407 1059.72 828.732C1059.34 825.262 1059.46 821.536 1060.11 817.809Z" fill="#EDCFC5"/>
<path d="M1098.92 214.709C1110.36 225.247 1128.1 224.604 1138.64 213.167L1141.98 209.569C1141.98 210.211 1142.11 210.725 1142.36 211.239C1143.65 213.681 1148.02 213.938 1152.13 211.753C1156.24 209.569 1158.43 205.842 1157.14 203.4C1156.37 201.986 1154.57 201.344 1152.52 201.472C1151.36 201.472 1150.72 200.187 1151.36 199.288C1159.2 187.979 1157.79 172.3 1147.25 162.662C1135.81 152.124 1118.07 152.767 1107.53 164.204L1098.53 173.971L1106.37 181.168L1100.85 187.208C1103.29 189.392 1106.5 190.549 1109.85 190.549C1110.74 190.549 1111.52 191.191 1111.52 192.091C1111.52 192.991 1110.87 193.762 1109.97 193.762C1109.85 193.762 1109.59 193.762 1109.46 193.762C1105.48 193.762 1101.62 192.348 1098.66 189.649L1090.44 198.517C1091.21 204.3 1094.04 210.211 1098.92 214.709Z" fill="#1E2B3C"/>
<path d="M1109.84 193.503C1110.74 193.503 1111.38 192.732 1111.38 191.833C1111.38 190.933 1110.61 190.291 1109.71 190.291C1106.37 190.419 1103.16 189.262 1100.72 186.949L1098.53 189.262C1101.49 191.961 1105.34 193.375 1109.33 193.375C1109.46 193.503 1109.58 193.503 1109.84 193.503Z" fill="#EDCFC5"/>
<path d="M136.628 206.61C137.013 206.224 137.399 205.71 137.527 205.196L139.327 209.694C144.854 224.216 161.177 231.412 175.7 225.886C181.87 223.573 186.754 219.204 189.838 213.935L185.469 202.626C183.669 203.268 181.741 203.654 179.942 203.654C177.757 203.654 175.572 203.14 173.515 202.24C172.744 201.855 172.359 200.955 172.744 200.184C173.13 199.413 174.029 199.027 174.801 199.413C177.885 200.827 181.227 200.827 184.44 199.67L181.484 191.959L191.381 188.104L186.625 175.767C181.099 161.245 164.776 154.048 150.252 159.574C137.013 164.586 129.816 178.594 132.901 192.088C133.158 193.244 132.001 194.144 130.973 193.63C129.045 192.73 127.117 192.73 125.831 193.758C123.646 195.558 124.418 199.799 127.374 203.397C130.458 206.995 134.571 208.409 136.628 206.61Z" fill="#1E2B3C"/>
<path d="M174.673 199.413C173.902 199.027 172.873 199.413 172.616 200.184C172.231 200.955 172.616 201.983 173.387 202.24C175.444 203.14 177.629 203.654 179.814 203.654C181.742 203.654 183.541 203.268 185.34 202.626L184.184 199.67C181.228 200.827 177.757 200.827 174.673 199.413Z" fill="#EDCFC5"/>
<path d="M136.885 812.413C135.857 807.015 134.057 801.489 130.459 796.991C128.659 794.807 126.346 792.879 123.775 791.594C122.49 790.951 121.076 790.437 119.791 790.052C118.377 789.666 117.092 789.409 115.806 789.024C110.665 787.61 105.91 785.04 102.182 781.441C101.025 780.285 99.9974 779.128 99.0977 777.843C96.9127 774.887 95.2416 771.675 94.0849 768.076C92.414 763.064 91.643 757.667 91.386 752.269C90.8719 741.474 92.4142 730.551 94.5992 719.885C95.1133 717.314 96.0129 714.744 97.0411 712.302C98.0693 709.861 99.2262 707.29 100.383 704.849C101.797 701.893 103.339 698.937 105.01 695.981C106.038 694.054 107.066 692.126 108.095 690.327C113.493 680.689 119.02 671.179 124.418 661.669C135.471 642.521 146.139 623.244 156.164 603.582C176.215 564.257 193.309 523.262 205.134 480.725C205.905 478.026 206.548 475.456 207.319 472.757C208.09 470.058 208.733 467.36 209.247 464.661C210.403 459.264 211.432 453.738 212.203 448.34C213.874 437.417 215.03 426.365 215.673 415.313C215.93 409.787 215.93 404.261 216.059 398.735L215.93 390.51C215.93 387.811 215.802 384.984 215.673 382.285C215.416 371.233 214.388 360.31 213.231 349.258C214.388 371.233 214.516 393.337 212.46 415.184C211.689 426.108 210.661 437.031 208.99 447.955C208.219 453.352 207.19 458.749 206.033 464.147C205.519 466.846 204.877 469.416 204.106 472.115C203.463 474.813 202.692 477.384 201.921 480.082C190.096 522.363 173.13 563.229 153.08 602.297C143.054 621.959 132.386 641.107 121.462 660.255C115.935 669.765 110.408 679.275 105.01 688.913C102.311 693.797 99.7401 698.552 97.2981 703.564C96.1413 706.005 94.8561 708.576 93.8279 711.146C92.7997 713.716 91.7716 716.415 91.129 719.242C88.944 730.165 87.4016 741.217 87.9158 752.526C88.1728 758.181 89.0723 763.707 90.8717 769.233C92.6711 774.63 95.4987 779.899 99.8687 783.883C104.11 787.867 109.637 790.309 115.164 791.594C116.578 791.979 117.991 792.108 119.148 792.365C120.433 792.622 121.719 793.136 122.875 793.65C125.318 794.678 127.374 796.349 129.173 798.276C132.772 802.26 134.829 807.401 135.985 812.67C137.142 817.939 137.656 823.465 137.399 828.991C137.913 823.336 137.785 817.81 136.885 812.413Z" fill="#EDCFC5"/>
<path d="M376.2 227.301C367.846 236.554 359.234 245.549 349.852 253.774L348.181 255.316L346.381 256.858L342.782 259.814C341.626 260.842 340.469 261.87 339.184 262.77L335.456 265.469C330.572 269.324 325.303 272.537 319.905 275.493C314.506 278.448 308.851 281.019 303.067 283.46C297.412 285.902 291.5 288.087 285.716 290.143C274.02 294.255 262.066 297.854 249.985 301.066C237.903 304.279 225.821 307.106 213.611 309.677C201.529 312.761 189.319 315.46 176.98 318.03C183.15 317.387 189.448 316.616 195.617 315.717C201.786 314.817 207.956 313.917 214.254 312.761C221.58 311.219 228.906 309.548 236.232 307.749C241.116 306.592 246 305.307 250.884 304.022C254.483 303.122 257.954 302.094 261.552 301.066C270.035 298.625 278.518 295.926 286.872 292.97C292.785 290.914 298.697 288.601 304.481 286.159C310.265 283.717 316.048 281.019 321.575 278.063C327.102 275.107 332.629 271.766 337.513 267.91L341.369 265.083C342.654 264.184 343.811 263.155 345.096 262.127L348.695 259.172L350.494 257.629L352.294 256.087C361.805 247.734 370.416 238.738 378.899 229.357C387.253 219.976 395.222 210.337 402.806 200.313L408.204 192.603C409.875 190.032 411.674 187.462 413.345 184.764C416.815 179.495 420.157 174.226 423.242 168.828C415.915 178.981 408.204 188.876 400.235 198.514C392.395 208.41 384.554 218.048 376.2 227.301Z" fill="#EDCFC5"/>
<path d="M1096.48 404.776C1101.1 401.306 1105.47 397.451 1109.59 393.339C1113.7 389.226 1117.56 384.985 1121.15 380.487C1124.88 376.118 1128.35 371.492 1131.69 366.737C1138.38 357.355 1144.55 347.717 1150.2 337.693C1152.9 332.553 1155.34 327.412 1157.79 322.272C1160.23 317.131 1162.54 311.862 1164.6 306.465C1159.2 316.617 1153.54 326.513 1147.37 336.022C1141.72 345.918 1135.68 355.556 1129 364.809C1125.65 369.435 1122.31 373.933 1118.71 378.303C1115.11 382.672 1111.26 386.913 1107.27 390.897C1103.29 394.881 1099.05 398.608 1094.55 401.949C1090.05 405.29 1085.3 408.246 1080.15 410.431C1070 414.928 1058.43 415.057 1047.51 412.358C1036.58 409.659 1026.3 404.776 1016.79 398.736C1007.28 392.696 998.281 385.628 989.927 377.917C981.187 370.592 972.961 362.753 965.121 354.4C968.463 359.026 972.19 363.395 975.917 367.765C979.645 372.134 983.629 376.247 987.742 380.359C996.225 388.07 1005.35 395.266 1015.12 401.435C1024.89 407.603 1035.43 412.744 1046.74 415.571C1050.21 416.471 1053.81 416.985 1057.28 417.242C1059.59 417.37 1061.77 417.499 1064.09 417.37C1070 417.113 1075.91 415.7 1081.31 413.515C1086.07 411.459 1090.44 408.888 1094.55 405.933C1095.19 405.547 1095.83 405.162 1096.48 404.776Z" fill="#EDCFC5"/>
<path d="M1000.72 316.618C994.036 313.791 987.481 310.835 980.798 308.136C980.412 308.008 980.026 307.879 979.641 307.622C986.067 311.606 992.622 315.462 999.177 319.445L1019.48 329.855L1060.1 350.674L1061.51 351.445L1062.28 350.031L1083.62 307.751L1094.29 286.675C1097.5 279.478 1100.59 272.153 1103.54 264.828C1099.43 271.511 1095.32 278.322 1091.46 285.261L1080.79 306.466L1060.1 347.332L1049.43 341.806L1021.03 327.285L1000.72 316.618Z" fill="#EDCFC5"/>
<path d="M885.432 298.11C884.79 297.725 884.147 297.468 883.504 297.211L881.577 296.44C880.291 295.926 879.006 295.54 877.721 295.026C875.15 294.126 872.708 293.227 870.652 291.813C869.623 291.171 868.724 290.271 868.595 289.757C868.466 289.5 868.595 289.372 868.724 288.986C868.852 288.729 869.238 288.343 869.623 287.958C870.009 287.572 870.523 287.315 871.166 287.058C871.551 286.801 872.065 286.673 872.708 286.544C873.865 286.287 875.15 286.287 876.564 286.159C881.833 286.159 887.36 286.673 892.758 287.187C898.157 287.701 903.683 288.215 909.082 288.729C911.781 288.986 914.608 289.114 917.307 289.243C918.721 289.243 920.007 289.371 921.42 289.371C922.706 289.5 923.991 289.629 925.405 289.757C930.674 290.528 935.687 292.199 940.442 294.64C945.455 296.568 950.211 299.138 954.709 302.351C951.11 298.11 946.74 294.64 941.856 291.685C936.844 289.243 931.445 287.444 925.79 286.544C924.376 286.287 922.963 286.159 921.549 286.03C920.135 285.902 918.721 285.902 917.436 285.902C914.737 285.773 912.038 285.645 909.339 285.388C903.94 285.002 898.542 284.36 893.015 283.846C887.617 283.331 882.091 282.689 876.435 282.817C875.022 282.817 873.608 282.946 872.065 283.203C871.294 283.331 870.523 283.588 869.752 283.974C869.109 284.36 868.466 284.745 867.824 285.259C867.181 285.773 866.539 286.416 866.024 287.315C865.51 288.215 865.253 289.5 865.639 290.528C865.896 291.556 866.539 292.327 867.053 292.97C867.695 293.612 868.209 293.998 868.852 294.512C871.423 296.183 874.122 297.082 876.692 297.982C877.978 298.367 879.263 298.881 880.548 299.267C881.833 299.781 882.99 300.295 884.275 300.68C889.417 302.351 894.558 304.664 899.956 305.821C894.815 303.765 890.445 300.68 885.432 298.11Z" fill="#EDCFC5"/>
</svg>
