<svg width="1195" height="844" viewBox="0 0 1195 844" fill="none" xmlns="http://www.w3.org/2000/svg">
<path d="M96.7829 712.302C95.7547 714.743 94.8551 717.314 94.341 719.884C92.156 730.55 90.7422 741.474 91.1277 752.269C91.3848 757.666 92.1558 763.064 93.8267 768.076C94.9834 771.546 96.6545 774.887 98.8395 777.843C100.382 756.51 102.31 727.98 104.623 696.109C103.081 699.065 101.538 702.021 99.9961 704.977C98.9679 707.29 97.8111 709.86 96.7829 712.302Z" fill="white"/>
<path d="M236.109 307.877C228.783 309.676 221.457 311.347 214.131 312.889C207.961 313.917 201.792 314.945 195.494 315.845C189.325 316.744 183.027 317.515 176.858 318.158C189.068 315.588 201.278 312.889 213.488 309.805C225.698 307.235 237.909 304.407 249.862 301.195C261.944 297.982 273.896 294.383 285.593 290.271C291.505 288.215 297.289 286.03 302.944 283.588C308.599 281.147 314.255 278.577 319.781 275.621C325.18 272.665 330.449 269.452 335.333 265.597L339.061 262.898C340.346 261.999 341.503 260.971 342.66 259.942L346.258 256.987L348.058 255.445L349.729 253.902C359.111 245.678 367.723 236.682 376.077 227.429C384.431 218.176 392.272 208.538 399.855 198.514C407.824 188.876 415.407 178.98 422.861 168.828C422.861 168.828 474.016 132.588 485.069 125.648C496.123 118.708 511.932 114.853 506.662 106.628C502.806 100.46 467.204 117.423 467.204 117.423C467.204 117.423 470.674 108.556 478.386 99.9458C486.997 90.1789 508.847 84.1389 506.277 74.2435C504.477 67.3039 463.862 87.2232 463.862 87.2232C463.862 87.2232 468.103 80.7976 472.088 76.4282C476.843 71.2878 490.339 68.2035 482.884 60.3643C479.542 56.766 455.507 67.4324 440.47 81.5687C434.943 86.8376 429.673 90.8215 425.432 93.7772C428.388 89.0223 430.959 84.6529 431.858 82.7253C432.629 81.0546 433.401 78.9984 434.043 76.8138C435.328 72.5729 435.586 68.2035 431.858 66.6613C429.288 65.6333 412.451 82.3397 411.422 86.4521C411.294 86.9661 411.037 87.7372 410.651 88.7653L407.309 95.1909L380.832 146.081L298.96 216.12L297.803 217.02L182.641 239.124C178.014 238.738 173.13 239.381 167.732 240.923C133.286 251.589 133.672 280.504 125.703 397.193C112.85 487.408 0.00195312 764.478 0.00195312 764.478L79.3041 828.22L137.271 828.734C137.528 823.208 137.013 817.682 135.857 812.413C134.7 807.144 132.515 801.875 129.045 798.019C127.246 796.092 125.189 794.421 122.747 793.393C121.59 792.879 120.305 792.365 119.02 792.108C117.734 791.851 116.32 791.594 115.035 791.337C109.508 790.18 104.11 787.61 99.7403 783.626C95.4989 779.642 92.5427 774.373 90.7433 768.976C88.9439 763.578 88.0442 757.924 87.7871 752.269C87.273 740.96 88.8153 729.908 91.0003 718.985C91.643 716.158 92.5428 713.459 93.6995 710.889C94.7278 708.318 95.8845 705.748 97.1698 703.307C99.6118 698.295 102.182 693.411 104.881 688.656C110.28 679.018 115.806 669.508 121.333 659.998C132.258 640.979 143.054 621.702 152.951 602.04C172.873 562.844 189.839 522.106 201.792 479.825C202.563 477.127 203.206 474.556 203.977 471.858C204.748 469.159 205.391 466.589 205.905 463.89C207.062 458.492 207.961 453.095 208.861 447.698C210.532 436.903 211.56 425.979 212.331 414.927C214.388 393.08 214.259 370.976 213.103 349.001C214.259 359.924 215.287 370.976 215.544 382.028C215.673 384.727 215.802 387.554 215.802 390.253L215.93 398.478C215.802 404.004 215.802 409.53 215.544 415.056C214.902 426.108 213.617 437.16 212.074 448.083C211.303 453.609 210.275 459.007 209.118 464.404C208.604 467.103 207.833 469.801 207.19 472.5C206.547 475.199 205.776 477.769 205.005 480.468C193.052 523.005 175.958 564 156.036 603.325C146.011 622.987 135.214 642.264 124.289 661.412C118.762 670.922 113.236 680.432 107.966 690.07C106.938 691.998 105.91 693.925 104.881 695.724C102.696 727.595 100.64 756.125 99.0977 777.458C99.9974 778.743 101.025 779.899 102.182 781.056C105.91 784.783 110.665 787.353 115.806 788.638C117.092 789.024 118.377 789.281 119.791 789.666C121.204 790.052 122.49 790.566 123.775 791.208C126.346 792.493 128.659 794.421 130.459 796.606C134.057 801.104 135.985 806.501 136.885 812.027C137.785 817.553 137.913 823.079 137.399 828.477C137.399 828.477 137.399 828.477 137.399 828.348L230.711 828.862C230.711 828.862 235.981 802.389 212.074 793.393C177.243 780.413 170.945 758.181 172.616 742.503C178.657 686.343 205.648 510.668 219.015 405.417C226.213 410.686 234.181 415.827 243.05 420.71C243.05 388.197 247.034 356.454 254.36 326.126L236.109 307.877Z" fill="#1E2B3C"/>
<path d="M407.313 95.3203C363.613 127.834 326.725 168.957 298.963 216.121L380.836 146.082L407.313 95.3203Z" fill="#E5AA20"/>
<path d="M1015.12 401.562C1005.36 395.394 996.359 388.197 987.747 380.486C983.634 376.374 979.779 372.262 975.923 367.892C972.195 363.651 968.468 359.153 965.127 354.527V354.398C952.145 341.162 933.765 324.198 920.655 318.672C897.906 309.034 861.275 291.813 851.25 291.171C841.61 290.528 835.312 287.444 839.682 282.818C846.494 275.492 872.971 282.689 872.971 282.689C872.971 282.689 862.689 276.007 860.118 274.85C854.206 271.894 860.89 267.011 872.072 267.782C877.855 268.167 910.373 277.677 910.373 277.677C910.373 277.677 911.787 278.448 912.944 278.063C914.101 277.677 906.132 271.252 903.818 269.71C901.505 268.167 899.577 265.469 903.433 263.926C907.289 262.384 924.897 271.38 930.681 273.693C936.465 276.007 954.716 282.304 964.355 290.4C968.083 293.484 974.381 300.681 980.807 308.263C987.49 310.962 994.045 313.917 1000.73 316.745L1021.04 327.154L1049.44 341.676C1044.94 319.058 1038.52 296.954 1030.29 275.878C971.553 123.335 823.488 15 650.231 15C570.801 15 496.768 37.7465 434.046 77.071C433.403 79.1272 432.632 81.1833 431.861 82.9825C430.961 84.9102 428.391 89.4081 425.435 94.0345C429.676 91.0787 434.817 87.0949 440.472 81.8259C455.51 67.6897 479.545 57.0232 482.887 60.6215C490.341 68.4607 476.846 71.545 472.09 76.6854C468.106 81.0548 463.865 87.4804 463.865 87.4804C463.865 87.4804 504.48 67.4326 506.279 74.5008C508.85 84.3961 487 90.4362 478.388 100.203C470.677 108.942 467.206 117.681 467.206 117.681C467.206 117.681 502.809 100.717 506.665 106.886C511.934 115.11 496.125 118.837 485.072 125.905C474.019 132.845 422.864 169.085 422.864 169.085C419.779 174.483 416.438 179.88 412.967 185.021C411.296 187.719 409.497 190.289 407.826 192.86L402.428 200.57C394.845 210.594 386.876 220.233 378.522 229.614C370.167 238.995 361.427 247.991 351.916 256.344L350.117 257.886L348.317 259.429L344.718 262.384C343.433 263.412 342.277 264.441 340.991 265.34L337.135 268.167C332.123 272.023 326.725 275.364 321.198 278.32C315.671 281.404 309.887 283.974 304.104 286.416C298.32 288.858 292.408 291.042 286.495 293.227C278.141 296.183 269.658 298.882 261.175 301.323C258.604 309.677 256.291 318.158 254.234 326.769C246.908 357.097 243.052 388.711 242.924 421.353C242.924 421.61 242.924 421.867 242.924 422.124C242.924 646.89 425.178 829.248 650.103 829.248C874.899 829.248 1057.28 647.019 1057.28 422.124C1057.28 420.582 1057.28 419.04 1057.28 417.498C1053.68 417.241 1050.21 416.598 1046.74 415.827C1035.43 412.871 1024.89 407.731 1015.12 401.562Z" fill="#E5AA20"/>
<path d="M1124.76 248.374C1116.92 250.302 1110.75 253.643 1105.99 258.527L1105.86 258.398L1105.09 259.426C1103.16 261.611 1101.36 264.181 1099.82 266.88L1066.28 314.943L1030.16 275.619C1038.26 296.823 1044.68 318.798 1049.31 341.416L1059.98 346.942L1080.67 306.076L1091.34 284.871C1095.32 278.06 1099.31 271.249 1103.42 264.438C1100.46 271.763 1097.38 279.088 1094.17 286.285L1083.5 307.361L1062.16 349.641L1061.39 351.055L1059.98 350.284L1019.36 329.465L999.055 319.055C992.5 315.2 985.945 311.345 979.519 307.232C979.905 307.361 980.29 307.489 980.676 307.746C974.249 300.164 967.823 292.968 964.224 289.883C954.584 281.787 936.333 275.49 930.549 273.177C924.766 270.864 907.157 261.868 903.301 263.41C899.446 264.952 901.374 267.651 903.687 269.193C906.001 270.735 913.969 277.161 912.812 277.546C911.656 277.932 910.242 277.161 910.242 277.161C910.242 277.161 877.724 267.779 871.941 267.265C860.63 266.494 853.946 271.378 859.987 274.333C862.429 275.619 872.84 282.173 872.84 282.173C872.84 282.173 846.363 275.105 839.551 282.301C835.31 286.928 841.479 290.14 851.119 290.654C861.144 291.297 897.775 308.518 920.524 318.156C933.763 323.81 952.014 340.645 964.995 353.882V354.011C972.835 362.364 981.061 370.203 989.801 377.528C998.156 385.239 1007.15 392.178 1016.66 398.347C1026.17 404.387 1036.46 409.399 1047.38 411.969C1058.18 414.668 1069.87 414.539 1080.03 410.041C1085.17 407.857 1089.92 405.03 1094.42 401.56C1098.92 398.218 1103.16 394.492 1107.15 390.508C1111.13 386.524 1114.99 382.283 1118.59 377.914C1122.19 373.544 1125.66 369.046 1128.87 364.42C1135.42 355.167 1141.59 345.529 1147.25 335.633C1153.42 325.995 1159.07 316.1 1164.47 306.076C1162.42 311.345 1160.1 316.614 1157.66 321.883C1155.22 327.023 1152.78 332.164 1150.08 337.304C1144.42 347.199 1138.25 356.966 1131.57 366.348C1128.23 370.974 1124.76 375.6 1121.03 380.098C1117.43 384.596 1113.45 388.837 1109.46 392.949C1105.48 397.062 1100.98 400.917 1096.35 404.387C1095.71 404.773 1095.19 405.287 1094.55 405.672C1094.55 405.929 1094.55 406.058 1094.55 406.315C1094.55 508.867 1093.4 685.313 1099.56 742.372C1101.24 758.179 1095.07 780.283 1060.11 793.262C1036.07 802.258 1041.47 828.732 1041.47 828.732L1059.59 828.603V828.732C1058.05 821.278 1058.56 813.31 1061.91 806.242C1063.58 802.772 1066.02 799.559 1069.1 796.989C1070.65 795.704 1072.32 794.547 1073.99 793.648C1075.66 792.62 1077.59 791.849 1079.26 791.206C1086.2 788.636 1092.88 785.038 1098.66 780.668C1101.62 778.355 1104.32 775.913 1106.63 773.086C1108.95 770.259 1111 767.174 1112.55 763.962C1115.63 757.408 1116.79 749.954 1116.02 742.757C1115.25 735.175 1114.47 727.722 1113.83 720.139C1112.42 705.104 1111.13 689.939 1109.98 674.903C1107.53 644.703 1105.22 614.503 1103.03 584.303C1102.01 569.267 1100.85 554.103 1099.95 539.067C1099.44 523.903 1098.92 508.738 1098.54 493.702L1103.03 538.938L1106.25 584.174C1108.43 614.375 1110.75 644.575 1113.19 674.646C1114.47 689.682 1115.76 704.847 1117.04 719.882C1117.69 727.465 1118.46 734.918 1119.23 742.5C1120.13 750.34 1118.84 758.307 1115.5 765.504C1113.83 769.102 1111.65 772.315 1109.2 775.399C1106.63 778.355 1103.81 781.054 1100.72 783.367C1094.55 788.122 1087.61 791.592 1080.54 794.547L1077.97 795.576C1077.07 795.833 1076.3 796.218 1075.53 796.604C1073.86 797.375 1072.32 798.274 1070.9 799.302C1067.95 801.359 1065.5 804.186 1063.71 807.399C1061.91 810.611 1060.75 814.21 1060.11 817.808C1059.46 821.535 1059.34 825.262 1059.85 829.117L1193.65 828.346L1194.42 817.937C1194.42 817.937 1196.48 516.32 1192.88 412.997C1187.22 255.185 1160.87 239.764 1124.76 248.374ZM884.279 300.935C882.994 300.55 881.709 300.036 880.552 299.522C879.267 299.008 877.981 298.622 876.696 298.237C873.997 297.337 871.426 296.309 868.856 294.767C868.213 294.381 867.57 293.867 867.056 293.225C866.414 292.582 865.899 291.94 865.642 290.783C865.257 289.755 865.514 288.47 866.028 287.57C866.542 286.671 867.185 286.028 867.827 285.514C868.47 285 869.113 284.614 869.755 284.229C870.526 283.843 871.426 283.586 872.069 283.458C873.611 283.201 875.025 283.072 876.439 283.072C882.094 283.072 887.492 283.586 893.019 284.1C898.417 284.614 903.944 285.128 909.342 285.643C912.041 285.9 914.74 286.028 917.44 286.157C918.725 286.157 920.139 286.285 921.552 286.285C922.966 286.414 924.38 286.542 925.794 286.799C931.321 287.699 936.719 289.498 941.86 291.94C946.744 294.895 951.114 298.365 954.713 302.606C950.214 299.393 945.459 296.823 940.446 294.895C935.69 292.454 930.549 290.911 925.408 290.012C924.123 289.755 922.838 289.626 921.424 289.626C920.139 289.498 918.725 289.498 917.311 289.498C914.612 289.369 911.784 289.241 909.085 288.984C903.558 288.598 898.16 287.956 892.762 287.442C887.364 286.928 881.837 286.414 876.567 286.414C875.282 286.414 873.997 286.542 872.712 286.799C872.069 286.928 871.555 287.056 871.169 287.313C870.655 287.57 870.141 287.956 869.627 288.213C869.241 288.598 868.856 288.855 868.727 289.241C868.599 289.626 868.599 289.755 868.599 290.012C868.727 290.526 869.627 291.426 870.655 292.068C872.712 293.353 875.282 294.381 877.724 295.281C879.01 295.666 880.295 296.18 881.58 296.695L883.508 297.466C884.151 297.723 884.793 297.98 885.436 298.365C890.449 300.935 894.819 304.02 899.831 306.333C894.433 304.919 889.292 302.606 884.279 300.935Z" fill="#1E2B3C"/>
<path d="M1060.11 817.809C1060.75 814.082 1061.91 810.484 1063.71 807.399C1065.51 804.186 1067.95 801.488 1070.91 799.303C1072.32 798.275 1073.99 797.375 1075.53 796.604C1076.3 796.219 1077.2 795.833 1077.97 795.576L1080.54 794.548C1087.61 791.721 1094.68 788.251 1100.72 783.368C1103.81 781.055 1106.64 778.356 1109.21 775.4C1111.65 772.444 1113.96 769.103 1115.5 765.505C1118.85 758.436 1120.13 750.34 1119.23 742.501C1118.46 735.047 1117.69 727.465 1117.05 719.883C1115.63 704.847 1114.35 689.811 1113.19 674.647C1110.75 644.447 1108.44 614.375 1106.25 584.175L1103.04 538.939L1098.67 493.703C1098.92 508.867 1099.57 524.032 1100.08 539.068C1100.98 554.232 1102.14 569.268 1103.17 584.304C1105.35 614.504 1107.66 644.704 1110.11 674.904C1111.39 689.94 1112.68 705.104 1113.96 720.14C1114.6 727.722 1115.38 735.176 1116.15 742.758C1116.92 749.955 1115.76 757.408 1112.68 763.962C1111.13 767.304 1109.08 770.26 1106.76 773.087C1104.45 775.914 1101.75 778.356 1098.8 780.669C1093.01 785.167 1086.33 788.637 1079.39 791.207C1077.72 791.849 1075.79 792.621 1074.12 793.649C1072.45 794.548 1070.78 795.705 1069.23 796.99C1066.15 799.56 1063.71 802.773 1062.04 806.243C1058.7 813.311 1058.18 821.407 1059.72 828.732C1059.34 825.262 1059.47 821.536 1060.11 817.809Z" fill="#EDCFC5"/>
<path d="M1098.92 214.709C1110.36 225.247 1128.1 224.604 1138.64 213.167L1141.98 209.569C1141.98 210.211 1142.11 210.725 1142.36 211.239C1143.65 213.681 1148.02 213.938 1152.13 211.753C1156.25 209.569 1158.43 205.842 1157.15 203.4C1156.37 201.986 1154.57 201.344 1152.52 201.472C1151.36 201.472 1150.72 200.187 1151.36 199.288C1159.2 187.979 1157.79 172.3 1147.25 162.662C1135.81 152.124 1118.07 152.767 1107.53 164.204L1098.54 173.971L1106.38 181.168L1100.85 187.208C1103.29 189.392 1106.51 190.549 1109.85 190.549C1110.75 190.549 1111.52 191.191 1111.52 192.091C1111.52 192.991 1110.88 193.762 1109.98 193.762C1109.85 193.762 1109.59 193.762 1109.46 193.762C1105.48 193.762 1101.62 192.348 1098.67 189.649L1090.44 198.517C1091.21 204.3 1094.04 210.211 1098.92 214.709Z" fill="#1E2B3C"/>
<path d="M1109.84 193.503C1110.74 193.503 1111.39 192.732 1111.39 191.833C1111.39 190.933 1110.62 190.291 1109.72 190.291C1106.37 190.419 1103.16 189.262 1100.72 186.949L1098.53 189.262C1101.49 191.961 1105.35 193.375 1109.33 193.375C1109.46 193.503 1109.59 193.503 1109.84 193.503Z" fill="#EDCFC5"/>
<path d="M136.63 206.61C137.015 206.224 137.401 205.71 137.529 205.196L139.329 209.694C144.856 224.216 161.179 231.412 175.702 225.886C181.872 223.573 186.756 219.204 189.84 213.935L185.471 202.626C183.671 203.268 181.743 203.654 179.944 203.654C177.759 203.654 175.574 203.14 173.517 202.24C172.746 201.855 172.361 200.955 172.746 200.184C173.132 199.413 174.031 199.027 174.803 199.413C177.887 200.827 181.229 200.827 184.442 199.67L181.486 191.959L191.383 188.104L186.627 175.767C181.1 161.245 164.778 154.048 150.254 159.574C137.015 164.586 129.818 178.594 132.902 192.088C133.16 193.244 132.003 194.144 130.975 193.63C129.047 192.73 127.119 192.73 125.833 193.758C123.648 195.558 124.42 199.799 127.376 203.397C130.46 206.995 134.573 208.409 136.63 206.61Z" fill="#1E2B3C"/>
<path d="M174.675 199.413C173.903 199.027 172.875 199.413 172.618 200.184C172.232 200.955 172.618 201.983 173.389 202.24C175.446 203.14 177.631 203.654 179.816 203.654C181.744 203.654 183.543 203.268 185.342 202.626L184.186 199.67C181.229 200.827 177.759 200.827 174.675 199.413Z" fill="#EDCFC5"/>
<path d="M136.887 812.413C135.859 807.015 134.059 801.489 130.461 796.991C128.661 794.807 126.348 792.879 123.777 791.594C122.492 790.951 121.078 790.437 119.793 790.052C118.379 789.666 117.094 789.409 115.808 789.024C110.667 787.61 105.912 785.04 102.184 781.441C101.027 780.285 99.9993 779.128 99.0996 777.843C96.9147 774.887 95.2436 771.675 94.0868 768.076C92.416 763.064 91.645 757.667 91.3879 752.269C90.8738 741.474 92.4162 730.551 94.6011 719.885C95.1153 717.314 96.0148 714.744 97.0431 712.302C98.0713 709.861 99.2282 707.29 100.385 704.849C101.799 701.893 103.341 698.937 105.012 695.981C106.04 694.054 107.068 692.126 108.097 690.327C113.495 680.689 119.022 671.179 124.42 661.669C135.473 642.521 146.141 623.244 156.166 603.582C176.217 564.257 193.311 523.262 205.136 480.725C205.907 478.026 206.55 475.456 207.321 472.757C208.092 470.058 208.735 467.36 209.249 464.661C210.405 459.264 211.434 453.738 212.205 448.34C213.876 437.417 215.032 426.365 215.675 415.313C215.932 409.787 215.932 404.261 216.061 398.735L215.932 390.51C215.932 387.811 215.804 384.984 215.675 382.285C215.418 371.233 214.39 360.31 213.233 349.258C214.39 371.233 214.518 393.337 212.462 415.184C211.691 426.108 210.663 437.031 208.992 447.955C208.22 453.352 207.192 458.749 206.035 464.147C205.521 466.846 204.879 469.416 204.108 472.115C203.465 474.813 202.694 477.384 201.923 480.082C190.098 522.363 173.132 563.229 153.082 602.297C143.056 621.959 132.388 641.107 121.464 660.255C115.937 669.765 110.41 679.275 105.012 688.913C102.313 693.797 99.7421 698.552 97.3001 703.564C96.1433 706.005 94.8581 708.576 93.8298 711.146C92.8016 713.716 91.7736 716.415 91.1309 719.242C88.9459 730.165 87.4036 741.217 87.9177 752.526C88.1748 758.181 89.0742 763.707 90.8736 769.233C92.673 774.63 95.5007 779.899 99.8706 783.883C104.112 787.867 109.639 790.309 115.166 791.594C116.58 791.979 117.993 792.108 119.15 792.365C120.435 792.622 121.721 793.136 122.877 793.65C125.319 794.678 127.376 796.349 129.175 798.276C132.774 802.26 134.831 807.401 135.987 812.67C137.144 817.939 137.658 823.465 137.401 828.991C137.915 823.336 137.787 817.81 136.887 812.413Z" fill="#EDCFC5"/>
<path d="M376.202 227.301C367.847 236.554 359.236 245.549 349.853 253.774L348.183 255.316L346.383 256.858L342.784 259.814C341.628 260.842 340.471 261.87 339.186 262.77L335.458 265.469C330.574 269.324 325.305 272.537 319.907 275.493C314.508 278.448 308.853 281.019 303.069 283.46C297.414 285.902 291.502 288.087 285.718 290.143C274.022 294.255 262.068 297.854 249.987 301.066C237.905 304.279 225.823 307.106 213.613 309.677C201.531 312.761 189.321 315.46 176.982 318.03C183.152 317.387 189.45 316.616 195.619 315.717C201.788 314.817 207.958 313.917 214.256 312.761C221.582 311.219 228.908 309.548 236.234 307.749C241.118 306.592 246.002 305.307 250.886 304.022C254.485 303.122 257.956 302.094 261.554 301.066C270.037 298.625 278.52 295.926 286.874 292.97C292.787 290.914 298.699 288.601 304.483 286.159C310.267 283.717 316.05 281.019 321.577 278.063C327.104 275.107 332.631 271.766 337.515 267.91L341.371 265.083C342.656 264.184 343.813 263.155 345.098 262.127L348.697 259.172L350.496 257.629L352.296 256.087C361.807 247.734 370.418 238.738 378.901 229.357C387.255 219.976 395.224 210.337 402.808 200.313L408.206 192.603C409.877 190.032 411.676 187.462 413.347 184.764C416.817 179.495 420.159 174.226 423.243 168.828C415.917 178.981 408.206 188.876 400.237 198.514C392.397 208.41 384.556 218.048 376.202 227.301Z" fill="#EDCFC5"/>
<path d="M1096.48 404.776C1101.11 401.306 1105.48 397.451 1109.59 393.339C1113.7 389.226 1117.56 384.985 1121.16 380.487C1124.88 376.118 1128.35 371.492 1131.7 366.737C1138.38 357.355 1144.55 347.717 1150.2 337.693C1152.9 332.553 1155.35 327.412 1157.79 322.272C1160.23 317.131 1162.54 311.862 1164.6 306.465C1159.2 316.617 1153.55 326.513 1147.38 336.022C1141.72 345.918 1135.68 355.556 1129 364.809C1125.66 369.435 1122.31 373.933 1118.71 378.303C1115.12 382.672 1111.26 386.913 1107.28 390.897C1103.29 394.881 1099.05 398.608 1094.55 401.949C1090.05 405.29 1085.3 408.246 1080.16 410.431C1070 414.928 1058.43 415.057 1047.51 412.358C1036.58 409.659 1026.3 404.776 1016.79 398.736C1007.28 392.696 998.283 385.628 989.929 377.917C981.189 370.592 972.963 362.753 965.123 354.4C968.465 359.026 972.192 363.395 975.919 367.765C979.647 372.134 983.631 376.247 987.744 380.359C996.227 388.07 1005.35 395.266 1015.12 401.435C1024.89 407.603 1035.43 412.744 1046.74 415.571C1050.21 416.471 1053.81 416.985 1057.28 417.242C1059.59 417.37 1061.78 417.499 1064.09 417.37C1070 417.113 1075.91 415.7 1081.31 413.515C1086.07 411.459 1090.44 408.888 1094.55 405.933C1095.19 405.547 1095.84 405.162 1096.48 404.776Z" fill="#EDCFC5"/>
<path d="M1000.72 316.618C994.038 313.791 987.483 310.835 980.8 308.136C980.414 308.008 980.028 307.879 979.643 307.622C986.069 311.606 992.624 315.462 999.179 319.445L1019.49 329.855L1060.1 350.674L1061.52 351.445L1062.29 350.031L1083.62 307.751L1094.29 286.675C1097.5 279.478 1100.59 272.153 1103.54 264.828C1099.43 271.511 1095.32 278.322 1091.46 285.261L1080.79 306.466L1060.1 347.332L1049.43 341.806L1021.03 327.285L1000.72 316.618Z" fill="#EDCFC5"/>
<path d="M885.434 298.11C884.792 297.725 884.149 297.468 883.506 297.211L881.578 296.44C880.293 295.926 879.008 295.54 877.723 295.026C875.152 294.126 872.71 293.227 870.654 291.813C869.625 291.171 868.725 290.271 868.597 289.757C868.468 289.5 868.597 289.372 868.726 288.986C868.854 288.729 869.24 288.343 869.625 287.958C870.011 287.572 870.525 287.315 871.168 287.058C871.553 286.801 872.067 286.673 872.71 286.544C873.867 286.287 875.152 286.287 876.566 286.159C881.835 286.159 887.362 286.673 892.76 287.187C898.159 287.701 903.685 288.215 909.083 288.729C911.783 288.986 914.61 289.114 917.309 289.243C918.723 289.243 920.009 289.371 921.422 289.371C922.708 289.5 923.993 289.629 925.407 289.757C930.676 290.528 935.689 292.199 940.444 294.64C945.457 296.568 950.213 299.138 954.711 302.351C951.112 298.11 946.742 294.64 941.858 291.685C936.846 289.243 931.447 287.444 925.792 286.544C924.378 286.287 922.964 286.159 921.551 286.03C920.137 285.902 918.723 285.902 917.438 285.902C914.739 285.773 912.04 285.645 909.34 285.388C903.942 285.002 898.544 284.36 893.017 283.846C887.619 283.331 882.093 282.689 876.437 282.817C875.023 282.817 873.609 282.946 872.067 283.203C871.296 283.331 870.525 283.588 869.754 283.974C869.111 284.36 868.468 284.745 867.826 285.259C867.183 285.773 866.54 286.416 866.026 287.315C865.512 288.215 865.255 289.5 865.641 290.528C865.898 291.556 866.541 292.327 867.055 292.97C867.697 293.612 868.211 293.998 868.854 294.512C871.425 296.183 874.124 297.082 876.694 297.982C877.98 298.367 879.265 298.881 880.55 299.267C881.835 299.781 882.992 300.295 884.277 300.68C889.419 302.351 894.56 304.664 899.958 305.821C894.817 303.765 890.447 300.68 885.434 298.11Z" fill="#EDCFC5"/>
</svg>
