<svg width="1195" height="844" viewBox="0 0 1195 844" fill="none" xmlns="http://www.w3.org/2000/svg">
<path d="M96.7848 712.302C95.7566 714.743 94.857 717.314 94.3429 719.884C92.1579 730.55 90.7441 741.474 91.1297 752.269C91.3868 757.666 92.1577 763.064 93.8286 768.076C94.9854 771.546 96.6564 774.887 98.8414 777.843C100.384 756.51 102.312 727.98 104.625 696.109C103.083 699.065 101.54 702.021 99.9981 704.977C98.9698 707.29 97.8131 709.86 96.7848 712.302Z" fill="white"/>
<path d="M236.111 307.877C228.785 309.676 221.459 311.347 214.133 312.889C207.963 313.917 201.794 314.945 195.496 315.845C189.327 316.744 183.029 317.515 176.859 318.158C189.07 315.588 201.28 312.889 213.49 309.805C225.7 307.235 237.911 304.407 249.864 301.195C261.946 297.982 273.898 294.383 285.595 290.271C291.507 288.215 297.291 286.03 302.946 283.588C308.601 281.147 314.257 278.577 319.783 275.621C325.181 272.665 330.451 269.452 335.335 265.597L339.063 262.898C340.348 261.999 341.505 260.971 342.661 259.942L346.26 256.987L348.06 255.445L349.731 253.902C359.113 245.678 367.725 236.682 376.079 227.429C384.433 218.176 392.274 208.538 399.857 198.514C407.826 188.876 415.409 178.98 422.863 168.828C422.863 168.828 474.018 132.588 485.071 125.648C496.125 118.708 511.934 114.853 506.664 106.628C502.808 100.46 467.206 117.423 467.206 117.423C467.206 117.423 470.676 108.556 478.388 99.9458C486.999 90.1789 508.849 84.1389 506.279 74.2435C504.479 67.3039 463.864 87.2232 463.864 87.2232C463.864 87.2232 468.105 80.7976 472.09 76.4282C476.845 71.2878 490.341 68.2035 482.886 60.3643C479.544 56.766 455.509 67.4324 440.472 81.5687C434.945 86.8376 429.675 90.8215 425.434 93.7772C428.39 89.0223 430.961 84.6529 431.86 82.7253C432.631 81.0546 433.402 78.9984 434.045 76.8138C435.33 72.5729 435.588 68.2035 431.86 66.6613C429.29 65.6333 412.453 82.3397 411.424 86.4521C411.296 86.9661 411.039 87.7372 410.653 88.7653L407.311 95.1909L380.834 146.081L298.962 216.12L297.805 217.02L182.643 239.124C178.016 238.738 173.132 239.381 167.734 240.923C133.288 251.589 133.674 280.504 125.705 397.193C112.852 487.408 0.00390625 764.478 0.00390625 764.478L79.306 828.22L137.273 828.734C137.53 823.208 137.015 817.682 135.859 812.413C134.702 807.144 132.517 801.875 129.047 798.019C127.247 796.092 125.191 794.421 122.749 793.393C121.592 792.879 120.307 792.365 119.022 792.108C117.736 791.851 116.322 791.594 115.037 791.337C109.51 790.18 104.112 787.61 99.7423 783.626C95.5008 779.642 92.5447 774.373 90.7453 768.976C88.9459 763.578 88.0461 757.924 87.789 752.269C87.2749 740.96 88.8173 729.908 91.0023 718.985C91.6449 716.158 92.5447 713.459 93.7015 710.889C94.7297 708.318 95.8864 705.748 97.1717 703.307C99.6137 698.295 102.184 693.411 104.883 688.656C110.282 679.018 115.808 669.508 121.335 659.998C132.26 640.979 143.056 621.702 152.953 602.04C172.875 562.844 189.841 522.106 201.794 479.825C202.565 477.127 203.208 474.556 203.979 471.858C204.75 469.159 205.393 466.589 205.907 463.89C207.064 458.492 207.963 453.095 208.863 447.698C210.534 436.903 211.562 425.979 212.333 414.927C214.39 393.08 214.261 370.976 213.104 349.001C214.261 359.924 215.289 370.976 215.546 382.028C215.675 384.727 215.804 387.554 215.804 390.253L215.932 398.478C215.804 404.004 215.803 409.53 215.546 415.056C214.904 426.108 213.619 437.16 212.076 448.083C211.305 453.609 210.277 459.007 209.12 464.404C208.606 467.103 207.835 469.801 207.192 472.5C206.549 475.199 205.778 477.769 205.007 480.468C193.054 523.005 175.96 564 156.038 603.325C146.013 622.987 135.216 642.264 124.291 661.412C118.764 670.922 113.238 680.432 107.968 690.07C106.94 691.998 105.912 693.925 104.883 695.724C102.698 727.595 100.642 756.125 99.0996 777.458C99.9993 778.743 101.027 779.899 102.184 781.056C105.912 784.783 110.667 787.353 115.808 788.638C117.094 789.024 118.379 789.281 119.793 789.666C121.206 790.052 122.492 790.566 123.777 791.208C126.348 792.493 128.661 794.421 130.461 796.606C134.059 801.104 135.987 806.501 136.887 812.027C137.787 817.553 137.915 823.079 137.401 828.477C137.401 828.477 137.401 828.477 137.401 828.348L230.713 828.862C230.713 828.862 235.983 802.389 212.076 793.393C177.245 780.413 170.947 758.181 172.618 742.503C178.659 686.343 205.65 510.668 219.017 405.417C226.215 410.686 234.183 415.827 243.052 420.71C243.052 388.197 247.036 356.454 254.362 326.126L236.111 307.877Z" fill="#1E2B3C"/>
<path d="M407.315 95.3203C363.615 127.834 326.727 168.957 298.965 216.121L380.838 146.082L407.315 95.3203Z" fill="#1E98F5"/>
<path d="M1015.13 401.562C1005.36 395.394 996.361 388.197 987.749 380.486C983.636 376.374 979.781 372.262 975.925 367.892C972.197 363.651 968.47 359.153 965.128 354.527V354.398C952.147 341.162 933.767 324.198 920.657 318.672C897.908 309.034 861.277 291.813 851.252 291.171C841.612 290.528 835.314 287.444 839.684 282.818C846.496 275.492 872.973 282.689 872.973 282.689C872.973 282.689 862.691 276.007 860.12 274.85C854.208 271.894 860.892 267.011 872.074 267.782C877.857 268.167 910.375 277.677 910.375 277.677C910.375 277.677 911.789 278.448 912.946 278.063C914.102 277.677 906.134 271.252 903.82 269.71C901.507 268.167 899.579 265.469 903.435 263.926C907.291 262.384 924.899 271.38 930.683 273.693C936.467 276.007 954.718 282.304 964.357 290.4C968.085 293.484 974.382 300.681 980.809 308.263C987.492 310.962 994.047 313.917 1000.73 316.745L1021.04 327.154L1049.44 341.676C1044.94 319.058 1038.52 296.954 1030.29 275.878C971.555 123.335 823.49 15 650.233 15C570.803 15 496.77 37.7465 434.048 77.071C433.405 79.1272 432.634 81.1833 431.863 82.9825C430.963 84.9102 428.393 89.4081 425.436 94.0345C429.678 91.0787 434.819 87.0949 440.474 81.8259C455.512 67.6897 479.547 57.0232 482.889 60.6215C490.343 68.4607 476.848 71.545 472.092 76.6854C468.108 81.0548 463.867 87.4804 463.867 87.4804C463.867 87.4804 504.482 67.4326 506.281 74.5008C508.852 84.3961 487.002 90.4362 478.39 100.203C470.678 108.942 467.208 117.681 467.208 117.681C467.208 117.681 502.811 100.717 506.667 106.886C511.936 115.11 496.127 118.837 485.074 125.905C474.02 132.845 422.866 169.085 422.866 169.085C419.781 174.483 416.44 179.88 412.969 185.021C411.298 187.719 409.499 190.289 407.828 192.86L402.43 200.57C394.847 210.594 386.878 220.233 378.524 229.614C370.169 238.995 361.429 247.991 351.918 256.344L350.119 257.886L348.319 259.429L344.72 262.384C343.435 263.412 342.278 264.441 340.993 265.34L337.137 268.167C332.125 272.023 326.727 275.364 321.2 278.32C315.673 281.404 309.889 283.974 304.106 286.416C298.322 288.858 292.41 291.042 286.497 293.227C278.143 296.183 269.66 298.882 261.177 301.323C258.606 309.677 256.293 318.158 254.236 326.769C246.91 357.097 243.054 388.711 242.926 421.353C242.926 421.61 242.926 421.867 242.926 422.124C242.926 646.89 425.179 829.248 650.105 829.248C874.901 829.248 1057.28 647.019 1057.28 422.124C1057.28 420.582 1057.28 419.04 1057.28 417.498C1053.68 417.241 1050.21 416.598 1046.74 415.827C1035.43 412.871 1024.89 407.731 1015.13 401.562Z" fill="#1E98F5"/>
<path d="M1124.76 248.374C1116.92 250.302 1110.75 253.643 1105.99 258.527L1105.86 258.398L1105.09 259.426C1103.17 261.611 1101.37 264.181 1099.82 266.88L1066.28 314.943L1030.16 275.619C1038.26 296.823 1044.69 318.798 1049.31 341.416L1059.98 346.942L1080.67 306.076L1091.34 284.871C1095.33 278.06 1099.31 271.249 1103.42 264.438C1100.47 271.763 1097.38 279.088 1094.17 286.285L1083.5 307.361L1062.16 349.641L1061.39 351.055L1059.98 350.284L1019.36 329.465L999.057 319.055C992.502 315.2 985.947 311.345 979.521 307.232C979.907 307.361 980.292 307.489 980.678 307.746C974.251 300.164 967.825 292.968 964.226 289.883C954.586 281.787 936.335 275.49 930.551 273.177C924.768 270.864 907.159 261.868 903.303 263.41C899.447 264.952 901.375 267.651 903.689 269.193C906.003 270.735 913.971 277.161 912.814 277.546C911.658 277.932 910.244 277.161 910.244 277.161C910.244 277.161 877.726 267.779 871.942 267.265C860.632 266.494 853.948 271.378 859.989 274.333C862.431 275.619 872.842 282.173 872.842 282.173C872.842 282.173 846.365 275.105 839.553 282.301C835.312 286.928 841.481 290.14 851.121 290.654C861.146 291.297 897.776 308.518 920.526 318.156C933.765 323.81 952.016 340.645 964.997 353.882V354.011C972.837 362.364 981.063 370.203 989.803 377.528C998.158 385.239 1007.15 392.178 1016.67 398.347C1026.18 404.387 1036.46 409.399 1047.38 411.969C1058.18 414.668 1069.88 414.539 1080.03 410.041C1085.17 407.857 1089.93 405.03 1094.43 401.56C1098.92 398.218 1103.17 394.492 1107.15 390.508C1111.13 386.524 1114.99 382.283 1118.59 377.914C1122.19 373.544 1125.66 369.046 1128.87 364.42C1135.43 355.167 1141.6 345.529 1147.25 335.633C1153.42 325.995 1159.08 316.1 1164.47 306.076C1162.42 311.345 1160.1 316.614 1157.66 321.883C1155.22 327.023 1152.78 332.164 1150.08 337.304C1144.42 347.199 1138.25 356.966 1131.57 366.348C1128.23 370.974 1124.76 375.6 1121.03 380.098C1117.43 384.596 1113.45 388.837 1109.46 392.949C1105.48 397.062 1100.98 400.917 1096.35 404.387C1095.71 404.773 1095.2 405.287 1094.55 405.672C1094.55 405.929 1094.55 406.058 1094.55 406.315C1094.55 508.867 1093.4 685.313 1099.57 742.372C1101.24 758.179 1095.07 780.283 1060.11 793.262C1036.07 802.258 1041.47 828.732 1041.47 828.732L1059.59 828.603V828.732C1058.05 821.278 1058.57 813.31 1061.91 806.242C1063.58 802.772 1066.02 799.559 1069.11 796.989C1070.65 795.704 1072.32 794.547 1073.99 793.648C1075.66 792.62 1077.59 791.849 1079.26 791.206C1086.2 788.636 1092.88 785.038 1098.67 780.668C1101.62 778.355 1104.32 775.913 1106.64 773.086C1108.95 770.259 1111.01 767.174 1112.55 763.962C1115.63 757.408 1116.79 749.954 1116.02 742.757C1115.25 735.175 1114.48 727.722 1113.83 720.139C1112.42 705.104 1111.13 689.939 1109.98 674.903C1107.54 644.703 1105.22 614.503 1103.04 584.303C1102.01 569.267 1100.85 554.103 1099.95 539.067C1099.44 523.903 1098.92 508.738 1098.54 493.702L1103.04 538.938L1106.25 584.174C1108.43 614.375 1110.75 644.575 1113.19 674.646C1114.48 689.682 1115.76 704.847 1117.05 719.882C1117.69 727.465 1118.46 734.918 1119.23 742.5C1120.13 750.34 1118.85 758.307 1115.5 765.504C1113.83 769.102 1111.65 772.315 1109.21 775.399C1106.64 778.355 1103.81 781.054 1100.72 783.367C1094.55 788.122 1087.61 791.592 1080.54 794.547L1077.97 795.576C1077.07 795.833 1076.3 796.218 1075.53 796.604C1073.86 797.375 1072.32 798.274 1070.9 799.302C1067.95 801.359 1065.51 804.186 1063.71 807.399C1061.91 810.611 1060.75 814.21 1060.11 817.808C1059.47 821.535 1059.34 825.262 1059.85 829.117L1193.65 828.346L1194.42 817.937C1194.42 817.937 1196.48 516.32 1192.88 412.997C1187.22 255.185 1160.87 239.764 1124.76 248.374ZM884.281 300.935C882.996 300.55 881.711 300.036 880.554 299.522C879.269 299.008 877.983 298.622 876.698 298.237C873.999 297.337 871.428 296.309 868.858 294.767C868.215 294.381 867.572 293.867 867.058 293.225C866.416 292.582 865.901 291.94 865.644 290.783C865.259 289.755 865.516 288.47 866.03 287.57C866.544 286.671 867.187 286.028 867.829 285.514C868.472 285 869.115 284.614 869.757 284.229C870.528 283.843 871.428 283.586 872.071 283.458C873.613 283.201 875.027 283.072 876.441 283.072C882.096 283.072 887.494 283.586 893.021 284.1C898.419 284.614 903.946 285.128 909.344 285.643C912.043 285.9 914.742 286.028 917.442 286.157C918.727 286.157 920.141 286.285 921.554 286.285C922.968 286.414 924.382 286.542 925.796 286.799C931.323 287.699 936.721 289.498 941.862 291.94C946.746 294.895 951.116 298.365 954.715 302.606C950.216 299.393 945.461 296.823 940.448 294.895C935.692 292.454 930.551 290.911 925.41 290.012C924.125 289.755 922.84 289.626 921.426 289.626C920.141 289.498 918.727 289.498 917.313 289.498C914.614 289.369 911.786 289.241 909.087 288.984C903.56 288.598 898.162 287.956 892.764 287.442C887.366 286.928 881.839 286.414 876.569 286.414C875.284 286.414 873.999 286.542 872.713 286.799C872.071 286.928 871.557 287.056 871.171 287.313C870.657 287.57 870.143 287.956 869.629 288.213C869.243 288.598 868.858 288.855 868.729 289.241C868.601 289.626 868.601 289.755 868.601 290.012C868.729 290.526 869.629 291.426 870.657 292.068C872.714 293.353 875.284 294.381 877.726 295.281C879.012 295.666 880.297 296.18 881.582 296.695L883.51 297.466C884.153 297.723 884.795 297.98 885.438 298.365C890.451 300.935 894.821 304.02 899.833 306.333C894.435 304.919 889.294 302.606 884.281 300.935Z" fill="#1E2B3C"/>
<path d="M1060.11 817.809C1060.75 814.082 1061.91 810.484 1063.71 807.399C1065.51 804.186 1067.95 801.488 1070.91 799.303C1072.32 798.275 1073.99 797.375 1075.53 796.604C1076.31 796.219 1077.21 795.833 1077.98 795.576L1080.55 794.548C1087.62 791.721 1094.69 788.251 1100.73 783.368C1103.81 781.055 1106.64 778.356 1109.21 775.4C1111.65 772.444 1113.96 769.103 1115.51 765.505C1118.85 758.436 1120.13 750.34 1119.23 742.501C1118.46 735.047 1117.69 727.465 1117.05 719.883C1115.64 704.847 1114.35 689.811 1113.19 674.647C1110.75 644.447 1108.44 614.375 1106.25 584.175L1103.04 538.939L1098.67 493.703C1098.93 508.867 1099.57 524.032 1100.08 539.068C1100.98 554.232 1102.14 569.268 1103.17 584.304C1105.35 614.504 1107.67 644.704 1110.11 674.904C1111.39 689.94 1112.68 705.104 1113.96 720.14C1114.61 727.722 1115.38 735.176 1116.15 742.758C1116.92 749.955 1115.76 757.408 1112.68 763.962C1111.14 767.304 1109.08 770.26 1106.77 773.087C1104.45 775.914 1101.75 778.356 1098.8 780.669C1093.01 785.167 1086.33 788.637 1079.39 791.207C1077.72 791.849 1075.79 792.621 1074.12 793.649C1072.45 794.548 1070.78 795.705 1069.24 796.99C1066.15 799.56 1063.71 802.773 1062.04 806.243C1058.7 813.311 1058.18 821.407 1059.73 828.732C1059.34 825.262 1059.47 821.536 1060.11 817.809Z" fill="#EDCFC5"/>
<path d="M1098.92 214.709C1110.36 225.247 1128.1 224.604 1138.64 213.167L1141.98 209.569C1141.98 210.211 1142.11 210.725 1142.37 211.239C1143.65 213.681 1148.02 213.938 1152.14 211.753C1156.25 209.569 1158.43 205.842 1157.15 203.4C1156.38 201.986 1154.58 201.344 1152.52 201.472C1151.36 201.472 1150.72 200.187 1151.36 199.288C1159.2 187.979 1157.79 172.3 1147.25 162.662C1135.81 152.124 1118.07 152.767 1107.54 164.204L1098.54 173.971L1106.38 181.168L1100.85 187.208C1103.29 189.392 1106.51 190.549 1109.85 190.549C1110.75 190.549 1111.52 191.191 1111.52 192.091C1111.52 192.991 1110.88 193.762 1109.98 193.762C1109.85 193.762 1109.59 193.762 1109.46 193.762C1105.48 193.762 1101.62 192.348 1098.67 189.649L1090.44 198.517C1091.21 204.3 1094.04 210.211 1098.92 214.709Z" fill="#1E2B3C"/>
<path d="M1109.85 193.503C1110.75 193.503 1111.39 192.732 1111.39 191.833C1111.39 190.933 1110.62 190.291 1109.72 190.291C1106.38 190.419 1103.16 189.262 1100.72 186.949L1098.54 189.262C1101.49 191.961 1105.35 193.375 1109.33 193.375C1109.46 193.503 1109.59 193.503 1109.85 193.503Z" fill="#EDCFC5"/>
<path d="M136.632 206.61C137.017 206.224 137.403 205.71 137.531 205.196L139.331 209.694C144.858 224.216 161.18 231.412 175.704 225.886C181.874 223.573 186.758 219.204 189.842 213.935L185.473 202.626C183.673 203.268 181.745 203.654 179.946 203.654C177.761 203.654 175.576 203.14 173.519 202.24C172.748 201.855 172.363 200.955 172.748 200.184C173.134 199.413 174.033 199.027 174.805 199.413C177.889 200.827 181.231 200.827 184.444 199.67L181.488 191.959L191.385 188.104L186.629 175.767C181.102 161.245 164.78 154.048 150.256 159.574C137.017 164.586 129.82 178.594 132.904 192.088C133.161 193.244 132.005 194.144 130.976 193.63C129.049 192.73 127.121 192.73 125.835 193.758C123.65 195.558 124.421 199.799 127.378 203.397C130.462 206.995 134.575 208.409 136.632 206.61Z" fill="#1E2B3C"/>
<path d="M174.677 199.413C173.905 199.027 172.877 199.413 172.62 200.184C172.234 200.955 172.62 201.983 173.391 202.24C175.448 203.14 177.633 203.654 179.818 203.654C181.746 203.654 183.545 203.268 185.344 202.626L184.188 199.67C181.231 200.827 177.761 200.827 174.677 199.413Z" fill="#EDCFC5"/>
<path d="M136.889 812.413C135.861 807.015 134.061 801.489 130.462 796.991C128.663 794.807 126.35 792.879 123.779 791.594C122.494 790.951 121.08 790.437 119.795 790.052C118.381 789.666 117.096 789.409 115.81 789.024C110.669 787.61 105.913 785.04 102.186 781.441C101.029 780.285 100.001 779.128 99.1016 777.843C96.9166 774.887 95.2455 771.675 94.0888 768.076C92.4179 763.064 91.6469 757.667 91.3899 752.269C90.8758 741.474 92.4181 730.551 94.6031 719.885C95.1172 717.314 96.0168 714.744 97.045 712.302C98.0732 709.861 99.2301 707.29 100.387 704.849C101.801 701.893 103.343 698.937 105.014 695.981C106.042 694.054 107.07 692.126 108.099 690.327C113.497 680.689 119.023 671.179 124.422 661.669C135.475 642.521 146.143 623.244 156.168 603.582C176.219 564.257 193.313 523.262 205.138 480.725C205.909 478.026 206.551 475.456 207.323 472.757C208.094 470.058 208.736 467.36 209.251 464.661C210.407 459.264 211.436 453.738 212.207 448.34C213.878 437.417 215.034 426.365 215.677 415.313C215.934 409.787 215.934 404.261 216.063 398.735L215.934 390.51C215.934 387.811 215.806 384.984 215.677 382.285C215.42 371.233 214.392 360.31 213.235 349.258C214.392 371.233 214.52 393.337 212.464 415.184C211.693 426.108 210.664 437.031 208.994 447.955C208.222 453.352 207.194 458.749 206.037 464.147C205.523 466.846 204.881 469.416 204.109 472.115C203.467 474.813 202.696 477.384 201.925 480.082C190.1 522.363 173.134 563.229 153.084 602.297C143.058 621.959 132.39 641.107 121.465 660.255C115.939 669.765 110.412 679.275 105.014 688.913C102.315 693.797 99.7441 698.552 97.302 703.564C96.1452 706.005 94.86 708.576 93.8318 711.146C92.8036 713.716 91.7755 716.415 91.1329 719.242C88.9479 730.165 87.4056 741.217 87.9197 752.526C88.1767 758.181 89.0762 763.707 90.8756 769.233C92.675 774.63 95.5026 779.899 99.8726 783.883C104.114 787.867 109.641 790.309 115.168 791.594C116.581 791.979 117.995 792.108 119.152 792.365C120.437 792.622 121.723 793.136 122.879 793.65C125.321 794.678 127.378 796.349 129.177 798.276C132.776 802.26 134.833 807.401 135.989 812.67C137.146 817.939 137.66 823.465 137.403 828.991C137.917 823.336 137.789 817.81 136.889 812.413Z" fill="#EDCFC5"/>
<path d="M376.204 227.301C367.849 236.554 359.238 245.549 349.855 253.774L348.185 255.316L346.385 256.858L342.786 259.814C341.63 260.842 340.473 261.87 339.188 262.77L335.46 265.469C330.576 269.324 325.307 272.537 319.908 275.493C314.51 278.448 308.855 281.019 303.071 283.46C297.416 285.902 291.504 288.087 285.72 290.143C274.024 294.255 262.07 297.854 249.989 301.066C237.907 304.279 225.825 307.106 213.615 309.677C201.533 312.761 189.323 315.46 176.984 318.03C183.154 317.387 189.452 316.616 195.621 315.717C201.79 314.817 207.96 313.917 214.258 312.761C221.584 311.219 228.91 309.548 236.236 307.749C241.12 306.592 246.004 305.307 250.888 304.022C254.487 303.122 257.957 302.094 261.556 301.066C270.039 298.625 278.522 295.926 286.876 292.97C292.789 290.914 298.701 288.601 304.485 286.159C310.269 283.717 316.052 281.019 321.579 278.063C327.106 275.107 332.633 271.766 337.517 267.91L341.373 265.083C342.658 264.184 343.815 263.155 345.1 262.127L348.699 259.172L350.498 257.629L352.298 256.087C361.809 247.734 370.42 238.738 378.903 229.357C387.257 219.976 395.226 210.337 402.809 200.313L408.208 192.603C409.878 190.032 411.678 187.462 413.349 184.764C416.819 179.495 420.161 174.226 423.245 168.828C415.919 178.981 408.208 188.876 400.239 198.514C392.399 208.41 384.558 218.048 376.204 227.301Z" fill="#EDCFC5"/>
<path d="M1096.48 404.776C1101.11 401.306 1105.48 397.451 1109.59 393.339C1113.7 389.226 1117.56 384.985 1121.16 380.487C1124.89 376.118 1128.36 371.492 1131.7 366.737C1138.38 357.355 1144.55 347.717 1150.21 337.693C1152.91 332.553 1155.35 327.412 1157.79 322.272C1160.23 317.131 1162.54 311.862 1164.6 306.465C1159.2 316.617 1153.55 326.513 1147.38 336.022C1141.72 345.918 1135.68 355.556 1129 364.809C1125.66 369.435 1122.32 373.933 1118.72 378.303C1115.12 382.672 1111.26 386.913 1107.28 390.897C1103.29 394.881 1099.05 398.608 1094.55 401.949C1090.05 405.29 1085.3 408.246 1080.16 410.431C1070 414.928 1058.44 415.057 1047.51 412.358C1036.59 409.659 1026.3 404.776 1016.79 398.736C1007.28 392.696 998.285 385.628 989.931 377.917C981.191 370.592 972.965 362.753 965.125 354.4C968.467 359.026 972.194 363.395 975.921 367.765C979.649 372.134 983.633 376.247 987.746 380.359C996.229 388.07 1005.35 395.266 1015.12 401.435C1024.89 407.603 1035.43 412.744 1046.74 415.571C1050.21 416.471 1053.81 416.985 1057.28 417.242C1059.59 417.37 1061.78 417.499 1064.09 417.37C1070 417.113 1075.92 415.7 1081.31 413.515C1086.07 411.459 1090.44 408.888 1094.55 405.933C1095.2 405.547 1095.84 405.162 1096.48 404.776Z" fill="#EDCFC5"/>
<path d="M1000.72 316.618C994.04 313.791 987.485 310.835 980.801 308.136C980.416 308.008 980.03 307.879 979.645 307.622C986.071 311.606 992.626 315.462 999.181 319.445L1019.49 329.855L1060.1 350.674L1061.52 351.445L1062.29 350.031L1083.62 307.751L1094.29 286.675C1097.51 279.478 1100.59 272.153 1103.55 264.828C1099.43 271.511 1095.32 278.322 1091.46 285.261L1080.8 306.466L1060.1 347.332L1049.44 341.806L1021.03 327.285L1000.72 316.618Z" fill="#EDCFC5"/>
<path d="M885.436 298.11C884.794 297.725 884.151 297.468 883.508 297.211L881.58 296.44C880.295 295.926 879.01 295.54 877.725 295.026C875.154 294.126 872.712 293.227 870.655 291.813C869.627 291.171 868.727 290.271 868.599 289.757C868.47 289.5 868.599 289.372 868.728 288.986C868.856 288.729 869.242 288.343 869.627 287.958C870.013 287.572 870.527 287.315 871.169 287.058C871.555 286.801 872.069 286.673 872.712 286.544C873.869 286.287 875.154 286.287 876.568 286.159C881.837 286.159 887.364 286.673 892.762 287.187C898.161 287.701 903.687 288.215 909.085 288.729C911.785 288.986 914.612 289.114 917.311 289.243C918.725 289.243 920.01 289.371 921.424 289.371C922.71 289.5 923.995 289.629 925.408 289.757C930.678 290.528 935.691 292.199 940.446 294.64C945.459 296.568 950.215 299.138 954.713 302.351C951.114 298.11 946.744 294.64 941.86 291.685C936.848 289.243 931.449 287.444 925.794 286.544C924.38 286.287 922.966 286.159 921.553 286.03C920.139 285.902 918.725 285.902 917.44 285.902C914.741 285.773 912.042 285.645 909.342 285.388C903.944 285.002 898.546 284.36 893.019 283.846C887.621 283.331 882.095 282.689 876.439 282.817C875.025 282.817 873.611 282.946 872.069 283.203C871.298 283.331 870.527 283.588 869.756 283.974C869.113 284.36 868.47 284.745 867.828 285.259C867.185 285.773 866.542 286.416 866.028 287.315C865.514 288.215 865.257 289.5 865.643 290.528C865.9 291.556 866.542 292.327 867.057 292.97C867.699 293.612 868.213 293.998 868.856 294.512C871.426 296.183 874.126 297.082 876.696 297.982C877.982 298.367 879.267 298.881 880.552 299.267C881.837 299.781 882.994 300.295 884.279 300.68C889.42 302.351 894.562 304.664 899.96 305.821C894.819 303.765 890.449 300.68 885.436 298.11Z" fill="#EDCFC5"/>
</svg>
