<svg xmlns="http://www.w3.org/2000/svg" id="logoer" viewBox="0 0 187.05 24.83"><defs><style>.cls-1{fill:var(--ds-color-neutral-text-default);}</style></defs><title>profilveilder</title><path class="cls-1" d="M12.67.1H.5A.5.5,0,0,0,0,.6V24.33a.5.5,0,0,0,.5.5H12.67A12.37,12.37,0,0,0,12.67.1m1.19,21A8.8,8.8,0,1,1,21,14a8.8,8.8,0,0,1-7.18,7.18"/><path class="cls-1" d="M35.59,3.82a.11.11,0,0,1,.12-.12H43A4.83,4.83,0,0,1,46.6,5.26,5.23,5.23,0,0,1,48.11,9a5.12,5.12,0,0,1-1.51,3.74A4.82,4.82,0,0,1,43,14.29H38.09a.11.11,0,0,0-.12.12v6.76a.11.11,0,0,1-.12.12H35.71a.11.11,0,0,1-.12-.12Zm7.12,2H38.09c-.08,0-.12,0-.12.13V12a.11.11,0,0,0,.12.12h4.62a2.87,2.87,0,0,0,2.11-.93A3,3,0,0,0,45.73,9a3.19,3.19,0,0,0-.91-2.25A2.81,2.81,0,0,0,42.71,5.82Z"/><path class="cls-1" d="M57.31,10.52H56a2.94,2.94,0,0,0-2.4,1.11,4.05,4.05,0,0,0-.89,2.67v6.87c0,.08,0,.12-.13.12H50.49a.11.11,0,0,1-.12-.12V8.78a.11.11,0,0,1,.12-.12h1.88s.09,0,.12.12l.26,1.12c0,.15.14.16.27,0A4.38,4.38,0,0,1,56,8.4h1.27a.12.12,0,0,1,.13.12V10.4A.12.12,0,0,1,57.31,10.52Z"/><path class="cls-1" d="M71.63,15A6.75,6.75,0,0,1,70,19.75a6.66,6.66,0,0,1-9.09,0A6.78,6.78,0,0,1,59.23,15a6.78,6.78,0,0,1,1.65-4.77,5.86,5.86,0,0,1,4.54-1.79A5.92,5.92,0,0,1,70,10.19,6.8,6.8,0,0,1,71.63,15Zm-3.41,3.21a4.86,4.86,0,0,0,1-3.21,4.85,4.85,0,0,0-1-3.21,3.43,3.43,0,0,0-2.78-1.23,3.48,3.48,0,0,0-2.79,1.22,4.86,4.86,0,0,0-1,3.22,4.82,4.82,0,0,0,1,3.21,3.77,3.77,0,0,0,5.58,0Z"/><path class="cls-1" d="M81,3.82V5.7c0,.08,0,.12-.13.12H79.23a1.11,1.11,0,0,0-.85.34,1.29,1.29,0,0,0-.32.92V8.52a.12.12,0,0,0,.12.13h2.7a.12.12,0,0,1,.13.12V10.4c0,.08,0,.12-.13.12h-2.7c-.08,0-.12,0-.12.13V21.18a.11.11,0,0,1-.12.12H75.81a.12.12,0,0,1-.13-.12V10.66a.12.12,0,0,0-.12-.13H73.33a.11.11,0,0,1-.12-.12V8.78a.11.11,0,0,1,.12-.12h2.22c.08,0,.12,0,.12-.13V6.65q0-3,3.53-3h1.67C81,3.7,81,3.74,81,3.82Zm4.3,0V6.45a.12.12,0,0,1-.12.13H82.56c-.08,0-.13,0-.13-.13V3.82c0-.08,0-.12.13-.12h2.63A.11.11,0,0,1,85.31,3.82Zm-.24,5v12.4a.11.11,0,0,1-.12.12H82.8a.11.11,0,0,1-.12-.12V8.78a.11.11,0,0,1,.12-.12h2.13A.11.11,0,0,1,85.06,8.78Z"/><path class="cls-1" d="M91.08,3.82V21.18a.11.11,0,0,1-.12.12H88.83a.12.12,0,0,1-.13-.12V3.82c0-.08,0-.12.13-.12H91A.11.11,0,0,1,91.08,3.82Z"/><path class="cls-1" d="M101.48,21.3H98.31c-.06,0-.11,0-.15-.12L93.95,8.78c0-.08,0-.12.15-.12h2.26s.09,0,.13.13l3.27,10a.13.13,0,0,0,.24,0l3.31-10c0-.08.07-.12.12-.12h2.27c.11,0,.16,0,.13.12l-4.22,12.4C101.58,21.26,101.53,21.3,101.48,21.3Z"/><path class="cls-1" d="M120.11,15q0,.84-.18.84h-9.13c-.08,0-.12,0-.12.13a3.43,3.43,0,0,0,3.56,3.47,3.3,3.3,0,0,0,3.18-1.75.16.16,0,0,1,.16-.12h2.06c.09,0,.13,0,.12.12a4.75,4.75,0,0,1-2,2.86,6.12,6.12,0,0,1-3.59,1,5.49,5.49,0,0,1-4.31-1.81,6.93,6.93,0,0,1-1.6-4.78,7,7,0,0,1,1.54-4.76,5.51,5.51,0,0,1,4.41-1.79,5.4,5.4,0,0,1,4.38,1.78A7.2,7.2,0,0,1,120.11,15Zm-2.38-1.15a3.4,3.4,0,0,0-.89-2.27,3.72,3.72,0,0,0-5.21.08,3.38,3.38,0,0,0-1,2.19.11.11,0,0,0,.12.12h6.81A.11.11,0,0,0,117.73,13.83Z"/><path class="cls-1" d="M126.14,3.82V6.45c0,.08,0,.13-.13.13h-2.62c-.08,0-.12,0-.12-.13V3.82a.11.11,0,0,1,.12-.12H126C126.09,3.7,126.14,3.74,126.14,3.82Zm-.26,5v12.4a.11.11,0,0,1-.12.12h-2.13a.11.11,0,0,1-.12-.12V8.78a.11.11,0,0,1,.12-.12h2.13A.11.11,0,0,1,125.88,8.78Z"/><path class="cls-1" d="M131.9,3.82V21.18a.11.11,0,0,1-.12.12h-2.12a.12.12,0,0,1-.13-.12V3.82c0-.08,0-.12.13-.12h2.12A.11.11,0,0,1,131.9,3.82Z"/><path class="cls-1" d="M146.73,15q0,.84-.18.84h-9.14c-.08,0-.12,0-.12.13a3.43,3.43,0,0,0,3.56,3.47A3.3,3.3,0,0,0,144,17.68a.16.16,0,0,1,.16-.12h2.06c.09,0,.13,0,.12.12a4.75,4.75,0,0,1-2,2.86,6.13,6.13,0,0,1-3.59,1,5.5,5.5,0,0,1-4.31-1.81,6.94,6.94,0,0,1-1.6-4.78,7,7,0,0,1,1.54-4.76,5.51,5.51,0,0,1,4.41-1.79,5.4,5.4,0,0,1,4.38,1.78A7.2,7.2,0,0,1,146.73,15Zm-2.38-1.15a3.4,3.4,0,0,0-.89-2.27,3.72,3.72,0,0,0-5.21.08,3.39,3.39,0,0,0-1,2.19.11.11,0,0,0,.12.12h6.81A.11.11,0,0,0,144.35,13.83Z"/><path class="cls-1" d="M161.16,21.3h-1.88s-.09,0-.12-.12l-.26-1c0-.15-.13-.16-.24,0a5.94,5.94,0,0,1-3.58,1.42,5.52,5.52,0,0,1-4.33-1.81A6.89,6.89,0,0,1,149.14,15a6.87,6.87,0,0,1,1.61-4.76,5.56,5.56,0,0,1,4.33-1.81,4.89,4.89,0,0,1,2.18.51,4.74,4.74,0,0,1,1.39.91c.06.06.12.08.17.06a.12.12,0,0,0,.07-.11V3.82c0-.08,0-.12.13-.12h2.12a.11.11,0,0,1,.12.12V21.18A.11.11,0,0,1,161.16,21.3ZM151.52,15a4.87,4.87,0,0,0,1,3.21,3.38,3.38,0,0,0,2.74,1.23A3.22,3.22,0,0,0,158,18.2,5.06,5.06,0,0,0,158.9,15a5.16,5.16,0,0,0-.94-3.23,3.16,3.16,0,0,0-2.67-1.22,3.41,3.41,0,0,0-2.75,1.22A4.92,4.92,0,0,0,151.52,15Z"/><path class="cls-1" d="M176.14,15q0,.84-.18.84h-9.13c-.08,0-.12,0-.12.13a3.43,3.43,0,0,0,3.56,3.47,3.3,3.3,0,0,0,3.18-1.75.16.16,0,0,1,.16-.12h2.06c.09,0,.13,0,.12.12a4.75,4.75,0,0,1-2,2.86,6.12,6.12,0,0,1-3.59,1,5.49,5.49,0,0,1-4.31-1.81,6.93,6.93,0,0,1-1.6-4.78,7,7,0,0,1,1.54-4.76,5.51,5.51,0,0,1,4.41-1.79,5.4,5.4,0,0,1,4.38,1.78A7.2,7.2,0,0,1,176.14,15Zm-2.38-1.15a3.4,3.4,0,0,0-.89-2.27,3.72,3.72,0,0,0-5.21.08,3.38,3.38,0,0,0-1,2.19.11.11,0,0,0,.12.12h6.81A.11.11,0,0,0,173.76,13.83Z"/><path class="cls-1" d="M186.23,10.52H185a2.94,2.94,0,0,0-2.41,1.11,4,4,0,0,0-.89,2.67v6.87c0,.08,0,.12-.13.12h-2.12a.11.11,0,0,1-.12-.12V8.78a.11.11,0,0,1,.12-.12h1.88s.09,0,.12.12l.26,1.12c0,.15.14.16.27,0a4.38,4.38,0,0,1,3-1.53h1.27a.12.12,0,0,1,.13.12V10.4A.12.12,0,0,1,186.23,10.52Z"/></svg>