<svg width="94" height="21" viewBox="0 0 94 21" fill="none" xmlns="http://www.w3.org/2000/svg">
<g clip-path="url(#clip0_1656_1936)">
<path d="M10.7764 0H0.425273C0.312484 0 0.204314 0.044715 0.12456 0.124308C0.0448055 0.203901 0 0.311852 0 0.424414V20.5756C0 20.6881 0.0448055 20.7961 0.12456 20.8757C0.204314 20.9553 0.312484 21 0.425273 21H10.7764C13.5139 20.9223 16.1132 19.7824 18.022 17.8226C19.9307 15.8627 20.9986 13.2373 20.9986 10.5042C20.9986 7.77116 19.9307 5.14578 18.022 3.18592C16.1132 1.22606 13.5139 0.086189 10.7764 0.00848847V0ZM11.7886 17.8339C10.2224 18.1029 8.61114 17.8674 7.18803 17.1616C5.76491 16.4557 4.60384 15.3162 3.87294 13.9079C3.14204 12.4996 2.87924 10.8958 3.1226 9.32851C3.36596 7.76126 4.10285 6.31198 5.22657 5.19054C6.35028 4.0691 7.80249 3.3337 9.37292 3.09083C10.9433 2.84796 12.5505 3.11022 13.9616 3.83965C15.3727 4.56907 16.5146 5.7278 17.2218 7.14803C17.9291 8.56827 18.165 10.1763 17.8955 11.7393C17.6332 13.2603 16.9052 14.6629 15.8117 15.7543C14.7181 16.8456 13.3127 17.5721 11.7886 17.8339" fill="#1E2B3C"/>
</g>
<path d="M92.3207 10.8645H90.4889C90.425 10.8645 90.3824 10.8219 90.3824 10.758C90.3824 9.58646 89.4452 8.81966 87.7199 8.81966C86.1224 8.81966 85.4195 9.52256 85.4195 10.1829C85.4195 11.397 86.9531 11.4183 88.0181 11.5674C90.1481 11.8656 92.7041 12.0573 92.7041 14.7837C92.7041 17.2119 90.6806 18.213 88.0181 18.213C84.7805 18.213 83.2043 16.509 83.2043 14.4642C83.2043 14.4003 83.2469 14.3577 83.3108 14.3577H85.1C85.1639 14.3577 85.2278 14.4003 85.2278 14.4642C85.2278 15.5292 86.3141 16.4025 88.0181 16.4025C89.1044 16.4025 90.6806 16.1682 90.6806 14.7837C90.6806 13.5696 88.9127 13.4844 88.0181 13.3779C85.9733 13.1436 83.396 12.8241 83.396 10.1829C83.396 8.43626 85.0787 7.00916 87.7199 7.00916C90.3398 7.00916 92.4059 8.24456 92.4059 10.758C92.4059 10.8219 92.3846 10.8645 92.3207 10.8645Z" fill="#1E2B3C"/>
<path d="M82.0301 16.296V17.8935C82.0301 17.9574 81.9875 18 81.9236 18H80.2835C78.5156 18 77.4932 17.2332 77.4932 15.4866V8.92617C77.4932 8.86227 77.4506 8.81967 77.3867 8.81967H75.491C75.4271 8.81967 75.3845 8.77707 75.3845 8.71317V7.32867C75.3845 7.26477 75.4271 7.22217 75.491 7.22217H77.3867C77.4506 7.22217 77.4932 7.17957 77.4932 7.11567V4.24017C77.4932 4.17627 77.5358 4.13367 77.5997 4.13367H79.4102C79.4741 4.13367 79.5167 4.17627 79.5167 4.24017V7.11567C79.5167 7.17957 79.5593 7.22217 79.6232 7.22217H81.9236C81.9875 7.22217 82.0301 7.26477 82.0301 7.32867V8.71317C82.0301 8.77707 81.9875 8.81967 81.9236 8.81967H79.6232C79.5593 8.81967 79.5167 8.86227 79.5167 8.92617V15.1245C79.5167 15.7848 79.8149 16.1895 80.6669 16.1895H81.9236C81.9875 16.1895 82.0301 16.2321 82.0301 16.296Z" fill="#1E2B3C"/>
<path d="M74.4387 13.3353H66.5364C66.4725 13.3353 66.4299 13.3779 66.4299 13.4418C66.4299 14.9967 67.5588 16.4025 69.4545 16.4025C70.9668 16.4025 71.7123 15.7635 72.1596 14.9115C72.2022 14.8263 72.2448 14.805 72.3087 14.805H74.2044C74.2683 14.805 74.3322 14.8263 74.3109 14.9115C73.7571 16.9989 71.8614 18.213 69.4545 18.213C66.2595 18.213 64.2786 15.9339 64.2786 12.6111C64.2786 9.26696 66.153 7.00916 69.4545 7.00916C72.7773 7.00916 74.6517 9.28826 74.6517 12.6111C74.6517 12.8241 74.5878 13.0584 74.5452 13.2288C74.5239 13.2927 74.5026 13.3353 74.4387 13.3353ZM72.4365 11.6313C72.4365 10.4172 71.5632 8.81966 69.4545 8.81966C67.3884 8.81966 66.4299 10.6302 66.4299 11.6313C66.4299 11.6952 66.4938 11.7378 66.5364 11.7378H72.33C72.3939 11.7378 72.4365 11.6952 72.4365 11.6313Z" fill="#1E2B3C"/>
<path d="M62.3466 10.8645H60.5148C60.4509 10.8645 60.4083 10.8219 60.4083 10.758C60.4083 9.58646 59.4711 8.81966 57.7458 8.81966C56.1483 8.81966 55.4454 9.52256 55.4454 10.1829C55.4454 11.397 56.979 11.4183 58.044 11.5674C60.174 11.8656 62.73 12.0573 62.73 14.7837C62.73 17.2119 60.7065 18.213 58.044 18.213C54.8064 18.213 53.2302 16.509 53.2302 14.4642C53.2302 14.4003 53.2728 14.3577 53.3367 14.3577H55.1259C55.1898 14.3577 55.2537 14.4003 55.2537 14.4642C55.2537 15.5292 56.34 16.4025 58.044 16.4025C59.1303 16.4025 60.7065 16.1682 60.7065 14.7837C60.7065 13.5696 58.9386 13.4844 58.044 13.3779C55.9992 13.1436 53.4219 12.8241 53.4219 10.1829C53.4219 8.43626 55.1046 7.00916 57.7458 7.00916C60.3657 7.00916 62.4318 8.24456 62.4318 10.758C62.4318 10.8219 62.4105 10.8645 62.3466 10.8645Z" fill="#1E2B3C"/>
<path d="M51.4262 10.8645H49.5944C49.5305 10.8645 49.4879 10.8219 49.4879 10.758C49.4879 9.58646 48.5507 8.81966 46.8254 8.81966C45.2279 8.81966 44.525 9.52256 44.525 10.1829C44.525 11.397 46.0586 11.4183 47.1236 11.5674C49.2536 11.8656 51.8096 12.0573 51.8096 14.7837C51.8096 17.2119 49.7861 18.213 47.1236 18.213C43.886 18.213 42.3098 16.509 42.3098 14.4642C42.3098 14.4003 42.3524 14.3577 42.4163 14.3577H44.2055C44.2694 14.3577 44.3333 14.4003 44.3333 14.4642C44.3333 15.5292 45.4196 16.4025 47.1236 16.4025C48.2099 16.4025 49.7861 16.1682 49.7861 14.7837C49.7861 13.5696 48.0182 13.4844 47.1236 13.3779C45.0788 13.1436 42.5015 12.8241 42.5015 10.1829C42.5015 8.43626 44.1842 7.00916 46.8254 7.00916C49.4453 7.00916 51.5114 8.24456 51.5114 10.758C51.5114 10.8219 51.4901 10.8645 51.4262 10.8645Z" fill="#1E2B3C"/>
<path d="M33.6824 3.00476H36.3023C36.3662 3.00476 36.4088 3.04736 36.43 3.11126L41.393 17.8935C41.4142 17.9574 41.3504 18 41.2865 18H39.2843C39.2203 18 39.1991 17.9574 39.1778 17.8935L38.1979 14.8476C38.1766 14.7624 38.1128 14.7411 38.0489 14.7411H31.8719C31.808 14.7411 31.7654 14.7837 31.7441 14.8476L30.743 17.8935C30.7217 17.9574 30.7004 18 30.6365 18H28.6555C28.5916 18 28.5064 17.9787 28.5277 17.8935L33.5546 3.11126C33.5759 3.04736 33.6185 3.00476 33.6824 3.00476ZM32.4469 13.0371H37.4951C37.559 13.0371 37.6015 12.9945 37.5802 12.9306L35.0882 5.13476C35.0455 5.00696 34.9178 5.00696 34.8752 5.13476L32.3617 12.9306C32.3404 12.9945 32.383 13.0371 32.4469 13.0371Z" fill="#1E2B3C"/>
<defs>
<clipPath id="clip0_1656_1936">
<rect width="21" height="21" fill="white"/>
</clipPath>
</defs>
</svg>
